<svg width="95" height="32" viewBox="0 0 95 32" fill="none" xmlns="http://www.w3.org/2000/svg">
<g clip-path="url(#clip0_1_114)">
<path d="M90 0H31V32H90C92.7614 32 95 29.7614 95 27V5C95 2.23858 92.7614 0 90 0Z" fill="#0F1418"/>
<rect width="32" height="32" fill="black"/>
<mask id="mask0_1_114" style="mask-type:luminance" maskUnits="userSpaceOnUse" x="6" y="3" width="22" height="26">
<path d="M11 21H22V23H11C10.7348 23 10.4804 22.8946 10.2929 22.7071C10.1054 22.5196 10 22.2652 10 22C10 21.7348 10.1054 21.4804 10.2929 21.2929C10.4804 21.1054 10.7348 21 11 21Z" fill="url(#paint0_linear_1_114)"/>
<path d="M18 17H7C6.73478 17 6.48043 16.8946 6.29289 16.7071C6.10536 16.5196 6 16.2652 6 16C6 15.7348 6.10536 15.4804 6.29289 15.2929C6.48043 15.1054 6.73478 15 7 15H18V17Z" fill="url(#paint1_linear_1_114)"/>
<path d="M15 27H28V29H15C14.7348 29 14.4804 28.8946 14.2929 28.7071C14.1054 28.5196 14 28.2652 14 28C14 27.7348 14.1054 27.4804 14.2929 27.2929C14.4804 27.1054 14.7348 27 15 27Z" fill="url(#paint2_linear_1_114)"/>
<path d="M15 3H28V5H15C14.7348 5 14.4804 4.89464 14.2929 4.70711C14.1054 4.51957 14 4.26522 14 4C14 3.73478 14.1054 3.48043 14.2929 3.29289C14.4804 3.10536 14.7348 3 15 3Z" fill="url(#paint3_linear_1_114)"/>
<path d="M22 11H11C10.7348 11 10.4804 10.8946 10.2929 10.7071C10.1054 10.5196 10 10.2652 10 10C10 9.73478 10.1054 9.48043 10.2929 9.29289C10.4804 9.10536 10.7348 9 11 9H22V11Z" fill="url(#paint4_linear_1_114)"/>
</mask>
<g mask="url(#mask0_1_114)">
<path d="M0 0H32V32H0V0Z" fill="url(#paint5_linear_1_114)"/>
</g>
<path d="M10 4C10 4.55228 10.4477 5 11 5C11.5523 5 12 4.55228 12 4C12 3.44772 11.5523 3 11 3C10.4477 3 10 3.44772 10 4Z" fill="#F4F4F4"/>
<path d="M10 28C10 28.5523 10.4477 29 11 29C11.5523 29 12 28.5523 12 28C12 27.4477 11.5523 27 11 27C10.4477 27 10 27.4477 10 28Z" fill="#F4F4F4"/>
<path d="M6 22C6 22.5523 6.44772 23 7 23C7.55228 23 8 22.5523 8 22C8 21.4477 7.55228 21 7 21C6.44772 21 6 21.4477 6 22Z" fill="#F4F4F4"/>
<path d="M2 16C2 16.5523 2.44772 17 3 17C3.55228 17 4 16.5523 4 16C4 15.4477 3.55228 15 3 15C2.44772 15 2 15.4477 2 16Z" fill="#F4F4F4"/>
<path d="M6 9.99699C6 10.5493 6.44772 10.997 7 10.997C7.55228 10.997 8 10.5493 8 9.99699C8 9.44471 7.55228 8.99699 7 8.99699C6.44772 8.99699 6 9.44471 6 9.99699Z" fill="#F4F4F4"/>
<path d="M40.3076 20.18C38.9076 20.18 37.8676 19.71 37.1876 18.77C36.5176 17.82 36.1826 16.485 36.1826 14.765C36.1826 13.045 36.5176 11.715 37.1876 10.775C37.8676 9.825 38.9076 9.35 40.3076 9.35C40.8476 9.35 41.3226 9.425 41.7326 9.575C42.1526 9.715 42.5126 9.915 42.8126 10.175C43.1126 10.435 43.3576 10.75 43.5476 11.12C43.7476 11.49 43.9026 11.905 44.0126 12.365L41.9126 12.875C41.8526 12.625 41.7826 12.395 41.7026 12.185C41.6226 11.975 41.5176 11.795 41.3876 11.645C41.2676 11.495 41.1126 11.38 40.9226 11.3C40.7426 11.21 40.5226 11.165 40.2626 11.165C39.6526 11.165 39.2176 11.405 38.9576 11.885C38.7076 12.355 38.5826 13.01 38.5826 13.85V15.68C38.5826 16.52 38.7076 17.18 38.9576 17.66C39.2176 18.13 39.6526 18.365 40.2626 18.365C40.7826 18.365 41.1576 18.205 41.3876 17.885C41.6276 17.565 41.8026 17.155 41.9126 16.655L44.0126 17.165C43.9026 17.625 43.7476 18.04 43.5476 18.41C43.3576 18.78 43.1126 19.1 42.8126 19.37C42.5126 19.63 42.1526 19.83 41.7326 19.97C41.3226 20.11 40.8476 20.18 40.3076 20.18ZM49.2417 20.18C48.6417 20.18 48.1017 20.09 47.6217 19.91C47.1417 19.72 46.7317 19.45 46.3917 19.1C46.0617 18.75 45.8067 18.325 45.6267 17.825C45.4467 17.325 45.3567 16.76 45.3567 16.13C45.3567 15.5 45.4467 14.935 45.6267 14.435C45.8067 13.935 46.0617 13.51 46.3917 13.16C46.7317 12.81 47.1417 12.545 47.6217 12.365C48.1017 12.175 48.6417 12.08 49.2417 12.08C49.8417 12.08 50.3817 12.175 50.8617 12.365C51.3417 12.545 51.7467 12.81 52.0767 13.16C52.4167 13.51 52.6767 13.935 52.8567 14.435C53.0367 14.935 53.1267 15.5 53.1267 16.13C53.1267 16.76 53.0367 17.325 52.8567 17.825C52.6767 18.325 52.4167 18.75 52.0767 19.1C51.7467 19.45 51.3417 19.72 50.8617 19.91C50.3817 20.09 49.8417 20.18 49.2417 20.18ZM49.2417 18.53C49.7417 18.53 50.1317 18.375 50.4117 18.065C50.6917 17.755 50.8317 17.315 50.8317 16.745V15.515C50.8317 14.945 50.6917 14.505 50.4117 14.195C50.1317 13.885 49.7417 13.73 49.2417 13.73C48.7417 13.73 48.3517 13.885 48.0717 14.195C47.7917 14.505 47.6517 14.945 47.6517 15.515V16.745C47.6517 17.315 47.7917 17.755 48.0717 18.065C48.3517 18.375 48.7417 18.53 49.2417 18.53ZM62.6609 20.78C62.6609 21.6 62.3159 22.205 61.6259 22.595C60.9359 22.985 59.8509 23.18 58.3709 23.18C57.6309 23.18 57.0209 23.135 56.5409 23.045C56.0609 22.965 55.6759 22.845 55.3859 22.685C55.1059 22.525 54.9059 22.335 54.7859 22.115C54.6759 21.895 54.6209 21.655 54.6209 21.395C54.6209 20.955 54.7509 20.62 55.0109 20.39C55.2709 20.17 55.6359 20 56.1059 19.88V19.79C55.7759 19.69 55.5109 19.55 55.3109 19.37C55.1209 19.18 55.0259 18.915 55.0259 18.575C55.0259 18.195 55.1509 17.915 55.4009 17.735C55.6609 17.555 56.0009 17.415 56.4209 17.315V17.225C55.9609 17.005 55.6009 16.695 55.3409 16.295C55.0909 15.895 54.9659 15.41 54.9659 14.84C54.9659 14.39 55.0459 13.995 55.2059 13.655C55.3659 13.305 55.5909 13.015 55.8809 12.785C56.1809 12.555 56.5359 12.38 56.9459 12.26C57.3559 12.14 57.8159 12.08 58.3259 12.08C58.8159 12.08 59.2709 12.135 59.6909 12.245V11.825C59.6909 11.525 59.7959 11.275 60.0059 11.075C60.2159 10.875 60.5059 10.775 60.8759 10.775H62.2409V12.395H60.3809V12.53C60.8009 12.75 61.1259 13.055 61.3559 13.445C61.5959 13.825 61.7159 14.29 61.7159 14.84C61.7159 15.29 61.6359 15.685 61.4759 16.025C61.3159 16.365 61.0859 16.655 60.7859 16.895C60.4859 17.125 60.1259 17.3 59.7059 17.42C59.2959 17.54 58.8359 17.6 58.3259 17.6C58.0959 17.6 57.8759 17.59 57.6659 17.57C57.4559 17.54 57.2559 17.5 57.0659 17.45C56.9559 17.51 56.8609 17.585 56.7809 17.675C56.7109 17.765 56.6759 17.88 56.6759 18.02C56.6759 18.14 56.7059 18.235 56.7659 18.305C56.8259 18.375 56.9059 18.43 57.0059 18.47C57.1159 18.5 57.2409 18.52 57.3809 18.53C57.5209 18.54 57.6659 18.545 57.8159 18.545H59.5859C60.1359 18.545 60.6059 18.6 60.9959 18.71C61.3859 18.82 61.7059 18.975 61.9559 19.175C62.2059 19.375 62.3859 19.61 62.4959 19.88C62.6059 20.15 62.6609 20.45 62.6609 20.78ZM60.5609 20.945C60.5609 20.745 60.4809 20.585 60.3209 20.465C60.1609 20.355 59.8559 20.3 59.4059 20.3H56.7509C56.5509 20.47 56.4509 20.68 56.4509 20.93C56.4509 21.17 56.5509 21.365 56.7509 21.515C56.9609 21.675 57.3109 21.755 57.8009 21.755H59.1059C59.6159 21.755 59.9859 21.685 60.2159 21.545C60.4459 21.405 60.5609 21.205 60.5609 20.945ZM58.3259 16.19C58.7759 16.19 59.1009 16.08 59.3009 15.86C59.5109 15.64 59.6159 15.36 59.6159 15.02V14.66C59.6159 14.32 59.5109 14.04 59.3009 13.82C59.1009 13.6 58.7759 13.49 58.3259 13.49C57.8859 13.49 57.5659 13.6 57.3659 13.82C57.1659 14.04 57.0659 14.32 57.0659 14.66V15.02C57.0659 15.36 57.1659 15.64 57.3659 15.86C57.5659 16.08 57.8859 16.19 58.3259 16.19ZM64.065 20V12.26H66.285V13.67H66.375C66.465 13.45 66.575 13.245 66.705 13.055C66.835 12.865 66.99 12.7 67.17 12.56C67.36 12.41 67.575 12.295 67.815 12.215C68.065 12.125 68.345 12.08 68.655 12.08C69.025 12.08 69.365 12.145 69.675 12.275C69.985 12.395 70.25 12.58 70.47 12.83C70.69 13.08 70.86 13.385 70.98 13.745C71.11 14.105 71.175 14.52 71.175 14.99V20H68.955V15.29C68.955 14.29 68.52 13.79 67.65 13.79C67.48 13.79 67.31 13.815 67.14 13.865C66.98 13.905 66.835 13.975 66.705 14.075C66.575 14.165 66.47 14.28 66.39 14.42C66.32 14.56 66.285 14.725 66.285 14.915V20H64.065ZM76.7641 20.18C76.1641 20.18 75.6241 20.09 75.1441 19.91C74.6641 19.72 74.2541 19.45 73.9141 19.1C73.5841 18.75 73.3291 18.325 73.1491 17.825C72.9691 17.325 72.8791 16.76 72.8791 16.13C72.8791 15.5 72.9691 14.935 73.1491 14.435C73.3291 13.935 73.5841 13.51 73.9141 13.16C74.2541 12.81 74.6641 12.545 75.1441 12.365C75.6241 12.175 76.1641 12.08 76.7641 12.08C77.3641 12.08 77.9041 12.175 78.3841 12.365C78.8641 12.545 79.2691 12.81 79.5991 13.16C79.9391 13.51 80.1991 13.935 80.3791 14.435C80.5591 14.935 80.6491 15.5 80.6491 16.13C80.6491 16.76 80.5591 17.325 80.3791 17.825C80.1991 18.325 79.9391 18.75 79.5991 19.1C79.2691 19.45 78.8641 19.72 78.3841 19.91C77.9041 20.09 77.3641 20.18 76.7641 20.18ZM76.7641 18.53C77.2641 18.53 77.6541 18.375 77.9341 18.065C78.2141 17.755 78.3541 17.315 78.3541 16.745V15.515C78.3541 14.945 78.2141 14.505 77.9341 14.195C77.6541 13.885 77.2641 13.73 76.7641 13.73C76.2641 13.73 75.8741 13.885 75.5941 14.195C75.3141 14.505 75.1741 14.945 75.1741 15.515V16.745C75.1741 17.315 75.3141 17.755 75.5941 18.065C75.8741 18.375 76.2641 18.53 76.7641 18.53ZM85.8483 20.18C84.9883 20.18 84.2383 20.05 83.5983 19.79C82.9683 19.53 82.4933 19.175 82.1733 18.725L83.4183 17.57C83.7183 17.9 84.0683 18.16 84.4683 18.35C84.8783 18.53 85.3433 18.62 85.8633 18.62C86.3033 18.62 86.6483 18.555 86.8983 18.425C87.1483 18.285 87.2733 18.075 87.2733 17.795C87.2733 17.575 87.1883 17.425 87.0183 17.345C86.8483 17.255 86.6133 17.185 86.3133 17.135L85.0683 16.94C84.7183 16.89 84.3933 16.815 84.0933 16.715C83.7933 16.605 83.5333 16.46 83.3133 16.28C83.0933 16.1 82.9183 15.88 82.7883 15.62C82.6583 15.36 82.5933 15.045 82.5933 14.675C82.5933 13.865 82.9033 13.23 83.5233 12.77C84.1433 12.31 85.0133 12.08 86.1333 12.08C86.8933 12.08 87.5383 12.185 88.0683 12.395C88.6083 12.595 89.0383 12.885 89.3583 13.265L88.2483 14.525C88.0183 14.275 87.7233 14.065 87.3633 13.895C87.0033 13.725 86.5683 13.64 86.0583 13.64C85.1983 13.64 84.7683 13.9 84.7683 14.42C84.7683 14.65 84.8533 14.81 85.0233 14.9C85.1933 14.98 85.4283 15.045 85.7283 15.095L86.9583 15.29C87.3083 15.34 87.6333 15.42 87.9333 15.53C88.2333 15.63 88.4933 15.77 88.7133 15.95C88.9433 16.13 89.1233 16.35 89.2533 16.61C89.3833 16.87 89.4483 17.185 89.4483 17.555C89.4483 18.365 89.1333 19.005 88.5033 19.475C87.8833 19.945 86.9983 20.18 85.8483 20.18Z" fill="white"/>
<path d="M90 0H5C2.23858 0 0 2.23858 0 5V27C0 29.7614 2.23857 32 5 32H90C92.7614 32 95 29.7614 95 27V5C95 2.23858 92.7614 0 90 0Z" fill="url(#paint6_linear_1_114)"/>
</g>
<defs>
<linearGradient id="paint0_linear_1_114" x1="10" y1="22.002" x2="22" y2="22.002" gradientUnits="userSpaceOnUse">
<stop offset="0.4" stop-color="white"/>
<stop offset="1"/>
</linearGradient>
<linearGradient id="paint1_linear_1_114" x1="6" y1="16" x2="18" y2="16" gradientUnits="userSpaceOnUse">
<stop offset="0.4" stop-color="white"/>
<stop offset="1"/>
</linearGradient>
<linearGradient id="paint2_linear_1_114" x1="14" y1="28" x2="28" y2="28" gradientUnits="userSpaceOnUse">
<stop offset="0.4" stop-color="white"/>
<stop offset="1"/>
</linearGradient>
<linearGradient id="paint3_linear_1_114" x1="14" y1="4" x2="28" y2="4" gradientUnits="userSpaceOnUse">
<stop offset="0.4" stop-color="white"/>
<stop offset="1"/>
</linearGradient>
<linearGradient id="paint4_linear_1_114" x1="10" y1="9.998" x2="22" y2="9.998" gradientUnits="userSpaceOnUse">
<stop offset="0.4" stop-color="white"/>
<stop offset="1"/>
</linearGradient>
<linearGradient id="paint5_linear_1_114" x1="0" y1="32" x2="32" y2="0" gradientUnits="userSpaceOnUse">
<stop offset="0.1" stop-color="#3DDBD9"/>
<stop offset="0.9" stop-color="#4589FF"/>
</linearGradient>
<linearGradient id="paint6_linear_1_114" x1="0" y1="0" x2="0" y2="32" gradientUnits="userSpaceOnUse">
<stop stop-color="#BBBBBB" stop-opacity="0.1"/>
<stop offset="1" stop-opacity="0.1"/>
</linearGradient>
<clipPath id="clip0_1_114">
<rect width="95" height="32" rx="5" fill="white"/>
</clipPath>
</defs>
</svg>
