<svg width="81" height="32" viewBox="0 0 81 32" fill="none" xmlns="http://www.w3.org/2000/svg">
<g clip-path="url(#clip0_1_3)">
<path d="M76 0H31V32H76C78.7614 32 81 29.7614 81 27V5C81 2.23858 78.7614 0 76 0Z" fill="#0F1418"/>
<g clip-path="url(#clip1_1_3)">
<rect width="32" height="32" fill="black"/>
<mask id="mask0_1_3" style="mask-type:luminance" maskUnits="userSpaceOnUse" x="10" y="10" width="12" height="20">
<path d="M11 16.125H21V17.875H11V16.125ZM11 22.125H21V23.875H11V22.125Z" fill="white"/>
<path d="M11 15H19V19H11V15Z" fill="url(#paint0_linear_1_3)"/>
<path d="M21 25H13V21H21V25Z" fill="url(#paint1_linear_1_3)"/>
<path d="M16 11.75C17.1268 11.7513 18.207 12.1995 19.0037 12.9963C19.8005 13.793 20.2487 14.8732 20.25 16V24C20.25 25.1272 19.8022 26.2082 19.0052 27.0052C18.2082 27.8022 17.1272 28.25 16 28.25C14.8728 28.25 13.7918 27.8022 12.9948 27.0052C12.1978 26.2082 11.75 25.1272 11.75 24V16C11.7513 14.8732 12.1995 13.793 12.9963 12.9963C13.793 12.1995 14.8732 11.7513 16 11.75ZM16 10C14.4087 10 12.8826 10.6321 11.7574 11.7574C10.6321 12.8826 10 14.4087 10 16V24C10 25.5913 10.6321 27.1174 11.7574 28.2426C12.8826 29.3679 14.4087 30 16 30C17.5913 30 19.1174 29.3679 20.2426 28.2426C21.3679 27.1174 22 25.5913 22 24V16C22 14.4087 21.3679 12.8826 20.2426 11.7574C19.1174 10.6321 17.5913 10 16 10Z" fill="white"/>
</mask>
<g mask="url(#mask0_1_3)">
<path d="M0 0H32V32H0V0Z" fill="url(#paint2_linear_1_3)"/>
</g>
<path d="M30.66 19.21L24 13V22.1C24 23.1609 24.4214 24.1783 25.1716 24.9284C25.9217 25.6786 26.9391 26.1 28 26.1C29.0609 26.1 30.0783 25.6786 30.8284 24.9284C31.5786 24.1783 32 23.1609 32 22.1C31.997 21.5504 31.8758 21.0078 31.6446 20.5091C31.4134 20.0105 31.0776 19.5674 30.66 19.21ZM28 24.35C27.4033 24.35 26.831 24.1129 26.409 23.691C25.9871 23.269 25.75 22.6967 25.75 22.1V17L29.47 20.47C29.6977 20.6614 29.881 20.9001 30.0071 21.1695C30.1331 21.4389 30.199 21.7326 30.2 22.03C30.2093 22.3253 30.1604 22.6195 30.056 22.8959C29.9516 23.1723 29.7937 23.4254 29.5915 23.6408C29.3892 23.8561 29.1465 24.0295 28.8772 24.151C28.6079 24.2725 28.3173 24.3398 28.022 24.349L28 24.35ZM0 22.1C0 23.1609 0.421427 24.1783 1.17157 24.9284C1.92172 25.6786 2.93913 26.1 4 26.1C5.06087 26.1 6.07828 25.6786 6.82843 24.9284C7.57857 24.1783 8 23.1609 8 22.1V13L1.34 19.21C0.923956 19.5687 0.589222 20.012 0.358147 20.5104C0.127071 21.0088 0.00497189 21.5507 0 22.1ZM2.48 20.54L6.25 17V22.1C6.25 22.6967 6.01295 23.269 5.59099 23.691C5.16903 24.1129 4.59674 24.35 4 24.35C3.40326 24.35 2.83097 24.1129 2.40901 23.691C1.98705 23.269 1.75 22.6967 1.75 22.1C1.75196 21.8027 1.81822 21.5094 1.94423 21.2401C2.07024 20.9708 2.25301 20.732 2.48 20.54ZM15 5.5C15 4.80777 14.7947 4.13108 14.4101 3.55551C14.0256 2.97993 13.4789 2.53133 12.8394 2.26642C12.1999 2.00152 11.4961 1.9322 10.8172 2.06725C10.1382 2.2023 9.51461 2.53564 9.02513 3.02513C8.53564 3.51461 8.2023 4.13825 8.06725 4.81719C7.9322 5.49612 8.00151 6.19985 8.26642 6.83939C8.53133 7.47894 8.97993 8.02556 9.5555 8.41015C10.1311 8.79473 10.8078 9 11.5 9C12.4283 9 13.3185 8.63125 13.9749 7.97487C14.6313 7.3185 15 6.42826 15 5.5ZM9.75 5.5C9.75 5.15388 9.85264 4.81554 10.0449 4.52775C10.2372 4.23997 10.5105 4.01567 10.8303 3.88321C11.1501 3.75076 11.5019 3.7161 11.8414 3.78363C12.1809 3.85115 12.4927 4.01782 12.7374 4.26256C12.9822 4.50731 13.1489 4.81913 13.2164 5.15859C13.2839 5.49806 13.2492 5.84993 13.1168 6.1697C12.9843 6.48947 12.76 6.76278 12.4722 6.95507C12.1845 7.14737 11.8461 7.25 11.5 7.25C11.036 7.24974 10.591 7.06528 10.2629 6.73715C9.93472 6.40901 9.75026 5.96405 9.75 5.5ZM20.5 2C19.8078 2 19.1311 2.20527 18.5555 2.58986C17.9799 2.97444 17.5313 3.52107 17.2664 4.16061C17.0015 4.80015 16.9322 5.50388 17.0673 6.18282C17.2023 6.86175 17.5356 7.48539 18.0251 7.97487C18.5146 8.46436 19.1383 8.7977 19.8172 8.93275C20.4961 9.0678 21.1999 8.99849 21.8394 8.73358C22.4789 8.46867 23.0256 8.02007 23.4101 7.4445C23.7947 6.86893 24 6.19224 24 5.5C24 4.57174 23.6313 3.68151 22.9749 3.02513C22.3185 2.36875 21.4283 2 20.5 2ZM20.5 7.25C20.1539 7.25 19.8155 7.14737 19.5278 6.95507C19.24 6.76278 19.0157 6.48947 18.8832 6.1697C18.7508 5.84993 18.7161 5.49806 18.7836 5.15859C18.8512 4.81913 19.0178 4.50731 19.2626 4.26256C19.5073 4.01782 19.8191 3.85115 20.1586 3.78363C20.4981 3.7161 20.8499 3.75076 21.1697 3.88321C21.4895 4.01567 21.7628 4.23997 21.9551 4.52775C22.1474 4.81554 22.25 5.15388 22.25 5.5C22.2497 5.96405 22.0653 6.40901 21.7371 6.73715C21.409 7.06528 20.964 7.24974 20.5 7.25Z" fill="#F4F4F4"/>
</g>
<path d="M43.4538 21V19.335H45.7038V12.195H43.4538V10.53H50.2038V12.195H47.9538V19.335H50.2038V21H43.4538ZM52.6579 10.53H56.3329C57.3629 10.53 58.1479 10.78 58.6879 11.28C59.2379 11.78 59.5129 12.46 59.5129 13.32C59.5129 13.92 59.3629 14.4 59.0629 14.76C58.7729 15.11 58.3529 15.365 57.8029 15.525V15.615C58.4529 15.775 58.9529 16.055 59.3029 16.455C59.6629 16.855 59.8429 17.41 59.8429 18.12C59.8429 19 59.5629 19.7 59.0029 20.22C58.4529 20.74 57.6779 21 56.6779 21H52.6579V10.53ZM55.9879 19.425C56.5279 19.425 56.9229 19.335 57.1729 19.155C57.4229 18.975 57.5479 18.645 57.5479 18.165V17.73C57.5479 17.25 57.4229 16.92 57.1729 16.74C56.9229 16.56 56.5279 16.47 55.9879 16.47H54.8479V19.425H55.9879ZM55.7029 14.97C56.2329 14.97 56.6179 14.885 56.8579 14.715C57.0979 14.535 57.2179 14.215 57.2179 13.755V13.305C57.2179 12.845 57.0979 12.53 56.8579 12.36C56.6179 12.19 56.2329 12.105 55.7029 12.105H54.8479V14.97H55.7029ZM67.1421 16.335L67.2621 13.41H67.1271L65.1771 18.795L63.2271 13.41H63.0921L63.2121 16.335V21H61.2621V10.53H63.9171L65.2071 14.055H65.3271L66.6171 10.53H69.0921V21H67.1421V16.335Z" fill="white"/>
<path d="M76 0H5C2.23858 0 0 2.23858 0 5V27C0 29.7614 2.23858 32 5 32H76C78.7614 32 81 29.7614 81 27V5C81 2.23858 78.7614 0 76 0Z" fill="url(#paint3_linear_1_3)"/>
</g>
<defs>
<linearGradient id="paint0_linear_1_3" x1="11" y1="17" x2="19" y2="17" gradientUnits="userSpaceOnUse">
<stop/>
<stop offset="1" stop-opacity="0"/>
</linearGradient>
<linearGradient id="paint1_linear_1_3" x1="21" y1="23" x2="13" y2="23" gradientUnits="userSpaceOnUse">
<stop/>
<stop offset="1" stop-opacity="0"/>
</linearGradient>
<linearGradient id="paint2_linear_1_3" x1="0" y1="32" x2="32" y2="0" gradientUnits="userSpaceOnUse">
<stop offset="0.1" stop-color="#3DDBD9"/>
<stop offset="0.9" stop-color="#4589FF"/>
</linearGradient>
<linearGradient id="paint3_linear_1_3" x1="0" y1="0" x2="0" y2="32" gradientUnits="userSpaceOnUse">
<stop stop-color="#BBBBBB" stop-opacity="0.1"/>
<stop offset="1" stop-opacity="0.1"/>
</linearGradient>
<clipPath id="clip0_1_3">
<rect width="81" height="32" rx="5" fill="white"/>
</clipPath>
<clipPath id="clip1_1_3">
<rect width="32" height="32" fill="white"/>
</clipPath>
</defs>
</svg>
