<svg width="110" height="32" viewBox="0 0 110 32" fill="none" xmlns="http://www.w3.org/2000/svg">
<g clip-path="url(#clip0_1_65)">
<path d="M105 0H31V32H105C107.761 32 110 29.7614 110 27V5C110 2.23858 107.761 0 105 0Z" fill="#0F1418"/>
<rect width="32" height="32" fill="black"/>
<mask id="mask0_1_65" style="mask-type:luminance" maskUnits="userSpaceOnUse" x="2" y="4" width="24" height="22">
<path d="M14 26H10C8.93913 26 7.92172 25.5786 7.17157 24.8284C6.42143 24.0783 6 23.0609 6 22V11H8V22C8 22.5304 8.21071 23.0391 8.58579 23.4142C8.96086 23.7893 9.46957 24 10 24H14V26Z" fill="white"/>
<path d="M5 11H9V19H5V11Z" fill="url(#paint0_linear_1_65)"/>
<path d="M24 4H4C3.46957 4 2.96086 4.21071 2.58579 4.58579C2.21071 4.96086 2 5.46957 2 6V10C2 10.5304 2.21071 11.0391 2.58579 11.4142C2.96086 11.7893 3.46957 12 4 12H24C24.5304 12 25.0391 11.7893 25.4142 11.4142C25.7893 11.0391 26 10.5304 26 10V6C26 5.46957 25.7893 4.96086 25.4142 4.58579C25.0391 4.21071 24.5304 4 24 4ZM24 10H4V6H24V10Z" fill="white"/>
</mask>
<g mask="url(#mask0_1_65)">
<path d="M0 0H32V32H0V0Z" fill="url(#paint1_linear_1_65)"/>
</g>
<path d="M18 18H30V20H18V18ZM18 22H30V24H18V22ZM18 26H24V28H18V26Z" fill="#F4F4F4"/>
<path d="M7 9C7.55228 9 8 8.55228 8 8C8 7.44772 7.55228 7 7 7C6.44772 7 6 7.44772 6 8C6 8.55228 6.44772 9 7 9Z" fill="#F4F4F4"/>
<path d="M44.2226 10.53H47.8976C48.9276 10.53 49.7126 10.78 50.2526 11.28C50.8026 11.78 51.0776 12.46 51.0776 13.32C51.0776 13.92 50.9276 14.4 50.6276 14.76C50.3376 15.11 49.9176 15.365 49.3676 15.525V15.615C50.0176 15.775 50.5176 16.055 50.8676 16.455C51.2276 16.855 51.4076 17.41 51.4076 18.12C51.4076 19 51.1276 19.7 50.5676 20.22C50.0176 20.74 49.2426 21 48.2426 21H44.2226V10.53ZM47.5526 19.425C48.0926 19.425 48.4876 19.335 48.7376 19.155C48.9876 18.975 49.1126 18.645 49.1126 18.165V17.73C49.1126 17.25 48.9876 16.92 48.7376 16.74C48.4876 16.56 48.0926 16.47 47.5526 16.47H46.4126V19.425H47.5526ZM47.2676 14.97C47.7976 14.97 48.1826 14.885 48.4226 14.715C48.6626 14.535 48.7826 14.215 48.7826 13.755V13.305C48.7826 12.845 48.6626 12.53 48.4226 12.36C48.1826 12.19 47.7976 12.105 47.2676 12.105H46.4126V14.97H47.2676ZM57.2217 12.27C56.7217 12.27 56.3717 12.17 56.1717 11.97C55.9817 11.76 55.8867 11.51 55.8867 11.22V10.785C55.8867 10.485 55.9817 10.235 56.1717 10.035C56.3717 9.835 56.7217 9.735 57.2217 9.735C57.7217 9.735 58.0667 9.835 58.2567 10.035C58.4567 10.235 58.5567 10.485 58.5567 10.785V11.22C58.5567 11.51 58.4567 11.76 58.2567 11.97C58.0667 12.17 57.7217 12.27 57.2217 12.27ZM53.6517 19.275H56.1117V14.985H53.6517V13.26H58.3317V19.275H60.6117V21H53.6517V19.275ZM70.1609 21.78C70.1609 22.6 69.8159 23.205 69.1259 23.595C68.4359 23.985 67.3509 24.18 65.8709 24.18C65.1309 24.18 64.5209 24.135 64.0409 24.045C63.5609 23.965 63.1759 23.845 62.8859 23.685C62.6059 23.525 62.4059 23.335 62.2859 23.115C62.1759 22.895 62.1209 22.655 62.1209 22.395C62.1209 21.955 62.2509 21.62 62.5109 21.39C62.7709 21.17 63.1359 21 63.6059 20.88V20.79C63.2759 20.69 63.0109 20.55 62.8109 20.37C62.6209 20.18 62.5259 19.915 62.5259 19.575C62.5259 19.195 62.6509 18.915 62.9009 18.735C63.1609 18.555 63.5009 18.415 63.9209 18.315V18.225C63.4609 18.005 63.1009 17.695 62.8409 17.295C62.5909 16.895 62.4659 16.41 62.4659 15.84C62.4659 15.39 62.5459 14.995 62.7059 14.655C62.8659 14.305 63.0909 14.015 63.3809 13.785C63.6809 13.555 64.0359 13.38 64.4459 13.26C64.8559 13.14 65.3159 13.08 65.8259 13.08C66.3159 13.08 66.7709 13.135 67.1909 13.245V12.825C67.1909 12.525 67.2959 12.275 67.5059 12.075C67.7159 11.875 68.0059 11.775 68.3759 11.775H69.7409V13.395H67.8809V13.53C68.3009 13.75 68.6259 14.055 68.8559 14.445C69.0959 14.825 69.2159 15.29 69.2159 15.84C69.2159 16.29 69.1359 16.685 68.9759 17.025C68.8159 17.365 68.5859 17.655 68.2859 17.895C67.9859 18.125 67.6259 18.3 67.2059 18.42C66.7959 18.54 66.3359 18.6 65.8259 18.6C65.5959 18.6 65.3759 18.59 65.1659 18.57C64.9559 18.54 64.7559 18.5 64.5659 18.45C64.4559 18.51 64.3609 18.585 64.2809 18.675C64.2109 18.765 64.1759 18.88 64.1759 19.02C64.1759 19.14 64.2059 19.235 64.2659 19.305C64.3259 19.375 64.4059 19.43 64.5059 19.47C64.6159 19.5 64.7409 19.52 64.8809 19.53C65.0209 19.54 65.1659 19.545 65.3159 19.545H67.0859C67.6359 19.545 68.1059 19.6 68.4959 19.71C68.8859 19.82 69.2059 19.975 69.4559 20.175C69.7059 20.375 69.8859 20.61 69.9959 20.88C70.1059 21.15 70.1609 21.45 70.1609 21.78ZM68.0609 21.945C68.0609 21.745 67.9809 21.585 67.8209 21.465C67.6609 21.355 67.3559 21.3 66.9059 21.3H64.2509C64.0509 21.47 63.9509 21.68 63.9509 21.93C63.9509 22.17 64.0509 22.365 64.2509 22.515C64.4609 22.675 64.8109 22.755 65.3009 22.755H66.6059C67.1159 22.755 67.4859 22.685 67.7159 22.545C67.9459 22.405 68.0609 22.205 68.0609 21.945ZM65.8259 17.19C66.2759 17.19 66.6009 17.08 66.8009 16.86C67.0109 16.64 67.1159 16.36 67.1159 16.02V15.66C67.1159 15.32 67.0109 15.04 66.8009 14.82C66.6009 14.6 66.2759 14.49 65.8259 14.49C65.3859 14.49 65.0659 14.6 64.8659 14.82C64.6659 15.04 64.5659 15.32 64.5659 15.66V16.02C64.5659 16.36 64.6659 16.64 64.8659 16.86C65.0659 17.08 65.3859 17.19 65.8259 17.19ZM74.925 21.18C74.045 21.18 73.28 21.035 72.63 20.745C71.98 20.455 71.455 20.06 71.055 19.56L72.36 18.12C72.74 18.54 73.155 18.85 73.605 19.05C74.065 19.25 74.53 19.35 75 19.35C75.54 19.35 75.95 19.23 76.23 18.99C76.51 18.75 76.65 18.405 76.65 17.955C76.65 17.585 76.54 17.305 76.32 17.115C76.11 16.925 75.75 16.79 75.24 16.71L74.145 16.53C73.205 16.37 72.525 16.025 72.105 15.495C71.685 14.955 71.475 14.3 71.475 13.53C71.475 12.52 71.805 11.74 72.465 11.19C73.125 10.63 74.05 10.35 75.24 10.35C76.05 10.35 76.755 10.475 77.355 10.725C77.955 10.975 78.44 11.315 78.81 11.745L77.535 13.17C77.255 12.86 76.925 12.62 76.545 12.45C76.165 12.27 75.735 12.18 75.255 12.18C74.245 12.18 73.74 12.595 73.74 13.425C73.74 13.785 73.85 14.055 74.07 14.235C74.3 14.415 74.67 14.55 75.18 14.64L76.275 14.835C77.125 14.985 77.78 15.305 78.24 15.795C78.7 16.285 78.93 16.945 78.93 17.775C78.93 18.265 78.845 18.72 78.675 19.14C78.505 19.55 78.25 19.91 77.91 20.22C77.57 20.52 77.15 20.755 76.65 20.925C76.16 21.095 75.585 21.18 74.925 21.18ZM87.6541 23.865H85.5241C84.7141 23.865 84.1391 23.67 83.7991 23.28C83.4591 22.89 83.2891 22.365 83.2891 21.705V21.09C82.2191 20.88 81.4291 20.32 80.9191 19.41C80.4191 18.49 80.1691 17.275 80.1691 15.765C80.1691 14.055 80.4991 12.725 81.1591 11.775C81.8291 10.825 82.8641 10.35 84.2641 10.35C85.6641 10.35 86.6941 10.825 87.3541 11.775C88.0241 12.725 88.3591 14.055 88.3591 15.765C88.3591 17.275 88.1041 18.49 87.5941 19.41C87.0941 20.32 86.3091 20.88 85.2391 21.09V22.26H87.6541V23.865ZM84.2641 19.365C84.9041 19.365 85.3441 19.13 85.5841 18.66C85.8341 18.18 85.9591 17.515 85.9591 16.665V14.85C85.9591 14.01 85.8341 13.355 85.5841 12.885C85.3441 12.405 84.9041 12.165 84.2641 12.165C83.6241 12.165 83.1791 12.405 82.9291 12.885C82.6891 13.355 82.5691 14.01 82.5691 14.85V16.68C82.5691 17.52 82.6891 18.18 82.9291 18.66C83.1791 19.13 83.6241 19.365 84.2641 19.365ZM90.3183 21V10.53H92.5833V19.155H97.0833V21H90.3183Z" fill="white"/>
<path d="M105 0H5C2.23858 0 0 2.23858 0 5V27C0 29.7614 2.23858 32 5 32H105C107.761 32 110 29.7614 110 27V5C110 2.23858 107.761 0 105 0Z" fill="url(#paint2_linear_1_65)"/>
</g>
<defs>
<linearGradient id="paint0_linear_1_65" x1="7" y1="19" x2="7" y2="11" gradientUnits="userSpaceOnUse">
<stop stop-opacity="0"/>
<stop offset="0.85"/>
</linearGradient>
<linearGradient id="paint1_linear_1_65" x1="0" y1="32" x2="32" y2="0" gradientUnits="userSpaceOnUse">
<stop offset="0.1" stop-color="#3DDBD9"/>
<stop offset="0.9" stop-color="#4589FF"/>
</linearGradient>
<linearGradient id="paint2_linear_1_65" x1="0" y1="0" x2="0" y2="32" gradientUnits="userSpaceOnUse">
<stop stop-color="#BBBBBB" stop-opacity="0.1"/>
<stop offset="1" stop-opacity="0.1"/>
</linearGradient>
<clipPath id="clip0_1_65">
<rect width="110" height="32" rx="5" fill="white"/>
</clipPath>
</defs>
</svg>
