<svg width="249" height="32" viewBox="0 0 249 32" fill="none" xmlns="http://www.w3.org/2000/svg">
<g clip-path="url(#clip0_1_246)">
<path d="M244 0H31V32H244C246.761 32 249 29.7614 249 27V5C249 2.23858 246.761 0 244 0Z" fill="#0F1418"/>
<rect width="32" height="32" fill="black"/>
<mask id="mask0_1_246" style="mask-type:luminance" maskUnits="userSpaceOnUse" x="1" y="1" width="29" height="29">
<path d="M29.707 28.293L22.448 21.034C23.4115 19.9091 24.138 18.6012 24.5837 17.1887C25.0295 15.7762 25.1854 14.2882 25.0421 12.814C24.8988 11.3398 24.4593 9.9097 23.7498 8.60949C23.0404 7.30929 22.0757 6.16575 20.9135 5.24745C19.7514 4.32916 18.4158 3.65502 16.9868 3.26547C15.5577 2.87591 14.0648 2.77897 12.5974 2.98045C11.13 3.18193 9.7184 3.67769 8.44726 4.43798C7.17613 5.19828 6.07163 6.20746 5.20001 7.405L6.80001 8.605C7.93338 7.09385 9.51348 5.9776 11.3165 5.41438C13.1195 4.85116 15.0541 4.86952 16.8461 5.46685C18.6381 6.06419 20.1967 7.21022 21.3012 8.74261C22.4057 10.275 23 12.1161 23 14.005C23 15.8939 22.4057 17.735 21.3012 19.2674C20.1967 20.7998 18.6381 21.9458 16.8461 22.5432C15.0541 23.1405 13.1195 23.1588 11.3165 22.5956C9.51348 22.0324 7.93338 20.9162 6.80001 19.405L5.20001 20.605C6.09473 21.7982 7.22299 22.7968 8.51606 23.5399C9.80912 24.283 11.2399 24.7551 12.7213 24.9274C14.2027 25.0997 15.7037 24.9687 17.1328 24.5423C18.5619 24.1158 19.8893 23.4029 21.034 22.447L28.293 29.706L29.707 28.293Z" fill="white"/>
<path d="M1.388 10.264L1.388 1.274L20.998 1.274V10.264L1.388 10.264Z" fill="url(#paint0_linear_1_246)"/>
</mask>
<g mask="url(#mask0_1_246)">
<path d="M0 0H32V32H0V0Z" fill="url(#paint1_linear_1_246)"/>
</g>
<path d="M14 12C14.3956 12 14.7822 12.1173 15.1111 12.3371C15.44 12.5568 15.6964 12.8692 15.8478 13.2346C15.9991 13.6001 16.0387 14.0022 15.9616 14.3902C15.8844 14.7781 15.6939 15.1345 15.4142 15.4142C15.1345 15.6939 14.7781 15.8844 14.3902 15.9616C14.0022 16.0387 13.6001 15.9991 13.2346 15.8478C12.8692 15.6964 12.5568 15.44 12.3371 15.1111C12.1173 14.7822 12 14.3956 12 14C12 13.4696 12.2107 12.9609 12.5858 12.5858C12.9609 12.2107 13.4696 12 14 12ZM14 10C13.2089 10 12.4355 10.2346 11.7777 10.6741C11.1199 11.1136 10.6072 11.7384 10.3045 12.4693C10.0017 13.2002 9.92252 14.0044 10.0769 14.7804C10.2312 15.5563 10.6122 16.269 11.1716 16.8284C11.731 17.3878 12.4437 17.7688 13.2196 17.9231C13.9956 18.0775 14.7998 17.9983 15.5307 17.6955C16.2616 17.3928 16.8864 16.8801 17.3259 16.2223C17.7654 15.5645 18 14.7911 18 14C18 12.9391 17.5786 11.9217 16.8284 11.1716C16.0783 10.4214 15.0609 10 14 10ZM29 12C28.6044 12 28.2178 12.1173 27.8889 12.3371C27.56 12.5568 27.3036 12.8692 27.1522 13.2346C27.0009 13.6001 26.9613 14.0022 27.0384 14.3902C27.1156 14.7781 27.3061 15.1345 27.5858 15.4142C27.8655 15.6939 28.2219 15.8844 28.6098 15.9616C28.9978 16.0387 29.3999 15.9991 29.7654 15.8478C30.1308 15.6964 30.4432 15.44 30.6629 15.1111C30.8827 14.7822 31 14.3956 31 14C31 13.4696 30.7893 12.9609 30.4142 12.5858C30.0391 12.2107 29.5304 12 29 12ZM4 12C3.60444 12 3.21776 12.1173 2.88886 12.3371C2.55996 12.5568 2.30362 12.8692 2.15224 13.2346C2.00087 13.6001 1.96126 14.0022 2.03843 14.3902C2.1156 14.7781 2.30608 15.1345 2.58579 15.4142C2.86549 15.6939 3.22186 15.8844 3.60982 15.9616C3.99778 16.0387 4.39992 15.9991 4.76537 15.8478C5.13082 15.6964 5.44318 15.44 5.66294 15.1111C5.8827 14.7822 6 14.3956 6 14C6 13.4696 5.78929 12.9609 5.41421 12.5858C5.03914 12.2107 4.53043 12 4 12Z" fill="#F4F4F4"/>
<path d="M43.3745 16.635L42.4445 17.94V21H40.1945V10.53H42.4445V14.91H42.5645L43.7045 13.17L45.5495 10.53H48.0695L44.9345 14.955L48.2195 21H45.6845L43.3745 16.635ZM49.3236 21V13.26H51.5436V14.67H51.6336C51.7236 14.45 51.8336 14.245 51.9636 14.055C52.0936 13.865 52.2486 13.7 52.4286 13.56C52.6186 13.41 52.8336 13.295 53.0736 13.215C53.3236 13.125 53.6036 13.08 53.9136 13.08C54.2836 13.08 54.6236 13.145 54.9336 13.275C55.2436 13.395 55.5086 13.58 55.7286 13.83C55.9486 14.08 56.1186 14.385 56.2386 14.745C56.3686 15.105 56.4336 15.52 56.4336 15.99V21H54.2136V16.29C54.2136 15.29 53.7786 14.79 52.9086 14.79C52.7386 14.79 52.5686 14.815 52.3986 14.865C52.2386 14.905 52.0936 14.975 51.9636 15.075C51.8336 15.165 51.7286 15.28 51.6486 15.42C51.5786 15.56 51.5436 15.725 51.5436 15.915V21H49.3236ZM62.0227 21.18C61.4227 21.18 60.8827 21.09 60.4027 20.91C59.9227 20.72 59.5127 20.45 59.1727 20.1C58.8427 19.75 58.5877 19.325 58.4077 18.825C58.2277 18.325 58.1377 17.76 58.1377 17.13C58.1377 16.5 58.2277 15.935 58.4077 15.435C58.5877 14.935 58.8427 14.51 59.1727 14.16C59.5127 13.81 59.9227 13.545 60.4027 13.365C60.8827 13.175 61.4227 13.08 62.0227 13.08C62.6227 13.08 63.1627 13.175 63.6427 13.365C64.1227 13.545 64.5277 13.81 64.8577 14.16C65.1977 14.51 65.4577 14.935 65.6377 15.435C65.8177 15.935 65.9077 16.5 65.9077 17.13C65.9077 17.76 65.8177 18.325 65.6377 18.825C65.4577 19.325 65.1977 19.75 64.8577 20.1C64.5277 20.45 64.1227 20.72 63.6427 20.91C63.1627 21.09 62.6227 21.18 62.0227 21.18ZM62.0227 19.53C62.5227 19.53 62.9127 19.375 63.1927 19.065C63.4727 18.755 63.6127 18.315 63.6127 17.745V16.515C63.6127 15.945 63.4727 15.505 63.1927 15.195C62.9127 14.885 62.5227 14.73 62.0227 14.73C61.5227 14.73 61.1327 14.885 60.8527 15.195C60.5727 15.505 60.4327 15.945 60.4327 16.515V17.745C60.4327 18.315 60.5727 18.755 60.8527 19.065C61.1327 19.375 61.5227 19.53 62.0227 19.53ZM66.8019 13.26H68.6469L69.2019 19.53H69.3519L70.2669 13.26H72.2169L73.1169 19.53H73.2669L73.8369 13.26H75.5919L74.6769 21H72.0369L71.2719 15.66H71.1219L70.3569 21H67.7169L66.8019 13.26ZM76.891 19.275H79.261V11.625H76.891V9.9H81.481V19.275H83.851V21H76.891V19.275ZM89.7552 21.18C88.4552 21.18 87.4702 20.82 86.8002 20.1C86.1302 19.38 85.7952 18.4 85.7952 17.16C85.7952 16.53 85.8802 15.965 86.0502 15.465C86.2302 14.955 86.4802 14.525 86.8002 14.175C87.1302 13.815 87.5252 13.545 87.9852 13.365C88.4552 13.175 88.9802 13.08 89.5602 13.08C90.1402 13.08 90.6602 13.175 91.1202 13.365C91.5802 13.545 91.9702 13.805 92.2902 14.145C92.6102 14.485 92.8552 14.9 93.0252 15.39C93.2052 15.87 93.2952 16.41 93.2952 17.01V17.67H88.0002V17.805C88.0002 18.305 88.1552 18.71 88.4652 19.02C88.7752 19.32 89.2302 19.47 89.8302 19.47C90.2902 19.47 90.6852 19.385 91.0152 19.215C91.3452 19.035 91.6302 18.8 91.8702 18.51L93.0702 19.815C92.7702 20.185 92.3502 20.505 91.8102 20.775C91.2702 21.045 90.5852 21.18 89.7552 21.18ZM89.5752 14.67C89.0952 14.67 88.7102 14.82 88.4202 15.12C88.1402 15.41 88.0002 15.805 88.0002 16.305V16.425H91.1202V16.305C91.1202 15.795 90.9802 15.395 90.7002 15.105C90.4302 14.815 90.0552 14.67 89.5752 14.67ZM100.114 19.59H100.009C99.8093 20.06 99.5293 20.445 99.1693 20.745C98.8193 21.035 98.3343 21.18 97.7143 21.18C97.2843 21.18 96.8893 21.1 96.5293 20.94C96.1793 20.78 95.8743 20.535 95.6143 20.205C95.3643 19.875 95.1643 19.455 95.0143 18.945C94.8743 18.435 94.8043 17.83 94.8043 17.13C94.8043 16.43 94.8743 15.825 95.0143 15.315C95.1643 14.805 95.3643 14.385 95.6143 14.055C95.8743 13.725 96.1793 13.48 96.5293 13.32C96.8893 13.16 97.2843 13.08 97.7143 13.08C98.0243 13.08 98.2993 13.12 98.5393 13.2C98.7793 13.28 98.9893 13.39 99.1693 13.53C99.3593 13.67 99.5193 13.84 99.6493 14.04C99.7893 14.23 99.9093 14.44 100.009 14.67H100.114V9.9H102.334V21H100.114V19.59ZM98.6743 19.455C99.0643 19.455 99.3993 19.36 99.6793 19.17C99.9693 18.98 100.114 18.68 100.114 18.27V15.99C100.114 15.58 99.9693 15.28 99.6793 15.09C99.3993 14.9 99.0643 14.805 98.6743 14.805C98.1743 14.805 97.7893 14.96 97.5193 15.27C97.2493 15.57 97.1143 15.99 97.1143 16.53V17.73C97.1143 18.27 97.2493 18.695 97.5193 19.005C97.7893 19.305 98.1743 19.455 98.6743 19.455ZM112.138 21.78C112.138 22.6 111.793 23.205 111.103 23.595C110.413 23.985 109.328 24.18 107.848 24.18C107.108 24.18 106.498 24.135 106.018 24.045C105.538 23.965 105.153 23.845 104.863 23.685C104.583 23.525 104.383 23.335 104.263 23.115C104.153 22.895 104.098 22.655 104.098 22.395C104.098 21.955 104.228 21.62 104.488 21.39C104.748 21.17 105.113 21 105.583 20.88V20.79C105.253 20.69 104.988 20.55 104.788 20.37C104.598 20.18 104.503 19.915 104.503 19.575C104.503 19.195 104.628 18.915 104.878 18.735C105.138 18.555 105.478 18.415 105.898 18.315V18.225C105.438 18.005 105.078 17.695 104.818 17.295C104.568 16.895 104.443 16.41 104.443 15.84C104.443 15.39 104.523 14.995 104.683 14.655C104.843 14.305 105.068 14.015 105.358 13.785C105.658 13.555 106.013 13.38 106.423 13.26C106.833 13.14 107.293 13.08 107.803 13.08C108.293 13.08 108.748 13.135 109.168 13.245V12.825C109.168 12.525 109.273 12.275 109.483 12.075C109.693 11.875 109.983 11.775 110.353 11.775H111.718V13.395H109.858V13.53C110.278 13.75 110.603 14.055 110.833 14.445C111.073 14.825 111.193 15.29 111.193 15.84C111.193 16.29 111.113 16.685 110.953 17.025C110.793 17.365 110.563 17.655 110.263 17.895C109.963 18.125 109.603 18.3 109.183 18.42C108.773 18.54 108.313 18.6 107.803 18.6C107.573 18.6 107.353 18.59 107.143 18.57C106.933 18.54 106.733 18.5 106.543 18.45C106.433 18.51 106.338 18.585 106.258 18.675C106.188 18.765 106.153 18.88 106.153 19.02C106.153 19.14 106.183 19.235 106.243 19.305C106.303 19.375 106.383 19.43 106.483 19.47C106.593 19.5 106.718 19.52 106.858 19.53C106.998 19.54 107.143 19.545 107.293 19.545H109.063C109.613 19.545 110.083 19.6 110.473 19.71C110.863 19.82 111.183 19.975 111.433 20.175C111.683 20.375 111.863 20.61 111.973 20.88C112.083 21.15 112.138 21.45 112.138 21.78ZM110.038 21.945C110.038 21.745 109.958 21.585 109.798 21.465C109.638 21.355 109.333 21.3 108.883 21.3H106.228C106.028 21.47 105.928 21.68 105.928 21.93C105.928 22.17 106.028 22.365 106.228 22.515C106.438 22.675 106.788 22.755 107.278 22.755H108.583C109.093 22.755 109.463 22.685 109.693 22.545C109.923 22.405 110.038 22.205 110.038 21.945ZM107.803 17.19C108.253 17.19 108.578 17.08 108.778 16.86C108.988 16.64 109.093 16.36 109.093 16.02V15.66C109.093 15.32 108.988 15.04 108.778 14.82C108.578 14.6 108.253 14.49 107.803 14.49C107.363 14.49 107.043 14.6 106.843 14.82C106.643 15.04 106.543 15.32 106.543 15.66V16.02C106.543 16.36 106.643 16.64 106.843 16.86C107.043 17.08 107.363 17.19 107.803 17.19ZM117.278 21.18C115.978 21.18 114.993 20.82 114.323 20.1C113.653 19.38 113.318 18.4 113.318 17.16C113.318 16.53 113.403 15.965 113.573 15.465C113.753 14.955 114.003 14.525 114.323 14.175C114.653 13.815 115.048 13.545 115.508 13.365C115.978 13.175 116.503 13.08 117.083 13.08C117.663 13.08 118.183 13.175 118.643 13.365C119.103 13.545 119.493 13.805 119.813 14.145C120.133 14.485 120.378 14.9 120.548 15.39C120.728 15.87 120.818 16.41 120.818 17.01V17.67H115.523V17.805C115.523 18.305 115.678 18.71 115.988 19.02C116.298 19.32 116.753 19.47 117.353 19.47C117.813 19.47 118.208 19.385 118.538 19.215C118.868 19.035 119.153 18.8 119.393 18.51L120.593 19.815C120.293 20.185 119.873 20.505 119.333 20.775C118.793 21.045 118.108 21.18 117.278 21.18ZM117.098 14.67C116.618 14.67 116.233 14.82 115.943 15.12C115.663 15.41 115.523 15.805 115.523 16.305V16.425H118.643V16.305C118.643 15.795 118.503 15.395 118.223 15.105C117.953 14.815 117.578 14.67 117.098 14.67ZM137.441 21L136.781 18.48H133.916L133.271 21H130.991L133.826 10.53H137.006L139.841 21H137.441ZM135.416 12.705H135.296L134.276 16.665H136.436L135.416 12.705ZM144.905 21.18C144.295 21.18 143.745 21.09 143.255 20.91C142.775 20.72 142.365 20.45 142.025 20.1C141.695 19.75 141.44 19.325 141.26 18.825C141.08 18.325 140.99 17.76 140.99 17.13C140.99 16.5 141.08 15.935 141.26 15.435C141.44 14.935 141.695 14.51 142.025 14.16C142.365 13.81 142.775 13.545 143.255 13.365C143.745 13.175 144.29 13.08 144.89 13.08C145.74 13.08 146.42 13.255 146.93 13.605C147.45 13.945 147.845 14.4 148.115 14.97L146.405 15.9C146.265 15.6 146.08 15.35 145.85 15.15C145.63 14.95 145.31 14.85 144.89 14.85C144.38 14.85 143.985 15 143.705 15.3C143.435 15.59 143.3 15.99 143.3 16.5V17.76C143.3 18.27 143.435 18.675 143.705 18.975C143.985 19.265 144.39 19.41 144.92 19.41C145.35 19.41 145.685 19.31 145.925 19.11C146.175 18.91 146.385 18.65 146.555 18.33L148.235 19.29C147.955 19.86 147.545 20.32 147.005 20.67C146.475 21.01 145.775 21.18 144.905 21.18ZM154.079 21.18C153.469 21.18 152.919 21.09 152.429 20.91C151.949 20.72 151.539 20.45 151.199 20.1C150.869 19.75 150.614 19.325 150.434 18.825C150.254 18.325 150.164 17.76 150.164 17.13C150.164 16.5 150.254 15.935 150.434 15.435C150.614 14.935 150.869 14.51 151.199 14.16C151.539 13.81 151.949 13.545 152.429 13.365C152.919 13.175 153.464 13.08 154.064 13.08C154.914 13.08 155.594 13.255 156.104 13.605C156.624 13.945 157.019 14.4 157.289 14.97L155.579 15.9C155.439 15.6 155.254 15.35 155.024 15.15C154.804 14.95 154.484 14.85 154.064 14.85C153.554 14.85 153.159 15 152.879 15.3C152.609 15.59 152.474 15.99 152.474 16.5V17.76C152.474 18.27 152.609 18.675 152.879 18.975C153.159 19.265 153.564 19.41 154.094 19.41C154.524 19.41 154.859 19.31 155.099 19.11C155.349 18.91 155.559 18.65 155.729 18.33L157.409 19.29C157.129 19.86 156.719 20.32 156.179 20.67C155.649 21.01 154.949 21.18 154.079 21.18ZM163.148 21.18C161.848 21.18 160.863 20.82 160.193 20.1C159.523 19.38 159.188 18.4 159.188 17.16C159.188 16.53 159.273 15.965 159.443 15.465C159.623 14.955 159.873 14.525 160.193 14.175C160.523 13.815 160.918 13.545 161.378 13.365C161.848 13.175 162.373 13.08 162.953 13.08C163.533 13.08 164.053 13.175 164.513 13.365C164.973 13.545 165.363 13.805 165.683 14.145C166.003 14.485 166.248 14.9 166.418 15.39C166.598 15.87 166.688 16.41 166.688 17.01V17.67H161.393V17.805C161.393 18.305 161.548 18.71 161.858 19.02C162.168 19.32 162.623 19.47 163.223 19.47C163.683 19.47 164.078 19.385 164.408 19.215C164.738 19.035 165.023 18.8 165.263 18.51L166.463 19.815C166.163 20.185 165.743 20.505 165.203 20.775C164.663 21.045 163.978 21.18 163.148 21.18ZM162.968 14.67C162.488 14.67 162.103 14.82 161.813 15.12C161.533 15.41 161.393 15.805 161.393 16.305V16.425H164.513V16.305C164.513 15.795 164.373 15.395 164.093 15.105C163.823 14.815 163.448 14.67 162.968 14.67ZM168.632 19.275H171.002V11.625H168.632V9.9H173.222V19.275H175.592V21H168.632V19.275ZM181.497 21.18C180.197 21.18 179.212 20.82 178.542 20.1C177.872 19.38 177.537 18.4 177.537 17.16C177.537 16.53 177.622 15.965 177.792 15.465C177.972 14.955 178.222 14.525 178.542 14.175C178.872 13.815 179.267 13.545 179.727 13.365C180.197 13.175 180.722 13.08 181.302 13.08C181.882 13.08 182.402 13.175 182.862 13.365C183.322 13.545 183.712 13.805 184.032 14.145C184.352 14.485 184.597 14.9 184.767 15.39C184.947 15.87 185.037 16.41 185.037 17.01V17.67H179.742V17.805C179.742 18.305 179.897 18.71 180.207 19.02C180.517 19.32 180.972 19.47 181.572 19.47C182.032 19.47 182.427 19.385 182.757 19.215C183.087 19.035 183.372 18.8 183.612 18.51L184.812 19.815C184.512 20.185 184.092 20.505 183.552 20.775C183.012 21.045 182.327 21.18 181.497 21.18ZM181.317 14.67C180.837 14.67 180.452 14.82 180.162 15.12C179.882 15.41 179.742 15.805 179.742 16.305V16.425H182.862V16.305C182.862 15.795 182.722 15.395 182.442 15.105C182.172 14.815 181.797 14.67 181.317 14.67ZM187.071 19.275H188.856V14.985H187.071V13.26H191.076V15.45H191.181C191.251 15.17 191.346 14.9 191.466 14.64C191.596 14.37 191.756 14.135 191.946 13.935C192.146 13.725 192.386 13.56 192.666 13.44C192.946 13.32 193.276 13.26 193.656 13.26H194.391V15.3H192.741C192.191 15.3 191.776 15.465 191.496 15.795C191.216 16.115 191.076 16.51 191.076 16.98V19.275H193.626V21H187.071V19.275ZM202.44 21C201.98 21 201.61 20.885 201.33 20.655C201.05 20.415 200.885 20.075 200.835 19.635H200.76C200.62 20.145 200.34 20.53 199.92 20.79C199.51 21.05 199.005 21.18 198.405 21.18C197.655 21.18 197.05 20.98 196.59 20.58C196.14 20.17 195.915 19.6 195.915 18.87C195.915 18.06 196.21 17.46 196.8 17.07C197.39 16.68 198.255 16.485 199.395 16.485H200.64V16.095C200.64 15.635 200.53 15.29 200.31 15.06C200.1 14.82 199.74 14.7 199.23 14.7C198.76 14.7 198.38 14.79 198.09 14.97C197.8 15.15 197.55 15.385 197.34 15.675L196.125 14.595C196.385 14.155 196.79 13.795 197.34 13.515C197.9 13.225 198.615 13.08 199.485 13.08C200.545 13.08 201.37 13.325 201.96 13.815C202.56 14.295 202.86 15.025 202.86 16.005V19.395H203.715V21H202.44ZM199.245 19.725C199.635 19.725 199.965 19.63 200.235 19.44C200.505 19.25 200.64 18.975 200.64 18.615V17.685H199.455C198.545 17.685 198.09 17.99 198.09 18.6V18.9C198.09 19.17 198.195 19.375 198.405 19.515C198.615 19.655 198.895 19.725 199.245 19.725ZM209.409 21C208.609 21 208.014 20.79 207.624 20.37C207.234 19.95 207.039 19.415 207.039 18.765V14.985H204.939V13.26H206.304C206.634 13.26 206.869 13.195 207.009 13.065C207.149 12.935 207.219 12.695 207.219 12.345V10.53H209.259V13.26H212.274V14.985H209.259V19.275H212.274V21H209.409ZM217.983 21.18C217.383 21.18 216.843 21.09 216.363 20.91C215.883 20.72 215.473 20.45 215.133 20.1C214.803 19.75 214.548 19.325 214.368 18.825C214.188 18.325 214.098 17.76 214.098 17.13C214.098 16.5 214.188 15.935 214.368 15.435C214.548 14.935 214.803 14.51 215.133 14.16C215.473 13.81 215.883 13.545 216.363 13.365C216.843 13.175 217.383 13.08 217.983 13.08C218.583 13.08 219.123 13.175 219.603 13.365C220.083 13.545 220.488 13.81 220.818 14.16C221.158 14.51 221.418 14.935 221.598 15.435C221.778 15.935 221.868 16.5 221.868 17.13C221.868 17.76 221.778 18.325 221.598 18.825C221.418 19.325 221.158 19.75 220.818 20.1C220.488 20.45 220.083 20.72 219.603 20.91C219.123 21.09 218.583 21.18 217.983 21.18ZM217.983 19.53C218.483 19.53 218.873 19.375 219.153 19.065C219.433 18.755 219.573 18.315 219.573 17.745V16.515C219.573 15.945 219.433 15.505 219.153 15.195C218.873 14.885 218.483 14.73 217.983 14.73C217.483 14.73 217.093 14.885 216.813 15.195C216.533 15.505 216.393 15.945 216.393 16.515V17.745C216.393 18.315 216.533 18.755 216.813 19.065C217.093 19.375 217.483 19.53 217.983 19.53ZM223.767 19.275H225.552V14.985H223.767V13.26H227.772V15.45H227.877C227.947 15.17 228.042 14.9 228.162 14.64C228.292 14.37 228.452 14.135 228.642 13.935C228.842 13.725 229.082 13.56 229.362 13.44C229.642 13.32 229.972 13.26 230.352 13.26H231.087V15.3H229.437C228.887 15.3 228.472 15.465 228.192 15.795C227.912 16.115 227.772 16.51 227.772 16.98V19.275H230.322V21H223.767V19.275ZM236.241 21.18C235.381 21.18 234.631 21.05 233.991 20.79C233.361 20.53 232.886 20.175 232.566 19.725L233.811 18.57C234.111 18.9 234.461 19.16 234.861 19.35C235.271 19.53 235.736 19.62 236.256 19.62C236.696 19.62 237.041 19.555 237.291 19.425C237.541 19.285 237.666 19.075 237.666 18.795C237.666 18.575 237.581 18.425 237.411 18.345C237.241 18.255 237.006 18.185 236.706 18.135L235.461 17.94C235.111 17.89 234.786 17.815 234.486 17.715C234.186 17.605 233.926 17.46 233.706 17.28C233.486 17.1 233.311 16.88 233.181 16.62C233.051 16.36 232.986 16.045 232.986 15.675C232.986 14.865 233.296 14.23 233.916 13.77C234.536 13.31 235.406 13.08 236.526 13.08C237.286 13.08 237.931 13.185 238.461 13.395C239.001 13.595 239.431 13.885 239.751 14.265L238.641 15.525C238.411 15.275 238.116 15.065 237.756 14.895C237.396 14.725 236.961 14.64 236.451 14.64C235.591 14.64 235.161 14.9 235.161 15.42C235.161 15.65 235.246 15.81 235.416 15.9C235.586 15.98 235.821 16.045 236.121 16.095L237.351 16.29C237.701 16.34 238.026 16.42 238.326 16.53C238.626 16.63 238.886 16.77 239.106 16.95C239.336 17.13 239.516 17.35 239.646 17.61C239.776 17.87 239.841 18.185 239.841 18.555C239.841 19.365 239.526 20.005 238.896 20.475C238.276 20.945 237.391 21.18 236.241 21.18Z" fill="white"/>
<path d="M244 0H5C2.23858 0 0 2.23858 0 5V27C0 29.7614 2.23858 32 5 32H244C246.761 32 249 29.7614 249 27V5C249 2.23858 246.761 0 244 0Z" fill="url(#paint2_linear_1_246)"/>
</g>
<defs>
<linearGradient id="paint0_linear_1_246" x1="20.9986" y1="5.76751" x2="1.38842" y2="5.76821" gradientUnits="userSpaceOnUse">
<stop offset="0.05" stop-opacity="0"/>
<stop offset="0.75"/>
</linearGradient>
<linearGradient id="paint1_linear_1_246" x1="0" y1="32" x2="32" y2="0" gradientUnits="userSpaceOnUse">
<stop offset="0.1" stop-color="#FF7EB6"/>
<stop offset="0.9" stop-color="#A56EFF"/>
</linearGradient>
<linearGradient id="paint2_linear_1_246" x1="0" y1="0" x2="0" y2="32" gradientUnits="userSpaceOnUse">
<stop stop-color="#BBBBBB" stop-opacity="0.1"/>
<stop offset="1" stop-opacity="0.1"/>
</linearGradient>
<clipPath id="clip0_1_246">
<rect width="249" height="32" rx="5" fill="white"/>
</clipPath>
</defs>
</svg>
