<svg width="210" height="32" viewBox="0 0 210 32" fill="none" xmlns="http://www.w3.org/2000/svg">
<g clip-path="url(#clip0_1_19)">
<path d="M205 0H31V32H205C207.761 32 210 29.7614 210 27V5C210 2.23858 207.761 0 205 0Z" fill="#0F1418"/>
<rect width="32" height="32" fill="black"/>
<mask id="mask0_1_19" style="mask-type:luminance" maskUnits="userSpaceOnUse" x="3" y="2" width="27" height="28">
<path d="M21.5 5.488L22.5 3.758C19.9797 2.28812 17.0357 1.71552 14.1482 2.13358C11.2607 2.55163 8.59995 3.93568 6.6 6.06C6.16408 5.97102 5.71382 5.98011 5.28185 6.08661C4.84987 6.19312 4.44699 6.39437 4.1024 6.67579C3.7578 6.95721 3.48011 7.31176 3.28944 7.71374C3.09878 8.11573 2.99991 8.55509 3 9C3.00325 9.69011 3.24649 10.3576 3.688 10.888C3.23622 12.212 3.00382 13.601 3 15C3.00567 18.098 4.11667 21.0923 6.13314 23.4443C8.1496 25.7962 10.9392 27.3514 14 27.83V25.809C11.4747 25.3397 9.19295 24.0025 7.54945 22.0286C5.90594 20.0548 5.00411 17.5685 5 15C5.00062 13.9655 5.14912 12.9364 5.441 11.944C5.6252 11.9799 5.81234 11.9987 6 12C6.69573 11.9962 7.36808 11.7485 7.9 11.3L12.488 14.053L13.518 12.338L8.94 9.6C8.97993 9.4025 9.00003 9.2015 9 9C8.99705 8.32151 8.76204 7.66445 8.334 7.138C10.0431 5.45587 12.2583 4.38292 14.6377 4.08472C17.0172 3.78653 19.4286 4.27965 21.5 5.488ZM6 10C5.80222 10 5.60888 9.94135 5.44443 9.83147C5.27998 9.72159 5.15181 9.56541 5.07612 9.38268C5.00043 9.19996 4.98063 8.99889 5.01921 8.80491C5.0578 8.61093 5.15304 8.43275 5.29289 8.29289C5.43275 8.15304 5.61093 8.0578 5.80491 8.01922C5.99889 7.98063 6.19996 8.00043 6.38268 8.07612C6.56541 8.15181 6.72159 8.27998 6.83147 8.44443C6.94135 8.60888 7 8.80222 7 9C7 9.26522 6.89464 9.51957 6.70711 9.70711C6.51957 9.89464 6.26522 10 6 10ZM28.363 11H26.236C27.2013 13.4457 27.254 16.1571 26.3843 18.6384C25.5147 21.1197 23.7809 23.205 21.5 24.513L22.5 26.243C25.0787 24.7616 27.0691 22.4378 28.1368 19.662C29.2044 16.8863 29.2843 13.8277 28.363 11Z" fill="white"/>
<path d="M5 15H16V30H5V15Z" fill="url(#paint0_linear_1_19)"/>
<path d="M16 7H30V21H16V7Z" fill="url(#paint1_linear_1_19)"/>
<path d="M6 9H15V15H6V9Z" fill="url(#paint2_linear_1_19)"/>
</mask>
<g mask="url(#mask0_1_19)">
<path d="M0 0H32V32H0V0Z" fill="url(#paint3_linear_1_19)"/>
</g>
<path d="M26 6C25.5551 5.99991 25.1157 6.09878 24.7137 6.28944C24.3118 6.48011 23.9572 6.7578 23.6758 7.1024C23.3944 7.44699 23.1931 7.84987 23.0866 8.28185C22.9801 8.71382 22.971 9.16408 23.06 9.6L18.8 12.152C18.364 11.7205 17.8344 11.3952 17.2524 11.2014C16.6703 11.0076 16.0514 10.9505 15.4438 11.0346C14.8361 11.1187 14.256 11.3417 13.7484 11.6862C13.2408 12.0308 12.8195 12.4876 12.517 13.0214C12.2146 13.5551 12.0392 14.1513 12.0045 14.7638C11.9697 15.3763 12.0766 15.9885 12.3167 16.553C12.5569 17.1175 12.9238 17.6191 13.3892 18.0189C13.8545 18.4186 14.4057 18.7057 15 18.858V24.184C14.3328 24.4199 13.7704 24.8841 13.4124 25.4945C13.0543 26.1049 12.9235 26.8222 13.0432 27.5197C13.1629 28.2172 13.5253 28.85 14.0663 29.3061C14.6074 29.7622 15.2923 30.0124 16 30.0124C16.7077 30.0124 17.3926 29.7622 17.9337 29.3061C18.4747 28.85 18.8371 28.2172 18.9568 27.5197C19.0765 26.8222 18.9457 26.1049 18.5876 25.4945C18.2296 24.8841 17.6672 24.4199 17 24.184V18.858C17.8561 18.637 18.6149 18.1385 19.1577 17.4404C19.7005 16.7424 19.9967 15.8842 20 15C19.9943 14.6182 19.9333 14.2393 19.819 13.875L24.1 11.3C24.6317 11.7488 25.3042 11.9965 26 12C26.7956 12 27.5587 11.6839 28.1213 11.1213C28.6839 10.5587 29 9.79565 29 9C29 8.20435 28.6839 7.44129 28.1213 6.87868C27.5587 6.31607 26.7956 6 26 6ZM16 28C15.8022 28 15.6089 27.9414 15.4444 27.8315C15.28 27.7216 15.1518 27.5654 15.0761 27.3827C15.0004 27.2 14.9806 26.9989 15.0192 26.8049C15.0578 26.6109 15.153 26.4327 15.2929 26.2929C15.4327 26.153 15.6109 26.0578 15.8049 26.0192C15.9989 25.9806 16.2 26.0004 16.3827 26.0761C16.5654 26.1518 16.7216 26.28 16.8315 26.4444C16.9413 26.6089 17 26.8022 17 27C17 27.2652 16.8946 27.5196 16.7071 27.7071C16.5196 27.8946 16.2652 28 16 28ZM16 17C15.6044 17 15.2178 16.8827 14.8889 16.6629C14.56 16.4432 14.3036 16.1308 14.1522 15.7654C14.0009 15.3999 13.9613 14.9978 14.0384 14.6098C14.1156 14.2219 14.3061 13.8655 14.5858 13.5858C14.8655 13.3061 15.2219 13.1156 15.6098 13.0384C15.9978 12.9613 16.3999 13.0009 16.7654 13.1522C17.1308 13.3036 17.4432 13.56 17.6629 13.8889C17.8827 14.2178 18 14.6044 18 15C18 15.5304 17.7893 16.0391 17.4142 16.4142C17.0391 16.7893 16.5304 17 16 17ZM26 10C25.8022 10 25.6089 9.94135 25.4444 9.83147C25.28 9.72159 25.1518 9.56541 25.0761 9.38268C25.0004 9.19996 24.9806 8.99889 25.0192 8.80491C25.0578 8.61093 25.153 8.43275 25.2929 8.29289C25.4327 8.15304 25.6109 8.0578 25.8049 8.01921C25.9989 7.98063 26.2 8.00043 26.3827 8.07612C26.5654 8.15181 26.7216 8.27998 26.8315 8.44443C26.9413 8.60888 27 8.80222 27 9C27 9.26522 26.8946 9.51957 26.7071 9.70711C26.5196 9.89464 26.2652 10 26 10Z" fill="#F4F4F4"/>
<path d="M42.5227 21.18C41.1227 21.18 40.0877 20.705 39.4177 19.755C38.7577 18.805 38.4277 17.475 38.4277 15.765C38.4277 14.055 38.7577 12.725 39.4177 11.775C40.0877 10.825 41.1227 10.35 42.5227 10.35C43.9227 10.35 44.9527 10.825 45.6127 11.775C46.2827 12.725 46.6177 14.055 46.6177 15.765C46.6177 17.475 46.2827 18.805 45.6127 19.755C44.9527 20.705 43.9227 21.18 42.5227 21.18ZM42.5227 19.365C43.1627 19.365 43.6027 19.13 43.8427 18.66C44.0927 18.18 44.2177 17.515 44.2177 16.665V14.85C44.2177 14.01 44.0927 13.355 43.8427 12.885C43.6027 12.405 43.1627 12.165 42.5227 12.165C41.8827 12.165 41.4377 12.405 41.1877 12.885C40.9477 13.355 40.8277 14.01 40.8277 14.85V16.68C40.8277 17.52 40.9477 18.18 41.1877 18.66C41.4377 19.13 41.8827 19.365 42.5227 19.365ZM48.0819 13.26H50.3019V14.67H50.4069C50.5969 14.21 50.8719 13.83 51.2319 13.53C51.5919 13.23 52.0819 13.08 52.7019 13.08C53.1319 13.08 53.5219 13.16 53.8719 13.32C54.2319 13.48 54.5369 13.725 54.7869 14.055C55.0469 14.385 55.2469 14.805 55.3869 15.315C55.5369 15.825 55.6119 16.43 55.6119 17.13C55.6119 17.83 55.5369 18.435 55.3869 18.945C55.2469 19.455 55.0469 19.875 54.7869 20.205C54.5369 20.535 54.2319 20.78 53.8719 20.94C53.5219 21.1 53.1319 21.18 52.7019 21.18C52.0819 21.18 51.5919 21.035 51.2319 20.745C50.8719 20.445 50.5969 20.06 50.4069 19.59H50.3019V24H48.0819V13.26ZM51.7419 19.455C52.2419 19.455 52.6269 19.305 52.8969 19.005C53.1669 18.695 53.3019 18.27 53.3019 17.73V16.53C53.3019 15.99 53.1669 15.57 52.8969 15.27C52.6269 14.96 52.2419 14.805 51.7419 14.805C51.3519 14.805 51.0119 14.9 50.7219 15.09C50.4419 15.28 50.3019 15.58 50.3019 15.99V18.27C50.3019 18.68 50.4419 18.98 50.7219 19.17C51.0119 19.36 51.3519 19.455 51.7419 19.455ZM61.471 21C60.671 21 60.076 20.79 59.686 20.37C59.296 19.95 59.101 19.415 59.101 18.765V14.985H57.001V13.26H58.366C58.696 13.26 58.931 13.195 59.071 13.065C59.211 12.935 59.281 12.695 59.281 12.345V10.53H61.321V13.26H64.336V14.985H61.321V19.275H64.336V21H61.471ZM70.5252 12.27C70.0252 12.27 69.6752 12.17 69.4752 11.97C69.2852 11.76 69.1902 11.51 69.1902 11.22V10.785C69.1902 10.485 69.2852 10.235 69.4752 10.035C69.6752 9.835 70.0252 9.735 70.5252 9.735C71.0252 9.735 71.3702 9.835 71.5602 10.035C71.7602 10.235 71.8602 10.485 71.8602 10.785V11.22C71.8602 11.51 71.7602 11.76 71.5602 11.97C71.3702 12.17 71.0252 12.27 70.5252 12.27ZM66.9552 19.275H69.4152V14.985H66.9552V13.26H71.6352V19.275H73.9152V21H66.9552V19.275ZM75.1693 21V13.26H76.9543V14.4H77.0593C77.1793 14.04 77.3493 13.73 77.5693 13.47C77.7993 13.21 78.1193 13.08 78.5293 13.08C79.2793 13.08 79.7393 13.52 79.9093 14.4H79.9993C80.0593 14.22 80.1343 14.05 80.2243 13.89C80.3143 13.73 80.4243 13.59 80.5543 13.47C80.6843 13.35 80.8393 13.255 81.0193 13.185C81.1993 13.115 81.4093 13.08 81.6493 13.08C82.7293 13.08 83.2693 13.875 83.2693 15.465V21H81.4843V15.69C81.4843 15.33 81.4193 15.08 81.2893 14.94C81.1693 14.79 81.0093 14.715 80.8093 14.715C80.6193 14.715 80.4543 14.78 80.3143 14.91C80.1843 15.03 80.1193 15.22 80.1193 15.48V21H78.3193V15.69C78.3193 15.33 78.2593 15.08 78.1393 14.94C78.0293 14.79 77.8743 14.715 77.6743 14.715C77.4743 14.715 77.3043 14.78 77.1643 14.91C77.0243 15.03 76.9543 15.22 76.9543 15.48V21H75.1693ZM94.0276 10.53H97.4026C98.8126 10.53 99.8576 10.98 100.538 11.88C101.218 12.78 101.558 14.075 101.558 15.765C101.558 17.455 101.218 18.75 100.538 19.65C99.8576 20.55 98.8126 21 97.4026 21H94.0276V10.53ZM97.2526 19.23C97.9226 19.23 98.4126 19.015 98.7226 18.585C99.0326 18.155 99.1876 17.53 99.1876 16.71V14.805C99.1876 13.995 99.0326 13.375 98.7226 12.945C98.4126 12.515 97.9226 12.3 97.2526 12.3H96.2476V19.23H97.2526ZM109.547 21C109.087 21 108.717 20.885 108.437 20.655C108.157 20.415 107.992 20.075 107.942 19.635H107.867C107.727 20.145 107.447 20.53 107.027 20.79C106.617 21.05 106.112 21.18 105.512 21.18C104.762 21.18 104.157 20.98 103.697 20.58C103.247 20.17 103.022 19.6 103.022 18.87C103.022 18.06 103.317 17.46 103.907 17.07C104.497 16.68 105.362 16.485 106.502 16.485H107.747V16.095C107.747 15.635 107.637 15.29 107.417 15.06C107.207 14.82 106.847 14.7 106.337 14.7C105.867 14.7 105.487 14.79 105.197 14.97C104.907 15.15 104.657 15.385 104.447 15.675L103.232 14.595C103.492 14.155 103.897 13.795 104.447 13.515C105.007 13.225 105.722 13.08 106.592 13.08C107.652 13.08 108.477 13.325 109.067 13.815C109.667 14.295 109.967 15.025 109.967 16.005V19.395H110.822V21H109.547ZM106.352 19.725C106.742 19.725 107.072 19.63 107.342 19.44C107.612 19.25 107.747 18.975 107.747 18.615V17.685H106.562C105.652 17.685 105.197 17.99 105.197 18.6V18.9C105.197 19.17 105.302 19.375 105.512 19.515C105.722 19.655 106.002 19.725 106.352 19.725ZM116.516 21C115.716 21 115.121 20.79 114.731 20.37C114.341 19.95 114.146 19.415 114.146 18.765V14.985H112.046V13.26H113.411C113.741 13.26 113.976 13.195 114.116 13.065C114.256 12.935 114.326 12.695 114.326 12.345V10.53H116.366V13.26H119.381V14.985H116.366V19.275H119.381V21H116.516ZM127.895 21C127.435 21 127.065 20.885 126.785 20.655C126.505 20.415 126.34 20.075 126.29 19.635H126.215C126.075 20.145 125.795 20.53 125.375 20.79C124.965 21.05 124.46 21.18 123.86 21.18C123.11 21.18 122.505 20.98 122.045 20.58C121.595 20.17 121.37 19.6 121.37 18.87C121.37 18.06 121.665 17.46 122.255 17.07C122.845 16.68 123.71 16.485 124.85 16.485H126.095V16.095C126.095 15.635 125.985 15.29 125.765 15.06C125.555 14.82 125.195 14.7 124.685 14.7C124.215 14.7 123.835 14.79 123.545 14.97C123.255 15.15 123.005 15.385 122.795 15.675L121.58 14.595C121.84 14.155 122.245 13.795 122.795 13.515C123.355 13.225 124.07 13.08 124.94 13.08C126 13.08 126.825 13.325 127.415 13.815C128.015 14.295 128.315 15.025 128.315 16.005V19.395H129.17V21H127.895ZM124.7 19.725C125.09 19.725 125.42 19.63 125.69 19.44C125.96 19.25 126.095 18.975 126.095 18.615V17.685H124.91C124 17.685 123.545 17.99 123.545 18.6V18.9C123.545 19.17 123.65 19.375 123.86 19.515C124.07 19.655 124.35 19.725 124.7 19.725ZM140.078 21V10.53H144.128C144.638 10.53 145.093 10.61 145.493 10.77C145.893 10.92 146.228 11.14 146.498 11.43C146.778 11.72 146.988 12.07 147.128 12.48C147.268 12.89 147.338 13.35 147.338 13.86C147.338 14.37 147.268 14.83 147.128 15.24C146.988 15.65 146.778 16 146.498 16.29C146.228 16.58 145.893 16.805 145.493 16.965C145.093 17.115 144.638 17.19 144.128 17.19H142.343V21H140.078ZM142.343 15.375H143.558C144.088 15.375 144.453 15.275 144.653 15.075C144.863 14.875 144.968 14.545 144.968 14.085V13.635C144.968 13.175 144.863 12.845 144.653 12.645C144.453 12.445 144.088 12.345 143.558 12.345H142.343V15.375ZM149.222 19.275H151.007V14.985H149.222V13.26H153.227V15.45H153.332C153.402 15.17 153.497 14.9 153.617 14.64C153.747 14.37 153.907 14.135 154.097 13.935C154.297 13.725 154.537 13.56 154.817 13.44C155.097 13.32 155.427 13.26 155.807 13.26H156.542V15.3H154.892C154.342 15.3 153.927 15.465 153.647 15.795C153.367 16.115 153.227 16.51 153.227 16.98V19.275H155.777V21H149.222V19.275ZM162.267 12.27C161.767 12.27 161.417 12.17 161.217 11.97C161.027 11.76 160.932 11.51 160.932 11.22V10.785C160.932 10.485 161.027 10.235 161.217 10.035C161.417 9.835 161.767 9.735 162.267 9.735C162.767 9.735 163.112 9.835 163.302 10.035C163.502 10.235 163.602 10.485 163.602 10.785V11.22C163.602 11.51 163.502 11.76 163.302 11.97C163.112 12.17 162.767 12.27 162.267 12.27ZM158.697 19.275H161.157V14.985H158.697V13.26H163.377V19.275H165.657V21H158.697V19.275ZM169.641 21L166.866 13.26H169.206L170.211 16.575L170.946 19.155H171.066L171.801 16.575L172.806 13.26H175.056L172.281 21H169.641ZM182.94 21C182.48 21 182.11 20.885 181.83 20.655C181.55 20.415 181.385 20.075 181.335 19.635H181.26C181.12 20.145 180.84 20.53 180.42 20.79C180.01 21.05 179.505 21.18 178.905 21.18C178.155 21.18 177.55 20.98 177.09 20.58C176.64 20.17 176.415 19.6 176.415 18.87C176.415 18.06 176.71 17.46 177.3 17.07C177.89 16.68 178.755 16.485 179.895 16.485H181.14V16.095C181.14 15.635 181.03 15.29 180.81 15.06C180.6 14.82 180.24 14.7 179.73 14.7C179.26 14.7 178.88 14.79 178.59 14.97C178.3 15.15 178.05 15.385 177.84 15.675L176.625 14.595C176.885 14.155 177.29 13.795 177.84 13.515C178.4 13.225 179.115 13.08 179.985 13.08C181.045 13.08 181.87 13.325 182.46 13.815C183.06 14.295 183.36 15.025 183.36 16.005V19.395H184.215V21H182.94ZM179.745 19.725C180.135 19.725 180.465 19.63 180.735 19.44C181.005 19.25 181.14 18.975 181.14 18.615V17.685H179.955C179.045 17.685 178.59 17.99 178.59 18.6V18.9C178.59 19.17 178.695 19.375 178.905 19.515C179.115 19.655 179.395 19.725 179.745 19.725ZM189.624 21.18C189.014 21.18 188.464 21.09 187.974 20.91C187.494 20.72 187.084 20.45 186.744 20.1C186.414 19.75 186.159 19.325 185.979 18.825C185.799 18.325 185.709 17.76 185.709 17.13C185.709 16.5 185.799 15.935 185.979 15.435C186.159 14.935 186.414 14.51 186.744 14.16C187.084 13.81 187.494 13.545 187.974 13.365C188.464 13.175 189.009 13.08 189.609 13.08C190.459 13.08 191.139 13.255 191.649 13.605C192.169 13.945 192.564 14.4 192.834 14.97L191.124 15.9C190.984 15.6 190.799 15.35 190.569 15.15C190.349 14.95 190.029 14.85 189.609 14.85C189.099 14.85 188.704 15 188.424 15.3C188.154 15.59 188.019 15.99 188.019 16.5V17.76C188.019 18.27 188.154 18.675 188.424 18.975C188.704 19.265 189.109 19.41 189.639 19.41C190.069 19.41 190.404 19.31 190.644 19.11C190.894 18.91 191.104 18.65 191.274 18.33L192.954 19.29C192.674 19.86 192.264 20.32 191.724 20.67C191.194 21.01 190.494 21.18 189.624 21.18ZM200.433 13.26H202.698L199.053 22.245C198.823 22.815 198.518 23.25 198.138 23.55C197.758 23.85 197.238 24 196.578 24H195.048V22.275H196.908L197.388 20.955L194.268 13.26H196.653L197.778 16.515L198.483 18.765H198.603L199.278 16.515L200.433 13.26Z" fill="white"/>
<path d="M205 0H5C2.23858 0 0 2.23858 0 5V27C0 29.7614 2.23858 32 5.00001 32H205C207.761 32 210 29.7614 210 27V5C210 2.23858 207.761 0 205 0Z" fill="url(#paint4_linear_1_19)"/>
</g>
<defs>
<linearGradient id="paint0_linear_1_19" x1="3.127" y1="18.243" x2="17.873" y2="26.757" gradientUnits="userSpaceOnUse">
<stop offset="0.35" stop-opacity="0"/>
<stop offset="0.67"/>
</linearGradient>
<linearGradient id="paint1_linear_1_19" x1="23" y1="21" x2="23" y2="7" gradientUnits="userSpaceOnUse">
<stop offset="0.2" stop-opacity="0"/>
<stop offset="0.6"/>
</linearGradient>
<linearGradient id="paint2_linear_1_19" x1="5.826" y1="9.301" x2="15.174" y2="14.699" gradientUnits="userSpaceOnUse">
<stop offset="0.34" stop-opacity="0"/>
<stop offset="0.68"/>
</linearGradient>
<linearGradient id="paint3_linear_1_19" x1="0" y1="32" x2="32" y2="0" gradientUnits="userSpaceOnUse">
<stop offset="0.1" stop-color="#BE95FF"/>
<stop offset="0.9" stop-color="#4589FF"/>
</linearGradient>
<linearGradient id="paint4_linear_1_19" x1="0" y1="0" x2="0" y2="32" gradientUnits="userSpaceOnUse">
<stop stop-color="#BBBBBB" stop-opacity="0.1"/>
<stop offset="1" stop-opacity="0.1"/>
</linearGradient>
<clipPath id="clip0_1_19">
<rect width="210" height="32" rx="5" fill="white"/>
</clipPath>
</defs>
</svg>
