<svg width="196" height="32" viewBox="0 0 196 32" fill="none" xmlns="http://www.w3.org/2000/svg">
<g clip-path="url(#clip0_1_260)">
<path d="M191 0H31V32H191C193.761 32 196 29.7614 196 27V5C196 2.23858 193.761 0 191 0Z" fill="#0F1418"/>
<rect width="32" height="32" fill="black"/>
<mask id="mask0_1_260" style="mask-type:luminance" maskUnits="userSpaceOnUse" x="2" y="2" width="28" height="28">
<path d="M20 20V22H25.2C23.819 24.1394 21.7372 25.7323 19.3111 26.5057C16.885 27.2792 14.2655 27.1852 11.901 26.2399C9.53657 25.2945 7.5743 23.5566 6.3502 21.3237C5.1261 19.0908 4.71631 16.5018 5.19099 14H3.16999C2.72533 16.8117 3.21774 19.6916 4.57133 22.1958C5.92492 24.7 8.06455 26.6896 10.6604 27.8578C13.2563 29.026 16.1644 29.308 18.9364 28.6604C21.7084 28.0128 24.1904 26.4715 26 24.274V28H28V20H20ZM16 3C14.0876 3.00071 12.1992 3.42485 10.4702 4.24197C8.74121 5.05909 7.21461 6.24891 5.99999 7.726V4H3.99999V12H12V10H6.79999C8.18181 7.86258 10.2634 6.27172 12.6886 5.49954C15.1138 4.72737 17.732 4.82187 20.0952 5.76689C22.4585 6.7119 24.4199 8.4487 25.6441 10.6802C26.8682 12.9117 27.2789 15.4991 26.806 18H28.83C29.1344 16.145 29.03 14.2459 28.5241 12.4354C28.0182 10.6249 27.123 8.94675 25.9011 7.5182C24.6792 6.08965 23.1601 4.94518 21.4499 4.16477C19.7398 3.38436 17.8798 2.98684 16 3Z" fill="white"/>
<path d="M30 19L12 19L12 2L30 2L30 19Z" fill="url(#paint0_linear_1_260)"/>
<path d="M2 13H20V30H2V13Z" fill="url(#paint1_linear_1_260)"/>
</mask>
<g mask="url(#mask0_1_260)">
<path d="M0 0H32V32H0V0Z" fill="url(#paint2_linear_1_260)"/>
</g>
<path d="M25 3C23.9391 3 22.9217 3.42143 22.1716 4.17157C21.4214 4.92172 21 5.93913 21 7C21.0035 7.71182 21.1994 8.40944 21.567 9.019L9.019 21.567C8.40924 21.1999 7.71175 21.004 7 21C6.20888 21 5.43552 21.2346 4.77772 21.6741C4.11992 22.1136 3.60723 22.7384 3.30448 23.4693C3.00173 24.2002 2.92252 25.0044 3.07686 25.7804C3.2312 26.5563 3.61216 27.269 4.17157 27.8284C4.73098 28.3878 5.44372 28.7688 6.21964 28.9231C6.99556 29.0775 7.79983 28.9983 8.53074 28.6955C9.26164 28.3928 9.88635 27.8801 10.3259 27.2223C10.7654 26.5645 11 25.7911 11 25C10.9964 24.2882 10.8005 23.5906 10.433 22.981L22.981 10.433C23.5906 10.8006 24.2882 10.9965 25 11C26.0609 11 27.0783 10.5786 27.8284 9.82843C28.5786 9.07828 29 8.06087 29 7C29 5.93913 28.5786 4.92172 27.8284 4.17157C27.0783 3.42143 26.0609 3 25 3ZM7 27C6.60444 27 6.21776 26.8827 5.88886 26.6629C5.55996 26.4432 5.30362 26.1308 5.15224 25.7654C5.00087 25.3999 4.96126 24.9978 5.03843 24.6098C5.1156 24.2219 5.30608 23.8655 5.58579 23.5858C5.86549 23.3061 6.22186 23.1156 6.60982 23.0384C6.99778 22.9613 7.39992 23.0009 7.76537 23.1522C8.13082 23.3036 8.44318 23.56 8.66294 23.8889C8.8827 24.2178 9 24.6044 9 25C9 25.5304 8.78929 26.0391 8.41422 26.4142C8.03914 26.7893 7.53043 27 7 27ZM25 9C24.6044 9 24.2178 8.8827 23.8889 8.66294C23.56 8.44318 23.3036 8.13082 23.1522 7.76537C23.0009 7.39991 22.9613 6.99778 23.0384 6.60982C23.1156 6.22186 23.3061 5.86549 23.5858 5.58579C23.8655 5.30608 24.2219 5.1156 24.6098 5.03843C24.9978 4.96126 25.3999 5.00087 25.7654 5.15224C26.1308 5.30362 26.4432 5.55996 26.6629 5.88886C26.8827 6.21776 27 6.60444 27 7C27 7.53043 26.7893 8.03914 26.4142 8.41421C26.0391 8.78929 25.5304 9 25 9Z" fill="#F4F4F4"/>
<path d="M41.1569 10.53H44.5319C45.9419 10.53 46.9869 10.98 47.6669 11.88C48.3469 12.78 48.6869 14.075 48.6869 15.765C48.6869 17.455 48.3469 18.75 47.6669 19.65C46.9869 20.55 45.9419 21 44.5319 21H41.1569V10.53ZM44.3819 19.23C45.0519 19.23 45.5419 19.015 45.8519 18.585C46.1619 18.155 46.3169 17.53 46.3169 16.71V14.805C46.3169 13.995 46.1619 13.375 45.8519 12.945C45.5419 12.515 45.0519 12.3 44.3819 12.3H43.3769V19.23H44.3819ZM56.676 21C56.216 21 55.846 20.885 55.566 20.655C55.286 20.415 55.121 20.075 55.071 19.635H54.996C54.856 20.145 54.576 20.53 54.156 20.79C53.746 21.05 53.241 21.18 52.641 21.18C51.891 21.18 51.286 20.98 50.826 20.58C50.376 20.17 50.151 19.6 50.151 18.87C50.151 18.06 50.446 17.46 51.036 17.07C51.626 16.68 52.491 16.485 53.631 16.485H54.876V16.095C54.876 15.635 54.766 15.29 54.546 15.06C54.336 14.82 53.976 14.7 53.466 14.7C52.996 14.7 52.616 14.79 52.326 14.97C52.036 15.15 51.786 15.385 51.576 15.675L50.361 14.595C50.621 14.155 51.026 13.795 51.576 13.515C52.136 13.225 52.851 13.08 53.721 13.08C54.781 13.08 55.606 13.325 56.196 13.815C56.796 14.295 57.096 15.025 57.096 16.005V19.395H57.951V21H56.676ZM53.481 19.725C53.871 19.725 54.201 19.63 54.471 19.44C54.741 19.25 54.876 18.975 54.876 18.615V17.685H53.691C52.781 17.685 52.326 17.99 52.326 18.6V18.9C52.326 19.17 52.431 19.375 52.641 19.515C52.851 19.655 53.131 19.725 53.481 19.725ZM63.6452 21C62.8452 21 62.2502 20.79 61.8602 20.37C61.4702 19.95 61.2752 19.415 61.2752 18.765V14.985H59.1752V13.26H60.5402C60.8702 13.26 61.1052 13.195 61.2452 13.065C61.3852 12.935 61.4552 12.695 61.4552 12.345V10.53H63.4952V13.26H66.5102V14.985H63.4952V19.275H66.5102V21H63.6452ZM75.0243 21C74.5643 21 74.1943 20.885 73.9143 20.655C73.6343 20.415 73.4693 20.075 73.4193 19.635H73.3443C73.2043 20.145 72.9243 20.53 72.5043 20.79C72.0943 21.05 71.5893 21.18 70.9893 21.18C70.2393 21.18 69.6343 20.98 69.1743 20.58C68.7243 20.17 68.4993 19.6 68.4993 18.87C68.4993 18.06 68.7943 17.46 69.3843 17.07C69.9743 16.68 70.8393 16.485 71.9793 16.485H73.2243V16.095C73.2243 15.635 73.1143 15.29 72.8943 15.06C72.6843 14.82 72.3243 14.7 71.8143 14.7C71.3443 14.7 70.9643 14.79 70.6743 14.97C70.3843 15.15 70.1343 15.385 69.9243 15.675L68.7093 14.595C68.9693 14.155 69.3743 13.795 69.9243 13.515C70.4843 13.225 71.1993 13.08 72.0693 13.08C73.1293 13.08 73.9543 13.325 74.5443 13.815C75.1443 14.295 75.4443 15.025 75.4443 16.005V19.395H76.2993V21H75.0243ZM71.8293 19.725C72.2193 19.725 72.5493 19.63 72.8193 19.44C73.0893 19.25 73.2243 18.975 73.2243 18.615V17.685H72.0393C71.1293 17.685 70.6743 17.99 70.6743 18.6V18.9C70.6743 19.17 70.7793 19.375 70.9893 19.515C71.1993 19.655 71.4793 19.725 71.8293 19.725ZM89.4276 21H87.2076V10.53H91.2576C91.7676 10.53 92.2226 10.61 92.6226 10.77C93.0226 10.92 93.3576 11.14 93.6276 11.43C93.9076 11.72 94.1176 12.07 94.2576 12.48C94.3976 12.89 94.4676 13.35 94.4676 13.86C94.4676 14.6 94.3076 15.235 93.9876 15.765C93.6676 16.295 93.2126 16.645 92.6226 16.815L94.6776 21H92.2176L90.4626 17.115H89.4276V21ZM90.7176 15.375C91.2476 15.375 91.6126 15.275 91.8126 15.075C92.0226 14.875 92.1276 14.545 92.1276 14.085V13.635C92.1276 13.175 92.0226 12.845 91.8126 12.645C91.6126 12.445 91.2476 12.345 90.7176 12.345H89.4276V15.375H90.7176ZM99.9517 21.18C98.6517 21.18 97.6667 20.82 96.9967 20.1C96.3267 19.38 95.9917 18.4 95.9917 17.16C95.9917 16.53 96.0767 15.965 96.2467 15.465C96.4267 14.955 96.6767 14.525 96.9967 14.175C97.3267 13.815 97.7217 13.545 98.1817 13.365C98.6517 13.175 99.1767 13.08 99.7567 13.08C100.337 13.08 100.857 13.175 101.317 13.365C101.777 13.545 102.167 13.805 102.487 14.145C102.807 14.485 103.052 14.9 103.222 15.39C103.402 15.87 103.492 16.41 103.492 17.01V17.67H98.1967V17.805C98.1967 18.305 98.3517 18.71 98.6617 19.02C98.9717 19.32 99.4267 19.47 100.027 19.47C100.487 19.47 100.882 19.385 101.212 19.215C101.542 19.035 101.827 18.8 102.067 18.51L103.267 19.815C102.967 20.185 102.547 20.505 102.007 20.775C101.467 21.045 100.782 21.18 99.9517 21.18ZM99.7717 14.67C99.2917 14.67 98.9067 14.82 98.6167 15.12C98.3367 15.41 98.1967 15.805 98.1967 16.305V16.425H101.317V16.305C101.317 15.795 101.177 15.395 100.897 15.105C100.627 14.815 100.252 14.67 99.7717 14.67ZM105.301 13.26H107.521V14.67H107.626C107.816 14.21 108.091 13.83 108.451 13.53C108.811 13.23 109.301 13.08 109.921 13.08C110.351 13.08 110.741 13.16 111.091 13.32C111.451 13.48 111.756 13.725 112.006 14.055C112.266 14.385 112.466 14.805 112.606 15.315C112.756 15.825 112.831 16.43 112.831 17.13C112.831 17.83 112.756 18.435 112.606 18.945C112.466 19.455 112.266 19.875 112.006 20.205C111.756 20.535 111.451 20.78 111.091 20.94C110.741 21.1 110.351 21.18 109.921 21.18C109.301 21.18 108.811 21.035 108.451 20.745C108.091 20.445 107.816 20.06 107.626 19.59H107.521V24H105.301V13.26ZM108.961 19.455C109.461 19.455 109.846 19.305 110.116 19.005C110.386 18.695 110.521 18.27 110.521 17.73V16.53C110.521 15.99 110.386 15.57 110.116 15.27C109.846 14.96 109.461 14.805 108.961 14.805C108.571 14.805 108.231 14.9 107.941 15.09C107.661 15.28 107.521 15.58 107.521 15.99V18.27C107.521 18.68 107.661 18.98 107.941 19.17C108.231 19.36 108.571 19.455 108.961 19.455ZM114.61 19.275H116.98V11.625H114.61V9.9H119.2V19.275H121.57V21H114.61V19.275ZM127.744 12.27C127.244 12.27 126.894 12.17 126.694 11.97C126.504 11.76 126.409 11.51 126.409 11.22V10.785C126.409 10.485 126.504 10.235 126.694 10.035C126.894 9.835 127.244 9.735 127.744 9.735C128.244 9.735 128.589 9.835 128.779 10.035C128.979 10.235 129.079 10.485 129.079 10.785V11.22C129.079 11.51 128.979 11.76 128.779 11.97C128.589 12.17 128.244 12.27 127.744 12.27ZM124.174 19.275H126.634V14.985H124.174V13.26H128.854V19.275H131.134V21H124.174V19.275ZM136.753 21.18C136.143 21.18 135.593 21.09 135.103 20.91C134.623 20.72 134.213 20.45 133.873 20.1C133.543 19.75 133.288 19.325 133.108 18.825C132.928 18.325 132.838 17.76 132.838 17.13C132.838 16.5 132.928 15.935 133.108 15.435C133.288 14.935 133.543 14.51 133.873 14.16C134.213 13.81 134.623 13.545 135.103 13.365C135.593 13.175 136.138 13.08 136.738 13.08C137.588 13.08 138.268 13.255 138.778 13.605C139.298 13.945 139.693 14.4 139.963 14.97L138.253 15.9C138.113 15.6 137.928 15.35 137.698 15.15C137.478 14.95 137.158 14.85 136.738 14.85C136.228 14.85 135.833 15 135.553 15.3C135.283 15.59 135.148 15.99 135.148 16.5V17.76C135.148 18.27 135.283 18.675 135.553 18.975C135.833 19.265 136.238 19.41 136.768 19.41C137.198 19.41 137.533 19.31 137.773 19.11C138.023 18.91 138.233 18.65 138.403 18.33L140.083 19.29C139.803 19.86 139.393 20.32 138.853 20.67C138.323 21.01 137.623 21.18 136.753 21.18ZM148.417 21C147.957 21 147.587 20.885 147.307 20.655C147.027 20.415 146.862 20.075 146.812 19.635H146.737C146.597 20.145 146.317 20.53 145.897 20.79C145.487 21.05 144.982 21.18 144.382 21.18C143.632 21.18 143.027 20.98 142.567 20.58C142.117 20.17 141.892 19.6 141.892 18.87C141.892 18.06 142.187 17.46 142.777 17.07C143.367 16.68 144.232 16.485 145.372 16.485H146.617V16.095C146.617 15.635 146.507 15.29 146.287 15.06C146.077 14.82 145.717 14.7 145.207 14.7C144.737 14.7 144.357 14.79 144.067 14.97C143.777 15.15 143.527 15.385 143.317 15.675L142.102 14.595C142.362 14.155 142.767 13.795 143.317 13.515C143.877 13.225 144.592 13.08 145.462 13.08C146.522 13.08 147.347 13.325 147.937 13.815C148.537 14.295 148.837 15.025 148.837 16.005V19.395H149.692V21H148.417ZM145.222 19.725C145.612 19.725 145.942 19.63 146.212 19.44C146.482 19.25 146.617 18.975 146.617 18.615V17.685H145.432C144.522 17.685 144.067 17.99 144.067 18.6V18.9C144.067 19.17 144.172 19.375 144.382 19.515C144.592 19.655 144.872 19.725 145.222 19.725ZM155.387 21C154.587 21 153.992 20.79 153.602 20.37C153.212 19.95 153.017 19.415 153.017 18.765V14.985H150.917V13.26H152.282C152.612 13.26 152.847 13.195 152.987 13.065C153.127 12.935 153.197 12.695 153.197 12.345V10.53H155.237V13.26H158.252V14.985H155.237V19.275H158.252V21H155.387ZM164.441 12.27C163.941 12.27 163.591 12.17 163.391 11.97C163.201 11.76 163.106 11.51 163.106 11.22V10.785C163.106 10.485 163.201 10.235 163.391 10.035C163.591 9.835 163.941 9.735 164.441 9.735C164.941 9.735 165.286 9.835 165.476 10.035C165.676 10.235 165.776 10.485 165.776 10.785V11.22C165.776 11.51 165.676 11.76 165.476 11.97C165.286 12.17 164.941 12.27 164.441 12.27ZM160.871 19.275H163.331V14.985H160.871V13.26H165.551V19.275H167.831V21H160.871V19.275ZM173.135 21.18C172.535 21.18 171.995 21.09 171.515 20.91C171.035 20.72 170.625 20.45 170.285 20.1C169.955 19.75 169.7 19.325 169.52 18.825C169.34 18.325 169.25 17.76 169.25 17.13C169.25 16.5 169.34 15.935 169.52 15.435C169.7 14.935 169.955 14.51 170.285 14.16C170.625 13.81 171.035 13.545 171.515 13.365C171.995 13.175 172.535 13.08 173.135 13.08C173.735 13.08 174.275 13.175 174.755 13.365C175.235 13.545 175.64 13.81 175.97 14.16C176.31 14.51 176.57 14.935 176.75 15.435C176.93 15.935 177.02 16.5 177.02 17.13C177.02 17.76 176.93 18.325 176.75 18.825C176.57 19.325 176.31 19.75 175.97 20.1C175.64 20.45 175.235 20.72 174.755 20.91C174.275 21.09 173.735 21.18 173.135 21.18ZM173.135 19.53C173.635 19.53 174.025 19.375 174.305 19.065C174.585 18.755 174.725 18.315 174.725 17.745V16.515C174.725 15.945 174.585 15.505 174.305 15.195C174.025 14.885 173.635 14.73 173.135 14.73C172.635 14.73 172.245 14.885 171.965 15.195C171.685 15.505 171.545 15.945 171.545 16.515V17.745C171.545 18.315 171.685 18.755 171.965 19.065C172.245 19.375 172.635 19.53 173.135 19.53ZM178.784 21V13.26H181.004V14.67H181.094C181.184 14.45 181.294 14.245 181.424 14.055C181.554 13.865 181.709 13.7 181.889 13.56C182.079 13.41 182.294 13.295 182.534 13.215C182.784 13.125 183.064 13.08 183.374 13.08C183.744 13.08 184.084 13.145 184.394 13.275C184.704 13.395 184.969 13.58 185.189 13.83C185.409 14.08 185.579 14.385 185.699 14.745C185.829 15.105 185.894 15.52 185.894 15.99V21H183.674V16.29C183.674 15.29 183.239 14.79 182.369 14.79C182.199 14.79 182.029 14.815 181.859 14.865C181.699 14.905 181.554 14.975 181.424 15.075C181.294 15.165 181.189 15.28 181.109 15.42C181.039 15.56 181.004 15.725 181.004 15.915V21H178.784Z" fill="white"/>
<path d="M191 0H5C2.23858 0 0 2.23858 0 5V27C0 29.7614 2.23857 32 5 32H191C193.761 32 196 29.7614 196 27V5C196 2.23858 193.761 0 191 0Z" fill="url(#paint3_linear_1_260)"/>
</g>
<defs>
<linearGradient id="paint0_linear_1_260" x1="30" y1="10.5" x2="12" y2="10.5" gradientUnits="userSpaceOnUse">
<stop offset="0.5"/>
<stop offset="0.845" stop-opacity="0"/>
</linearGradient>
<linearGradient id="paint1_linear_1_260" x1="2" y1="21.5" x2="20" y2="21.5" gradientUnits="userSpaceOnUse">
<stop offset="0.5"/>
<stop offset="0.845" stop-opacity="0"/>
</linearGradient>
<linearGradient id="paint2_linear_1_260" x1="0" y1="32" x2="32" y2="0" gradientUnits="userSpaceOnUse">
<stop offset="0.1" stop-color="#BE95FF"/>
<stop offset="0.9" stop-color="#4589FF"/>
</linearGradient>
<linearGradient id="paint3_linear_1_260" x1="0" y1="0" x2="0" y2="32" gradientUnits="userSpaceOnUse">
<stop stop-color="#BBBBBB" stop-opacity="0.1"/>
<stop offset="1" stop-opacity="0.1"/>
</linearGradient>
<clipPath id="clip0_1_260">
<rect width="196" height="32" rx="5" fill="white"/>
</clipPath>
</defs>
</svg>
