<svg width="140" height="32" viewBox="0 0 140 32" fill="none" xmlns="http://www.w3.org/2000/svg">
<g clip-path="url(#clip0_1_135)">
<path d="M135 0H31V32H135C137.761 32 140 29.7614 140 27V5C140 2.23858 137.761 0 135 0Z" fill="#0F1418"/>
<rect width="32" height="32" fill="black"/>
<mask id="mask0_1_135" style="mask-type:luminance" maskUnits="userSpaceOnUse" x="1" y="2" width="29" height="28">
<path d="M6.10001 25.9C4.14187 23.9421 2.80834 21.4474 2.26806 18.7315C1.72778 16.0157 2.00503 13.2006 3.06474 10.6423C4.12445 8.084 5.91902 5.89743 8.2215 4.3591C10.524 2.82078 13.2309 1.9998 16 2V4C13.6264 3.99972 11.3061 4.70335 9.33241 6.02191C7.35876 7.34046 5.82047 9.21471 4.9121 11.4076C4.00373 13.6005 3.76609 16.0135 4.22923 18.3415C4.69237 20.6694 5.83549 22.8078 7.51401 24.486L6.10001 25.9Z" fill="#F3F3F3"/>
<path d="M1 14H8V26H1V14Z" fill="url(#paint0_linear_1_135)"/>
<path d="M16 30C14.1607 30.005 12.3387 29.6452 10.6394 28.9415C8.94008 28.2377 7.39719 27.2039 6.10001 25.9C5.91254 25.7125 5.80722 25.4582 5.80722 25.193C5.80722 24.9278 5.91254 24.6735 6.10001 24.486L18.293 12.293L19.707 13.707L8.25101 25.163C9.9982 26.6406 12.1314 27.5879 14.3992 27.8932C16.667 28.1984 18.9748 27.8489 21.0505 26.8858C23.1262 25.9227 24.8833 24.3863 26.1146 22.4575C27.3459 20.5288 28.0001 18.2882 28 16H30C29.9958 19.7117 28.5194 23.2702 25.8948 25.8948C23.2702 28.5194 19.7117 29.9958 16 30Z" fill="#F3F3F3"/>
<path d="M7.00043 21.0002L18.0002 10.0004L22.0003 14.0005L11.0005 25.0003L7.00043 21.0002Z" fill="url(#paint1_linear_1_135)"/>
</mask>
<g mask="url(#mask0_1_135)">
<path d="M0 0H32V32H0V0Z" fill="url(#paint2_linear_1_135)"/>
</g>
<path d="M18 25C17.7574 25.0001 17.523 24.9121 17.3405 24.7522C17.158 24.5923 17.0398 24.3715 17.008 24.131L16.35 19.131L18.333 18.869L18.768 22.174L21 20.5V15C21.0001 14.7348 21.1055 14.4805 21.293 14.293L24.537 11.049C25.0023 10.5861 25.3712 10.0355 25.6224 9.42903C25.8735 8.82259 26.0018 8.17237 26 7.516V6H24.484C23.8276 5.99817 23.1774 6.12653 22.571 6.37765C21.9646 6.62877 21.4139 6.99767 20.951 7.463L17.707 10.707C17.5195 10.8945 17.2652 10.9999 17 11H11.5L9.82601 13.232L13.126 13.667L12.865 15.65L7.86501 14.991C7.69236 14.9675 7.52885 14.8993 7.39067 14.7931C7.2525 14.687 7.14446 14.5466 7.07726 14.3858C7.01006 14.225 6.98604 14.0495 7.00757 13.8766C7.0291 13.7037 7.09544 13.5394 7.20001 13.4L10.2 9.4C10.2932 9.2758 10.4139 9.175 10.5528 9.10557C10.6917 9.03614 10.8448 9 11 9H16.586L19.537 6.049C20.1852 5.39736 20.9561 4.88074 21.8053 4.52903C22.6544 4.17733 23.5649 3.99751 24.484 4H26C26.53 4.00158 27.0377 4.2128 27.4125 4.58753C27.7872 4.96226 27.9984 5.47005 28 6V7.516C28.0025 8.4351 27.8227 9.34557 27.471 10.1947C27.1193 11.0439 26.6026 11.8148 25.951 12.463L23 15.414V21C23 21.1552 22.9639 21.3084 22.8944 21.4472C22.825 21.5861 22.7242 21.7069 22.6 21.8L18.6 24.8C18.4269 24.9298 18.2164 25 18 25Z" fill="#F4F4F4"/>
<path d="M45.1164 21L44.4714 10.53H46.4064L46.7064 16.8L46.7964 18.78H46.9314L47.8314 12.81H49.8564L50.7564 18.78H50.8914L50.9814 16.86L51.2814 10.53H53.1414L52.4964 21H49.6464L48.8814 15.225H48.7314L47.9664 21H45.1164ZM60.7855 21C60.3255 21 59.9555 20.885 59.6755 20.655C59.3955 20.415 59.2305 20.075 59.1805 19.635H59.1055C58.9655 20.145 58.6855 20.53 58.2655 20.79C57.8555 21.05 57.3505 21.18 56.7505 21.18C56.0005 21.18 55.3955 20.98 54.9355 20.58C54.4855 20.17 54.2605 19.6 54.2605 18.87C54.2605 18.06 54.5555 17.46 55.1455 17.07C55.7355 16.68 56.6005 16.485 57.7405 16.485H58.9855V16.095C58.9855 15.635 58.8755 15.29 58.6555 15.06C58.4455 14.82 58.0855 14.7 57.5755 14.7C57.1055 14.7 56.7255 14.79 56.4355 14.97C56.1455 15.15 55.8955 15.385 55.6855 15.675L54.4705 14.595C54.7305 14.155 55.1355 13.795 55.6855 13.515C56.2455 13.225 56.9605 13.08 57.8305 13.08C58.8905 13.08 59.7155 13.325 60.3055 13.815C60.9055 14.295 61.2055 15.025 61.2055 16.005V19.395H62.0605V21H60.7855ZM57.5905 19.725C57.9805 19.725 58.3105 19.63 58.5805 19.44C58.8505 19.25 58.9855 18.975 58.9855 18.615V17.685H57.8005C56.8905 17.685 56.4355 17.99 56.4355 18.6V18.9C56.4355 19.17 56.5405 19.375 56.7505 19.515C56.9605 19.655 57.2405 19.725 57.5905 19.725ZM67.7546 21C66.9546 21 66.3596 20.79 65.9696 20.37C65.5796 19.95 65.3846 19.415 65.3846 18.765V14.985H63.2846V13.26H64.6496C64.9796 13.26 65.2146 13.195 65.3546 13.065C65.4946 12.935 65.5646 12.695 65.5646 12.345V10.53H67.6046V13.26H70.6196V14.985H67.6046V19.275H70.6196V21H67.7546ZM76.2388 21.18C75.3788 21.18 74.6288 21.05 73.9888 20.79C73.3588 20.53 72.8838 20.175 72.5638 19.725L73.8088 18.57C74.1088 18.9 74.4588 19.16 74.8588 19.35C75.2688 19.53 75.7338 19.62 76.2538 19.62C76.6938 19.62 77.0388 19.555 77.2888 19.425C77.5388 19.285 77.6638 19.075 77.6638 18.795C77.6638 18.575 77.5788 18.425 77.4088 18.345C77.2388 18.255 77.0038 18.185 76.7038 18.135L75.4588 17.94C75.1088 17.89 74.7838 17.815 74.4838 17.715C74.1838 17.605 73.9238 17.46 73.7038 17.28C73.4838 17.1 73.3088 16.88 73.1788 16.62C73.0488 16.36 72.9838 16.045 72.9838 15.675C72.9838 14.865 73.2938 14.23 73.9138 13.77C74.5338 13.31 75.4038 13.08 76.5238 13.08C77.2838 13.08 77.9288 13.185 78.4588 13.395C78.9988 13.595 79.4288 13.885 79.7488 14.265L78.6388 15.525C78.4088 15.275 78.1138 15.065 77.7538 14.895C77.3938 14.725 76.9588 14.64 76.4488 14.64C75.5888 14.64 75.1588 14.9 75.1588 15.42C75.1588 15.65 75.2438 15.81 75.4138 15.9C75.5838 15.98 75.8188 16.045 76.1188 16.095L77.3488 16.29C77.6988 16.34 78.0238 16.42 78.3238 16.53C78.6238 16.63 78.8838 16.77 79.1038 16.95C79.3338 17.13 79.5138 17.35 79.6438 17.61C79.7738 17.87 79.8388 18.185 79.8388 18.555C79.8388 19.365 79.5238 20.005 78.8938 20.475C78.2738 20.945 77.3888 21.18 76.2388 21.18ZM85.5029 21.18C84.9029 21.18 84.3629 21.09 83.8829 20.91C83.4029 20.72 82.9929 20.45 82.6529 20.1C82.3229 19.75 82.0679 19.325 81.8879 18.825C81.7079 18.325 81.6179 17.76 81.6179 17.13C81.6179 16.5 81.7079 15.935 81.8879 15.435C82.0679 14.935 82.3229 14.51 82.6529 14.16C82.9929 13.81 83.4029 13.545 83.8829 13.365C84.3629 13.175 84.9029 13.08 85.5029 13.08C86.1029 13.08 86.6429 13.175 87.1229 13.365C87.6029 13.545 88.0079 13.81 88.3379 14.16C88.6779 14.51 88.9379 14.935 89.1179 15.435C89.2979 15.935 89.3879 16.5 89.3879 17.13C89.3879 17.76 89.2979 18.325 89.1179 18.825C88.9379 19.325 88.6779 19.75 88.3379 20.1C88.0079 20.45 87.6029 20.72 87.1229 20.91C86.6429 21.09 86.1029 21.18 85.5029 21.18ZM85.5029 19.53C86.0029 19.53 86.3929 19.375 86.6729 19.065C86.9529 18.755 87.0929 18.315 87.0929 17.745V16.515C87.0929 15.945 86.9529 15.505 86.6729 15.195C86.3929 14.885 86.0029 14.73 85.5029 14.73C85.0029 14.73 84.6129 14.885 84.3329 15.195C84.0529 15.505 83.9129 15.945 83.9129 16.515V17.745C83.9129 18.315 84.0529 18.755 84.3329 19.065C84.6129 19.375 85.0029 19.53 85.5029 19.53ZM91.1521 21V13.26H93.3721V14.67H93.4621C93.5521 14.45 93.6621 14.245 93.7921 14.055C93.9221 13.865 94.0771 13.7 94.2571 13.56C94.4471 13.41 94.6621 13.295 94.9021 13.215C95.1521 13.125 95.4321 13.08 95.7421 13.08C96.1121 13.08 96.4521 13.145 96.7621 13.275C97.0721 13.395 97.3371 13.58 97.5571 13.83C97.7771 14.08 97.9471 14.385 98.0671 14.745C98.1971 15.105 98.2621 15.52 98.2621 15.99V21H96.0421V16.29C96.0421 15.29 95.6071 14.79 94.7371 14.79C94.5671 14.79 94.3971 14.815 94.2271 14.865C94.0671 14.905 93.9221 14.975 93.7921 15.075C93.6621 15.165 93.5571 15.28 93.4771 15.42C93.4071 15.56 93.3721 15.725 93.3721 15.915V21H91.1521ZM114.99 16.335L115.11 13.41H114.975L113.025 18.795L111.075 13.41H110.94L111.06 16.335V21H109.11V10.53H111.765L113.055 14.055H113.175L114.465 10.53H116.94V21H114.99V16.335ZM119.079 21V10.53H121.344V19.155H125.844V21H119.079Z" fill="white"/>
<path d="M135 0H5C2.23858 0 0 2.23858 0 5V27C0 29.7614 2.23857 32 5 32H135C137.761 32 140 29.7614 140 27V5C140 2.23858 137.761 0 135 0Z" fill="url(#paint3_linear_1_135)"/>
</g>
<defs>
<linearGradient id="paint0_linear_1_135" x1="4.5" y1="26" x2="4.5" y2="14" gradientUnits="userSpaceOnUse">
<stop offset="0.2"/>
<stop offset="1" stop-opacity="0"/>
</linearGradient>
<linearGradient id="paint1_linear_1_135" x1="9" y1="23" x2="20" y2="12" gradientUnits="userSpaceOnUse">
<stop offset="0.2" stop-opacity="0"/>
<stop offset="0.8"/>
</linearGradient>
<linearGradient id="paint2_linear_1_135" x1="0" y1="32" x2="32" y2="0" gradientUnits="userSpaceOnUse">
<stop offset="0.1" stop-color="#BE95FF"/>
<stop offset="0.9" stop-color="#4589FF"/>
</linearGradient>
<linearGradient id="paint3_linear_1_135" x1="0" y1="0" x2="0" y2="32" gradientUnits="userSpaceOnUse">
<stop stop-color="#BBBBBB" stop-opacity="0.1"/>
<stop offset="1" stop-opacity="0.1"/>
</linearGradient>
<clipPath id="clip0_1_135">
<path d="M0 9C0 4.02944 4.02944 0 9 0H131C135.971 0 140 4.02944 140 9V23C140 27.9706 135.971 32 131 32H9C4.02943 32 0 27.9706 0 23V9Z" fill="white"/>
</clipPath>
</defs>
</svg>
