<svg width="148" height="32" viewBox="0 0 148 32" fill="none" xmlns="http://www.w3.org/2000/svg">
<g clip-path="url(#clip0_1_151)">
<path d="M143 0H31V32H143C145.761 32 148 29.7614 148 27V5C148 2.23858 145.761 0 143 0Z" fill="#0F1418"/>
<rect width="32" height="32" fill="black"/>
<mask id="mask0_1_151" style="mask-type:luminance" maskUnits="userSpaceOnUse" x="2" y="2" width="28" height="21">
<path d="M24.8 9.136C24.3739 7.11779 23.267 5.30737 21.6649 4.00817C20.0627 2.70898 18.0627 1.99997 16 1.99997C13.9373 1.99997 11.9373 2.70898 10.3351 4.00817C8.73299 5.30737 7.62611 7.11779 7.2 9.136C5.62673 9.46294 4.23032 10.361 3.28027 11.657C2.33022 12.9529 1.89387 14.5548 2.05544 16.1536C2.217 17.7523 2.96503 19.2345 4.15515 20.3142C5.34527 21.3939 6.89313 21.9944 8.5 22H12V20H8.5C7.34673 19.9863 6.24277 19.5302 5.41601 18.7261C4.58925 17.9219 4.10282 16.831 4.05714 15.6786C4.01145 14.5261 4.41001 13.4001 5.17052 12.533C5.93103 11.666 6.99544 11.124 8.144 11.019L8.96 10.955L9.06 10.143C9.26783 8.44819 10.0885 6.88796 11.3672 5.75644C12.646 4.62492 14.2945 4.00028 16.002 4.00028C17.7095 4.00028 19.358 4.62492 20.6368 5.75644C21.9155 6.88796 22.7362 8.44819 22.944 10.143L23.044 10.955L23.86 11.019C25.0088 11.1241 26.0734 11.6664 26.8338 12.5339C27.5943 13.4014 27.9925 14.5278 27.9463 15.6805C27.9001 16.8332 27.413 17.9241 26.5856 18.728C25.7581 19.5318 24.6535 19.9872 23.5 20H20V22H23.5C25.1069 21.9944 26.6547 21.3939 27.8448 20.3142C29.035 19.2345 29.783 17.7523 29.9446 16.1536C30.1061 14.5548 29.6698 12.9529 28.7197 11.657C27.7697 10.361 26.3733 9.46294 24.8 9.136Z" fill="white"/>
<path d="M5 16H13V23H5V16Z" fill="url(#paint0_linear_1_151)"/>
<path d="M27 23H19V16H27V23Z" fill="url(#paint1_linear_1_151)"/>
</mask>
<g mask="url(#mask0_1_151)">
<path d="M0 0H32V32H0V0Z" fill="url(#paint2_linear_1_151)"/>
</g>
<path d="M22 24C21.842 24.0032 21.6844 24.0193 21.529 24.048L18.229 17.992C18.7238 17.4464 18.9985 16.7366 19 16C19 15.2044 18.6839 14.4413 18.1213 13.8787C17.5587 13.3161 16.7957 13 16 13C15.2044 13 14.4413 13.3161 13.8787 13.8787C13.3161 14.4413 13 15.2044 13 16C13.0023 16.737 13.2781 17.4468 13.774 17.992L10.474 24.048C10.3176 24.0191 10.159 24.0031 10 24C9.40666 24 8.82664 24.1759 8.33329 24.5056C7.83994 24.8352 7.45543 25.3038 7.22836 25.8519C7.0013 26.4001 6.94189 27.0033 7.05765 27.5853C7.1734 28.1672 7.45912 28.7018 7.87868 29.1213C8.29824 29.5409 8.83279 29.8266 9.41473 29.9424C9.99667 30.0581 10.5999 29.9987 11.1481 29.7716C11.6962 29.5446 12.1648 29.1601 12.4944 28.6667C12.8241 28.1734 13 27.5933 13 27C12.9977 26.263 12.7219 25.5532 12.226 25.008L15.526 18.952C15.8367 19.016 16.1573 19.016 16.468 18.952L19.768 25.008C19.2743 25.5541 19.0006 26.2638 19 27C19 27.5933 19.1759 28.1734 19.5056 28.6667C19.8352 29.1601 20.3038 29.5446 20.852 29.7716C21.4001 29.9987 22.0033 30.0581 22.5853 29.9424C23.1672 29.8266 23.7018 29.5409 24.1213 29.1213C24.5409 28.7018 24.8266 28.1672 24.9424 27.5853C25.0581 27.0033 24.9987 26.4001 24.7716 25.8519C24.5446 25.3038 24.1601 24.8352 23.6667 24.5056C23.1734 24.1759 22.5933 24 22 24ZM16 15C16.1978 15 16.3911 15.0586 16.5556 15.1685C16.72 15.2784 16.8482 15.4346 16.9239 15.6173C16.9996 15.8 17.0194 16.0011 16.9808 16.1951C16.9422 16.3891 16.847 16.5673 16.7071 16.7071C16.5673 16.847 16.3891 16.9422 16.1951 16.9808C16.0011 17.0194 15.8 16.9996 15.6173 16.9239C15.4346 16.8482 15.2784 16.72 15.1685 16.5556C15.0587 16.3911 15 16.1978 15 16C15 15.7348 15.1054 15.4804 15.2929 15.2929C15.4804 15.1054 15.7348 15 16 15ZM10 28C9.80222 28 9.60888 27.9414 9.44443 27.8315C9.27998 27.7216 9.15181 27.5654 9.07612 27.3827C9.00043 27.2 8.98063 26.9989 9.01922 26.8049C9.0578 26.6109 9.15304 26.4327 9.29289 26.2929C9.43275 26.153 9.61093 26.0578 9.80491 26.0192C9.99889 25.9806 10.2 26.0004 10.3827 26.0761C10.5654 26.1518 10.7216 26.28 10.8315 26.4444C10.9414 26.6089 11 26.8022 11 27C11 27.2652 10.8946 27.5196 10.7071 27.7071C10.5196 27.8946 10.2652 28 10 28ZM22 28C21.8022 28 21.6089 27.9414 21.4444 27.8315C21.28 27.7216 21.1518 27.5654 21.0761 27.3827C21.0004 27.2 20.9806 26.9989 21.0192 26.8049C21.0578 26.6109 21.153 26.4327 21.2929 26.2929C21.4327 26.153 21.6109 26.0578 21.8049 26.0192C21.9989 25.9806 22.2 26.0004 22.3827 26.0761C22.5654 26.1518 22.7216 26.28 22.8315 26.4444C22.9414 26.6089 23 26.8022 23 27C23 27.2652 22.8946 27.5196 22.7071 27.7071C22.5196 27.8946 22.2652 28 22 28Z" fill="#F4F4F4"/>
<path d="M35.3552 21L34.7102 10.53H36.6452L36.9452 16.8L37.0352 18.78H37.1702L38.0702 12.81H40.0952L40.9952 18.78H41.1302L41.2202 16.86L41.5202 10.53H43.3802L42.7352 21H39.8852L39.1202 15.225H38.9702L38.2052 21H35.3552ZM51.0243 21C50.5643 21 50.1943 20.885 49.9143 20.655C49.6343 20.415 49.4693 20.075 49.4193 19.635H49.3443C49.2043 20.145 48.9243 20.53 48.5043 20.79C48.0943 21.05 47.5893 21.18 46.9893 21.18C46.2393 21.18 45.6343 20.98 45.1743 20.58C44.7243 20.17 44.4993 19.6 44.4993 18.87C44.4993 18.06 44.7943 17.46 45.3843 17.07C45.9743 16.68 46.8393 16.485 47.9793 16.485H49.2243V16.095C49.2243 15.635 49.1143 15.29 48.8943 15.06C48.6843 14.82 48.3243 14.7 47.8143 14.7C47.3443 14.7 46.9643 14.79 46.6743 14.97C46.3843 15.15 46.1343 15.385 45.9243 15.675L44.7093 14.595C44.9693 14.155 45.3743 13.795 45.9243 13.515C46.4843 13.225 47.1993 13.08 48.0693 13.08C49.1293 13.08 49.9543 13.325 50.5443 13.815C51.1443 14.295 51.4443 15.025 51.4443 16.005V19.395H52.2993V21H51.0243ZM47.8293 19.725C48.2193 19.725 48.5493 19.63 48.8193 19.44C49.0893 19.25 49.2243 18.975 49.2243 18.615V17.685H48.0393C47.1293 17.685 46.6743 17.99 46.6743 18.6V18.9C46.6743 19.17 46.7793 19.375 46.9893 19.515C47.1993 19.655 47.4793 19.725 47.8293 19.725ZM57.9934 21C57.1934 21 56.5984 20.79 56.2084 20.37C55.8184 19.95 55.6234 19.415 55.6234 18.765V14.985H53.5234V13.26H54.8884C55.2184 13.26 55.4534 13.195 55.5934 13.065C55.7334 12.935 55.8034 12.695 55.8034 12.345V10.53H57.8434V13.26H60.8584V14.985H57.8434V19.275H60.8584V21H57.9934ZM66.4776 21.18C65.6176 21.18 64.8676 21.05 64.2276 20.79C63.5976 20.53 63.1226 20.175 62.8026 19.725L64.0476 18.57C64.3476 18.9 64.6976 19.16 65.0976 19.35C65.5076 19.53 65.9726 19.62 66.4926 19.62C66.9326 19.62 67.2776 19.555 67.5276 19.425C67.7776 19.285 67.9026 19.075 67.9026 18.795C67.9026 18.575 67.8176 18.425 67.6476 18.345C67.4776 18.255 67.2426 18.185 66.9426 18.135L65.6976 17.94C65.3476 17.89 65.0226 17.815 64.7226 17.715C64.4226 17.605 64.1626 17.46 63.9426 17.28C63.7226 17.1 63.5476 16.88 63.4176 16.62C63.2876 16.36 63.2226 16.045 63.2226 15.675C63.2226 14.865 63.5326 14.23 64.1526 13.77C64.7726 13.31 65.6426 13.08 66.7626 13.08C67.5226 13.08 68.1676 13.185 68.6976 13.395C69.2376 13.595 69.6676 13.885 69.9876 14.265L68.8776 15.525C68.6476 15.275 68.3526 15.065 67.9926 14.895C67.6326 14.725 67.1976 14.64 66.6876 14.64C65.8276 14.64 65.3976 14.9 65.3976 15.42C65.3976 15.65 65.4826 15.81 65.6526 15.9C65.8226 15.98 66.0576 16.045 66.3576 16.095L67.5876 16.29C67.9376 16.34 68.2626 16.42 68.5626 16.53C68.8626 16.63 69.1226 16.77 69.3426 16.95C69.5726 17.13 69.7526 17.35 69.8826 17.61C70.0126 17.87 70.0776 18.185 70.0776 18.555C70.0776 19.365 69.7626 20.005 69.1326 20.475C68.5126 20.945 67.6276 21.18 66.4776 21.18ZM75.7417 21.18C75.1417 21.18 74.6017 21.09 74.1217 20.91C73.6417 20.72 73.2317 20.45 72.8917 20.1C72.5617 19.75 72.3067 19.325 72.1267 18.825C71.9467 18.325 71.8567 17.76 71.8567 17.13C71.8567 16.5 71.9467 15.935 72.1267 15.435C72.3067 14.935 72.5617 14.51 72.8917 14.16C73.2317 13.81 73.6417 13.545 74.1217 13.365C74.6017 13.175 75.1417 13.08 75.7417 13.08C76.3417 13.08 76.8817 13.175 77.3617 13.365C77.8417 13.545 78.2467 13.81 78.5767 14.16C78.9167 14.51 79.1767 14.935 79.3567 15.435C79.5367 15.935 79.6267 16.5 79.6267 17.13C79.6267 17.76 79.5367 18.325 79.3567 18.825C79.1767 19.325 78.9167 19.75 78.5767 20.1C78.2467 20.45 77.8417 20.72 77.3617 20.91C76.8817 21.09 76.3417 21.18 75.7417 21.18ZM75.7417 19.53C76.2417 19.53 76.6317 19.375 76.9117 19.065C77.1917 18.755 77.3317 18.315 77.3317 17.745V16.515C77.3317 15.945 77.1917 15.505 76.9117 15.195C76.6317 14.885 76.2417 14.73 75.7417 14.73C75.2417 14.73 74.8517 14.885 74.5717 15.195C74.2917 15.505 74.1517 15.945 74.1517 16.515V17.745C74.1517 18.315 74.2917 18.755 74.5717 19.065C74.8517 19.375 75.2417 19.53 75.7417 19.53ZM81.3909 21V13.26H83.6109V14.67H83.7009C83.7909 14.45 83.9009 14.245 84.0309 14.055C84.1609 13.865 84.3159 13.7 84.4959 13.56C84.6859 13.41 84.9009 13.295 85.1409 13.215C85.3909 13.125 85.6709 13.08 85.9809 13.08C86.3509 13.08 86.6909 13.145 87.0009 13.275C87.3109 13.395 87.5759 13.58 87.7959 13.83C88.0159 14.08 88.1859 14.385 88.3059 14.745C88.4359 15.105 88.5009 15.52 88.5009 15.99V21H86.2809V16.29C86.2809 15.29 85.8459 14.79 84.9759 14.79C84.8059 14.79 84.6359 14.815 84.4659 14.865C84.3059 14.905 84.1609 14.975 84.0309 15.075C83.9009 15.165 83.7959 15.28 83.7159 15.42C83.6459 15.56 83.6109 15.725 83.6109 15.915V21H81.3909ZM106.654 23.865H104.524C103.714 23.865 103.139 23.67 102.799 23.28C102.459 22.89 102.289 22.365 102.289 21.705V21.09C101.219 20.88 100.429 20.32 99.9191 19.41C99.4191 18.49 99.1691 17.275 99.1691 15.765C99.1691 14.055 99.4991 12.725 100.159 11.775C100.829 10.825 101.864 10.35 103.264 10.35C104.664 10.35 105.694 10.825 106.354 11.775C107.024 12.725 107.359 14.055 107.359 15.765C107.359 17.275 107.104 18.49 106.594 19.41C106.094 20.32 105.309 20.88 104.239 21.09V22.26H106.654V23.865ZM103.264 19.365C103.904 19.365 104.344 19.13 104.584 18.66C104.834 18.18 104.959 17.515 104.959 16.665V14.85C104.959 14.01 104.834 13.355 104.584 12.885C104.344 12.405 103.904 12.165 103.264 12.165C102.624 12.165 102.179 12.405 101.929 12.885C101.689 13.355 101.569 14.01 101.569 14.85V16.68C101.569 17.52 101.689 18.18 101.929 18.66C102.179 19.13 102.624 19.365 103.264 19.365ZM113.743 19.59H113.653C113.483 20.03 113.213 20.405 112.843 20.715C112.483 21.025 111.993 21.18 111.373 21.18C111.003 21.18 110.663 21.12 110.353 21C110.043 20.87 109.778 20.68 109.558 20.43C109.338 20.18 109.163 19.875 109.033 19.515C108.913 19.155 108.853 18.74 108.853 18.27V13.26H111.073V17.97C111.073 18.97 111.508 19.47 112.378 19.47C112.548 19.47 112.713 19.45 112.873 19.41C113.043 19.36 113.188 19.29 113.308 19.2C113.438 19.1 113.543 18.98 113.623 18.84C113.703 18.7 113.743 18.535 113.743 18.345V13.26H115.963V21H113.743V19.59ZM121.822 21.18C120.522 21.18 119.537 20.82 118.867 20.1C118.197 19.38 117.862 18.4 117.862 17.16C117.862 16.53 117.947 15.965 118.117 15.465C118.297 14.955 118.547 14.525 118.867 14.175C119.197 13.815 119.592 13.545 120.052 13.365C120.522 13.175 121.047 13.08 121.627 13.08C122.207 13.08 122.727 13.175 123.187 13.365C123.647 13.545 124.037 13.805 124.357 14.145C124.677 14.485 124.922 14.9 125.092 15.39C125.272 15.87 125.362 16.41 125.362 17.01V17.67H120.067V17.805C120.067 18.305 120.222 18.71 120.532 19.02C120.842 19.32 121.297 19.47 121.897 19.47C122.357 19.47 122.752 19.385 123.082 19.215C123.412 19.035 123.697 18.8 123.937 18.51L125.137 19.815C124.837 20.185 124.417 20.505 123.877 20.775C123.337 21.045 122.652 21.18 121.822 21.18ZM121.642 14.67C121.162 14.67 120.777 14.82 120.487 15.12C120.207 15.41 120.067 15.805 120.067 16.305V16.425H123.187V16.305C123.187 15.795 123.047 15.395 122.767 15.105C122.497 14.815 122.122 14.67 121.642 14.67ZM127.397 19.275H129.182V14.985H127.397V13.26H131.402V15.45H131.507C131.577 15.17 131.672 14.9 131.792 14.64C131.922 14.37 132.082 14.135 132.272 13.935C132.472 13.725 132.712 13.56 132.992 13.44C133.272 13.32 133.602 13.26 133.982 13.26H134.717V15.3H133.067C132.517 15.3 132.102 15.465 131.822 15.795C131.542 16.115 131.402 16.51 131.402 16.98V19.275H133.952V21H127.397V19.275ZM141.911 13.26H144.176L140.531 22.245C140.301 22.815 139.996 23.25 139.616 23.55C139.236 23.85 138.716 24 138.056 24H136.526V22.275H138.386L138.866 20.955L135.746 13.26H138.131L139.256 16.515L139.961 18.765H140.081L140.756 16.515L141.911 13.26Z" fill="white"/>
<path d="M143 0H5C2.23858 0 0 2.23858 0 5V27C0 29.7614 2.23858 32 5 32H143C145.761 32 148 29.7614 148 27V5C148 2.23858 145.761 0 143 0Z" fill="url(#paint3_linear_1_151)"/>
</g>
<defs>
<linearGradient id="paint0_linear_1_151" x1="5" y1="19.5" x2="13" y2="19.5" gradientUnits="userSpaceOnUse">
<stop offset="0.001" stop-opacity="0"/>
<stop offset="0.7"/>
</linearGradient>
<linearGradient id="paint1_linear_1_151" x1="27" y1="19.5" x2="19" y2="19.5" gradientUnits="userSpaceOnUse">
<stop offset="0.001" stop-opacity="0"/>
<stop offset="0.7"/>
</linearGradient>
<linearGradient id="paint2_linear_1_151" x1="0" y1="32" x2="32" y2="0" gradientUnits="userSpaceOnUse">
<stop offset="0.1" stop-color="#3DDBD9"/>
<stop offset="0.9" stop-color="#4589FF"/>
</linearGradient>
<linearGradient id="paint3_linear_1_151" x1="0" y1="0" x2="0" y2="32" gradientUnits="userSpaceOnUse">
<stop stop-color="#BBBBBB" stop-opacity="0.1"/>
<stop offset="1" stop-opacity="0.1"/>
</linearGradient>
<clipPath id="clip0_1_151">
<rect width="148" height="32" rx="5" fill="white"/>
</clipPath>
</defs>
</svg>
