<svg width="266" height="32" viewBox="0 0 266 32" fill="none" xmlns="http://www.w3.org/2000/svg">
<g clip-path="url(#clip0_1_230)">
<rect width="266" height="32" rx="5" fill="black"/>
<path d="M261 0H31V32H261C263.761 32 266 29.7614 266 27V5C266 2.23858 263.761 0 261 0Z" fill="#0F1418"/>
<mask id="mask0_1_230" style="mask-type:luminance" maskUnits="userSpaceOnUse" x="2" y="2" width="25" height="28">
<path d="M12 8H20V10H12V8Z" fill="white"/>
<path d="M16 28H6V24H8V22H6V17H8V15H6V10H8V8H6V4H24V21H26V4C26 3.46957 25.7893 2.96086 25.4142 2.58579C25.0391 2.21071 24.5304 2 24 2H6C5.46957 2 4.96086 2.21071 4.58579 2.58579C4.21071 2.96086 4 3.46957 4 4V8H2V10H4V15H2V17H4V22H2V24H4V28C4 28.5304 4.21071 29.0391 4.58579 29.4142C4.96086 29.7893 5.46957 30 6 30H16V28Z" fill="white"/>
<path d="M12 13H20V15H12V13ZM12 18H20V20H12V18Z" fill="white"/>
<path d="M27 13V22H23.475V13H27Z" fill="url(#paint0_linear_1_230)"/>
</mask>
<g mask="url(#mask0_1_230)">
<path d="M0 0H32V32H0V0Z" fill="url(#paint1_linear_1_230)"/>
</g>
<path d="M23 27.18L20.41 24.59L19 26L23 30L30 23L28.59 21.59L23 27.18Z" fill="#F4F4F4"/>
<path d="M39.3103 21L38.6653 10.53H40.6003L40.9003 16.8L40.9903 18.78H41.1253L42.0253 12.81H44.0503L44.9503 18.78H45.0853L45.1753 16.86L45.4753 10.53H47.3353L46.6903 21H43.8403L43.0753 15.225H42.9253L42.1603 21H39.3103ZM54.9795 21C54.5195 21 54.1495 20.885 53.8695 20.655C53.5895 20.415 53.4245 20.075 53.3745 19.635H53.2995C53.1595 20.145 52.8795 20.53 52.4595 20.79C52.0495 21.05 51.5445 21.18 50.9445 21.18C50.1945 21.18 49.5895 20.98 49.1295 20.58C48.6795 20.17 48.4545 19.6 48.4545 18.87C48.4545 18.06 48.7495 17.46 49.3395 17.07C49.9295 16.68 50.7945 16.485 51.9345 16.485H53.1795V16.095C53.1795 15.635 53.0695 15.29 52.8495 15.06C52.6395 14.82 52.2795 14.7 51.7695 14.7C51.2995 14.7 50.9195 14.79 50.6295 14.97C50.3395 15.15 50.0895 15.385 49.8795 15.675L48.6645 14.595C48.9245 14.155 49.3295 13.795 49.8795 13.515C50.4395 13.225 51.1545 13.08 52.0245 13.08C53.0845 13.08 53.9095 13.325 54.4995 13.815C55.0995 14.295 55.3995 15.025 55.3995 16.005V19.395H56.2545V21H54.9795ZM51.7845 19.725C52.1745 19.725 52.5045 19.63 52.7745 19.44C53.0445 19.25 53.1795 18.975 53.1795 18.615V17.685H51.9945C51.0845 17.685 50.6295 17.99 50.6295 18.6V18.9C50.6295 19.17 50.7345 19.375 50.9445 19.515C51.1545 19.655 51.4345 19.725 51.7845 19.725ZM61.9486 21C61.1486 21 60.5536 20.79 60.1636 20.37C59.7736 19.95 59.5786 19.415 59.5786 18.765V14.985H57.4786V13.26H58.8436C59.1736 13.26 59.4086 13.195 59.5486 13.065C59.6886 12.935 59.7586 12.695 59.7586 12.345V10.53H61.7986V13.26H64.8136V14.985H61.7986V19.275H64.8136V21H61.9486ZM70.4327 21.18C69.5727 21.18 68.8227 21.05 68.1827 20.79C67.5527 20.53 67.0777 20.175 66.7577 19.725L68.0027 18.57C68.3027 18.9 68.6527 19.16 69.0527 19.35C69.4627 19.53 69.9277 19.62 70.4477 19.62C70.8877 19.62 71.2327 19.555 71.4827 19.425C71.7327 19.285 71.8577 19.075 71.8577 18.795C71.8577 18.575 71.7727 18.425 71.6027 18.345C71.4327 18.255 71.1977 18.185 70.8977 18.135L69.6527 17.94C69.3027 17.89 68.9777 17.815 68.6777 17.715C68.3777 17.605 68.1177 17.46 67.8977 17.28C67.6777 17.1 67.5027 16.88 67.3727 16.62C67.2427 16.36 67.1777 16.045 67.1777 15.675C67.1777 14.865 67.4877 14.23 68.1077 13.77C68.7277 13.31 69.5977 13.08 70.7177 13.08C71.4777 13.08 72.1227 13.185 72.6527 13.395C73.1927 13.595 73.6227 13.885 73.9427 14.265L72.8327 15.525C72.6027 15.275 72.3077 15.065 71.9477 14.895C71.5877 14.725 71.1527 14.64 70.6427 14.64C69.7827 14.64 69.3527 14.9 69.3527 15.42C69.3527 15.65 69.4377 15.81 69.6077 15.9C69.7777 15.98 70.0127 16.045 70.3127 16.095L71.5427 16.29C71.8927 16.34 72.2177 16.42 72.5177 16.53C72.8177 16.63 73.0777 16.77 73.2977 16.95C73.5277 17.13 73.7077 17.35 73.8377 17.61C73.9677 17.87 74.0327 18.185 74.0327 18.555C74.0327 19.365 73.7177 20.005 73.0877 20.475C72.4677 20.945 71.5827 21.18 70.4327 21.18ZM79.6969 21.18C79.0969 21.18 78.5569 21.09 78.0769 20.91C77.5969 20.72 77.1869 20.45 76.8469 20.1C76.5169 19.75 76.2619 19.325 76.0819 18.825C75.9019 18.325 75.8119 17.76 75.8119 17.13C75.8119 16.5 75.9019 15.935 76.0819 15.435C76.2619 14.935 76.5169 14.51 76.8469 14.16C77.1869 13.81 77.5969 13.545 78.0769 13.365C78.5569 13.175 79.0969 13.08 79.6969 13.08C80.2969 13.08 80.8369 13.175 81.3169 13.365C81.7969 13.545 82.2019 13.81 82.5319 14.16C82.8719 14.51 83.1319 14.935 83.3119 15.435C83.4919 15.935 83.5819 16.5 83.5819 17.13C83.5819 17.76 83.4919 18.325 83.3119 18.825C83.1319 19.325 82.8719 19.75 82.5319 20.1C82.2019 20.45 81.7969 20.72 81.3169 20.91C80.8369 21.09 80.2969 21.18 79.6969 21.18ZM79.6969 19.53C80.1969 19.53 80.5869 19.375 80.8669 19.065C81.1469 18.755 81.2869 18.315 81.2869 17.745V16.515C81.2869 15.945 81.1469 15.505 80.8669 15.195C80.5869 14.885 80.1969 14.73 79.6969 14.73C79.1969 14.73 78.8069 14.885 78.5269 15.195C78.2469 15.505 78.1069 15.945 78.1069 16.515V17.745C78.1069 18.315 78.2469 18.755 78.5269 19.065C78.8069 19.375 79.1969 19.53 79.6969 19.53ZM85.346 21V13.26H87.566V14.67H87.656C87.746 14.45 87.856 14.245 87.986 14.055C88.116 13.865 88.271 13.7 88.451 13.56C88.641 13.41 88.856 13.295 89.096 13.215C89.346 13.125 89.626 13.08 89.936 13.08C90.306 13.08 90.646 13.145 90.956 13.275C91.266 13.395 91.531 13.58 91.751 13.83C91.971 14.08 92.141 14.385 92.261 14.745C92.391 15.105 92.456 15.52 92.456 15.99V21H90.236V16.29C90.236 15.29 89.801 14.79 88.931 14.79C88.761 14.79 88.591 14.815 88.421 14.865C88.261 14.905 88.116 14.975 87.986 15.075C87.856 15.165 87.751 15.28 87.671 15.42C87.601 15.56 87.566 15.725 87.566 15.915V21H85.346ZM106.919 16.635L105.989 17.94V21H103.739V10.53H105.989V14.91H106.109L107.249 13.17L109.094 10.53H111.614L108.479 14.955L111.764 21H109.229L106.919 16.635ZM112.868 21V13.26H115.088V14.67H115.178C115.268 14.45 115.378 14.245 115.508 14.055C115.638 13.865 115.793 13.7 115.973 13.56C116.163 13.41 116.378 13.295 116.618 13.215C116.868 13.125 117.148 13.08 117.458 13.08C117.828 13.08 118.168 13.145 118.478 13.275C118.788 13.395 119.053 13.58 119.273 13.83C119.493 14.08 119.663 14.385 119.783 14.745C119.913 15.105 119.978 15.52 119.978 15.99V21H117.758V16.29C117.758 15.29 117.323 14.79 116.453 14.79C116.283 14.79 116.113 14.815 115.943 14.865C115.783 14.905 115.638 14.975 115.508 15.075C115.378 15.165 115.273 15.28 115.193 15.42C115.123 15.56 115.088 15.725 115.088 15.915V21H112.868ZM125.568 21.18C124.968 21.18 124.428 21.09 123.948 20.91C123.468 20.72 123.058 20.45 122.718 20.1C122.388 19.75 122.133 19.325 121.953 18.825C121.773 18.325 121.683 17.76 121.683 17.13C121.683 16.5 121.773 15.935 121.953 15.435C122.133 14.935 122.388 14.51 122.718 14.16C123.058 13.81 123.468 13.545 123.948 13.365C124.428 13.175 124.968 13.08 125.568 13.08C126.168 13.08 126.708 13.175 127.188 13.365C127.668 13.545 128.073 13.81 128.403 14.16C128.743 14.51 129.003 14.935 129.183 15.435C129.363 15.935 129.453 16.5 129.453 17.13C129.453 17.76 129.363 18.325 129.183 18.825C129.003 19.325 128.743 19.75 128.403 20.1C128.073 20.45 127.668 20.72 127.188 20.91C126.708 21.09 126.168 21.18 125.568 21.18ZM125.568 19.53C126.068 19.53 126.458 19.375 126.738 19.065C127.018 18.755 127.158 18.315 127.158 17.745V16.515C127.158 15.945 127.018 15.505 126.738 15.195C126.458 14.885 126.068 14.73 125.568 14.73C125.068 14.73 124.678 14.885 124.398 15.195C124.118 15.505 123.978 15.945 123.978 16.515V17.745C123.978 18.315 124.118 18.755 124.398 19.065C124.678 19.375 125.068 19.53 125.568 19.53ZM130.347 13.26H132.192L132.747 19.53H132.897L133.812 13.26H135.762L136.662 19.53H136.812L137.382 13.26H139.137L138.222 21H135.582L134.817 15.66H134.667L133.902 21H131.262L130.347 13.26ZM140.436 19.275H142.806V11.625H140.436V9.9H145.026V19.275H147.396V21H140.436V19.275ZM153.3 21.18C152 21.18 151.015 20.82 150.345 20.1C149.675 19.38 149.34 18.4 149.34 17.16C149.34 16.53 149.425 15.965 149.595 15.465C149.775 14.955 150.025 14.525 150.345 14.175C150.675 13.815 151.07 13.545 151.53 13.365C152 13.175 152.525 13.08 153.105 13.08C153.685 13.08 154.205 13.175 154.665 13.365C155.125 13.545 155.515 13.805 155.835 14.145C156.155 14.485 156.4 14.9 156.57 15.39C156.75 15.87 156.84 16.41 156.84 17.01V17.67H151.545V17.805C151.545 18.305 151.7 18.71 152.01 19.02C152.32 19.32 152.775 19.47 153.375 19.47C153.835 19.47 154.23 19.385 154.56 19.215C154.89 19.035 155.175 18.8 155.415 18.51L156.615 19.815C156.315 20.185 155.895 20.505 155.355 20.775C154.815 21.045 154.13 21.18 153.3 21.18ZM153.12 14.67C152.64 14.67 152.255 14.82 151.965 15.12C151.685 15.41 151.545 15.805 151.545 16.305V16.425H154.665V16.305C154.665 15.795 154.525 15.395 154.245 15.105C153.975 14.815 153.6 14.67 153.12 14.67ZM163.659 19.59H163.554C163.354 20.06 163.074 20.445 162.714 20.745C162.364 21.035 161.879 21.18 161.259 21.18C160.829 21.18 160.434 21.1 160.074 20.94C159.724 20.78 159.419 20.535 159.159 20.205C158.909 19.875 158.709 19.455 158.559 18.945C158.419 18.435 158.349 17.83 158.349 17.13C158.349 16.43 158.419 15.825 158.559 15.315C158.709 14.805 158.909 14.385 159.159 14.055C159.419 13.725 159.724 13.48 160.074 13.32C160.434 13.16 160.829 13.08 161.259 13.08C161.569 13.08 161.844 13.12 162.084 13.2C162.324 13.28 162.534 13.39 162.714 13.53C162.904 13.67 163.064 13.84 163.194 14.04C163.334 14.23 163.454 14.44 163.554 14.67H163.659V9.9H165.879V21H163.659V19.59ZM162.219 19.455C162.609 19.455 162.944 19.36 163.224 19.17C163.514 18.98 163.659 18.68 163.659 18.27V15.99C163.659 15.58 163.514 15.28 163.224 15.09C162.944 14.9 162.609 14.805 162.219 14.805C161.719 14.805 161.334 14.96 161.064 15.27C160.794 15.57 160.659 15.99 160.659 16.53V17.73C160.659 18.27 160.794 18.695 161.064 19.005C161.334 19.305 161.719 19.455 162.219 19.455ZM175.683 21.78C175.683 22.6 175.338 23.205 174.648 23.595C173.958 23.985 172.873 24.18 171.393 24.18C170.653 24.18 170.043 24.135 169.563 24.045C169.083 23.965 168.698 23.845 168.408 23.685C168.128 23.525 167.928 23.335 167.808 23.115C167.698 22.895 167.643 22.655 167.643 22.395C167.643 21.955 167.773 21.62 168.033 21.39C168.293 21.17 168.658 21 169.128 20.88V20.79C168.798 20.69 168.533 20.55 168.333 20.37C168.143 20.18 168.048 19.915 168.048 19.575C168.048 19.195 168.173 18.915 168.423 18.735C168.683 18.555 169.023 18.415 169.443 18.315V18.225C168.983 18.005 168.623 17.695 168.363 17.295C168.113 16.895 167.988 16.41 167.988 15.84C167.988 15.39 168.068 14.995 168.228 14.655C168.388 14.305 168.613 14.015 168.903 13.785C169.203 13.555 169.558 13.38 169.968 13.26C170.378 13.14 170.838 13.08 171.348 13.08C171.838 13.08 172.293 13.135 172.713 13.245V12.825C172.713 12.525 172.818 12.275 173.028 12.075C173.238 11.875 173.528 11.775 173.898 11.775H175.263V13.395H173.403V13.53C173.823 13.75 174.148 14.055 174.378 14.445C174.618 14.825 174.738 15.29 174.738 15.84C174.738 16.29 174.658 16.685 174.498 17.025C174.338 17.365 174.108 17.655 173.808 17.895C173.508 18.125 173.148 18.3 172.728 18.42C172.318 18.54 171.858 18.6 171.348 18.6C171.118 18.6 170.898 18.59 170.688 18.57C170.478 18.54 170.278 18.5 170.088 18.45C169.978 18.51 169.883 18.585 169.803 18.675C169.733 18.765 169.698 18.88 169.698 19.02C169.698 19.14 169.728 19.235 169.788 19.305C169.848 19.375 169.928 19.43 170.028 19.47C170.138 19.5 170.263 19.52 170.403 19.53C170.543 19.54 170.688 19.545 170.838 19.545H172.608C173.158 19.545 173.628 19.6 174.018 19.71C174.408 19.82 174.728 19.975 174.978 20.175C175.228 20.375 175.408 20.61 175.518 20.88C175.628 21.15 175.683 21.45 175.683 21.78ZM173.583 21.945C173.583 21.745 173.503 21.585 173.343 21.465C173.183 21.355 172.878 21.3 172.428 21.3H169.773C169.573 21.47 169.473 21.68 169.473 21.93C169.473 22.17 169.573 22.365 169.773 22.515C169.983 22.675 170.333 22.755 170.823 22.755H172.128C172.638 22.755 173.008 22.685 173.238 22.545C173.468 22.405 173.583 22.205 173.583 21.945ZM171.348 17.19C171.798 17.19 172.123 17.08 172.323 16.86C172.533 16.64 172.638 16.36 172.638 16.02V15.66C172.638 15.32 172.533 15.04 172.323 14.82C172.123 14.6 171.798 14.49 171.348 14.49C170.908 14.49 170.588 14.6 170.388 14.82C170.188 15.04 170.088 15.32 170.088 15.66V16.02C170.088 16.36 170.188 16.64 170.388 16.86C170.588 17.08 170.908 17.19 171.348 17.19ZM180.822 21.18C179.522 21.18 178.537 20.82 177.867 20.1C177.197 19.38 176.862 18.4 176.862 17.16C176.862 16.53 176.947 15.965 177.117 15.465C177.297 14.955 177.547 14.525 177.867 14.175C178.197 13.815 178.592 13.545 179.052 13.365C179.522 13.175 180.047 13.08 180.627 13.08C181.207 13.08 181.727 13.175 182.187 13.365C182.647 13.545 183.037 13.805 183.357 14.145C183.677 14.485 183.922 14.9 184.092 15.39C184.272 15.87 184.362 16.41 184.362 17.01V17.67H179.067V17.805C179.067 18.305 179.222 18.71 179.532 19.02C179.842 19.32 180.297 19.47 180.897 19.47C181.357 19.47 181.752 19.385 182.082 19.215C182.412 19.035 182.697 18.8 182.937 18.51L184.137 19.815C183.837 20.185 183.417 20.505 182.877 20.775C182.337 21.045 181.652 21.18 180.822 21.18ZM180.642 14.67C180.162 14.67 179.777 14.82 179.487 15.12C179.207 15.41 179.067 15.805 179.067 16.305V16.425H182.187V16.305C182.187 15.795 182.047 15.395 181.767 15.105C181.497 14.815 181.122 14.67 180.642 14.67ZM199.201 21.18C197.801 21.18 196.761 20.71 196.081 19.77C195.411 18.82 195.076 17.485 195.076 15.765C195.076 14.045 195.411 12.715 196.081 11.775C196.761 10.825 197.801 10.35 199.201 10.35C199.741 10.35 200.216 10.425 200.626 10.575C201.046 10.715 201.406 10.915 201.706 11.175C202.006 11.435 202.251 11.75 202.441 12.12C202.641 12.49 202.796 12.905 202.906 13.365L200.806 13.875C200.746 13.625 200.676 13.395 200.596 13.185C200.516 12.975 200.411 12.795 200.281 12.645C200.161 12.495 200.006 12.38 199.816 12.3C199.636 12.21 199.416 12.165 199.156 12.165C198.546 12.165 198.111 12.405 197.851 12.885C197.601 13.355 197.476 14.01 197.476 14.85V16.68C197.476 17.52 197.601 18.18 197.851 18.66C198.111 19.13 198.546 19.365 199.156 19.365C199.676 19.365 200.051 19.205 200.281 18.885C200.521 18.565 200.696 18.155 200.806 17.655L202.906 18.165C202.796 18.625 202.641 19.04 202.441 19.41C202.251 19.78 202.006 20.1 201.706 20.37C201.406 20.63 201.046 20.83 200.626 20.97C200.216 21.11 199.741 21.18 199.201 21.18ZM210.94 21C210.48 21 210.11 20.885 209.83 20.655C209.55 20.415 209.385 20.075 209.335 19.635H209.26C209.12 20.145 208.84 20.53 208.42 20.79C208.01 21.05 207.505 21.18 206.905 21.18C206.155 21.18 205.55 20.98 205.09 20.58C204.64 20.17 204.415 19.6 204.415 18.87C204.415 18.06 204.71 17.46 205.3 17.07C205.89 16.68 206.755 16.485 207.895 16.485H209.14V16.095C209.14 15.635 209.03 15.29 208.81 15.06C208.6 14.82 208.24 14.7 207.73 14.7C207.26 14.7 206.88 14.79 206.59 14.97C206.3 15.15 206.05 15.385 205.84 15.675L204.625 14.595C204.885 14.155 205.29 13.795 205.84 13.515C206.4 13.225 207.115 13.08 207.985 13.08C209.045 13.08 209.87 13.325 210.46 13.815C211.06 14.295 211.36 15.025 211.36 16.005V19.395H212.215V21H210.94ZM207.745 19.725C208.135 19.725 208.465 19.63 208.735 19.44C209.005 19.25 209.14 18.975 209.14 18.615V17.685H207.955C207.045 17.685 206.59 17.99 206.59 18.6V18.9C206.59 19.17 206.695 19.375 206.905 19.515C207.115 19.655 207.395 19.725 207.745 19.725ZM217.909 21C217.109 21 216.514 20.79 216.124 20.37C215.734 19.95 215.539 19.415 215.539 18.765V14.985H213.439V13.26H214.804C215.134 13.26 215.369 13.195 215.509 13.065C215.649 12.935 215.719 12.695 215.719 12.345V10.53H217.759V13.26H220.774V14.985H217.759V19.275H220.774V21H217.909ZM229.288 21C228.828 21 228.458 20.885 228.178 20.655C227.898 20.415 227.733 20.075 227.683 19.635H227.608C227.468 20.145 227.188 20.53 226.768 20.79C226.358 21.05 225.853 21.18 225.253 21.18C224.503 21.18 223.898 20.98 223.438 20.58C222.988 20.17 222.763 19.6 222.763 18.87C222.763 18.06 223.058 17.46 223.648 17.07C224.238 16.68 225.103 16.485 226.243 16.485H227.488V16.095C227.488 15.635 227.378 15.29 227.158 15.06C226.948 14.82 226.588 14.7 226.078 14.7C225.608 14.7 225.228 14.79 224.938 14.97C224.648 15.15 224.398 15.385 224.188 15.675L222.973 14.595C223.233 14.155 223.638 13.795 224.188 13.515C224.748 13.225 225.463 13.08 226.333 13.08C227.393 13.08 228.218 13.325 228.808 13.815C229.408 14.295 229.708 15.025 229.708 16.005V19.395H230.563V21H229.288ZM226.093 19.725C226.483 19.725 226.813 19.63 227.083 19.44C227.353 19.25 227.488 18.975 227.488 18.615V17.685H226.303C225.393 17.685 224.938 17.99 224.938 18.6V18.9C224.938 19.17 225.043 19.375 225.253 19.515C225.463 19.655 225.743 19.725 226.093 19.725ZM232.177 19.275H234.547V11.625H232.177V9.9H236.767V19.275H239.137V21H232.177V19.275ZM244.831 21.18C244.231 21.18 243.691 21.09 243.211 20.91C242.731 20.72 242.321 20.45 241.981 20.1C241.651 19.75 241.396 19.325 241.216 18.825C241.036 18.325 240.946 17.76 240.946 17.13C240.946 16.5 241.036 15.935 241.216 15.435C241.396 14.935 241.651 14.51 241.981 14.16C242.321 13.81 242.731 13.545 243.211 13.365C243.691 13.175 244.231 13.08 244.831 13.08C245.431 13.08 245.971 13.175 246.451 13.365C246.931 13.545 247.336 13.81 247.666 14.16C248.006 14.51 248.266 14.935 248.446 15.435C248.626 15.935 248.716 16.5 248.716 17.13C248.716 17.76 248.626 18.325 248.446 18.825C248.266 19.325 248.006 19.75 247.666 20.1C247.336 20.45 246.931 20.72 246.451 20.91C245.971 21.09 245.431 21.18 244.831 21.18ZM244.831 19.53C245.331 19.53 245.721 19.375 246.001 19.065C246.281 18.755 246.421 18.315 246.421 17.745V16.515C246.421 15.945 246.281 15.505 246.001 15.195C245.721 14.885 245.331 14.73 244.831 14.73C244.331 14.73 243.941 14.885 243.661 15.195C243.381 15.505 243.241 15.945 243.241 16.515V17.745C243.241 18.315 243.381 18.755 243.661 19.065C243.941 19.375 244.331 19.53 244.831 19.53ZM258.251 21.78C258.251 22.6 257.906 23.205 257.216 23.595C256.526 23.985 255.441 24.18 253.961 24.18C253.221 24.18 252.611 24.135 252.131 24.045C251.651 23.965 251.266 23.845 250.976 23.685C250.696 23.525 250.496 23.335 250.376 23.115C250.266 22.895 250.211 22.655 250.211 22.395C250.211 21.955 250.341 21.62 250.601 21.39C250.861 21.17 251.226 21 251.696 20.88V20.79C251.366 20.69 251.101 20.55 250.901 20.37C250.711 20.18 250.616 19.915 250.616 19.575C250.616 19.195 250.741 18.915 250.991 18.735C251.251 18.555 251.591 18.415 252.011 18.315V18.225C251.551 18.005 251.191 17.695 250.931 17.295C250.681 16.895 250.556 16.41 250.556 15.84C250.556 15.39 250.636 14.995 250.796 14.655C250.956 14.305 251.181 14.015 251.471 13.785C251.771 13.555 252.126 13.38 252.536 13.26C252.946 13.14 253.406 13.08 253.916 13.08C254.406 13.08 254.861 13.135 255.281 13.245V12.825C255.281 12.525 255.386 12.275 255.596 12.075C255.806 11.875 256.096 11.775 256.466 11.775H257.831V13.395H255.971V13.53C256.391 13.75 256.716 14.055 256.946 14.445C257.186 14.825 257.306 15.29 257.306 15.84C257.306 16.29 257.226 16.685 257.066 17.025C256.906 17.365 256.676 17.655 256.376 17.895C256.076 18.125 255.716 18.3 255.296 18.42C254.886 18.54 254.426 18.6 253.916 18.6C253.686 18.6 253.466 18.59 253.256 18.57C253.046 18.54 252.846 18.5 252.656 18.45C252.546 18.51 252.451 18.585 252.371 18.675C252.301 18.765 252.266 18.88 252.266 19.02C252.266 19.14 252.296 19.235 252.356 19.305C252.416 19.375 252.496 19.43 252.596 19.47C252.706 19.5 252.831 19.52 252.971 19.53C253.111 19.54 253.256 19.545 253.406 19.545H255.176C255.726 19.545 256.196 19.6 256.586 19.71C256.976 19.82 257.296 19.975 257.546 20.175C257.796 20.375 257.976 20.61 258.086 20.88C258.196 21.15 258.251 21.45 258.251 21.78ZM256.151 21.945C256.151 21.745 256.071 21.585 255.911 21.465C255.751 21.355 255.446 21.3 254.996 21.3H252.341C252.141 21.47 252.041 21.68 252.041 21.93C252.041 22.17 252.141 22.365 252.341 22.515C252.551 22.675 252.901 22.755 253.391 22.755H254.696C255.206 22.755 255.576 22.685 255.806 22.545C256.036 22.405 256.151 22.205 256.151 21.945ZM253.916 17.19C254.366 17.19 254.691 17.08 254.891 16.86C255.101 16.64 255.206 16.36 255.206 16.02V15.66C255.206 15.32 255.101 15.04 254.891 14.82C254.691 14.6 254.366 14.49 253.916 14.49C253.476 14.49 253.156 14.6 252.956 14.82C252.756 15.04 252.656 15.32 252.656 15.66V16.02C252.656 16.36 252.756 16.64 252.956 16.86C253.156 17.08 253.476 17.19 253.916 17.19Z" fill="white"/>
<path d="M261 0H5C2.23858 0 0 2.23858 0 5V27C0 29.7614 2.23857 32 5 32H261C263.761 32 266 29.7614 266 27V5C266 2.23858 263.761 0 261 0Z" fill="url(#paint2_linear_1_230)"/>
</g>
<defs>
<linearGradient id="paint0_linear_1_230" x1="25.237" y1="13" x2="25.237" y2="22" gradientUnits="userSpaceOnUse">
<stop offset="0.001" stop-opacity="0"/>
<stop offset="0.83"/>
</linearGradient>
<linearGradient id="paint1_linear_1_230" x1="0" y1="32" x2="32" y2="0" gradientUnits="userSpaceOnUse">
<stop offset="0.1" stop-color="#BE95FF"/>
<stop offset="0.9" stop-color="#4589FF"/>
</linearGradient>
<linearGradient id="paint2_linear_1_230" x1="0" y1="0" x2="0" y2="32" gradientUnits="userSpaceOnUse">
<stop stop-color="#BBBBBB" stop-opacity="0.1"/>
<stop offset="1" stop-opacity="0.1"/>
</linearGradient>
<clipPath id="clip0_1_230">
<rect width="266" height="32" rx="5" fill="white"/>
</clipPath>
</defs>
</svg>
