<svg width="104" height="32" viewBox="0 0 104 32" fill="none" xmlns="http://www.w3.org/2000/svg">
<g clip-path="url(#clip0_18_268)">
<path d="M99 0H31V32H99C101.761 32 104 29.7614 104 27V5C104 2.23858 101.761 0 99 0Z" fill="#0F1418"/>
<rect width="32" height="32" fill="#0F1418"/>
<mask id="mask0_18_268" style="mask-type:luminance" maskUnits="userSpaceOnUse" x="3" y="0" width="27" height="31">
<path d="M16 31.0001C15.8243 30.9994 15.6518 30.9525 15.5 30.8641L3.5 23.8641C3.34828 23.7765 3.22223 23.6505 3.13448 23.4989C3.04673 23.3473 3.00036 23.1752 3 23.0001V9.00005C3.00036 8.82486 3.04673 8.65283 3.13448 8.5012C3.22223 8.34957 3.34828 8.22365 3.5 8.13605L15.5 1.13605C15.653 1.04679 15.8269 0.999756 16.004 0.999756C16.1811 0.999756 16.355 1.04679 16.508 1.13605L28.508 8.13605L27.5 9.86405L16 3.15805L5 9.57405V22.4261L16 28.8431L27 22.4261V12.0001H29V23.0001C28.9996 23.1752 28.9533 23.3473 28.8655 23.4989C28.7778 23.6505 28.6517 23.7765 28.5 23.8641L16.5 30.8641C16.3482 30.9525 16.1757 30.9994 16 31.0001Z" fill="white"/>
<path d="M26 11H30V22H26V11Z" fill="url(#paint0_linear_18_268)"/>
</mask>
<g mask="url(#mask0_18_268)">
<path d="M0 32L0 0L32 0V32H0Z" fill="url(#paint1_linear_18_268)"/>
</g>
<path d="M23 16C23.5523 16 24 15.5523 24 15C24 14.4477 23.5523 14 23 14C22.4477 14 22 14.4477 22 15C22 15.5523 22.4477 16 23 16Z" fill="#F4F4F4"/>
<path d="M8 16C8.55228 16 9 15.5523 9 15C9 14.4477 8.55228 14 8 14C7.44772 14 7 14.4477 7 15C7 15.5523 7.44772 16 8 16Z" fill="#F4F4F4"/>
<path d="M21 11C21.5523 11 22 10.5523 22 10C22 9.44772 21.5523 9 21 9C20.4477 9 20 9.44772 20 10C20 10.5523 20.4477 11 21 11Z" fill="#F4F4F4"/>
<path d="M15 24C15.5523 24 16 23.5523 16 23C16 22.4477 15.5523 22 15 22C14.4477 22 14 22.4477 14 23C14 23.5523 14.4477 24 15 24Z" fill="#F4F4F4"/>
<path d="M21 19C20.8269 19.0026 20.6548 19.0275 20.488 19.074L18.707 17.293L18.681 17.319C18.888 16.91 18.9972 16.4584 19 16C19 15.2044 18.6839 14.4413 18.1213 13.8787C17.5587 13.3161 16.7957 13 16 13C15.5416 13.0028 15.09 13.112 14.681 13.319L14.707 13.293L12.926 11.512C13.0463 11.0793 13.02 10.6188 12.851 10.2026C12.6821 9.78645 12.38 9.43793 11.9921 9.21151C11.6042 8.98509 11.1522 8.89352 10.7067 8.9511C10.2612 9.00868 9.84739 9.21217 9.52977 9.52978C9.21216 9.8474 9.00867 10.2613 8.9511 10.7067C8.89352 11.1522 8.98509 11.6042 9.21151 11.9921C9.43793 12.3801 9.78645 12.6821 10.2026 12.851C10.6188 13.02 11.0792 13.0463 11.512 12.926L13.293 14.707L13.319 14.681C13.112 15.09 13.0028 15.5416 13 16C13 16.7957 13.3161 17.5587 13.8787 18.1213C14.4413 18.6839 15.2044 19 16 19C16.4584 18.9972 16.91 18.888 17.319 18.681L17.293 18.707L19.074 20.488C18.967 20.892 18.9893 21.3194 19.1377 21.7101C19.2861 22.1009 19.5532 22.4353 19.9014 22.6664C20.2496 22.8975 20.6615 23.0137 21.0792 22.9987C21.4969 22.9837 21.8994 22.8382 22.2301 22.5827C22.5609 22.3271 22.8032 21.9744 22.9232 21.5741C23.0432 21.1737 23.0347 20.7458 22.899 20.3505C22.7632 19.9552 22.5071 19.6124 22.1665 19.3701C21.8259 19.1279 21.4179 18.9985 21 19ZM16 17C15.8022 17 15.6089 16.9414 15.4444 16.8315C15.28 16.7216 15.1518 16.5654 15.0761 16.3827C15.0004 16.2 14.9806 15.9989 15.0192 15.8049C15.0578 15.6109 15.153 15.4328 15.2929 15.2929C15.4327 15.153 15.6109 15.0578 15.8049 15.0192C15.9989 14.9806 16.2 15.0004 16.3827 15.0761C16.5654 15.1518 16.7216 15.28 16.8315 15.4444C16.9414 15.6089 17 15.8022 17 16C17 16.2652 16.8946 16.5196 16.7071 16.7071C16.5196 16.8946 16.2652 17 16 17Z" fill="#F4F4F4"/>
<path d="M53.9817 21.18C52.5817 21.18 51.5417 20.71 50.8617 19.77C50.1917 18.82 49.8567 17.485 49.8567 15.765C49.8567 14.045 50.1917 12.715 50.8617 11.775C51.5417 10.825 52.5817 10.35 53.9817 10.35C54.5217 10.35 54.9967 10.425 55.4067 10.575C55.8267 10.715 56.1867 10.915 56.4867 11.175C56.7867 11.435 57.0317 11.75 57.2217 12.12C57.4217 12.49 57.5767 12.905 57.6867 13.365L55.5867 13.875C55.5267 13.625 55.4567 13.395 55.3767 13.185C55.2967 12.975 55.1917 12.795 55.0617 12.645C54.9417 12.495 54.7867 12.38 54.5967 12.3C54.4167 12.21 54.1967 12.165 53.9367 12.165C53.3267 12.165 52.8917 12.405 52.6317 12.885C52.3817 13.355 52.2567 14.01 52.2567 14.85V16.68C52.2567 17.52 52.3817 18.18 52.6317 18.66C52.8917 19.13 53.3267 19.365 53.9367 19.365C54.4567 19.365 54.8317 19.205 55.0617 18.885C55.3017 18.565 55.4767 18.155 55.5867 17.655L57.6867 18.165C57.5767 18.625 57.4217 19.04 57.2217 19.41C57.0317 19.78 56.7867 20.1 56.4867 20.37C56.1867 20.63 55.8267 20.83 55.4067 20.97C54.9967 21.11 54.5217 21.18 53.9817 21.18ZM59.5559 21V10.53H63.6059C64.1159 10.53 64.5709 10.61 64.9709 10.77C65.3709 10.92 65.7059 11.14 65.9759 11.43C66.2559 11.72 66.4659 12.07 66.6059 12.48C66.7459 12.89 66.8159 13.35 66.8159 13.86C66.8159 14.37 66.7459 14.83 66.6059 15.24C66.4659 15.65 66.2559 16 65.9759 16.29C65.7059 16.58 65.3709 16.805 64.9709 16.965C64.5709 17.115 64.1159 17.19 63.6059 17.19H61.8209V21H59.5559ZM61.8209 15.375H63.0359C63.5659 15.375 63.9309 15.275 64.1309 15.075C64.3409 14.875 64.4459 14.545 64.4459 14.085V13.635C64.4459 13.175 64.3409 12.845 64.1309 12.645C63.9309 12.445 63.5659 12.345 63.0359 12.345H61.8209V15.375ZM72.675 21V18.99H67.965V17.07L72.135 10.53H74.835V17.25H76.185V18.99H74.835V21H72.675ZM69.78 17.25H72.675V12.855H72.54L69.78 17.25ZM77.7241 10.53H81.0991C82.5091 10.53 83.5541 10.98 84.2341 11.88C84.9141 12.78 85.2541 14.075 85.2541 15.765C85.2541 17.455 84.9141 18.75 84.2341 19.65C83.5541 20.55 82.5091 21 81.0991 21H77.7241V10.53ZM80.9491 19.23C81.6191 19.23 82.1091 19.015 82.4191 18.585C82.7291 18.155 82.8841 17.53 82.8841 16.71V14.805C82.8841 13.995 82.7291 13.375 82.4191 12.945C82.1091 12.515 81.6191 12.3 80.9491 12.3H79.9441V19.23H80.9491Z" fill="white"/>
<path d="M99 0H5C2.23858 0 0 2.23858 0 5V27C0 29.7614 2.23858 32 5 32H99C101.761 32 104 29.7614 104 27V5C104 2.23858 101.761 0 99 0Z" fill="url(#paint2_linear_18_268)"/>
</g>
<defs>
<linearGradient id="paint0_linear_18_268" x1="28" y1="22" x2="28" y2="11" gradientUnits="userSpaceOnUse">
<stop stop-opacity="0"/>
<stop offset="0.9"/>
</linearGradient>
<linearGradient id="paint1_linear_18_268" x1="0" y1="32" x2="32" y2="0" gradientUnits="userSpaceOnUse">
<stop offset="0.1" stop-color="#3DDBD9"/>
<stop offset="0.9" stop-color="#4589FF"/>
</linearGradient>
<linearGradient id="paint2_linear_18_268" x1="0" y1="0" x2="0" y2="32" gradientUnits="userSpaceOnUse">
<stop stop-color="#BBBBBB" stop-opacity="0.1"/>
<stop offset="1" stop-opacity="0.1"/>
</linearGradient>
<clipPath id="clip0_18_268">
<rect width="104" height="32" rx="5" fill="white"/>
</clipPath>
</defs>
</svg>
