<svg width="107" height="32" viewBox="0 0 107 32" fill="none" xmlns="http://www.w3.org/2000/svg">
<g clip-path="url(#clip0_18_661)">
<path d="M102 0H31V32H102C104.761 32 107 29.7614 107 27V5C107 2.23858 104.761 0 102 0Z" fill="#0F1418"/>
<path d="M5 0.5H30.5V31.5H5C2.51472 31.5 0.5 29.4853 0.5 27V5C0.5 2.51472 2.51472 0.5 5 0.5Z" fill="white" stroke="#1C2125"/>
<rect width="32" height="32" transform="translate(1)" fill="#1C2125"/>
<mask id="mask0_18_661" style="mask-type:luminance" maskUnits="userSpaceOnUse" x="3" y="2" width="28" height="28">
<path d="M23 2V4H27.586L10.586 21L12 22.414L29 5.414V10H31V2H23Z" fill="white"/>
<path d="M21.0005 5.9995L7.00051 19.9995L13.0003 25.9993L27.0003 11.9993L21.0005 5.9995Z" fill="url(#paint0_linear_18_661)"/>
<path d="M11 30H3V22H11V30ZM5 28H9V24H5V28Z" fill="white"/>
</mask>
<g mask="url(#mask0_18_661)">
<path d="M33 0H1V32H33V0Z" fill="url(#paint1_linear_18_661)"/>
</g>
<path d="M28 22.142V13H26V22.142C25.3123 22.3208 24.6849 22.68 24.1825 23.1825C23.68 23.6849 23.3208 24.3123 23.142 25H14V27H23.142C23.3169 27.6824 23.6692 28.3064 24.1632 28.8086C24.6572 29.3107 25.2753 29.6733 25.9548 29.8593C26.6342 30.0454 27.3508 30.0483 28.0317 29.8678C28.7126 29.6874 29.3337 29.3299 29.8318 28.8318C30.3299 28.3337 30.6874 27.7126 30.8678 27.0317C31.0483 26.3508 31.0454 25.6342 30.8593 24.9548C30.6733 24.2753 30.3107 23.6572 29.8086 23.1632C29.3064 22.6692 28.6824 22.3169 28 22.142ZM27 28C26.6044 28 26.2178 27.8827 25.8889 27.6629C25.56 27.4432 25.3036 27.1308 25.1522 26.7654C25.0009 26.3999 24.9613 25.9978 25.0384 25.6098C25.1156 25.2219 25.3061 24.8655 25.5858 24.5858C25.8655 24.3061 26.2219 24.1156 26.6098 24.0384C26.9978 23.9613 27.3999 24.0009 27.7654 24.1522C28.1308 24.3036 28.4432 24.56 28.6629 24.8889C28.8827 25.2178 29 25.6044 29 26C29 26.5304 28.7893 27.0391 28.4142 27.4142C28.0391 27.7893 27.5304 28 27 28Z" fill="#F4F4F4"/>
<path d="M10.858 7.00007H20V5.00007H10.858C10.6831 4.31768 10.3308 3.69371 9.83679 3.19152C9.34278 2.68933 8.72467 2.3268 8.04523 2.14076C7.3658 1.95471 6.64923 1.95177 5.96829 2.13224C5.28736 2.3127 4.6663 2.67013 4.16818 3.16825C3.67006 3.66637 3.31262 4.28743 3.13216 4.96837C2.9517 5.64931 2.95464 6.36588 3.14068 7.04531C3.32673 7.72475 3.68925 8.34285 4.19144 8.83687C4.69363 9.33088 5.3176 9.68321 6 9.85807V19.0001H8V9.85807C8.68724 9.67837 9.31424 9.3189 9.81653 8.81661C10.3188 8.31431 10.6783 7.68732 10.858 7.00007ZM7 8.00007C6.60444 8.00007 6.21776 7.88278 5.88886 7.66301C5.55996 7.44325 5.30361 7.13089 5.15224 6.76544C5.00086 6.39999 4.96126 5.99786 5.03843 5.60989C5.1156 5.22193 5.30608 4.86557 5.58578 4.58586C5.86549 4.30616 6.22186 4.11567 6.60982 4.0385C6.99778 3.96133 7.39991 4.00094 7.76537 4.15232C8.13082 4.30369 8.44317 4.56004 8.66294 4.88893C8.8827 5.21783 9 5.60451 9 6.00007C9 6.53051 8.78928 7.03922 8.41421 7.41429C8.03914 7.78936 7.53043 8.00007 7 8.00007Z" fill="#F4F4F4"/>
<path d="M16.4649 13.7014C16.498 13.6796 16.5368 13.668 16.5765 13.668C16.6161 13.668 16.6548 13.6796 16.688 13.7014L18.4956 14.7502C18.5626 14.7946 18.6072 14.8616 18.6072 14.951V17.0486C18.6072 17.1378 18.5626 17.2048 18.4956 17.2494L16.688 18.2982C16.6548 18.32 16.6161 18.3317 16.5765 18.3317C16.5368 18.3317 16.498 18.32 16.4649 18.2982L14.6573 17.2494C14.5903 17.2048 14.5457 17.1378 14.5457 17.0486V14.951C14.5457 14.8616 14.5903 14.7946 14.6573 14.7502L16.4649 13.7014Z" fill="#539E43"/>
<path d="M34.1309 10.926H37.0559C38.2779 10.926 39.1835 11.316 39.7729 12.096C40.3622 12.876 40.6569 13.9983 40.6569 15.463C40.6569 16.9277 40.3622 18.05 39.7729 18.83C39.1835 19.61 38.2779 20 37.0559 20H34.1309V10.926ZM36.9259 18.466C37.5065 18.466 37.9312 18.2797 38.1999 17.907C38.4685 17.5343 38.6029 16.9927 38.6029 16.282V14.631C38.6029 13.929 38.4685 13.3917 38.1999 13.019C37.9312 12.6463 37.5065 12.46 36.9259 12.46H36.0549V18.466H36.9259ZM47.5808 20C47.1821 20 46.8614 19.9003 46.6188 19.701C46.3761 19.493 46.2331 19.1983 46.1898 18.817H46.1248C46.0034 19.259 45.7608 19.5927 45.3968 19.818C45.0414 20.0433 44.6038 20.156 44.0838 20.156C43.4338 20.156 42.9094 19.9827 42.5108 19.636C42.1208 19.2807 41.9258 18.7867 41.9258 18.154C41.9258 17.452 42.1814 16.932 42.6928 16.594C43.2041 16.256 43.9538 16.087 44.9418 16.087H46.0208V15.749C46.0208 15.3503 45.9254 15.0513 45.7348 14.852C45.5528 14.644 45.2408 14.54 44.7988 14.54C44.3914 14.54 44.0621 14.618 43.8108 14.774C43.5594 14.93 43.3428 15.1337 43.1608 15.385L42.1078 14.449C42.3331 14.0677 42.6841 13.7557 43.1608 13.513C43.6461 13.2617 44.2658 13.136 45.0198 13.136C45.9384 13.136 46.6534 13.3483 47.1648 13.773C47.6848 14.189 47.9448 14.8217 47.9448 15.671V18.609H48.6858V20H47.5808ZM44.8118 18.895C45.1498 18.895 45.4358 18.8127 45.6698 18.648C45.9038 18.4833 46.0208 18.245 46.0208 17.933V17.127H44.9938C44.2051 17.127 43.8108 17.3913 43.8108 17.92V18.18C43.8108 18.414 43.9018 18.5917 44.0838 18.713C44.2658 18.8343 44.5084 18.895 44.8118 18.895ZM53.6207 20C52.9274 20 52.4117 19.818 52.0737 19.454C51.7357 19.09 51.5667 18.6263 51.5667 18.063V14.787H49.7467V13.292H50.9297C51.2157 13.292 51.4194 13.2357 51.5407 13.123C51.662 13.0103 51.7227 12.8023 51.7227 12.499V10.926H53.4907V13.292H56.1037V14.787H53.4907V18.505H56.1037V20H53.6207ZM63.4826 20C63.084 20 62.7633 19.9003 62.5206 19.701C62.278 19.493 62.135 19.1983 62.0916 18.817H62.0266C61.9053 19.259 61.6626 19.5927 61.2986 19.818C60.9433 20.0433 60.5056 20.156 59.9856 20.156C59.3356 20.156 58.8113 19.9827 58.4126 19.636C58.0226 19.2807 57.8276 18.7867 57.8276 18.154C57.8276 17.452 58.0833 16.932 58.5946 16.594C59.106 16.256 59.8556 16.087 60.8436 16.087H61.9226V15.749C61.9226 15.3503 61.8273 15.0513 61.6366 14.852C61.4546 14.644 61.1426 14.54 60.7006 14.54C60.2933 14.54 59.964 14.618 59.7126 14.774C59.4613 14.93 59.2446 15.1337 59.0626 15.385L58.0096 14.449C58.235 14.0677 58.586 13.7557 59.0626 13.513C59.548 13.2617 60.1676 13.136 60.9216 13.136C61.8403 13.136 62.5553 13.3483 63.0666 13.773C63.5866 14.189 63.8466 14.8217 63.8466 15.671V18.609H64.5876V20H63.4826ZM60.7136 18.895C61.0516 18.895 61.3376 18.8127 61.5716 18.648C61.8056 18.4833 61.9226 18.245 61.9226 17.933V17.127H60.8956C60.107 17.127 59.7126 17.3913 59.7126 17.92V18.18C59.7126 18.414 59.8036 18.5917 59.9856 18.713C60.1676 18.8343 60.4103 18.895 60.7136 18.895ZM68.8595 20.156C68.0969 20.156 67.4339 20.0303 66.8705 19.779C66.3072 19.5277 65.8522 19.1853 65.5055 18.752L66.6365 17.504C66.9659 17.868 67.3255 18.1367 67.7155 18.31C68.1142 18.4833 68.5172 18.57 68.9245 18.57C69.3925 18.57 69.7479 18.466 69.9905 18.258C70.2332 18.05 70.3545 17.751 70.3545 17.361C70.3545 17.0403 70.2592 16.7977 70.0685 16.633C69.8865 16.4683 69.5745 16.3513 69.1325 16.282L68.1835 16.126C67.3689 15.9873 66.7795 15.6883 66.4155 15.229C66.0515 14.761 65.8695 14.1933 65.8695 13.526C65.8695 12.6507 66.1555 11.9747 66.7275 11.498C67.2995 11.0127 68.1012 10.77 69.1325 10.77C69.8345 10.77 70.4455 10.8783 70.9655 11.095C71.4855 11.3117 71.9059 11.6063 72.2265 11.979L71.1215 13.214C70.8789 12.9453 70.5929 12.7373 70.2635 12.59C69.9342 12.434 69.5615 12.356 69.1455 12.356C68.2702 12.356 67.8325 12.7157 67.8325 13.435C67.8325 13.747 67.9279 13.981 68.1185 14.137C68.3179 14.293 68.6385 14.41 69.0805 14.488L70.0295 14.657C70.7662 14.787 71.3339 15.0643 71.7325 15.489C72.1312 15.9137 72.3305 16.4857 72.3305 17.205C72.3305 17.6297 72.2569 18.024 72.1095 18.388C71.9622 18.7433 71.7412 19.0553 71.4465 19.324C71.1519 19.584 70.7879 19.7877 70.3545 19.935C69.9299 20.0823 69.4315 20.156 68.8595 20.156ZM77.4735 20C76.7801 20 76.2645 19.818 75.9265 19.454C75.5885 19.09 75.4195 18.6263 75.4195 18.063V14.787H73.5995V13.292H74.7825C75.0685 13.292 75.2721 13.2357 75.3935 13.123C75.5148 13.0103 75.5755 12.8023 75.5755 12.499V10.926H77.3435V13.292H79.9565V14.787H77.3435V18.505H79.9565V20H77.4735ZM87.3354 20C86.9367 20 86.616 19.9003 86.3734 19.701C86.1307 19.493 85.9877 19.1983 85.9444 18.817H85.8794C85.7581 19.259 85.5154 19.5927 85.1514 19.818C84.7961 20.0433 84.3584 20.156 83.8384 20.156C83.1884 20.156 82.664 19.9827 82.2654 19.636C81.8754 19.2807 81.6804 18.7867 81.6804 18.154C81.6804 17.452 81.936 16.932 82.4474 16.594C82.9587 16.256 83.7084 16.087 84.6964 16.087H85.7754V15.749C85.7754 15.3503 85.68 15.0513 85.4894 14.852C85.3074 14.644 84.9954 14.54 84.5534 14.54C84.146 14.54 83.8167 14.618 83.5654 14.774C83.314 14.93 83.0974 15.1337 82.9154 15.385L81.8624 14.449C82.0877 14.0677 82.4387 13.7557 82.9154 13.513C83.4007 13.2617 84.0204 13.136 84.7744 13.136C85.6931 13.136 86.4081 13.3483 86.9194 13.773C87.4394 14.189 87.6994 14.8217 87.6994 15.671V18.609H88.4404V20H87.3354ZM84.5664 18.895C84.9044 18.895 85.1904 18.8127 85.4244 18.648C85.6584 18.4833 85.7754 18.245 85.7754 17.933V17.127H84.7484C83.9597 17.127 83.5654 17.3913 83.5654 17.92V18.18C83.5654 18.414 83.6564 18.5917 83.8384 18.713C84.0204 18.8343 84.263 18.895 84.5664 18.895ZM96.5343 20.676C96.5343 21.3867 96.2353 21.911 95.6373 22.249C95.0393 22.587 94.099 22.756 92.8163 22.756C92.175 22.756 91.6463 22.717 91.2303 22.639C90.8143 22.5697 90.4806 22.4657 90.2293 22.327C89.9866 22.1883 89.8133 22.0237 89.7093 21.833C89.614 21.6423 89.5663 21.4343 89.5663 21.209C89.5663 20.8277 89.679 20.5373 89.9043 20.338C90.1296 20.1473 90.446 20 90.8533 19.896V19.818C90.5673 19.7313 90.3376 19.61 90.1643 19.454C89.9996 19.2893 89.9173 19.0597 89.9173 18.765C89.9173 18.4357 90.0256 18.193 90.2423 18.037C90.4676 17.881 90.7623 17.7597 91.1263 17.673V17.595C90.7276 17.4043 90.4156 17.1357 90.1903 16.789C89.9736 16.4423 89.8653 16.022 89.8653 15.528C89.8653 15.138 89.9346 14.7957 90.0733 14.501C90.212 14.1977 90.407 13.9463 90.6583 13.747C90.9183 13.5477 91.226 13.396 91.5813 13.292C91.9366 13.188 92.3353 13.136 92.7773 13.136C93.202 13.136 93.5963 13.1837 93.9603 13.279V12.915C93.9603 12.655 94.0513 12.4383 94.2333 12.265C94.4153 12.0917 94.6666 12.005 94.9873 12.005H96.1703V13.409H94.5583V13.526C94.9223 13.7167 95.204 13.981 95.4033 14.319C95.6113 14.6483 95.7153 15.0513 95.7153 15.528C95.7153 15.918 95.646 16.2603 95.5073 16.555C95.3686 16.8497 95.1693 17.101 94.9093 17.309C94.6493 17.5083 94.3373 17.66 93.9733 17.764C93.618 17.868 93.2193 17.92 92.7773 17.92C92.578 17.92 92.3873 17.9113 92.2053 17.894C92.0233 17.868 91.85 17.8333 91.6853 17.79C91.59 17.842 91.5076 17.907 91.4383 17.985C91.3776 18.063 91.3473 18.1627 91.3473 18.284C91.3473 18.388 91.3733 18.4703 91.4253 18.531C91.4773 18.5917 91.5466 18.6393 91.6333 18.674C91.7286 18.7 91.837 18.7173 91.9583 18.726C92.0796 18.7347 92.2053 18.739 92.3353 18.739H93.8693C94.346 18.739 94.7533 18.7867 95.0913 18.882C95.4293 18.9773 95.7066 19.1117 95.9233 19.285C96.14 19.4583 96.296 19.662 96.3913 19.896C96.4866 20.13 96.5343 20.39 96.5343 20.676ZM94.7143 20.819C94.7143 20.6457 94.645 20.507 94.5063 20.403C94.3676 20.3077 94.1033 20.26 93.7133 20.26H91.4123C91.239 20.4073 91.1523 20.5893 91.1523 20.806C91.1523 21.014 91.239 21.183 91.4123 21.313C91.5943 21.4517 91.8976 21.521 92.3223 21.521H93.4533C93.8953 21.521 94.216 21.4603 94.4153 21.339C94.6146 21.2177 94.7143 21.0443 94.7143 20.819ZM92.7773 16.698C93.1673 16.698 93.449 16.6027 93.6223 16.412C93.8043 16.2213 93.8953 15.9787 93.8953 15.684V15.372C93.8953 15.0773 93.8043 14.8347 93.6223 14.644C93.449 14.4533 93.1673 14.358 92.7773 14.358C92.396 14.358 92.1186 14.4533 91.9453 14.644C91.772 14.8347 91.6853 15.0773 91.6853 15.372V15.684C91.6853 15.9787 91.772 16.2213 91.9453 16.412C92.1186 16.6027 92.396 16.698 92.7773 16.698ZM100.988 20.156C99.8616 20.156 99.0079 19.844 98.4272 19.22C97.8466 18.596 97.5562 17.7467 97.5562 16.672C97.5562 16.126 97.6299 15.6363 97.7772 15.203C97.9332 14.761 98.1499 14.3883 98.4272 14.085C98.7132 13.773 99.0556 13.539 99.4542 13.383C99.8616 13.2183 100.317 13.136 100.819 13.136C101.322 13.136 101.773 13.2183 102.171 13.383C102.57 13.539 102.908 13.7643 103.185 14.059C103.463 14.3537 103.675 14.7133 103.822 15.138C103.978 15.554 104.056 16.022 104.056 16.542V17.114H99.4672V17.231C99.4672 17.6643 99.6016 18.0153 99.8702 18.284C100.139 18.544 100.533 18.674 101.053 18.674C101.452 18.674 101.794 18.6003 102.08 18.453C102.366 18.297 102.613 18.0933 102.821 17.842L103.861 18.973C103.601 19.2937 103.237 19.571 102.769 19.805C102.301 20.039 101.708 20.156 100.988 20.156ZM100.832 14.514C100.416 14.514 100.083 14.644 99.8312 14.904C99.5886 15.1553 99.4672 15.4977 99.4672 15.931V16.035H102.171V15.931C102.171 15.489 102.05 15.1423 101.807 14.891C101.573 14.6397 101.248 14.514 100.832 14.514Z" fill="white"/>
<path d="M102 0H5C2.23858 0 0 2.23858 0 5V27C0 29.7614 2.23858 32 5 32H102C104.761 32 107 29.7614 107 27V5C107 2.23858 104.761 0 102 0Z" fill="url(#paint2_linear_18_661)"/>
</g>
<defs>
<linearGradient id="paint0_linear_18_661" x1="10.0472" y1="22.9533" x2="24.048" y2="8.95257" gradientUnits="userSpaceOnUse">
<stop offset="0.1"/>
<stop offset="0.6" stop-opacity="0"/>
</linearGradient>
<linearGradient id="paint1_linear_18_661" x1="1" y1="32" x2="33" y2="0" gradientUnits="userSpaceOnUse">
<stop offset="0.1" stop-color="#3DDBD9"/>
<stop offset="0.9" stop-color="#4589FF"/>
</linearGradient>
<linearGradient id="paint2_linear_18_661" x1="0" y1="0" x2="0" y2="32" gradientUnits="userSpaceOnUse">
<stop stop-color="#BBBBBB" stop-opacity="0.1"/>
<stop offset="1" stop-opacity="0.1"/>
</linearGradient>
<clipPath id="clip0_18_661">
<rect width="107" height="32" rx="5" fill="white"/>
</clipPath>
</defs>
</svg>
