<svg width="93" height="32" viewBox="0 0 93 32" fill="none" xmlns="http://www.w3.org/2000/svg">
<g clip-path="url(#clip0_14_613)">
<path d="M88 0H31V32H88C90.7614 32 93 29.7614 93 27V5C93 2.23858 90.7614 0 88 0Z" fill="#0F1418"/>
<rect width="32" height="32" fill="#0F1418"/>
<mask id="mask0_14_613" style="mask-type:luminance" maskUnits="userSpaceOnUse" x="3" y="2" width="26" height="28">
<path d="M25 14V10H23V14C22.9981 14.2666 22.8907 14.5215 22.7012 14.7089C22.5117 14.8964 22.2556 15.0011 21.989 15H10.043C9.24591 14.9992 8.48104 15.3146 7.9162 15.877C7.35135 16.4394 7.03265 17.2029 7.03 18V20H9.03V18C9.03185 17.7331 9.13958 17.4779 9.32953 17.2903C9.51948 17.1028 9.7761 16.9984 10.043 17H21.989C22.7858 17.0005 23.5503 16.685 24.1148 16.1226C24.6793 15.5602 24.9976 14.7968 25 14Z" fill="white"/>
<path d="M22 10H26V14.615H22V10Z" fill="url(#paint0_linear_14_613)"/>
<path d="M21 25H16.035V27H21V30H29V22H21V25ZM23 24H27V28H23V24ZM27 2H5C4.46957 2 3.96086 2.21071 3.58579 2.58579C3.21071 2.96086 3 3.46957 3 4V8C3 8.53043 3.21071 9.03914 3.58579 9.41421C3.96086 9.78929 4.46957 10 5 10H27C27.5304 10 28.0391 9.78929 28.4142 9.41421C28.7893 9.03914 29 8.53043 29 8V4C29 3.46957 28.7893 2.96086 28.4142 2.58579C28.0391 2.21071 27.5304 2 27 2ZM27 8H5V4H27V8Z" fill="white"/>
</mask>
<g mask="url(#mask0_14_613)">
<path d="M0 0H32V32H0V0Z" fill="url(#paint1_linear_14_613)"/>
</g>
<path d="M3.01999 21.99H13.99V23.99H3.01999V21.99ZM3.01999 25.99H10.99V27.99H3.01999V25.99Z" fill="#F4F4F4"/>
<path d="M7.98999 7.04004C8.54227 7.04004 8.98999 6.59232 8.98999 6.04004C8.98999 5.48775 8.54227 5.04004 7.98999 5.04004C7.43771 5.04004 6.98999 5.48775 6.98999 6.04004C6.98999 6.59232 7.43771 7.04004 7.98999 7.04004Z" fill="#F4F4F4"/>
<path d="M49.2888 10.53H52.6638C54.0738 10.53 55.1188 10.98 55.7988 11.88C56.4788 12.78 56.8188 14.075 56.8188 15.765C56.8188 17.455 56.4788 18.75 55.7988 19.65C55.1188 20.55 54.0738 21 52.6638 21H49.2888V10.53ZM52.5138 19.23C53.1838 19.23 53.6738 19.015 53.9838 18.585C54.2938 18.155 54.4488 17.53 54.4488 16.71V14.805C54.4488 13.995 54.2938 13.375 53.9838 12.945C53.6738 12.515 53.1838 12.3 52.5138 12.3H51.5088V19.23H52.5138ZM63.9679 16.335L64.0879 13.41H63.9529L62.0029 18.795L60.0529 13.41H59.9179L60.0379 16.335V21H58.0879V10.53H60.7429L62.0329 14.055H62.1529L63.4429 10.53H65.9179V21H63.9679V16.335ZM71.4171 21.18C70.0171 21.18 68.9771 20.71 68.2971 19.77C67.6271 18.82 67.2921 17.485 67.2921 15.765C67.2921 14.045 67.6271 12.715 68.2971 11.775C68.9771 10.825 70.0171 10.35 71.4171 10.35C71.9571 10.35 72.4321 10.425 72.8421 10.575C73.2621 10.715 73.6221 10.915 73.9221 11.175C74.2221 11.435 74.4671 11.75 74.6571 12.12C74.8571 12.49 75.0121 12.905 75.1221 13.365L73.0221 13.875C72.9621 13.625 72.8921 13.395 72.8121 13.185C72.7321 12.975 72.6271 12.795 72.4971 12.645C72.3771 12.495 72.2221 12.38 72.0321 12.3C71.8521 12.21 71.6321 12.165 71.3721 12.165C70.7621 12.165 70.3271 12.405 70.0671 12.885C69.8171 13.355 69.6921 14.01 69.6921 14.85V16.68C69.6921 17.52 69.8171 18.18 70.0671 18.66C70.3271 19.13 70.7621 19.365 71.3721 19.365C71.8921 19.365 72.2671 19.205 72.4971 18.885C72.7371 18.565 72.9121 18.155 73.0221 17.655L75.1221 18.165C75.0121 18.625 74.8571 19.04 74.6571 19.41C74.4671 19.78 74.2221 20.1 73.9221 20.37C73.6221 20.63 73.2621 20.83 72.8421 20.97C72.4321 21.11 71.9571 21.18 71.4171 21.18Z" fill="white"/>
<path d="M88 0H5C2.23858 0 0 2.23858 0 5V27C0 29.7614 2.23858 32 5 32H88C90.7614 32 93 29.7614 93 27V5C93 2.23858 90.7614 0 88 0Z" fill="url(#paint2_linear_14_613)"/>
</g>
<defs>
<linearGradient id="paint0_linear_14_613" x1="24" y1="10" x2="24" y2="14.615" gradientUnits="userSpaceOnUse">
<stop/>
<stop offset="1" stop-opacity="0"/>
</linearGradient>
<linearGradient id="paint1_linear_14_613" x1="0" y1="32" x2="32" y2="0" gradientUnits="userSpaceOnUse">
<stop offset="0.1" stop-color="#BE95FF"/>
<stop offset="0.9" stop-color="#4589FF"/>
</linearGradient>
<linearGradient id="paint2_linear_14_613" x1="0" y1="0" x2="0" y2="32" gradientUnits="userSpaceOnUse">
<stop stop-color="#BBBBBB" stop-opacity="0.1"/>
<stop offset="1" stop-opacity="0.1"/>
</linearGradient>
<clipPath id="clip0_14_613">
<rect width="93" height="32" rx="5" fill="white"/>
</clipPath>
</defs>
</svg>
