<svg width="199" height="32" viewBox="0 0 199 32" fill="none" xmlns="http://www.w3.org/2000/svg">
<g clip-path="url(#clip0_18_705)">
<rect width="199" height="32" rx="5" fill="#0F1418"/>
<path d="M194 -1H31V31H194C196.761 31 199 28.7614 199 26V4C199 1.23858 196.761 -1 194 -1Z" fill="#0F1418"/>
<path d="M41.3098 15.635L40.3798 16.94V20H38.1298V9.53H40.3798V13.91H40.4998L41.6398 12.17L43.4848 9.53H46.0048L42.8698 13.955L46.1548 20H43.6198L41.3098 15.635ZM47.2589 20V12.26H49.4789V13.67H49.5689C49.6589 13.45 49.7689 13.245 49.8989 13.055C50.0289 12.865 50.1839 12.7 50.3639 12.56C50.5539 12.41 50.7689 12.295 51.0089 12.215C51.2589 12.125 51.5389 12.08 51.8489 12.08C52.2189 12.08 52.5589 12.145 52.8689 12.275C53.1789 12.395 53.4439 12.58 53.6639 12.83C53.8839 13.08 54.0539 13.385 54.1739 13.745C54.3039 14.105 54.3689 14.52 54.3689 14.99V20H52.1489V15.29C52.1489 14.29 51.7139 13.79 50.8439 13.79C50.6739 13.79 50.5039 13.815 50.3339 13.865C50.1739 13.905 50.0289 13.975 49.8989 14.075C49.7689 14.165 49.6639 14.28 49.5839 14.42C49.5139 14.56 49.4789 14.725 49.4789 14.915V20H47.2589ZM59.9581 20.18C59.3581 20.18 58.8181 20.09 58.3381 19.91C57.8581 19.72 57.4481 19.45 57.1081 19.1C56.7781 18.75 56.5231 18.325 56.3431 17.825C56.1631 17.325 56.0731 16.76 56.0731 16.13C56.0731 15.5 56.1631 14.935 56.3431 14.435C56.5231 13.935 56.7781 13.51 57.1081 13.16C57.4481 12.81 57.8581 12.545 58.3381 12.365C58.8181 12.175 59.3581 12.08 59.9581 12.08C60.5581 12.08 61.0981 12.175 61.5781 12.365C62.0581 12.545 62.4631 12.81 62.7931 13.16C63.1331 13.51 63.3931 13.935 63.5731 14.435C63.7531 14.935 63.8431 15.5 63.8431 16.13C63.8431 16.76 63.7531 17.325 63.5731 17.825C63.3931 18.325 63.1331 18.75 62.7931 19.1C62.4631 19.45 62.0581 19.72 61.5781 19.91C61.0981 20.09 60.5581 20.18 59.9581 20.18ZM59.9581 18.53C60.4581 18.53 60.8481 18.375 61.1281 18.065C61.4081 17.755 61.5481 17.315 61.5481 16.745V15.515C61.5481 14.945 61.4081 14.505 61.1281 14.195C60.8481 13.885 60.4581 13.73 59.9581 13.73C59.4581 13.73 59.0681 13.885 58.7881 14.195C58.5081 14.505 58.3681 14.945 58.3681 15.515V16.745C58.3681 17.315 58.5081 17.755 58.7881 18.065C59.0681 18.375 59.4581 18.53 59.9581 18.53ZM64.7372 12.26H66.5822L67.1372 18.53H67.2872L68.2022 12.26H70.1522L71.0522 18.53H71.2022L71.7722 12.26H73.5272L72.6122 20H69.9722L69.2072 14.66H69.0572L68.2922 20H65.6522L64.7372 12.26ZM74.8264 18.275H77.1964V10.625H74.8264V8.9H79.4164V18.275H81.7864V20H74.8264V18.275ZM87.6905 20.18C86.3905 20.18 85.4055 19.82 84.7355 19.1C84.0655 18.38 83.7305 17.4 83.7305 16.16C83.7305 15.53 83.8155 14.965 83.9855 14.465C84.1655 13.955 84.4155 13.525 84.7355 13.175C85.0655 12.815 85.4605 12.545 85.9205 12.365C86.3905 12.175 86.9155 12.08 87.4955 12.08C88.0755 12.08 88.5955 12.175 89.0555 12.365C89.5155 12.545 89.9055 12.805 90.2255 13.145C90.5455 13.485 90.7905 13.9 90.9605 14.39C91.1405 14.87 91.2305 15.41 91.2305 16.01V16.67H85.9355V16.805C85.9355 17.305 86.0905 17.71 86.4005 18.02C86.7105 18.32 87.1655 18.47 87.7655 18.47C88.2255 18.47 88.6205 18.385 88.9505 18.215C89.2805 18.035 89.5655 17.8 89.8055 17.51L91.0055 18.815C90.7055 19.185 90.2855 19.505 89.7455 19.775C89.2055 20.045 88.5205 20.18 87.6905 20.18ZM87.5105 13.67C87.0305 13.67 86.6455 13.82 86.3555 14.12C86.0755 14.41 85.9355 14.805 85.9355 15.305V15.425H89.0555V15.305C89.0555 14.795 88.9155 14.395 88.6355 14.105C88.3655 13.815 87.9905 13.67 87.5105 13.67ZM98.0496 18.59H97.9446C97.7446 19.06 97.4646 19.445 97.1046 19.745C96.7546 20.035 96.2696 20.18 95.6496 20.18C95.2196 20.18 94.8246 20.1 94.4646 19.94C94.1146 19.78 93.8096 19.535 93.5496 19.205C93.2996 18.875 93.0996 18.455 92.9496 17.945C92.8096 17.435 92.7396 16.83 92.7396 16.13C92.7396 15.43 92.8096 14.825 92.9496 14.315C93.0996 13.805 93.2996 13.385 93.5496 13.055C93.8096 12.725 94.1146 12.48 94.4646 12.32C94.8246 12.16 95.2196 12.08 95.6496 12.08C95.9596 12.08 96.2346 12.12 96.4746 12.2C96.7146 12.28 96.9246 12.39 97.1046 12.53C97.2946 12.67 97.4546 12.84 97.5846 13.04C97.7246 13.23 97.8446 13.44 97.9446 13.67H98.0496V8.9H100.27V20H98.0496V18.59ZM96.6096 18.455C96.9996 18.455 97.3346 18.36 97.6146 18.17C97.9046 17.98 98.0496 17.68 98.0496 17.27V14.99C98.0496 14.58 97.9046 14.28 97.6146 14.09C97.3346 13.9 96.9996 13.805 96.6096 13.805C96.1096 13.805 95.7246 13.96 95.4546 14.27C95.1846 14.57 95.0496 14.99 95.0496 15.53V16.73C95.0496 17.27 95.1846 17.695 95.4546 18.005C95.7246 18.305 96.1096 18.455 96.6096 18.455ZM110.074 20.78C110.074 21.6 109.729 22.205 109.039 22.595C108.349 22.985 107.264 23.18 105.784 23.18C105.044 23.18 104.434 23.135 103.954 23.045C103.474 22.965 103.089 22.845 102.799 22.685C102.519 22.525 102.319 22.335 102.199 22.115C102.089 21.895 102.034 21.655 102.034 21.395C102.034 20.955 102.164 20.62 102.424 20.39C102.684 20.17 103.049 20 103.519 19.88V19.79C103.189 19.69 102.924 19.55 102.724 19.37C102.534 19.18 102.439 18.915 102.439 18.575C102.439 18.195 102.564 17.915 102.814 17.735C103.074 17.555 103.414 17.415 103.834 17.315V17.225C103.374 17.005 103.014 16.695 102.754 16.295C102.504 15.895 102.379 15.41 102.379 14.84C102.379 14.39 102.459 13.995 102.619 13.655C102.779 13.305 103.004 13.015 103.294 12.785C103.594 12.555 103.949 12.38 104.359 12.26C104.769 12.14 105.229 12.08 105.739 12.08C106.229 12.08 106.684 12.135 107.104 12.245V11.825C107.104 11.525 107.209 11.275 107.419 11.075C107.629 10.875 107.919 10.775 108.289 10.775H109.654V12.395H107.794V12.53C108.214 12.75 108.539 13.055 108.769 13.445C109.009 13.825 109.129 14.29 109.129 14.84C109.129 15.29 109.049 15.685 108.889 16.025C108.729 16.365 108.499 16.655 108.199 16.895C107.899 17.125 107.539 17.3 107.119 17.42C106.709 17.54 106.249 17.6 105.739 17.6C105.509 17.6 105.289 17.59 105.079 17.57C104.869 17.54 104.669 17.5 104.479 17.45C104.369 17.51 104.274 17.585 104.194 17.675C104.124 17.765 104.089 17.88 104.089 18.02C104.089 18.14 104.119 18.235 104.179 18.305C104.239 18.375 104.319 18.43 104.419 18.47C104.529 18.5 104.654 18.52 104.794 18.53C104.934 18.54 105.079 18.545 105.229 18.545H106.999C107.549 18.545 108.019 18.6 108.409 18.71C108.799 18.82 109.119 18.975 109.369 19.175C109.619 19.375 109.799 19.61 109.909 19.88C110.019 20.15 110.074 20.45 110.074 20.78ZM107.974 20.945C107.974 20.745 107.894 20.585 107.734 20.465C107.574 20.355 107.269 20.3 106.819 20.3H104.164C103.964 20.47 103.864 20.68 103.864 20.93C103.864 21.17 103.964 21.365 104.164 21.515C104.374 21.675 104.724 21.755 105.214 21.755H106.519C107.029 21.755 107.399 21.685 107.629 21.545C107.859 21.405 107.974 21.205 107.974 20.945ZM105.739 16.19C106.189 16.19 106.514 16.08 106.714 15.86C106.924 15.64 107.029 15.36 107.029 15.02V14.66C107.029 14.32 106.924 14.04 106.714 13.82C106.514 13.6 106.189 13.49 105.739 13.49C105.299 13.49 104.979 13.6 104.779 13.82C104.579 14.04 104.479 14.32 104.479 14.66V15.02C104.479 15.36 104.579 15.64 104.779 15.86C104.979 16.08 105.299 16.19 105.739 16.19ZM115.213 20.18C113.913 20.18 112.928 19.82 112.258 19.1C111.588 18.38 111.253 17.4 111.253 16.16C111.253 15.53 111.338 14.965 111.508 14.465C111.688 13.955 111.938 13.525 112.258 13.175C112.588 12.815 112.983 12.545 113.443 12.365C113.913 12.175 114.438 12.08 115.018 12.08C115.598 12.08 116.118 12.175 116.578 12.365C117.038 12.545 117.428 12.805 117.748 13.145C118.068 13.485 118.313 13.9 118.483 14.39C118.663 14.87 118.753 15.41 118.753 16.01V16.67H113.458V16.805C113.458 17.305 113.613 17.71 113.923 18.02C114.233 18.32 114.688 18.47 115.288 18.47C115.748 18.47 116.143 18.385 116.473 18.215C116.803 18.035 117.088 17.8 117.328 17.51L118.528 18.815C118.228 19.185 117.808 19.505 117.268 19.775C116.728 20.045 116.043 20.18 115.213 20.18ZM115.033 13.67C114.553 13.67 114.168 13.82 113.878 14.12C113.598 14.41 113.458 14.805 113.458 15.305V15.425H116.578V15.305C116.578 14.795 116.438 14.395 116.158 14.105C115.888 13.815 115.513 13.67 115.033 13.67ZM133.591 20.18C132.191 20.18 131.151 19.71 130.471 18.77C129.801 17.82 129.466 16.485 129.466 14.765C129.466 13.045 129.801 11.715 130.471 10.775C131.151 9.825 132.191 9.35 133.591 9.35C134.131 9.35 134.606 9.425 135.016 9.575C135.436 9.715 135.796 9.915 136.096 10.175C136.396 10.435 136.641 10.75 136.831 11.12C137.031 11.49 137.186 11.905 137.296 12.365L135.196 12.875C135.136 12.625 135.066 12.395 134.986 12.185C134.906 11.975 134.801 11.795 134.671 11.645C134.551 11.495 134.396 11.38 134.206 11.3C134.026 11.21 133.806 11.165 133.546 11.165C132.936 11.165 132.501 11.405 132.241 11.885C131.991 12.355 131.866 13.01 131.866 13.85V15.68C131.866 16.52 131.991 17.18 132.241 17.66C132.501 18.13 132.936 18.365 133.546 18.365C134.066 18.365 134.441 18.205 134.671 17.885C134.911 17.565 135.086 17.155 135.196 16.655L137.296 17.165C137.186 17.625 137.031 18.04 136.831 18.41C136.641 18.78 136.396 19.1 136.096 19.37C135.796 19.63 135.436 19.83 135.016 19.97C134.606 20.11 134.131 20.18 133.591 20.18ZM145.33 20C144.87 20 144.5 19.885 144.22 19.655C143.94 19.415 143.775 19.075 143.725 18.635H143.65C143.51 19.145 143.23 19.53 142.81 19.79C142.4 20.05 141.895 20.18 141.295 20.18C140.545 20.18 139.94 19.98 139.48 19.58C139.03 19.17 138.805 18.6 138.805 17.87C138.805 17.06 139.1 16.46 139.69 16.07C140.28 15.68 141.145 15.485 142.285 15.485H143.53V15.095C143.53 14.635 143.42 14.29 143.2 14.06C142.99 13.82 142.63 13.7 142.12 13.7C141.65 13.7 141.27 13.79 140.98 13.97C140.69 14.15 140.44 14.385 140.23 14.675L139.015 13.595C139.275 13.155 139.68 12.795 140.23 12.515C140.79 12.225 141.505 12.08 142.375 12.08C143.435 12.08 144.26 12.325 144.85 12.815C145.45 13.295 145.75 14.025 145.75 15.005V18.395H146.605V20H145.33ZM142.135 18.725C142.525 18.725 142.855 18.63 143.125 18.44C143.395 18.25 143.53 17.975 143.53 17.615V16.685H142.345C141.435 16.685 140.98 16.99 140.98 17.6V17.9C140.98 18.17 141.085 18.375 141.295 18.515C141.505 18.655 141.785 18.725 142.135 18.725ZM152.299 20C151.499 20 150.904 19.79 150.514 19.37C150.124 18.95 149.929 18.415 149.929 17.765V13.985H147.829V12.26H149.194C149.524 12.26 149.759 12.195 149.899 12.065C150.039 11.935 150.109 11.695 150.109 11.345V9.53H152.149V12.26H155.164V13.985H152.149V18.275H155.164V20H152.299ZM163.679 20C163.219 20 162.849 19.885 162.569 19.655C162.289 19.415 162.124 19.075 162.074 18.635H161.999C161.859 19.145 161.579 19.53 161.159 19.79C160.749 20.05 160.244 20.18 159.644 20.18C158.894 20.18 158.289 19.98 157.829 19.58C157.379 19.17 157.154 18.6 157.154 17.87C157.154 17.06 157.449 16.46 158.039 16.07C158.629 15.68 159.494 15.485 160.634 15.485H161.879V15.095C161.879 14.635 161.769 14.29 161.549 14.06C161.339 13.82 160.979 13.7 160.469 13.7C159.999 13.7 159.619 13.79 159.329 13.97C159.039 14.15 158.789 14.385 158.579 14.675L157.364 13.595C157.624 13.155 158.029 12.795 158.579 12.515C159.139 12.225 159.854 12.08 160.724 12.08C161.784 12.08 162.609 12.325 163.199 12.815C163.799 13.295 164.099 14.025 164.099 15.005V18.395H164.954V20H163.679ZM160.484 18.725C160.874 18.725 161.204 18.63 161.474 18.44C161.744 18.25 161.879 17.975 161.879 17.615V16.685H160.694C159.784 16.685 159.329 16.99 159.329 17.6V17.9C159.329 18.17 159.434 18.375 159.644 18.515C159.854 18.655 160.134 18.725 160.484 18.725ZM166.568 18.275H168.938V10.625H166.568V8.9H171.158V18.275H173.528V20H166.568V18.275ZM179.222 20.18C178.622 20.18 178.082 20.09 177.602 19.91C177.122 19.72 176.712 19.45 176.372 19.1C176.042 18.75 175.787 18.325 175.607 17.825C175.427 17.325 175.337 16.76 175.337 16.13C175.337 15.5 175.427 14.935 175.607 14.435C175.787 13.935 176.042 13.51 176.372 13.16C176.712 12.81 177.122 12.545 177.602 12.365C178.082 12.175 178.622 12.08 179.222 12.08C179.822 12.08 180.362 12.175 180.842 12.365C181.322 12.545 181.727 12.81 182.057 13.16C182.397 13.51 182.657 13.935 182.837 14.435C183.017 14.935 183.107 15.5 183.107 16.13C183.107 16.76 183.017 17.325 182.837 17.825C182.657 18.325 182.397 18.75 182.057 19.1C181.727 19.45 181.322 19.72 180.842 19.91C180.362 20.09 179.822 20.18 179.222 20.18ZM179.222 18.53C179.722 18.53 180.112 18.375 180.392 18.065C180.672 17.755 180.812 17.315 180.812 16.745V15.515C180.812 14.945 180.672 14.505 180.392 14.195C180.112 13.885 179.722 13.73 179.222 13.73C178.722 13.73 178.332 13.885 178.052 14.195C177.772 14.505 177.632 14.945 177.632 15.515V16.745C177.632 17.315 177.772 17.755 178.052 18.065C178.332 18.375 178.722 18.53 179.222 18.53ZM192.641 20.78C192.641 21.6 192.296 22.205 191.606 22.595C190.916 22.985 189.831 23.18 188.351 23.18C187.611 23.18 187.001 23.135 186.521 23.045C186.041 22.965 185.656 22.845 185.366 22.685C185.086 22.525 184.886 22.335 184.766 22.115C184.656 21.895 184.601 21.655 184.601 21.395C184.601 20.955 184.731 20.62 184.991 20.39C185.251 20.17 185.616 20 186.086 19.88V19.79C185.756 19.69 185.491 19.55 185.291 19.37C185.101 19.18 185.006 18.915 185.006 18.575C185.006 18.195 185.131 17.915 185.381 17.735C185.641 17.555 185.981 17.415 186.401 17.315V17.225C185.941 17.005 185.581 16.695 185.321 16.295C185.071 15.895 184.946 15.41 184.946 14.84C184.946 14.39 185.026 13.995 185.186 13.655C185.346 13.305 185.571 13.015 185.861 12.785C186.161 12.555 186.516 12.38 186.926 12.26C187.336 12.14 187.796 12.08 188.306 12.08C188.796 12.08 189.251 12.135 189.671 12.245V11.825C189.671 11.525 189.776 11.275 189.986 11.075C190.196 10.875 190.486 10.775 190.856 10.775H192.221V12.395H190.361V12.53C190.781 12.75 191.106 13.055 191.336 13.445C191.576 13.825 191.696 14.29 191.696 14.84C191.696 15.29 191.616 15.685 191.456 16.025C191.296 16.365 191.066 16.655 190.766 16.895C190.466 17.125 190.106 17.3 189.686 17.42C189.276 17.54 188.816 17.6 188.306 17.6C188.076 17.6 187.856 17.59 187.646 17.57C187.436 17.54 187.236 17.5 187.046 17.45C186.936 17.51 186.841 17.585 186.761 17.675C186.691 17.765 186.656 17.88 186.656 18.02C186.656 18.14 186.686 18.235 186.746 18.305C186.806 18.375 186.886 18.43 186.986 18.47C187.096 18.5 187.221 18.52 187.361 18.53C187.501 18.54 187.646 18.545 187.796 18.545H189.566C190.116 18.545 190.586 18.6 190.976 18.71C191.366 18.82 191.686 18.975 191.936 19.175C192.186 19.375 192.366 19.61 192.476 19.88C192.586 20.15 192.641 20.45 192.641 20.78ZM190.541 20.945C190.541 20.745 190.461 20.585 190.301 20.465C190.141 20.355 189.836 20.3 189.386 20.3H186.731C186.531 20.47 186.431 20.68 186.431 20.93C186.431 21.17 186.531 21.365 186.731 21.515C186.941 21.675 187.291 21.755 187.781 21.755H189.086C189.596 21.755 189.966 21.685 190.196 21.545C190.426 21.405 190.541 21.205 190.541 20.945ZM188.306 16.19C188.756 16.19 189.081 16.08 189.281 15.86C189.491 15.64 189.596 15.36 189.596 15.02V14.66C189.596 14.32 189.491 14.04 189.281 13.82C189.081 13.6 188.756 13.49 188.306 13.49C187.866 13.49 187.546 13.6 187.346 13.82C187.146 14.04 187.046 14.32 187.046 14.66V15.02C187.046 15.36 187.146 15.64 187.346 15.86C187.546 16.08 187.866 16.19 188.306 16.19Z" fill="white"/>
<path d="M194 0H5C2.23858 0 0 2.23858 0 5V27C0 29.7614 2.23858 32 5 32H194C196.761 32 199 29.7614 199 27V5C199 2.23858 196.761 0 194 0Z" fill="url(#paint0_linear_18_705)"/>
<mask id="mask0_18_705" style="mask-type:luminance" maskUnits="userSpaceOnUse" x="2" y="1" width="25" height="28">
<path d="M12 7H20V9H12V7Z" fill="white"/>
<path d="M16 27H6V23H8V21H6V16H8V14H6V9H8V7H6V3H24V20H26V3C26 2.46957 25.7893 1.96086 25.4142 1.58579C25.0391 1.21071 24.5304 1 24 1H6C5.46957 1 4.96086 1.21071 4.58579 1.58579C4.21071 1.96086 4 2.46957 4 3V7H2V9H4V14H2V16H4V21H2V23H4V27C4 27.5304 4.21071 28.0391 4.58579 28.4142C4.96086 28.7893 5.46957 29 6 29H16V27Z" fill="white"/>
<path d="M12 12H20V14H12V12ZM12 17H20V19H12V17Z" fill="white"/>
<path d="M27 12V21H23.475V12H27Z" fill="url(#paint1_linear_18_705)"/>
</mask>
<g mask="url(#mask0_18_705)">
<path d="M0 -1H32V31H0V-1Z" fill="url(#paint2_linear_18_705)"/>
</g>
<path d="M23 26.1801L20.41 23.5901L19 25.0001L23 29.0001L30 22.0001L28.59 20.5901L23 26.1801Z" fill="#F4F4F4"/>
</g>
<defs>
<linearGradient id="paint0_linear_18_705" x1="0" y1="0" x2="0" y2="32" gradientUnits="userSpaceOnUse">
<stop stop-color="#BBBBBB" stop-opacity="0.1"/>
<stop offset="1" stop-opacity="0.1"/>
</linearGradient>
<linearGradient id="paint1_linear_18_705" x1="25.237" y1="12" x2="25.237" y2="21" gradientUnits="userSpaceOnUse">
<stop offset="0.001" stop-opacity="0"/>
<stop offset="0.83"/>
</linearGradient>
<linearGradient id="paint2_linear_18_705" x1="0" y1="31" x2="32" y2="-1" gradientUnits="userSpaceOnUse">
<stop offset="0.1" stop-color="#BE95FF"/>
<stop offset="0.9" stop-color="#4589FF"/>
</linearGradient>
<clipPath id="clip0_18_705">
<rect width="199" height="32" rx="5" fill="white"/>
</clipPath>
</defs>
</svg>
