<svg width="243" height="32" viewBox="0 0 243 32" fill="none" xmlns="http://www.w3.org/2000/svg">
<g clip-path="url(#clip0_14_578)">
<path d="M238 0H31V32H238C240.761 32 243 29.7614 243 27V5C243 2.23858 240.761 0 238 0Z" fill="#0F1418"/>
<rect width="32" height="32" fill="#0F1418"/>
<mask id="mask0_14_578" style="mask-type:luminance" maskUnits="userSpaceOnUse" x="3" y="8" width="26" height="20">
<path d="M6 25.0291C6 25.5813 5.55228 26.0291 5 26.0291C4.44772 26.0291 4 25.5813 4 25.0291V12.0291C4.00132 10.9686 4.42318 9.95195 5.17303 9.20209C5.92289 8.45223 6.93954 8.03038 8 8.02905H9C9.55228 8.02905 10 8.47677 10 9.02905C10 9.58134 9.55228 10.0291 9 10.0291H8C7.46957 10.0291 6.96086 10.2398 6.58579 10.6148C6.21071 10.9899 6 11.4986 6 12.0291V25.0291ZM28 25.0301C28 25.5823 27.5523 26.0301 27 26.0301C26.4477 26.0301 26 25.5823 26 25.0301V12.0301C26 11.4996 25.7893 10.9909 25.4142 10.6158C25.0391 10.2408 24.5304 10.0301 24 10.0301H23C22.4477 10.0301 22 9.58234 22 9.03005C22 8.47777 22.4477 8.03005 23 8.03005H24C25.0609 8.03005 26.0783 8.45148 26.8284 9.20162C27.5786 9.95177 28 10.9692 28 12.0301V25.0301ZM15.002 14.0291C15.002 13.4768 15.4497 13.0291 16.002 13.0291C16.5543 13.0291 17.002 13.4768 17.002 14.0291V25.3841C17.002 25.9363 16.5543 26.3841 16.002 26.3841C15.4497 26.3841 15.002 25.9363 15.002 25.3841V14.0291Z" fill="#F2F2F2"/>
<path d="M5 19.73C6.10457 19.73 7 20.6254 7 21.73V25.034C7 26.1386 6.10457 27.034 5 27.034C3.89543 27.034 3 26.1386 3 25.034L3 21.73C3 20.6254 3.89543 19.73 5 19.73Z" fill="url(#paint0_linear_14_578)"/>
<path d="M16 19.73C17.1046 19.73 18 20.6254 18 21.73V25.034C18 26.1386 17.1046 27.034 16 27.034C14.8954 27.034 14 26.1386 14 25.034V21.73C14 20.6254 14.8954 19.73 16 19.73Z" fill="url(#paint1_linear_14_578)"/>
<path d="M27 19.73C28.1046 19.73 29 20.6254 29 21.73V25.034C29 26.1386 28.1046 27.034 27 27.034C25.8954 27.034 25 26.1386 25 25.034V21.73C25 20.6254 25.8954 19.73 27 19.73Z" fill="url(#paint2_linear_14_578)"/>
</mask>
<g mask="url(#mask0_14_578)">
<path d="M5 32C2.23858 32 0 29.7614 0 27L0 5C0 2.23858 2.23858 0 5 0H27C29.7614 0 32 2.23858 32 5V27C32 29.7614 29.7614 32 27 32H5Z" fill="url(#paint3_linear_14_578)"/>
</g>
<path d="M14.8654 4.3629C15.3335 3.40014 16.6993 3.38371 17.1904 4.33493L17.222 4.39618C17.4128 4.76576 17.7711 5.02065 18.1827 5.08045C19.2421 5.23435 19.6613 6.54299 18.8894 7.28485C18.5811 7.58114 18.4409 8.01293 18.5173 8.43362C18.7073 9.47986 17.5958 10.2787 16.6546 9.78393C16.2879 9.59117 15.8474 9.58516 15.477 9.77081L15.3362 9.84142C14.3786 10.3214 13.286 9.49312 13.4799 8.43969C13.5578 8.0165 13.4183 7.58065 13.1081 7.28247C12.338 6.5423 12.7588 5.24018 13.8164 5.09063L13.878 5.08191C14.3063 5.02136 14.6764 4.75186 14.8654 4.3629ZM5 26.0291C4.60444 26.0291 4.21776 26.1464 3.88886 26.3661C3.55996 26.5859 3.30362 26.8982 3.15224 27.2637C3.00087 27.6291 2.96126 28.0313 3.03843 28.4192C3.1156 28.8072 3.30608 29.1636 3.58579 29.4433C3.86549 29.723 4.22186 29.9135 4.60982 29.9906C4.99778 30.0678 5.39992 30.0282 5.76537 29.8768C6.13082 29.7254 6.44318 29.4691 6.66294 29.1402C6.8827 28.8113 7 28.4246 7 28.0291C7 27.4986 6.78929 26.9899 6.41421 26.6148C6.03914 26.2398 5.53043 26.0291 5 26.0291ZM16 26.0291C15.6044 26.0291 15.2178 26.1464 14.8889 26.3661C14.56 26.5859 14.3036 26.8982 14.1522 27.2637C14.0009 27.6291 13.9613 28.0313 14.0384 28.4192C14.1156 28.8072 14.3061 29.1636 14.5858 29.4433C14.8655 29.723 15.2219 29.9135 15.6098 29.9906C15.9978 30.0678 16.3999 30.0282 16.7654 29.8768C17.1308 29.7254 17.4432 29.4691 17.6629 29.1402C17.8827 28.8113 18 28.4246 18 28.0291C18 27.4986 17.7893 26.9899 17.4142 26.6148C17.0391 26.2398 16.5304 26.0291 16 26.0291ZM27 26.0291C26.6044 26.0291 26.2178 26.1464 25.8889 26.3661C25.56 26.5859 25.3036 26.8982 25.1522 27.2637C25.0009 27.6291 24.9613 28.0313 25.0384 28.4192C25.1156 28.8072 25.3061 29.1636 25.5858 29.4433C25.8655 29.723 26.2219 29.9135 26.6098 29.9906C26.9978 30.0678 27.3999 30.0282 27.7654 29.8768C28.1308 29.7254 28.4432 29.4691 28.6629 29.1402C28.8827 28.8113 29 28.4246 29 28.0291C29 27.4986 28.7893 26.9899 28.4142 26.6148C28.0391 26.2398 27.5304 26.0291 27 26.0291Z" fill="#F4F4F4"/>
<path d="M42.6395 16.335L42.7595 13.41H42.6245L40.6745 18.795L38.7245 13.41H38.5895L38.7095 16.335V21H36.7595V10.53H39.4145L40.7045 14.055H40.8245L42.1145 10.53H44.5895V21H42.6395V16.335ZM52.6536 21C52.1936 21 51.8236 20.885 51.5436 20.655C51.2636 20.415 51.0986 20.075 51.0486 19.635H50.9736C50.8336 20.145 50.5536 20.53 50.1336 20.79C49.7236 21.05 49.2186 21.18 48.6186 21.18C47.8686 21.18 47.2636 20.98 46.8036 20.58C46.3536 20.17 46.1286 19.6 46.1286 18.87C46.1286 18.06 46.4236 17.46 47.0136 17.07C47.6036 16.68 48.4686 16.485 49.6086 16.485H50.8536V16.095C50.8536 15.635 50.7436 15.29 50.5236 15.06C50.3136 14.82 49.9536 14.7 49.4436 14.7C48.9736 14.7 48.5936 14.79 48.3036 14.97C48.0136 15.15 47.7636 15.385 47.5536 15.675L46.3386 14.595C46.5986 14.155 47.0036 13.795 47.5536 13.515C48.1136 13.225 48.8286 13.08 49.6986 13.08C50.7586 13.08 51.5836 13.325 52.1736 13.815C52.7736 14.295 53.0736 15.025 53.0736 16.005V19.395H53.9286V21H52.6536ZM49.4586 19.725C49.8486 19.725 50.1786 19.63 50.4486 19.44C50.7186 19.25 50.8536 18.975 50.8536 18.615V17.685H49.6686C48.7586 17.685 48.3036 17.99 48.3036 18.6V18.9C48.3036 19.17 48.4086 19.375 48.6186 19.515C48.8286 19.655 49.1086 19.725 49.4586 19.725ZM58.9327 21.18C58.0727 21.18 57.3227 21.05 56.6827 20.79C56.0527 20.53 55.5777 20.175 55.2577 19.725L56.5027 18.57C56.8027 18.9 57.1527 19.16 57.5527 19.35C57.9627 19.53 58.4277 19.62 58.9477 19.62C59.3877 19.62 59.7327 19.555 59.9827 19.425C60.2327 19.285 60.3577 19.075 60.3577 18.795C60.3577 18.575 60.2727 18.425 60.1027 18.345C59.9327 18.255 59.6977 18.185 59.3977 18.135L58.1527 17.94C57.8027 17.89 57.4777 17.815 57.1777 17.715C56.8777 17.605 56.6177 17.46 56.3977 17.28C56.1777 17.1 56.0027 16.88 55.8727 16.62C55.7427 16.36 55.6777 16.045 55.6777 15.675C55.6777 14.865 55.9877 14.23 56.6077 13.77C57.2277 13.31 58.0977 13.08 59.2177 13.08C59.9777 13.08 60.6227 13.185 61.1527 13.395C61.6927 13.595 62.1227 13.885 62.4427 14.265L61.3327 15.525C61.1027 15.275 60.8077 15.065 60.4477 14.895C60.0877 14.725 59.6527 14.64 59.1427 14.64C58.2827 14.64 57.8527 14.9 57.8527 15.42C57.8527 15.65 57.9377 15.81 58.1077 15.9C58.2777 15.98 58.5127 16.045 58.8127 16.095L60.0427 16.29C60.3927 16.34 60.7177 16.42 61.0177 16.53C61.3177 16.63 61.5777 16.77 61.7977 16.95C62.0277 17.13 62.2077 17.35 62.3377 17.61C62.4677 17.87 62.5327 18.185 62.5327 18.555C62.5327 19.365 62.2177 20.005 61.5877 20.475C60.9677 20.945 60.0827 21.18 58.9327 21.18ZM68.7969 21C67.9969 21 67.4019 20.79 67.0119 20.37C66.6219 19.95 66.4269 19.415 66.4269 18.765V14.985H64.3269V13.26H65.6919C66.0219 13.26 66.2569 13.195 66.3969 13.065C66.5369 12.935 66.6069 12.695 66.6069 12.345V10.53H68.6469V13.26H71.6619V14.985H68.6469V19.275H71.6619V21H68.7969ZM77.581 21.18C76.281 21.18 75.296 20.82 74.626 20.1C73.956 19.38 73.621 18.4 73.621 17.16C73.621 16.53 73.706 15.965 73.876 15.465C74.056 14.955 74.306 14.525 74.626 14.175C74.956 13.815 75.351 13.545 75.811 13.365C76.281 13.175 76.806 13.08 77.386 13.08C77.966 13.08 78.486 13.175 78.946 13.365C79.406 13.545 79.796 13.805 80.116 14.145C80.436 14.485 80.681 14.9 80.851 15.39C81.031 15.87 81.121 16.41 81.121 17.01V17.67H75.826V17.805C75.826 18.305 75.981 18.71 76.291 19.02C76.601 19.32 77.056 19.47 77.656 19.47C78.116 19.47 78.511 19.385 78.841 19.215C79.171 19.035 79.456 18.8 79.696 18.51L80.896 19.815C80.596 20.185 80.176 20.505 79.636 20.775C79.096 21.045 78.411 21.18 77.581 21.18ZM77.401 14.67C76.921 14.67 76.536 14.82 76.246 15.12C75.966 15.41 75.826 15.805 75.826 16.305V16.425H78.946V16.305C78.946 15.795 78.806 15.395 78.526 15.105C78.256 14.815 77.881 14.67 77.401 14.67ZM83.1552 19.275H84.9402V14.985H83.1552V13.26H87.1602V15.45H87.2652C87.3352 15.17 87.4302 14.9 87.5502 14.64C87.6802 14.37 87.8402 14.135 88.0302 13.935C88.2302 13.725 88.4702 13.56 88.7502 13.44C89.0302 13.32 89.3602 13.26 89.7402 13.26H90.4752V15.3H88.8252C88.2752 15.3 87.8602 15.465 87.5802 15.795C87.3002 16.115 87.1602 16.51 87.1602 16.98V19.275H89.7102V21H83.1552V19.275ZM101.353 10.53H104.728C106.138 10.53 107.183 10.98 107.863 11.88C108.543 12.78 108.883 14.075 108.883 15.765C108.883 17.455 108.543 18.75 107.863 19.65C107.183 20.55 106.138 21 104.728 21H101.353V10.53ZM104.578 19.23C105.248 19.23 105.738 19.015 106.048 18.585C106.358 18.155 106.513 17.53 106.513 16.71V14.805C106.513 13.995 106.358 13.375 106.048 12.945C105.738 12.515 105.248 12.3 104.578 12.3H103.573V19.23H104.578ZM116.873 21C116.413 21 116.043 20.885 115.763 20.655C115.483 20.415 115.318 20.075 115.268 19.635H115.193C115.053 20.145 114.773 20.53 114.353 20.79C113.943 21.05 113.438 21.18 112.838 21.18C112.088 21.18 111.483 20.98 111.023 20.58C110.573 20.17 110.348 19.6 110.348 18.87C110.348 18.06 110.643 17.46 111.233 17.07C111.823 16.68 112.688 16.485 113.828 16.485H115.073V16.095C115.073 15.635 114.963 15.29 114.743 15.06C114.533 14.82 114.173 14.7 113.663 14.7C113.193 14.7 112.813 14.79 112.523 14.97C112.233 15.15 111.983 15.385 111.773 15.675L110.558 14.595C110.818 14.155 111.223 13.795 111.773 13.515C112.333 13.225 113.048 13.08 113.918 13.08C114.978 13.08 115.803 13.325 116.393 13.815C116.993 14.295 117.293 15.025 117.293 16.005V19.395H118.148V21H116.873ZM113.678 19.725C114.068 19.725 114.398 19.63 114.668 19.44C114.938 19.25 115.073 18.975 115.073 18.615V17.685H113.888C112.978 17.685 112.523 17.99 112.523 18.6V18.9C112.523 19.17 112.628 19.375 112.838 19.515C113.048 19.655 113.328 19.725 113.678 19.725ZM123.842 21C123.042 21 122.447 20.79 122.057 20.37C121.667 19.95 121.472 19.415 121.472 18.765V14.985H119.372V13.26H120.737C121.067 13.26 121.302 13.195 121.442 13.065C121.582 12.935 121.652 12.695 121.652 12.345V10.53H123.692V13.26H126.707V14.985H123.692V19.275H126.707V21H123.842ZM135.221 21C134.761 21 134.391 20.885 134.111 20.655C133.831 20.415 133.666 20.075 133.616 19.635H133.541C133.401 20.145 133.121 20.53 132.701 20.79C132.291 21.05 131.786 21.18 131.186 21.18C130.436 21.18 129.831 20.98 129.371 20.58C128.921 20.17 128.696 19.6 128.696 18.87C128.696 18.06 128.991 17.46 129.581 17.07C130.171 16.68 131.036 16.485 132.176 16.485H133.421V16.095C133.421 15.635 133.311 15.29 133.091 15.06C132.881 14.82 132.521 14.7 132.011 14.7C131.541 14.7 131.161 14.79 130.871 14.97C130.581 15.15 130.331 15.385 130.121 15.675L128.906 14.595C129.166 14.155 129.571 13.795 130.121 13.515C130.681 13.225 131.396 13.08 132.266 13.08C133.326 13.08 134.151 13.325 134.741 13.815C135.341 14.295 135.641 15.025 135.641 16.005V19.395H136.496V21H135.221ZM132.026 19.725C132.416 19.725 132.746 19.63 133.016 19.44C133.286 19.25 133.421 18.975 133.421 18.615V17.685H132.236C131.326 17.685 130.871 17.99 130.871 18.6V18.9C130.871 19.17 130.976 19.375 131.186 19.515C131.396 19.655 131.676 19.725 132.026 19.725ZM152.729 16.335L152.849 13.41H152.714L150.764 18.795L148.814 13.41H148.679L148.799 16.335V21H146.849V10.53H149.504L150.794 14.055H150.914L152.204 10.53H154.679V21H152.729V16.335ZM162.743 21C162.283 21 161.913 20.885 161.633 20.655C161.353 20.415 161.188 20.075 161.138 19.635H161.063C160.923 20.145 160.643 20.53 160.223 20.79C159.813 21.05 159.308 21.18 158.708 21.18C157.958 21.18 157.353 20.98 156.893 20.58C156.443 20.17 156.218 19.6 156.218 18.87C156.218 18.06 156.513 17.46 157.103 17.07C157.693 16.68 158.558 16.485 159.698 16.485H160.943V16.095C160.943 15.635 160.833 15.29 160.613 15.06C160.403 14.82 160.043 14.7 159.533 14.7C159.063 14.7 158.683 14.79 158.393 14.97C158.103 15.15 157.853 15.385 157.643 15.675L156.428 14.595C156.688 14.155 157.093 13.795 157.643 13.515C158.203 13.225 158.918 13.08 159.788 13.08C160.848 13.08 161.673 13.325 162.263 13.815C162.863 14.295 163.163 15.025 163.163 16.005V19.395H164.018V21H162.743ZM159.548 19.725C159.938 19.725 160.268 19.63 160.538 19.44C160.808 19.25 160.943 18.975 160.943 18.615V17.685H159.758C158.848 17.685 158.393 17.99 158.393 18.6V18.9C158.393 19.17 158.498 19.375 158.708 19.515C158.918 19.655 159.198 19.725 159.548 19.725ZM165.587 21V13.26H167.807V14.67H167.897C167.987 14.45 168.097 14.245 168.227 14.055C168.357 13.865 168.512 13.7 168.692 13.56C168.882 13.41 169.097 13.295 169.337 13.215C169.587 13.125 169.867 13.08 170.177 13.08C170.547 13.08 170.887 13.145 171.197 13.275C171.507 13.395 171.772 13.58 171.992 13.83C172.212 14.08 172.382 14.385 172.502 14.745C172.632 15.105 172.697 15.52 172.697 15.99V21H170.477V16.29C170.477 15.29 170.042 14.79 169.172 14.79C169.002 14.79 168.832 14.815 168.662 14.865C168.502 14.905 168.357 14.975 168.227 15.075C168.097 15.165 167.992 15.28 167.912 15.42C167.842 15.56 167.807 15.725 167.807 15.915V21H165.587ZM181.092 21C180.632 21 180.262 20.885 179.982 20.655C179.702 20.415 179.537 20.075 179.487 19.635H179.412C179.272 20.145 178.992 20.53 178.572 20.79C178.162 21.05 177.657 21.18 177.057 21.18C176.307 21.18 175.702 20.98 175.242 20.58C174.792 20.17 174.567 19.6 174.567 18.87C174.567 18.06 174.862 17.46 175.452 17.07C176.042 16.68 176.907 16.485 178.047 16.485H179.292V16.095C179.292 15.635 179.182 15.29 178.962 15.06C178.752 14.82 178.392 14.7 177.882 14.7C177.412 14.7 177.032 14.79 176.742 14.97C176.452 15.15 176.202 15.385 175.992 15.675L174.777 14.595C175.037 14.155 175.442 13.795 175.992 13.515C176.552 13.225 177.267 13.08 178.137 13.08C179.197 13.08 180.022 13.325 180.612 13.815C181.212 14.295 181.512 15.025 181.512 16.005V19.395H182.367V21H181.092ZM177.897 19.725C178.287 19.725 178.617 19.63 178.887 19.44C179.157 19.25 179.292 18.975 179.292 18.615V17.685H178.107C177.197 17.685 176.742 17.99 176.742 18.6V18.9C176.742 19.17 176.847 19.375 177.057 19.515C177.267 19.655 177.547 19.725 177.897 19.725ZM191.706 21.78C191.706 22.6 191.361 23.205 190.671 23.595C189.981 23.985 188.896 24.18 187.416 24.18C186.676 24.18 186.066 24.135 185.586 24.045C185.106 23.965 184.721 23.845 184.431 23.685C184.151 23.525 183.951 23.335 183.831 23.115C183.721 22.895 183.666 22.655 183.666 22.395C183.666 21.955 183.796 21.62 184.056 21.39C184.316 21.17 184.681 21 185.151 20.88V20.79C184.821 20.69 184.556 20.55 184.356 20.37C184.166 20.18 184.071 19.915 184.071 19.575C184.071 19.195 184.196 18.915 184.446 18.735C184.706 18.555 185.046 18.415 185.466 18.315V18.225C185.006 18.005 184.646 17.695 184.386 17.295C184.136 16.895 184.011 16.41 184.011 15.84C184.011 15.39 184.091 14.995 184.251 14.655C184.411 14.305 184.636 14.015 184.926 13.785C185.226 13.555 185.581 13.38 185.991 13.26C186.401 13.14 186.861 13.08 187.371 13.08C187.861 13.08 188.316 13.135 188.736 13.245V12.825C188.736 12.525 188.841 12.275 189.051 12.075C189.261 11.875 189.551 11.775 189.921 11.775H191.286V13.395H189.426V13.53C189.846 13.75 190.171 14.055 190.401 14.445C190.641 14.825 190.761 15.29 190.761 15.84C190.761 16.29 190.681 16.685 190.521 17.025C190.361 17.365 190.131 17.655 189.831 17.895C189.531 18.125 189.171 18.3 188.751 18.42C188.341 18.54 187.881 18.6 187.371 18.6C187.141 18.6 186.921 18.59 186.711 18.57C186.501 18.54 186.301 18.5 186.111 18.45C186.001 18.51 185.906 18.585 185.826 18.675C185.756 18.765 185.721 18.88 185.721 19.02C185.721 19.14 185.751 19.235 185.811 19.305C185.871 19.375 185.951 19.43 186.051 19.47C186.161 19.5 186.286 19.52 186.426 19.53C186.566 19.54 186.711 19.545 186.861 19.545H188.631C189.181 19.545 189.651 19.6 190.041 19.71C190.431 19.82 190.751 19.975 191.001 20.175C191.251 20.375 191.431 20.61 191.541 20.88C191.651 21.15 191.706 21.45 191.706 21.78ZM189.606 21.945C189.606 21.745 189.526 21.585 189.366 21.465C189.206 21.355 188.901 21.3 188.451 21.3H185.796C185.596 21.47 185.496 21.68 185.496 21.93C185.496 22.17 185.596 22.365 185.796 22.515C186.006 22.675 186.356 22.755 186.846 22.755H188.151C188.661 22.755 189.031 22.685 189.261 22.545C189.491 22.405 189.606 22.205 189.606 21.945ZM187.371 17.19C187.821 17.19 188.146 17.08 188.346 16.86C188.556 16.64 188.661 16.36 188.661 16.02V15.66C188.661 15.32 188.556 15.04 188.346 14.82C188.146 14.6 187.821 14.49 187.371 14.49C186.931 14.49 186.611 14.6 186.411 14.82C186.211 15.04 186.111 15.32 186.111 15.66V16.02C186.111 16.36 186.211 16.64 186.411 16.86C186.611 17.08 186.931 17.19 187.371 17.19ZM196.845 21.18C195.545 21.18 194.56 20.82 193.89 20.1C193.22 19.38 192.885 18.4 192.885 17.16C192.885 16.53 192.97 15.965 193.14 15.465C193.32 14.955 193.57 14.525 193.89 14.175C194.22 13.815 194.615 13.545 195.075 13.365C195.545 13.175 196.07 13.08 196.65 13.08C197.23 13.08 197.75 13.175 198.21 13.365C198.67 13.545 199.06 13.805 199.38 14.145C199.7 14.485 199.945 14.9 200.115 15.39C200.295 15.87 200.385 16.41 200.385 17.01V17.67H195.09V17.805C195.09 18.305 195.245 18.71 195.555 19.02C195.865 19.32 196.32 19.47 196.92 19.47C197.38 19.47 197.775 19.385 198.105 19.215C198.435 19.035 198.72 18.8 198.96 18.51L200.16 19.815C199.86 20.185 199.44 20.505 198.9 20.775C198.36 21.045 197.675 21.18 196.845 21.18ZM196.665 14.67C196.185 14.67 195.8 14.82 195.51 15.12C195.23 15.41 195.09 15.805 195.09 16.305V16.425H198.21V16.305C198.21 15.795 198.07 15.395 197.79 15.105C197.52 14.815 197.145 14.67 196.665 14.67ZM201.759 21V13.26H203.544V14.4H203.649C203.769 14.04 203.939 13.73 204.159 13.47C204.389 13.21 204.709 13.08 205.119 13.08C205.869 13.08 206.329 13.52 206.499 14.4H206.589C206.649 14.22 206.724 14.05 206.814 13.89C206.904 13.73 207.014 13.59 207.144 13.47C207.274 13.35 207.429 13.255 207.609 13.185C207.789 13.115 207.999 13.08 208.239 13.08C209.319 13.08 209.859 13.875 209.859 15.465V21H208.074V15.69C208.074 15.33 208.009 15.08 207.879 14.94C207.759 14.79 207.599 14.715 207.399 14.715C207.209 14.715 207.044 14.78 206.904 14.91C206.774 15.03 206.709 15.22 206.709 15.48V21H204.909V15.69C204.909 15.33 204.849 15.08 204.729 14.94C204.619 14.79 204.464 14.715 204.264 14.715C204.064 14.715 203.894 14.78 203.754 14.91C203.614 15.03 203.544 15.22 203.544 15.48V21H201.759ZM215.193 21.18C213.893 21.18 212.908 20.82 212.238 20.1C211.568 19.38 211.233 18.4 211.233 17.16C211.233 16.53 211.318 15.965 211.488 15.465C211.668 14.955 211.918 14.525 212.238 14.175C212.568 13.815 212.963 13.545 213.423 13.365C213.893 13.175 214.418 13.08 214.998 13.08C215.578 13.08 216.098 13.175 216.558 13.365C217.018 13.545 217.408 13.805 217.728 14.145C218.048 14.485 218.293 14.9 218.463 15.39C218.643 15.87 218.733 16.41 218.733 17.01V17.67H213.438V17.805C213.438 18.305 213.593 18.71 213.903 19.02C214.213 19.32 214.668 19.47 215.268 19.47C215.728 19.47 216.123 19.385 216.453 19.215C216.783 19.035 217.068 18.8 217.308 18.51L218.508 19.815C218.208 20.185 217.788 20.505 217.248 20.775C216.708 21.045 216.023 21.18 215.193 21.18ZM215.013 14.67C214.533 14.67 214.148 14.82 213.858 15.12C213.578 15.41 213.438 15.805 213.438 16.305V16.425H216.558V16.305C216.558 15.795 216.418 15.395 216.138 15.105C215.868 14.815 215.493 14.67 215.013 14.67ZM220.632 21V13.26H222.852V14.67H222.942C223.032 14.45 223.142 14.245 223.272 14.055C223.402 13.865 223.557 13.7 223.737 13.56C223.927 13.41 224.142 13.295 224.382 13.215C224.632 13.125 224.912 13.08 225.222 13.08C225.592 13.08 225.932 13.145 226.242 13.275C226.552 13.395 226.817 13.58 227.037 13.83C227.257 14.08 227.427 14.385 227.547 14.745C227.677 15.105 227.742 15.52 227.742 15.99V21H225.522V16.29C225.522 15.29 225.087 14.79 224.217 14.79C224.047 14.79 223.877 14.815 223.707 14.865C223.547 14.905 223.402 14.975 223.272 15.075C223.142 15.165 223.037 15.28 222.957 15.42C222.887 15.56 222.852 15.725 222.852 15.915V21H220.632ZM233.931 21C233.131 21 232.536 20.79 232.146 20.37C231.756 19.95 231.561 19.415 231.561 18.765V14.985H229.461V13.26H230.826C231.156 13.26 231.391 13.195 231.531 13.065C231.671 12.935 231.741 12.695 231.741 12.345V10.53H233.781V13.26H236.796V14.985H233.781V19.275H236.796V21H233.931Z" fill="white"/>
<path d="M238 0H5C2.23858 0 0 2.23858 0 5V27C0 29.7614 2.23857 32 5 32H238C240.761 32 243 29.7614 243 27V5C243 2.23858 240.761 0 238 0Z" fill="url(#paint4_linear_14_578)"/>
</g>
<defs>
<linearGradient id="paint0_linear_14_578" x1="5" y1="19.73" x2="5" y2="27.034" gradientUnits="userSpaceOnUse">
<stop offset="0.001" stop-opacity="0"/>
<stop offset="0.83"/>
</linearGradient>
<linearGradient id="paint1_linear_14_578" x1="16" y1="19.73" x2="16" y2="27.034" gradientUnits="userSpaceOnUse">
<stop offset="0.001" stop-opacity="0"/>
<stop offset="0.83"/>
</linearGradient>
<linearGradient id="paint2_linear_14_578" x1="27" y1="19.73" x2="27" y2="27.034" gradientUnits="userSpaceOnUse">
<stop offset="0.001" stop-opacity="0"/>
<stop offset="0.83"/>
</linearGradient>
<linearGradient id="paint3_linear_14_578" x1="0" y1="32" x2="32" y2="0" gradientUnits="userSpaceOnUse">
<stop offset="0.1" stop-color="#BE95FF"/>
<stop offset="0.9" stop-color="#4589FF"/>
</linearGradient>
<linearGradient id="paint4_linear_14_578" x1="0" y1="0" x2="0" y2="32" gradientUnits="userSpaceOnUse">
<stop stop-color="#BBBBBB" stop-opacity="0.1"/>
<stop offset="1" stop-opacity="0.1"/>
</linearGradient>
<clipPath id="clip0_14_578">
<rect width="243" height="32" rx="5" fill="white"/>
</clipPath>
</defs>
</svg>
