<svg width="125" height="32" viewBox="0 0 125 32" fill="none" xmlns="http://www.w3.org/2000/svg">
<g clip-path="url(#clip0_14_606)">
<path d="M120 0H31V32H120C122.761 32 125 29.7614 125 27V5C125 2.23858 122.761 0 120 0Z" fill="#0F1418"/>
<rect width="32" height="32" fill="#0F1418"/>
<mask id="mask0_14_606" style="mask-type:luminance" maskUnits="userSpaceOnUse" x="4" y="2" width="28" height="29">
<path d="M16 3.00003V5.00003C17.8909 4.98827 19.7614 5.39174 21.4794 6.18195C23.1973 6.97215 24.7209 8.12984 25.9425 9.57327C27.1641 11.0167 28.054 12.7107 28.5493 14.5357C29.0446 16.3606 29.1332 18.2721 28.809 20.135L30.78 20.463C31.1536 18.3135 31.0509 16.1082 30.4792 14.0026C29.9075 11.8971 28.8807 9.94274 27.4712 8.27738C26.0617 6.61203 24.3039 5.2763 22.3218 4.36444C20.3398 3.45258 18.1817 2.98682 16 3.00003Z" fill="white"/>
<path d="M15 2H29V18H15V2Z" fill="url(#paint0_linear_14_606)"/>
<path d="M16 31C15.7348 31 15.4804 30.8946 15.2929 30.7071C15.1054 30.5196 15 30.2652 15 30V6C15 5.73478 15.1054 5.48043 15.2929 5.29289C15.4804 5.10536 15.7348 5 16 5C16.2652 5 16.5196 5.10536 16.7071 5.29289C16.8946 5.48043 17 5.73478 17 6V30C17 30.2652 16.8946 30.5196 16.7071 30.7071C16.5196 30.8946 16.2652 31 16 31Z" fill="url(#paint1_linear_14_606)"/>
<path d="M4.861 11.2999C4.92873 11.1873 5.01798 11.0892 5.12365 11.0111C5.22932 10.9331 5.34934 10.8766 5.47684 10.8449C5.60435 10.8132 5.73685 10.807 5.86677 10.8266C5.99668 10.8461 6.12147 10.8911 6.234 10.9589L26.8 23.3299C27.0273 23.4668 27.1909 23.6883 27.2549 23.9458C27.3188 24.2033 27.2779 24.4756 27.141 24.7029C27.0042 24.9302 26.7826 25.0938 26.5251 25.1578C26.2676 25.2217 25.9953 25.1808 25.768 25.0439L5.2 12.6699C4.9738 12.5328 4.81112 12.3117 4.74759 12.0549C4.68405 11.7982 4.72483 11.5267 4.861 11.2999Z" fill="url(#paint2_linear_14_606)"/>
<path d="M7.81523 21.6172L27.4961 10.1359L28.5039 11.8635L8.82302 23.3447L7.81523 21.6172Z" fill="url(#paint3_linear_14_606)"/>
</mask>
<g mask="url(#mask0_14_606)">
<path d="M0 0H32V32H0V0Z" fill="url(#paint4_linear_14_606)"/>
</g>
<path d="M28 28C27.4067 28 26.8266 27.8241 26.3333 27.4944C25.8399 27.1648 25.4554 26.6962 25.2284 26.1481C25.0013 25.5999 24.9419 24.9967 25.0576 24.4147C25.1734 23.8328 25.4591 23.2982 25.8787 22.8787C26.2982 22.4591 26.8328 22.1734 27.4147 22.0576C27.9967 21.9419 28.5999 22.0013 29.1481 22.2284C29.6962 22.4554 30.1648 22.8399 30.4944 23.3333C30.8241 23.8266 31 24.4067 31 25C31 25.7957 30.6839 26.5587 30.1213 27.1213C29.5587 27.6839 28.7957 28 28 28ZM28 24C27.8022 24 27.6089 24.0586 27.4444 24.1685C27.28 24.2784 27.1518 24.4346 27.0761 24.6173C27.0004 24.8 26.9806 25.0011 27.0192 25.1951C27.0578 25.3891 27.153 25.5673 27.2929 25.7071C27.4327 25.847 27.6109 25.9422 27.8049 25.9808C27.9989 26.0194 28.2 25.9996 28.3827 25.9239C28.5654 25.8482 28.7216 25.72 28.8315 25.5556C28.9414 25.3911 29 25.1978 29 25C29 24.7348 28.8946 24.4804 28.7071 24.2929C28.5196 24.1054 28.2652 24 28 24ZM16 7C15.4067 7 14.8266 6.82405 14.3333 6.49441C13.8399 6.16477 13.4554 5.69623 13.2284 5.14805C13.0013 4.59987 12.9419 3.99667 13.0576 3.41473C13.1734 2.83279 13.4591 2.29824 13.8787 1.87868C14.2982 1.45912 14.8328 1.1734 15.4147 1.05765C15.9967 0.94189 16.5999 1.0013 17.1481 1.22836C17.6962 1.45543 18.1648 1.83994 18.4944 2.33329C18.8241 2.82664 19 3.40666 19 4C19 4.79565 18.6839 5.55871 18.1213 6.12132C17.5587 6.68393 16.7957 7 16 7ZM16 3C15.8022 3 15.6089 3.05865 15.4444 3.16853C15.28 3.27841 15.1518 3.43459 15.0761 3.61732C15.0004 3.80004 14.9806 4.00111 15.0192 4.19509C15.0578 4.38907 15.153 4.56726 15.2929 4.70711C15.4327 4.84696 15.6109 4.9422 15.8049 4.98079C15.9989 5.01937 16.2 4.99957 16.3827 4.92388C16.5654 4.84819 16.7216 4.72002 16.8315 4.55557C16.9414 4.39112 17 4.19778 17 4C17 3.73478 16.8946 3.48043 16.7071 3.29289C16.5196 3.10536 16.2652 3 16 3ZM4 28C3.40666 28 2.82664 27.8241 2.33329 27.4944C1.83994 27.1648 1.45543 26.6962 1.22836 26.1481C1.0013 25.5999 0.94189 24.9967 1.05765 24.4147C1.1734 23.8328 1.45912 23.2982 1.87868 22.8787C2.29824 22.4591 2.83279 22.1734 3.41473 22.0576C3.99667 21.9419 4.59987 22.0013 5.14805 22.2284C5.69623 22.4554 6.16477 22.8399 6.49441 23.3333C6.82405 23.8266 7 24.4067 7 25C7 25.7957 6.68393 26.5587 6.12132 27.1213C5.55871 27.6839 4.79565 28 4 28ZM4 24C3.80222 24 3.60888 24.0586 3.44443 24.1685C3.27998 24.2784 3.15181 24.4346 3.07612 24.6173C3.00043 24.8 2.98063 25.0011 3.01922 25.1951C3.0578 25.3891 3.15304 25.5673 3.29289 25.7071C3.43275 25.847 3.61093 25.9422 3.80491 25.9808C3.99889 26.0194 4.19996 25.9996 4.38268 25.9239C4.56541 25.8482 4.72159 25.72 4.83147 25.5556C4.94135 25.3911 5 25.1978 5 25C5 24.7348 4.89464 24.4804 4.70711 24.2929C4.51957 24.1054 4.26522 24 4 24Z" fill="#F4F4F4"/>
<path d="M41.3064 21.18C39.9064 21.18 38.8714 20.705 38.2014 19.755C37.5414 18.805 37.2114 17.475 37.2114 15.765C37.2114 14.055 37.5414 12.725 38.2014 11.775C38.8714 10.825 39.9064 10.35 41.3064 10.35C42.7064 10.35 43.7364 10.825 44.3964 11.775C45.0664 12.725 45.4014 14.055 45.4014 15.765C45.4014 17.475 45.0664 18.805 44.3964 19.755C43.7364 20.705 42.7064 21.18 41.3064 21.18ZM41.3064 19.365C41.9464 19.365 42.3864 19.13 42.6264 18.66C42.8764 18.18 43.0014 17.515 43.0014 16.665V14.85C43.0014 14.01 42.8764 13.355 42.6264 12.885C42.3864 12.405 41.9464 12.165 41.3064 12.165C40.6664 12.165 40.2214 12.405 39.9714 12.885C39.7314 13.355 39.6114 14.01 39.6114 14.85V16.68C39.6114 17.52 39.7314 18.18 39.9714 18.66C40.2214 19.13 40.6664 19.365 41.3064 19.365ZM46.8655 13.26H49.0855V14.67H49.1905C49.3805 14.21 49.6555 13.83 50.0155 13.53C50.3755 13.23 50.8655 13.08 51.4855 13.08C51.9155 13.08 52.3055 13.16 52.6555 13.32C53.0155 13.48 53.3205 13.725 53.5705 14.055C53.8305 14.385 54.0305 14.805 54.1705 15.315C54.3205 15.825 54.3955 16.43 54.3955 17.13C54.3955 17.83 54.3205 18.435 54.1705 18.945C54.0305 19.455 53.8305 19.875 53.5705 20.205C53.3205 20.535 53.0155 20.78 52.6555 20.94C52.3055 21.1 51.9155 21.18 51.4855 21.18C50.8655 21.18 50.3755 21.035 50.0155 20.745C49.6555 20.445 49.3805 20.06 49.1905 19.59H49.0855V24H46.8655V13.26ZM50.5255 19.455C51.0255 19.455 51.4105 19.305 51.6805 19.005C51.9505 18.695 52.0855 18.27 52.0855 17.73V16.53C52.0855 15.99 51.9505 15.57 51.6805 15.27C51.4105 14.96 51.0255 14.805 50.5255 14.805C50.1355 14.805 49.7955 14.9 49.5055 15.09C49.2255 15.28 49.0855 15.58 49.0855 15.99V18.27C49.0855 18.68 49.2255 18.98 49.5055 19.17C49.7955 19.36 50.1355 19.455 50.5255 19.455ZM59.8646 21.18C58.5646 21.18 57.5796 20.82 56.9096 20.1C56.2396 19.38 55.9046 18.4 55.9046 17.16C55.9046 16.53 55.9896 15.965 56.1596 15.465C56.3396 14.955 56.5896 14.525 56.9096 14.175C57.2396 13.815 57.6346 13.545 58.0946 13.365C58.5646 13.175 59.0896 13.08 59.6696 13.08C60.2496 13.08 60.7696 13.175 61.2296 13.365C61.6896 13.545 62.0796 13.805 62.3996 14.145C62.7196 14.485 62.9646 14.9 63.1346 15.39C63.3146 15.87 63.4046 16.41 63.4046 17.01V17.67H58.1096V17.805C58.1096 18.305 58.2646 18.71 58.5746 19.02C58.8846 19.32 59.3396 19.47 59.9396 19.47C60.3996 19.47 60.7946 19.385 61.1246 19.215C61.4546 19.035 61.7396 18.8 61.9796 18.51L63.1796 19.815C62.8796 20.185 62.4596 20.505 61.9196 20.775C61.3796 21.045 60.6946 21.18 59.8646 21.18ZM59.6846 14.67C59.2046 14.67 58.8196 14.82 58.5296 15.12C58.2496 15.41 58.1096 15.805 58.1096 16.305V16.425H61.2296V16.305C61.2296 15.795 61.0896 15.395 60.8096 15.105C60.5396 14.815 60.1646 14.67 59.6846 14.67ZM65.3038 21V13.26H67.5238V14.67H67.6138C67.7038 14.45 67.8138 14.245 67.9438 14.055C68.0738 13.865 68.2288 13.7 68.4088 13.56C68.5988 13.41 68.8138 13.295 69.0538 13.215C69.3038 13.125 69.5838 13.08 69.8938 13.08C70.2638 13.08 70.6038 13.145 70.9138 13.275C71.2238 13.395 71.4888 13.58 71.7088 13.83C71.9288 14.08 72.0988 14.385 72.2188 14.745C72.3488 15.105 72.4138 15.52 72.4138 15.99V21H70.1938V16.29C70.1938 15.29 69.7588 14.79 68.8888 14.79C68.7188 14.79 68.5488 14.815 68.3788 14.865C68.2188 14.905 68.0738 14.975 67.9438 15.075C67.8138 15.165 67.7088 15.28 67.6288 15.42C67.5588 15.56 67.5238 15.725 67.5238 15.915V21H65.3038ZM77.8379 21.18C76.9579 21.18 76.1929 21.035 75.5429 20.745C74.8929 20.455 74.3679 20.06 73.9679 19.56L75.2729 18.12C75.6529 18.54 76.0679 18.85 76.5179 19.05C76.9779 19.25 77.4429 19.35 77.9129 19.35C78.4529 19.35 78.8629 19.23 79.1429 18.99C79.4229 18.75 79.5629 18.405 79.5629 17.955C79.5629 17.585 79.4529 17.305 79.2329 17.115C79.0229 16.925 78.6629 16.79 78.1529 16.71L77.0579 16.53C76.1179 16.37 75.4379 16.025 75.0179 15.495C74.5979 14.955 74.3879 14.3 74.3879 13.53C74.3879 12.52 74.7179 11.74 75.3779 11.19C76.0379 10.63 76.9629 10.35 78.1529 10.35C78.9629 10.35 79.6679 10.475 80.2679 10.725C80.8679 10.975 81.3529 11.315 81.7229 11.745L80.4479 13.17C80.1679 12.86 79.8379 12.62 79.4579 12.45C79.0779 12.27 78.6479 12.18 78.1679 12.18C77.1579 12.18 76.6529 12.595 76.6529 13.425C76.6529 13.785 76.7629 14.055 76.9829 14.235C77.2129 14.415 77.5829 14.55 78.0929 14.64L79.1879 14.835C80.0379 14.985 80.6929 15.305 81.1529 15.795C81.6129 16.285 81.8429 16.945 81.8429 17.775C81.8429 18.265 81.7579 18.72 81.5879 19.14C81.4179 19.55 81.1629 19.91 80.8229 20.22C80.4829 20.52 80.0629 20.755 79.5629 20.925C79.0729 21.095 78.4979 21.18 77.8379 21.18ZM87.4921 21.18C86.8821 21.18 86.3321 21.09 85.8421 20.91C85.3621 20.72 84.9521 20.45 84.6121 20.1C84.2821 19.75 84.0271 19.325 83.8471 18.825C83.6671 18.325 83.5771 17.76 83.5771 17.13C83.5771 16.5 83.6671 15.935 83.8471 15.435C84.0271 14.935 84.2821 14.51 84.6121 14.16C84.9521 13.81 85.3621 13.545 85.8421 13.365C86.3321 13.175 86.8771 13.08 87.4771 13.08C88.3271 13.08 89.0071 13.255 89.5171 13.605C90.0371 13.945 90.4321 14.4 90.7021 14.97L88.9921 15.9C88.8521 15.6 88.6671 15.35 88.4371 15.15C88.2171 14.95 87.8971 14.85 87.4771 14.85C86.9671 14.85 86.5721 15 86.2921 15.3C86.0221 15.59 85.8871 15.99 85.8871 16.5V17.76C85.8871 18.27 86.0221 18.675 86.2921 18.975C86.5721 19.265 86.9771 19.41 87.5071 19.41C87.9371 19.41 88.2721 19.31 88.5121 19.11C88.7621 18.91 88.9721 18.65 89.1421 18.33L90.8221 19.29C90.5421 19.86 90.1321 20.32 89.5921 20.67C89.0621 21.01 88.3621 21.18 87.4921 21.18ZM99.1562 21C98.6962 21 98.3262 20.885 98.0462 20.655C97.7662 20.415 97.6012 20.075 97.5512 19.635H97.4762C97.3362 20.145 97.0562 20.53 96.6362 20.79C96.2262 21.05 95.7212 21.18 95.1212 21.18C94.3712 21.18 93.7662 20.98 93.3062 20.58C92.8562 20.17 92.6312 19.6 92.6312 18.87C92.6312 18.06 92.9262 17.46 93.5162 17.07C94.1062 16.68 94.9712 16.485 96.1112 16.485H97.3562V16.095C97.3562 15.635 97.2462 15.29 97.0262 15.06C96.8162 14.82 96.4562 14.7 95.9462 14.7C95.4762 14.7 95.0962 14.79 94.8062 14.97C94.5162 15.15 94.2662 15.385 94.0562 15.675L92.8412 14.595C93.1012 14.155 93.5062 13.795 94.0562 13.515C94.6162 13.225 95.3312 13.08 96.2012 13.08C97.2612 13.08 98.0862 13.325 98.6762 13.815C99.2762 14.295 99.5762 15.025 99.5762 16.005V19.395H100.431V21H99.1562ZM95.9612 19.725C96.3512 19.725 96.6812 19.63 96.9512 19.44C97.2212 19.25 97.3562 18.975 97.3562 18.615V17.685H96.1712C95.2612 17.685 94.8062 17.99 94.8062 18.6V18.9C94.8062 19.17 94.9112 19.375 95.1212 19.515C95.3312 19.655 95.6112 19.725 95.9612 19.725ZM102.045 19.275H104.415V11.625H102.045V9.9H106.635V19.275H109.005V21H102.045V19.275ZM114.909 21.18C113.609 21.18 112.624 20.82 111.954 20.1C111.284 19.38 110.949 18.4 110.949 17.16C110.949 16.53 111.034 15.965 111.204 15.465C111.384 14.955 111.634 14.525 111.954 14.175C112.284 13.815 112.679 13.545 113.139 13.365C113.609 13.175 114.134 13.08 114.714 13.08C115.294 13.08 115.814 13.175 116.274 13.365C116.734 13.545 117.124 13.805 117.444 14.145C117.764 14.485 118.009 14.9 118.179 15.39C118.359 15.87 118.449 16.41 118.449 17.01V17.67H113.154V17.805C113.154 18.305 113.309 18.71 113.619 19.02C113.929 19.32 114.384 19.47 114.984 19.47C115.444 19.47 115.839 19.385 116.169 19.215C116.499 19.035 116.784 18.8 117.024 18.51L118.224 19.815C117.924 20.185 117.504 20.505 116.964 20.775C116.424 21.045 115.739 21.18 114.909 21.18ZM114.729 14.67C114.249 14.67 113.864 14.82 113.574 15.12C113.294 15.41 113.154 15.805 113.154 16.305V16.425H116.274V16.305C116.274 15.795 116.134 15.395 115.854 15.105C115.584 14.815 115.209 14.67 114.729 14.67Z" fill="white"/>
<path d="M120 0H5C2.23858 0 0 2.23858 0 5V27C0 29.7614 2.23858 32 5 32H120C122.761 32 125 29.7614 125 27V5C125 2.23858 122.761 0 120 0Z" fill="url(#paint5_linear_14_606)"/>
</g>
<defs>
<linearGradient id="paint0_linear_14_606" x1="13.469" y1="7.714" x2="30.531" y2="12.286" gradientUnits="userSpaceOnUse">
<stop offset="0.3"/>
<stop offset="0.8" stop-opacity="0"/>
</linearGradient>
<linearGradient id="paint1_linear_14_606" x1="16" y1="31" x2="16" y2="5" gradientUnits="userSpaceOnUse">
<stop offset="0.6" stop-color="white"/>
<stop offset="0.9" stop-color="white" stop-opacity="0"/>
</linearGradient>
<linearGradient id="paint2_linear_14_606" x1="5.65372" y1="12.8518" x2="27.9284" y2="26.2622" gradientUnits="userSpaceOnUse">
<stop offset="0.6" stop-color="white"/>
<stop offset="0.9" stop-color="white" stop-opacity="0"/>
</linearGradient>
<linearGradient id="paint3_linear_14_606" x1="8.289" y1="22.4391" x2="28.029" y2="11.0421" gradientUnits="userSpaceOnUse">
<stop offset="0.5" stop-color="white"/>
<stop offset="0.9" stop-color="white" stop-opacity="0"/>
</linearGradient>
<linearGradient id="paint4_linear_14_606" x1="0" y1="32" x2="32" y2="0" gradientUnits="userSpaceOnUse">
<stop offset="0.1" stop-color="#BE95FF"/>
<stop offset="0.9" stop-color="#4589FF"/>
</linearGradient>
<linearGradient id="paint5_linear_14_606" x1="0" y1="0" x2="0" y2="32" gradientUnits="userSpaceOnUse">
<stop stop-color="#BBBBBB" stop-opacity="0.1"/>
<stop offset="1" stop-opacity="0.1"/>
</linearGradient>
<clipPath id="clip0_14_606">
<rect width="125" height="32" rx="5" fill="white"/>
</clipPath>
</defs>
</svg>
