<svg width="119" height="32" viewBox="0 0 119 32" fill="none" xmlns="http://www.w3.org/2000/svg">
<g clip-path="url(#clip0_14_452)">
<path d="M114 0H31V32H114C116.761 32 119 29.7614 119 27V5C119 2.23858 116.761 0 114 0Z" fill="#0F1418"/>
<rect width="32" height="32" fill="#0F1418"/>
<mask id="mask0_14_452" style="mask-type:luminance" maskUnits="userSpaceOnUse" x="2" y="3" width="26" height="27">
<path d="M17 30L12 27.113C10.7854 26.4091 9.77683 25.3988 9.07492 24.1831C8.373 22.9674 8.00236 21.5888 8 20.185V10C8 9.46957 8.21071 8.96086 8.58579 8.58579C8.96086 8.21071 9.46957 8 10 8H25V10H10V20.185C10.0009 21.2385 10.2785 22.2734 10.805 23.1859C11.3315 24.0985 12.0884 24.8568 13 25.385L17 27.694L24.5 23.364L25.5 25.097L17 30Z" fill="white"/>
<path d="M17 19H28V30H17V19Z" fill="url(#paint0_linear_14_452)"/>
<path d="M5 20H3V5C3 4.46957 3.21071 3.96086 3.58579 3.58579C3.96086 3.21071 4.46957 3 5 3H19V5H5V20Z" fill="white"/>
<path d="M6 9L6 21H2L2 9H6Z" fill="url(#paint1_linear_14_452)"/>
</mask>
<g mask="url(#mask0_14_452)">
<path d="M0 0H32V32H0V0Z" fill="url(#paint2_linear_14_452)"/>
</g>
<path d="M20 21H28V23H20V21ZM20 17H28V19H20V17ZM20 13H28V15H20V13ZM15 21H17V23H15V21ZM15 17H17V19H15V17ZM15 13H17V15H15V13Z" fill="#F4F4F4"/>
<path d="M38.3064 21.18C36.9064 21.18 35.8714 20.705 35.2014 19.755C34.5414 18.805 34.2114 17.475 34.2114 15.765C34.2114 14.055 34.5414 12.725 35.2014 11.775C35.8714 10.825 36.9064 10.35 38.3064 10.35C39.7064 10.35 40.7364 10.825 41.3964 11.775C42.0664 12.725 42.4014 14.055 42.4014 15.765C42.4014 17.475 42.0664 18.805 41.3964 19.755C40.7364 20.705 39.7064 21.18 38.3064 21.18ZM38.3064 19.365C38.9464 19.365 39.3864 19.13 39.6264 18.66C39.8764 18.18 40.0014 17.515 40.0014 16.665V14.85C40.0014 14.01 39.8764 13.355 39.6264 12.885C39.3864 12.405 38.9464 12.165 38.3064 12.165C37.6664 12.165 37.2214 12.405 36.9714 12.885C36.7314 13.355 36.6114 14.01 36.6114 14.85V16.68C36.6114 17.52 36.7314 18.18 36.9714 18.66C37.2214 19.13 37.6664 19.365 38.3064 19.365ZM43.8655 13.26H46.0855V14.67H46.1905C46.3805 14.21 46.6555 13.83 47.0155 13.53C47.3755 13.23 47.8655 13.08 48.4855 13.08C48.9155 13.08 49.3055 13.16 49.6555 13.32C50.0155 13.48 50.3205 13.725 50.5705 14.055C50.8305 14.385 51.0305 14.805 51.1705 15.315C51.3205 15.825 51.3955 16.43 51.3955 17.13C51.3955 17.83 51.3205 18.435 51.1705 18.945C51.0305 19.455 50.8305 19.875 50.5705 20.205C50.3205 20.535 50.0155 20.78 49.6555 20.94C49.3055 21.1 48.9155 21.18 48.4855 21.18C47.8655 21.18 47.3755 21.035 47.0155 20.745C46.6555 20.445 46.3805 20.06 46.1905 19.59H46.0855V24H43.8655V13.26ZM47.5255 19.455C48.0255 19.455 48.4105 19.305 48.6805 19.005C48.9505 18.695 49.0855 18.27 49.0855 17.73V16.53C49.0855 15.99 48.9505 15.57 48.6805 15.27C48.4105 14.96 48.0255 14.805 47.5255 14.805C47.1355 14.805 46.7955 14.9 46.5055 15.09C46.2255 15.28 46.0855 15.58 46.0855 15.99V18.27C46.0855 18.68 46.2255 18.98 46.5055 19.17C46.7955 19.36 47.1355 19.455 47.5255 19.455ZM56.8646 21.18C55.5646 21.18 54.5796 20.82 53.9096 20.1C53.2396 19.38 52.9046 18.4 52.9046 17.16C52.9046 16.53 52.9896 15.965 53.1596 15.465C53.3396 14.955 53.5896 14.525 53.9096 14.175C54.2396 13.815 54.6346 13.545 55.0946 13.365C55.5646 13.175 56.0896 13.08 56.6696 13.08C57.2496 13.08 57.7696 13.175 58.2296 13.365C58.6896 13.545 59.0796 13.805 59.3996 14.145C59.7196 14.485 59.9646 14.9 60.1346 15.39C60.3146 15.87 60.4046 16.41 60.4046 17.01V17.67H55.1096V17.805C55.1096 18.305 55.2646 18.71 55.5746 19.02C55.8846 19.32 56.3396 19.47 56.9396 19.47C57.3996 19.47 57.7946 19.385 58.1246 19.215C58.4546 19.035 58.7396 18.8 58.9796 18.51L60.1796 19.815C59.8796 20.185 59.4596 20.505 58.9196 20.775C58.3796 21.045 57.6946 21.18 56.8646 21.18ZM56.6846 14.67C56.2046 14.67 55.8196 14.82 55.5296 15.12C55.2496 15.41 55.1096 15.805 55.1096 16.305V16.425H58.2296V16.305C58.2296 15.795 58.0896 15.395 57.8096 15.105C57.5396 14.815 57.1646 14.67 56.6846 14.67ZM62.3038 21V13.26H64.5238V14.67H64.6138C64.7038 14.45 64.8138 14.245 64.9438 14.055C65.0738 13.865 65.2288 13.7 65.4088 13.56C65.5988 13.41 65.8138 13.295 66.0538 13.215C66.3038 13.125 66.5838 13.08 66.8938 13.08C67.2638 13.08 67.6038 13.145 67.9138 13.275C68.2238 13.395 68.4888 13.58 68.7088 13.83C68.9288 14.08 69.0988 14.385 69.2188 14.745C69.3488 15.105 69.4138 15.52 69.4138 15.99V21H67.1938V16.29C67.1938 15.29 66.7588 14.79 65.8888 14.79C65.7188 14.79 65.5488 14.815 65.3788 14.865C65.2188 14.905 65.0738 14.975 64.9438 15.075C64.8138 15.165 64.7088 15.28 64.6288 15.42C64.5588 15.56 64.5238 15.725 64.5238 15.915V21H62.3038ZM71.6429 21V10.53H75.6929C76.2029 10.53 76.6579 10.61 77.0579 10.77C77.4579 10.92 77.7929 11.14 78.0629 11.43C78.3429 11.72 78.5529 12.07 78.6929 12.48C78.8329 12.89 78.9029 13.35 78.9029 13.86C78.9029 14.37 78.8329 14.83 78.6929 15.24C78.5529 15.65 78.3429 16 78.0629 16.29C77.7929 16.58 77.4579 16.805 77.0579 16.965C76.6579 17.115 76.2029 17.19 75.6929 17.19H73.9079V21H71.6429ZM73.9079 15.375H75.1229C75.6529 15.375 76.0179 15.275 76.2179 15.075C76.4279 14.875 76.5329 14.545 76.5329 14.085V13.635C76.5329 13.175 76.4279 12.845 76.2179 12.645C76.0179 12.445 75.6529 12.345 75.1229 12.345H73.9079V15.375ZM86.9821 21C86.5221 21 86.1521 20.885 85.8721 20.655C85.5921 20.415 85.4271 20.075 85.3771 19.635H85.3021C85.1621 20.145 84.8821 20.53 84.4621 20.79C84.0521 21.05 83.5471 21.18 82.9471 21.18C82.1971 21.18 81.5921 20.98 81.1321 20.58C80.6821 20.17 80.4571 19.6 80.4571 18.87C80.4571 18.06 80.7521 17.46 81.3421 17.07C81.9321 16.68 82.7971 16.485 83.9371 16.485H85.1821V16.095C85.1821 15.635 85.0721 15.29 84.8521 15.06C84.6421 14.82 84.2821 14.7 83.7721 14.7C83.3021 14.7 82.9221 14.79 82.6321 14.97C82.3421 15.15 82.0921 15.385 81.8821 15.675L80.6671 14.595C80.9271 14.155 81.3321 13.795 81.8821 13.515C82.4421 13.225 83.1571 13.08 84.0271 13.08C85.0871 13.08 85.9121 13.325 86.5021 13.815C87.1021 14.295 87.4021 15.025 87.4021 16.005V19.395H88.2571V21H86.9821ZM83.7871 19.725C84.1771 19.725 84.5071 19.63 84.7771 19.44C85.0471 19.25 85.1821 18.975 85.1821 18.615V17.685H83.9971C83.0871 17.685 82.6321 17.99 82.6321 18.6V18.9C82.6321 19.17 82.7371 19.375 82.9471 19.515C83.1571 19.655 83.4371 19.725 83.7871 19.725ZM97.5962 21.78C97.5962 22.6 97.2512 23.205 96.5612 23.595C95.8712 23.985 94.7862 24.18 93.3062 24.18C92.5662 24.18 91.9562 24.135 91.4762 24.045C90.9962 23.965 90.6112 23.845 90.3212 23.685C90.0412 23.525 89.8412 23.335 89.7212 23.115C89.6112 22.895 89.5562 22.655 89.5562 22.395C89.5562 21.955 89.6862 21.62 89.9462 21.39C90.2062 21.17 90.5712 21 91.0412 20.88V20.79C90.7112 20.69 90.4462 20.55 90.2462 20.37C90.0562 20.18 89.9612 19.915 89.9612 19.575C89.9612 19.195 90.0862 18.915 90.3362 18.735C90.5962 18.555 90.9362 18.415 91.3562 18.315V18.225C90.8962 18.005 90.5362 17.695 90.2762 17.295C90.0262 16.895 89.9012 16.41 89.9012 15.84C89.9012 15.39 89.9812 14.995 90.1412 14.655C90.3012 14.305 90.5262 14.015 90.8162 13.785C91.1162 13.555 91.4712 13.38 91.8812 13.26C92.2912 13.14 92.7512 13.08 93.2612 13.08C93.7512 13.08 94.2062 13.135 94.6262 13.245V12.825C94.6262 12.525 94.7312 12.275 94.9412 12.075C95.1512 11.875 95.4412 11.775 95.8112 11.775H97.1762V13.395H95.3162V13.53C95.7362 13.75 96.0612 14.055 96.2912 14.445C96.5312 14.825 96.6512 15.29 96.6512 15.84C96.6512 16.29 96.5712 16.685 96.4112 17.025C96.2512 17.365 96.0212 17.655 95.7212 17.895C95.4212 18.125 95.0612 18.3 94.6412 18.42C94.2312 18.54 93.7712 18.6 93.2612 18.6C93.0312 18.6 92.8112 18.59 92.6012 18.57C92.3912 18.54 92.1912 18.5 92.0012 18.45C91.8912 18.51 91.7962 18.585 91.7162 18.675C91.6462 18.765 91.6112 18.88 91.6112 19.02C91.6112 19.14 91.6412 19.235 91.7012 19.305C91.7612 19.375 91.8412 19.43 91.9412 19.47C92.0512 19.5 92.1762 19.52 92.3162 19.53C92.4562 19.54 92.6012 19.545 92.7512 19.545H94.5212C95.0712 19.545 95.5412 19.6 95.9312 19.71C96.3212 19.82 96.6412 19.975 96.8912 20.175C97.1412 20.375 97.3212 20.61 97.4312 20.88C97.5412 21.15 97.5962 21.45 97.5962 21.78ZM95.4962 21.945C95.4962 21.745 95.4162 21.585 95.2562 21.465C95.0962 21.355 94.7912 21.3 94.3412 21.3H91.6862C91.4862 21.47 91.3862 21.68 91.3862 21.93C91.3862 22.17 91.4862 22.365 91.6862 22.515C91.8962 22.675 92.2462 22.755 92.7362 22.755H94.0412C94.5512 22.755 94.9212 22.685 95.1512 22.545C95.3812 22.405 95.4962 22.205 95.4962 21.945ZM93.2612 17.19C93.7112 17.19 94.0362 17.08 94.2362 16.86C94.4462 16.64 94.5512 16.36 94.5512 16.02V15.66C94.5512 15.32 94.4462 15.04 94.2362 14.82C94.0362 14.6 93.7112 14.49 93.2612 14.49C92.8212 14.49 92.5012 14.6 92.3012 14.82C92.1012 15.04 92.0012 15.32 92.0012 15.66V16.02C92.0012 16.36 92.1012 16.64 92.3012 16.86C92.5012 17.08 92.8212 17.19 93.2612 17.19ZM102.735 21.18C101.435 21.18 100.45 20.82 99.7804 20.1C99.1104 19.38 98.7754 18.4 98.7754 17.16C98.7754 16.53 98.8604 15.965 99.0304 15.465C99.2104 14.955 99.4604 14.525 99.7804 14.175C100.11 13.815 100.505 13.545 100.965 13.365C101.435 13.175 101.96 13.08 102.54 13.08C103.12 13.08 103.64 13.175 104.1 13.365C104.56 13.545 104.95 13.805 105.27 14.145C105.59 14.485 105.835 14.9 106.005 15.39C106.185 15.87 106.275 16.41 106.275 17.01V17.67H100.98V17.805C100.98 18.305 101.135 18.71 101.445 19.02C101.755 19.32 102.21 19.47 102.81 19.47C103.27 19.47 103.665 19.385 103.995 19.215C104.325 19.035 104.61 18.8 104.85 18.51L106.05 19.815C105.75 20.185 105.33 20.505 104.79 20.775C104.25 21.045 103.565 21.18 102.735 21.18ZM102.555 14.67C102.075 14.67 101.69 14.82 101.4 15.12C101.12 15.41 100.98 15.805 100.98 16.305V16.425H104.1V16.305C104.1 15.795 103.96 15.395 103.68 15.105C103.41 14.815 103.035 14.67 102.555 14.67ZM111.609 21.18C110.749 21.18 109.999 21.05 109.359 20.79C108.729 20.53 108.254 20.175 107.934 19.725L109.179 18.57C109.479 18.9 109.829 19.16 110.229 19.35C110.639 19.53 111.104 19.62 111.624 19.62C112.064 19.62 112.409 19.555 112.659 19.425C112.909 19.285 113.034 19.075 113.034 18.795C113.034 18.575 112.949 18.425 112.779 18.345C112.609 18.255 112.374 18.185 112.074 18.135L110.829 17.94C110.479 17.89 110.154 17.815 109.854 17.715C109.554 17.605 109.294 17.46 109.074 17.28C108.854 17.1 108.679 16.88 108.549 16.62C108.419 16.36 108.354 16.045 108.354 15.675C108.354 14.865 108.664 14.23 109.284 13.77C109.904 13.31 110.774 13.08 111.894 13.08C112.654 13.08 113.299 13.185 113.829 13.395C114.369 13.595 114.799 13.885 115.119 14.265L114.009 15.525C113.779 15.275 113.484 15.065 113.124 14.895C112.764 14.725 112.329 14.64 111.819 14.64C110.959 14.64 110.529 14.9 110.529 15.42C110.529 15.65 110.614 15.81 110.784 15.9C110.954 15.98 111.189 16.045 111.489 16.095L112.719 16.29C113.069 16.34 113.394 16.42 113.694 16.53C113.994 16.63 114.254 16.77 114.474 16.95C114.704 17.13 114.884 17.35 115.014 17.61C115.144 17.87 115.209 18.185 115.209 18.555C115.209 19.365 114.894 20.005 114.264 20.475C113.644 20.945 112.759 21.18 111.609 21.18Z" fill="white"/>
<path d="M114 0H5C2.23858 0 0 2.23858 0 5V27C0 29.7614 2.23858 32 5 32H114C116.761 32 119 29.7614 119 27V5C119 2.23858 116.761 0 114 0Z" fill="url(#paint3_linear_14_452)"/>
</g>
<defs>
<linearGradient id="paint0_linear_14_452" x1="15.993" y1="28.257" x2="29.007" y2="20.743" gradientUnits="userSpaceOnUse">
<stop offset="0.15" stop-opacity="0"/>
<stop offset="0.5"/>
</linearGradient>
<linearGradient id="paint1_linear_14_452" x1="4.001" y1="9" x2="4.001" y2="21" gradientUnits="userSpaceOnUse">
<stop stop-opacity="0"/>
<stop offset="0.9"/>
</linearGradient>
<linearGradient id="paint2_linear_14_452" x1="0" y1="32" x2="32" y2="0" gradientUnits="userSpaceOnUse">
<stop offset="0.1" stop-color="#BE95FF"/>
<stop offset="0.9" stop-color="#4589FF"/>
</linearGradient>
<linearGradient id="paint3_linear_14_452" x1="0" y1="0" x2="0" y2="32" gradientUnits="userSpaceOnUse">
<stop stop-color="#BBBBBB" stop-opacity="0.1"/>
<stop offset="1" stop-opacity="0.1"/>
</linearGradient>
<clipPath id="clip0_14_452">
<rect width="119" height="32" rx="5" fill="white"/>
</clipPath>
</defs>
</svg>
