<svg width="229" height="32" viewBox="0 0 229 32" fill="none" xmlns="http://www.w3.org/2000/svg">
<g clip-path="url(#clip0_119_14)">
<rect width="229" height="32" rx="5" fill="#0F1418"/>
<path d="M224 0H31V32H224C226.761 32 229 29.7614 229 27V5C229 2.23858 226.761 0 224 0Z" fill="#0F1418"/>
<path d="M34.7215 10.53H38.0965C39.5065 10.53 40.5515 10.98 41.2315 11.88C41.9115 12.78 42.2515 14.075 42.2515 15.765C42.2515 17.455 41.9115 18.75 41.2315 19.65C40.5515 20.55 39.5065 21 38.0965 21H34.7215V10.53ZM37.9465 19.23C38.6165 19.23 39.1065 19.015 39.4165 18.585C39.7265 18.155 39.8815 17.53 39.8815 16.71V14.805C39.8815 13.995 39.7265 13.375 39.4165 12.945C39.1065 12.515 38.6165 12.3 37.9465 12.3H36.9415V19.23H37.9465ZM50.2407 21C49.7807 21 49.4107 20.885 49.1307 20.655C48.8507 20.415 48.6857 20.075 48.6357 19.635H48.5607C48.4207 20.145 48.1407 20.53 47.7207 20.79C47.3107 21.05 46.8057 21.18 46.2057 21.18C45.4557 21.18 44.8507 20.98 44.3907 20.58C43.9407 20.17 43.7157 19.6 43.7157 18.87C43.7157 18.06 44.0107 17.46 44.6007 17.07C45.1907 16.68 46.0557 16.485 47.1957 16.485H48.4407V16.095C48.4407 15.635 48.3307 15.29 48.1107 15.06C47.9007 14.82 47.5407 14.7 47.0307 14.7C46.5607 14.7 46.1807 14.79 45.8907 14.97C45.6007 15.15 45.3507 15.385 45.1407 15.675L43.9257 14.595C44.1857 14.155 44.5907 13.795 45.1407 13.515C45.7007 13.225 46.4157 13.08 47.2857 13.08C48.3457 13.08 49.1707 13.325 49.7607 13.815C50.3607 14.295 50.6607 15.025 50.6607 16.005V19.395H51.5157V21H50.2407ZM47.0457 19.725C47.4357 19.725 47.7657 19.63 48.0357 19.44C48.3057 19.25 48.4407 18.975 48.4407 18.615V17.685H47.2557C46.3457 17.685 45.8907 17.99 45.8907 18.6V18.9C45.8907 19.17 45.9957 19.375 46.2057 19.515C46.4157 19.655 46.6957 19.725 47.0457 19.725ZM57.2098 21C56.4098 21 55.8148 20.79 55.4248 20.37C55.0348 19.95 54.8398 19.415 54.8398 18.765V14.985H52.7398V13.26H54.1048C54.4348 13.26 54.6698 13.195 54.8098 13.065C54.9498 12.935 55.0198 12.695 55.0198 12.345V10.53H57.0598V13.26H60.0748V14.985H57.0598V19.275H60.0748V21H57.2098ZM68.5889 21C68.1289 21 67.7589 20.885 67.4789 20.655C67.1989 20.415 67.0339 20.075 66.9839 19.635H66.9089C66.7689 20.145 66.4889 20.53 66.0689 20.79C65.6589 21.05 65.1539 21.18 64.5539 21.18C63.8039 21.18 63.1989 20.98 62.7389 20.58C62.2889 20.17 62.0639 19.6 62.0639 18.87C62.0639 18.06 62.3589 17.46 62.9489 17.07C63.5389 16.68 64.4039 16.485 65.5439 16.485H66.7889V16.095C66.7889 15.635 66.6789 15.29 66.4589 15.06C66.2489 14.82 65.8889 14.7 65.3789 14.7C64.9089 14.7 64.5289 14.79 64.2389 14.97C63.9489 15.15 63.6989 15.385 63.4889 15.675L62.2739 14.595C62.5339 14.155 62.9389 13.795 63.4889 13.515C64.0489 13.225 64.7639 13.08 65.6339 13.08C66.6939 13.08 67.5189 13.325 68.1089 13.815C68.7089 14.295 69.0089 15.025 69.0089 16.005V19.395H69.8639V21H68.5889ZM65.3939 19.725C65.7839 19.725 66.1139 19.63 66.3839 19.44C66.6539 19.25 66.7889 18.975 66.7889 18.615V17.685H65.6039C64.6939 17.685 64.2389 17.99 64.2389 18.6V18.9C64.2389 19.17 64.3439 19.375 64.5539 19.515C64.7639 19.655 65.0439 19.725 65.3939 19.725ZM80.7722 21V10.53H84.8222C85.3322 10.53 85.7872 10.61 86.1872 10.77C86.5872 10.92 86.9222 11.14 87.1922 11.43C87.4722 11.72 87.6822 12.07 87.8222 12.48C87.9622 12.89 88.0322 13.35 88.0322 13.86C88.0322 14.37 87.9622 14.83 87.8222 15.24C87.6822 15.65 87.4722 16 87.1922 16.29C86.9222 16.58 86.5872 16.805 86.1872 16.965C85.7872 17.115 85.3322 17.19 84.8222 17.19H83.0372V21H80.7722ZM83.0372 15.375H84.2522C84.7822 15.375 85.1472 15.275 85.3472 15.075C85.5572 14.875 85.6622 14.545 85.6622 14.085V13.635C85.6622 13.175 85.5572 12.845 85.3472 12.645C85.1472 12.445 84.7822 12.345 84.2522 12.345H83.0372V15.375ZM89.9164 19.275H91.7014V14.985H89.9164V13.26H93.9214V15.45H94.0264C94.0964 15.17 94.1914 14.9 94.3114 14.64C94.4414 14.37 94.6014 14.135 94.7914 13.935C94.9914 13.725 95.2314 13.56 95.5114 13.44C95.7914 13.32 96.1214 13.26 96.5014 13.26H97.2364V15.3H95.5864C95.0364 15.3 94.6214 15.465 94.3414 15.795C94.0614 16.115 93.9214 16.51 93.9214 16.98V19.275H96.4714V21H89.9164V19.275ZM102.481 21.18C101.881 21.18 101.341 21.09 100.861 20.91C100.381 20.72 99.9705 20.45 99.6305 20.1C99.3005 19.75 99.0455 19.325 98.8655 18.825C98.6855 18.325 98.5955 17.76 98.5955 17.13C98.5955 16.5 98.6855 15.935 98.8655 15.435C99.0455 14.935 99.3005 14.51 99.6305 14.16C99.9705 13.81 100.381 13.545 100.861 13.365C101.341 13.175 101.881 13.08 102.481 13.08C103.081 13.08 103.621 13.175 104.101 13.365C104.581 13.545 104.986 13.81 105.316 14.16C105.656 14.51 105.916 14.935 106.096 15.435C106.276 15.935 106.366 16.5 106.366 17.13C106.366 17.76 106.276 18.325 106.096 18.825C105.916 19.325 105.656 19.75 105.316 20.1C104.986 20.45 104.581 20.72 104.101 20.91C103.621 21.09 103.081 21.18 102.481 21.18ZM102.481 19.53C102.981 19.53 103.371 19.375 103.651 19.065C103.931 18.755 104.071 18.315 104.071 17.745V16.515C104.071 15.945 103.931 15.505 103.651 15.195C103.371 14.885 102.981 14.73 102.481 14.73C101.981 14.73 101.591 14.885 101.311 15.195C101.031 15.505 100.891 15.945 100.891 16.515V17.745C100.891 18.315 101.031 18.755 101.311 19.065C101.591 19.375 101.981 19.53 102.481 19.53ZM113.05 19.59H112.945C112.745 20.06 112.465 20.445 112.105 20.745C111.755 21.035 111.27 21.18 110.65 21.18C110.22 21.18 109.825 21.1 109.465 20.94C109.115 20.78 108.81 20.535 108.55 20.205C108.3 19.875 108.1 19.455 107.95 18.945C107.81 18.435 107.74 17.83 107.74 17.13C107.74 16.43 107.81 15.825 107.95 15.315C108.1 14.805 108.3 14.385 108.55 14.055C108.81 13.725 109.115 13.48 109.465 13.32C109.825 13.16 110.22 13.08 110.65 13.08C110.96 13.08 111.235 13.12 111.475 13.2C111.715 13.28 111.925 13.39 112.105 13.53C112.295 13.67 112.455 13.84 112.585 14.04C112.725 14.23 112.845 14.44 112.945 14.67H113.05V9.9H115.27V21H113.05V19.59ZM111.61 19.455C112 19.455 112.335 19.36 112.615 19.17C112.905 18.98 113.05 18.68 113.05 18.27V15.99C113.05 15.58 112.905 15.28 112.615 15.09C112.335 14.9 112 14.805 111.61 14.805C111.11 14.805 110.725 14.96 110.455 15.27C110.185 15.57 110.05 15.99 110.05 16.53V17.73C110.05 18.27 110.185 18.695 110.455 19.005C110.725 19.305 111.11 19.455 111.61 19.455ZM122.134 19.59H122.044C121.874 20.03 121.604 20.405 121.234 20.715C120.874 21.025 120.384 21.18 119.764 21.18C119.394 21.18 119.054 21.12 118.744 21C118.434 20.87 118.169 20.68 117.949 20.43C117.729 20.18 117.554 19.875 117.424 19.515C117.304 19.155 117.244 18.74 117.244 18.27V13.26H119.464V17.97C119.464 18.97 119.899 19.47 120.769 19.47C120.939 19.47 121.104 19.45 121.264 19.41C121.434 19.36 121.579 19.29 121.699 19.2C121.829 19.1 121.934 18.98 122.014 18.84C122.094 18.7 122.134 18.535 122.134 18.345V13.26H124.354V21H122.134V19.59ZM130.318 21.18C129.708 21.18 129.158 21.09 128.668 20.91C128.188 20.72 127.778 20.45 127.438 20.1C127.108 19.75 126.853 19.325 126.673 18.825C126.493 18.325 126.403 17.76 126.403 17.13C126.403 16.5 126.493 15.935 126.673 15.435C126.853 14.935 127.108 14.51 127.438 14.16C127.778 13.81 128.188 13.545 128.668 13.365C129.158 13.175 129.703 13.08 130.303 13.08C131.153 13.08 131.833 13.255 132.343 13.605C132.863 13.945 133.258 14.4 133.528 14.97L131.818 15.9C131.678 15.6 131.493 15.35 131.263 15.15C131.043 14.95 130.723 14.85 130.303 14.85C129.793 14.85 129.398 15 129.118 15.3C128.848 15.59 128.713 15.99 128.713 16.5V17.76C128.713 18.27 128.848 18.675 129.118 18.975C129.398 19.265 129.803 19.41 130.333 19.41C130.763 19.41 131.098 19.31 131.338 19.11C131.588 18.91 131.798 18.65 131.968 18.33L133.648 19.29C133.368 19.86 132.958 20.32 132.418 20.67C131.888 21.01 131.188 21.18 130.318 21.18ZM139.777 21C138.977 21 138.382 20.79 137.992 20.37C137.602 19.95 137.407 19.415 137.407 18.765V14.985H135.307V13.26H136.672C137.002 13.26 137.237 13.195 137.377 13.065C137.517 12.935 137.587 12.695 137.587 12.345V10.53H139.627V13.26H142.642V14.985H139.627V19.275H142.642V21H139.777ZM154.225 21V10.53H160.915V12.375H156.475V14.775H160.765V16.62H156.475V19.155H160.915V21H154.225ZM162.544 21L165.439 17.07L162.739 13.26H165.274L166.099 14.505L166.729 15.51H166.849L167.494 14.505L168.334 13.26H170.659L167.959 16.95L170.854 21H168.304L167.329 19.545L166.654 18.51H166.534L165.874 19.545L164.884 21H162.544ZM176.189 21.18C175.579 21.18 175.029 21.09 174.539 20.91C174.059 20.72 173.649 20.45 173.309 20.1C172.979 19.75 172.724 19.325 172.544 18.825C172.364 18.325 172.274 17.76 172.274 17.13C172.274 16.5 172.364 15.935 172.544 15.435C172.724 14.935 172.979 14.51 173.309 14.16C173.649 13.81 174.059 13.545 174.539 13.365C175.029 13.175 175.574 13.08 176.174 13.08C177.024 13.08 177.704 13.255 178.214 13.605C178.734 13.945 179.129 14.4 179.399 14.97L177.689 15.9C177.549 15.6 177.364 15.35 177.134 15.15C176.914 14.95 176.594 14.85 176.174 14.85C175.664 14.85 175.269 15 174.989 15.3C174.719 15.59 174.584 15.99 174.584 16.5V17.76C174.584 18.27 174.719 18.675 174.989 18.975C175.269 19.265 175.674 19.41 176.204 19.41C176.634 19.41 176.969 19.31 177.209 19.11C177.459 18.91 177.669 18.65 177.839 18.33L179.519 19.29C179.239 19.86 178.829 20.32 178.289 20.67C177.759 21.01 177.059 21.18 176.189 21.18ZM181.523 9.9H183.743V14.67H183.833C183.923 14.45 184.033 14.245 184.163 14.055C184.293 13.865 184.448 13.7 184.628 13.56C184.818 13.41 185.033 13.295 185.273 13.215C185.523 13.125 185.803 13.08 186.113 13.08C186.483 13.08 186.823 13.145 187.133 13.275C187.443 13.395 187.708 13.58 187.928 13.83C188.148 14.08 188.318 14.385 188.438 14.745C188.568 15.105 188.633 15.52 188.633 15.99V21H186.413V16.29C186.413 15.29 185.978 14.79 185.108 14.79C184.938 14.79 184.768 14.815 184.598 14.865C184.438 14.905 184.293 14.975 184.163 15.075C184.033 15.165 183.928 15.28 183.848 15.42C183.778 15.56 183.743 15.725 183.743 15.915V21H181.523V9.9ZM197.027 21C196.567 21 196.197 20.885 195.917 20.655C195.637 20.415 195.472 20.075 195.422 19.635H195.347C195.207 20.145 194.927 20.53 194.507 20.79C194.097 21.05 193.592 21.18 192.992 21.18C192.242 21.18 191.637 20.98 191.177 20.58C190.727 20.17 190.502 19.6 190.502 18.87C190.502 18.06 190.797 17.46 191.387 17.07C191.977 16.68 192.842 16.485 193.982 16.485H195.227V16.095C195.227 15.635 195.117 15.29 194.897 15.06C194.687 14.82 194.327 14.7 193.817 14.7C193.347 14.7 192.967 14.79 192.677 14.97C192.387 15.15 192.137 15.385 191.927 15.675L190.712 14.595C190.972 14.155 191.377 13.795 191.927 13.515C192.487 13.225 193.202 13.08 194.072 13.08C195.132 13.08 195.957 13.325 196.547 13.815C197.147 14.295 197.447 15.025 197.447 16.005V19.395H198.302V21H197.027ZM193.832 19.725C194.222 19.725 194.552 19.63 194.822 19.44C195.092 19.25 195.227 18.975 195.227 18.615V17.685H194.042C193.132 17.685 192.677 17.99 192.677 18.6V18.9C192.677 19.17 192.782 19.375 192.992 19.515C193.202 19.655 193.482 19.725 193.832 19.725ZM199.871 21V13.26H202.091V14.67H202.181C202.271 14.45 202.381 14.245 202.511 14.055C202.641 13.865 202.796 13.7 202.976 13.56C203.166 13.41 203.381 13.295 203.621 13.215C203.871 13.125 204.151 13.08 204.461 13.08C204.831 13.08 205.171 13.145 205.481 13.275C205.791 13.395 206.056 13.58 206.276 13.83C206.496 14.08 206.666 14.385 206.786 14.745C206.916 15.105 206.981 15.52 206.981 15.99V21H204.761V16.29C204.761 15.29 204.326 14.79 203.456 14.79C203.286 14.79 203.116 14.815 202.946 14.865C202.786 14.905 202.641 14.975 202.511 15.075C202.381 15.165 202.276 15.28 202.196 15.42C202.126 15.56 202.091 15.725 202.091 15.915V21H199.871ZM216.815 21.78C216.815 22.6 216.47 23.205 215.78 23.595C215.09 23.985 214.005 24.18 212.525 24.18C211.785 24.18 211.175 24.135 210.695 24.045C210.215 23.965 209.83 23.845 209.54 23.685C209.26 23.525 209.06 23.335 208.94 23.115C208.83 22.895 208.775 22.655 208.775 22.395C208.775 21.955 208.905 21.62 209.165 21.39C209.425 21.17 209.79 21 210.26 20.88V20.79C209.93 20.69 209.665 20.55 209.465 20.37C209.275 20.18 209.18 19.915 209.18 19.575C209.18 19.195 209.305 18.915 209.555 18.735C209.815 18.555 210.155 18.415 210.575 18.315V18.225C210.115 18.005 209.755 17.695 209.495 17.295C209.245 16.895 209.12 16.41 209.12 15.84C209.12 15.39 209.2 14.995 209.36 14.655C209.52 14.305 209.745 14.015 210.035 13.785C210.335 13.555 210.69 13.38 211.1 13.26C211.51 13.14 211.97 13.08 212.48 13.08C212.97 13.08 213.425 13.135 213.845 13.245V12.825C213.845 12.525 213.95 12.275 214.16 12.075C214.37 11.875 214.66 11.775 215.03 11.775H216.395V13.395H214.535V13.53C214.955 13.75 215.28 14.055 215.51 14.445C215.75 14.825 215.87 15.29 215.87 15.84C215.87 16.29 215.79 16.685 215.63 17.025C215.47 17.365 215.24 17.655 214.94 17.895C214.64 18.125 214.28 18.3 213.86 18.42C213.45 18.54 212.99 18.6 212.48 18.6C212.25 18.6 212.03 18.59 211.82 18.57C211.61 18.54 211.41 18.5 211.22 18.45C211.11 18.51 211.015 18.585 210.935 18.675C210.865 18.765 210.83 18.88 210.83 19.02C210.83 19.14 210.86 19.235 210.92 19.305C210.98 19.375 211.06 19.43 211.16 19.47C211.27 19.5 211.395 19.52 211.535 19.53C211.675 19.54 211.82 19.545 211.97 19.545H213.74C214.29 19.545 214.76 19.6 215.15 19.71C215.54 19.82 215.86 19.975 216.11 20.175C216.36 20.375 216.54 20.61 216.65 20.88C216.76 21.15 216.815 21.45 216.815 21.78ZM214.715 21.945C214.715 21.745 214.635 21.585 214.475 21.465C214.315 21.355 214.01 21.3 213.56 21.3H210.905C210.705 21.47 210.605 21.68 210.605 21.93C210.605 22.17 210.705 22.365 210.905 22.515C211.115 22.675 211.465 22.755 211.955 22.755H213.26C213.77 22.755 214.14 22.685 214.37 22.545C214.6 22.405 214.715 22.205 214.715 21.945ZM212.48 17.19C212.93 17.19 213.255 17.08 213.455 16.86C213.665 16.64 213.77 16.36 213.77 16.02V15.66C213.77 15.32 213.665 15.04 213.455 14.82C213.255 14.6 212.93 14.49 212.48 14.49C212.04 14.49 211.72 14.6 211.52 14.82C211.32 15.04 211.22 15.32 211.22 15.66V16.02C211.22 16.36 211.32 16.64 211.52 16.86C211.72 17.08 212.04 17.19 212.48 17.19ZM221.954 21.18C220.654 21.18 219.669 20.82 218.999 20.1C218.329 19.38 217.994 18.4 217.994 17.16C217.994 16.53 218.079 15.965 218.249 15.465C218.429 14.955 218.679 14.525 218.999 14.175C219.329 13.815 219.724 13.545 220.184 13.365C220.654 13.175 221.179 13.08 221.759 13.08C222.339 13.08 222.859 13.175 223.319 13.365C223.779 13.545 224.169 13.805 224.489 14.145C224.809 14.485 225.054 14.9 225.224 15.39C225.404 15.87 225.494 16.41 225.494 17.01V17.67H220.199V17.805C220.199 18.305 220.354 18.71 220.664 19.02C220.974 19.32 221.429 19.47 222.029 19.47C222.489 19.47 222.884 19.385 223.214 19.215C223.544 19.035 223.829 18.8 224.069 18.51L225.269 19.815C224.969 20.185 224.549 20.505 224.009 20.775C223.469 21.045 222.784 21.18 221.954 21.18ZM221.774 14.67C221.294 14.67 220.909 14.82 220.619 15.12C220.339 15.41 220.199 15.805 220.199 16.305V16.425H223.319V16.305C223.319 15.795 223.179 15.395 222.899 15.105C222.629 14.815 222.254 14.67 221.774 14.67Z" fill="white"/>
<path d="M224 0H5C2.23858 0 0 2.23858 0 5V27C0 29.7614 2.23858 32 5 32H224C226.761 32 229 29.7614 229 27V5C229 2.23858 226.761 0 224 0Z" fill="url(#paint0_linear_119_14)"/>
<mask id="mask0_119_14" style="mask-type:luminance" maskUnits="userSpaceOnUse" x="1" y="1" width="30" height="29">
<path d="M8 8.99994H6.27H6.26C7.24 7.60994 8.51 6.45994 9.98 5.59994C12.73 3.98994 16.01 3.55894 19.08 4.39894C22.15 5.20894 24.78 7.21894 26.36 9.98994C27.41 11.8099 27.96 13.8799 27.97 15.9799H29.97C29.96 13.5199 29.32 11.0999 28.09 8.96994C26.24 5.73994 23.17 3.38994 19.58 2.43994C15.99 1.45994 12.16 1.96994 8.956 3.82994V3.81994C7.406 4.70994 6.056 5.88994 4.956 7.28994V5.92994H2.956V10.9299H7.956V8.92994L8 8.99994ZM24 22.9999H25.72C24.73 24.3799 23.46 25.5299 21.99 26.3899C19.23 27.9799 15.95 28.4199 12.88 27.5799H12.879C9.799 26.7599 7.169 24.7499 5.589 21.9799C4.529 20.1499 3.979 18.0799 3.979 15.9799L1.979 15.9699C1.979 18.4199 2.619 20.8399 3.849 22.9699C5.689 26.1899 8.759 28.5399 12.349 29.4899H12.348C15.928 30.4599 19.758 29.9499 22.968 28.0899C24.508 27.1899 25.858 26.0099 26.968 24.6099V25.9599H28.968V20.9599H23.968V22.9599L24 22.9999Z" fill="white"/>
<path d="M9 14V25H1L1 14H9Z" fill="url(#paint1_linear_119_14)"/>
<path d="M23 18V7H31V18H23Z" fill="url(#paint2_linear_119_14)"/>
</mask>
<g mask="url(#mask0_119_14)">
<path d="M0 0H32V32H0V0Z" fill="url(#paint3_linear_119_14)"/>
</g>
<path d="M22.5 11.5901L16.5 8.12011C16.19 7.94011 15.8 7.94011 15.5 8.12011L9.5 11.5801C9.19 11.7501 9 12.0801 9 12.4401V19.5101C9 19.8601 9.19 20.1901 9.5 20.3701L15.5 23.8301C15.8 24.0001 16.19 24.0001 16.5 23.8301L22.5 20.3601C22.8 20.1801 22.99 19.8501 23 19.4901V12.4101C23 12.0501 22.8 11.7201 22.5 11.5401V11.5901ZM16 10.1401L20 12.4401L16 14.7401L12 12.4301L16 10.1201V10.1401ZM11 14.1801L15 16.4801V21.2401L11 18.9301V14.1601V14.1801ZM17 21.2501V16.4801L21 14.1701V18.9301L17 21.2301V21.2501Z" fill="#E6E6E6"/>
</g>
<defs>
<linearGradient id="paint0_linear_119_14" x1="0" y1="0" x2="0" y2="32" gradientUnits="userSpaceOnUse">
<stop stop-color="#BBBBBB" stop-opacity="0.1"/>
<stop offset="1" stop-opacity="0.1"/>
</linearGradient>
<linearGradient id="paint1_linear_119_14" x1="5" y1="14" x2="5" y2="25" gradientUnits="userSpaceOnUse">
<stop offset="0.2"/>
<stop offset="1" stop-opacity="0"/>
</linearGradient>
<linearGradient id="paint2_linear_119_14" x1="50" y1="18" x2="50" y2="7" gradientUnits="userSpaceOnUse">
<stop offset="0.2"/>
<stop offset="1" stop-opacity="0"/>
</linearGradient>
<linearGradient id="paint3_linear_119_14" x1="0" y1="32" x2="32" y2="0" gradientUnits="userSpaceOnUse">
<stop offset="0.1" stop-color="#A56EFF"/>
<stop offset="0.9" stop-color="#0F62FE"/>
</linearGradient>
<clipPath id="clip0_119_14">
<rect width="229" height="32" rx="5" fill="white"/>
</clipPath>
</defs>
</svg>
