<svg width="107" height="32" viewBox="0 0 107 32" fill="none" xmlns="http://www.w3.org/2000/svg">
<g clip-path="url(#clip0_18_600)">
<path d="M102 0H31V32H102C104.761 32 107 29.7614 107 27V5C107 2.23858 104.761 0 102 0Z" fill="#0F1418"/>
<rect width="32" height="32" fill="#0F1418"/>
<mask id="mask0_18_600" style="mask-type:luminance" maskUnits="userSpaceOnUse" x="0" y="3" width="30" height="26">
<path d="M0.716003 12.2349L15 28.7169L20.7 13.1899H25.81L21 18.6819L22.529 19.9759L29.281 12.2349L28.5 11.1899L22.5 3.18994H7.5L0.716003 12.2349ZM8.5 5.18994H13.2L9.45 11.1899H4L8.5 5.18994ZM15 6.07694L18.2 11.1899H11.8L15 6.07694ZM20.554 11.1899L16.804 5.18994H21.504L26.004 11.1899H20.554ZM11.432 13.1899H18.568L15 22.9109L11.432 13.1899ZM4.19 13.1899H9.3L13.055 23.4209L4.19 13.1899Z" fill="white"/>
<path d="M19.786 18.5168L22.786 21.5168L29.786 13.5168H23.786L19.786 18.5168Z" fill="url(#paint0_linear_18_600)"/>
</mask>
<g mask="url(#mask0_18_600)">
<path d="M0 0H32V32H0V0Z" fill="url(#paint1_linear_18_600)"/>
</g>
<path d="M28.01 20H30.01V27.999H28.01V20ZM20.01 22H22.01V27.999H20.01V22ZM24.01 24H26.01V27.999H24.01V24Z" fill="#F4F4F4"/>
<path d="M55.0767 21.18C54.1967 21.18 53.4317 21.035 52.7817 20.745C52.1317 20.455 51.6067 20.06 51.2067 19.56L52.5117 18.12C52.8917 18.54 53.3067 18.85 53.7567 19.05C54.2167 19.25 54.6817 19.35 55.1517 19.35C55.6917 19.35 56.1017 19.23 56.3817 18.99C56.6617 18.75 56.8017 18.405 56.8017 17.955C56.8017 17.585 56.6917 17.305 56.4717 17.115C56.2617 16.925 55.9017 16.79 55.3917 16.71L54.2967 16.53C53.3567 16.37 52.6767 16.025 52.2567 15.495C51.8367 14.955 51.6267 14.3 51.6267 13.53C51.6267 12.52 51.9567 11.74 52.6167 11.19C53.2767 10.63 54.2017 10.35 55.3917 10.35C56.2017 10.35 56.9067 10.475 57.5067 10.725C58.1067 10.975 58.5917 11.315 58.9617 11.745L57.6867 13.17C57.4067 12.86 57.0767 12.62 56.6967 12.45C56.3167 12.27 55.8867 12.18 55.4067 12.18C54.3967 12.18 53.8917 12.595 53.8917 13.425C53.8917 13.785 54.0017 14.055 54.2217 14.235C54.4517 14.415 54.8217 14.55 55.3317 14.64L56.4267 14.835C57.2767 14.985 57.9317 15.305 58.3917 15.795C58.8517 16.285 59.0817 16.945 59.0817 17.775C59.0817 18.265 58.9967 18.72 58.8267 19.14C58.6567 19.55 58.4017 19.91 58.0617 20.22C57.7217 20.52 57.3017 20.755 56.8017 20.925C56.3117 21.095 55.7367 21.18 55.0767 21.18ZM61.0559 21V10.53H65.1059C65.6159 10.53 66.0709 10.61 66.4709 10.77C66.8709 10.92 67.2059 11.14 67.4759 11.43C67.7559 11.72 67.9659 12.07 68.1059 12.48C68.2459 12.89 68.3159 13.35 68.3159 13.86C68.3159 14.37 68.2459 14.83 68.1059 15.24C67.9659 15.65 67.7559 16 67.4759 16.29C67.2059 16.58 66.8709 16.805 66.4709 16.965C66.0709 17.115 65.6159 17.19 65.1059 17.19H63.3209V21H61.0559ZM63.3209 15.375H64.5359C65.0659 15.375 65.4309 15.275 65.6309 15.075C65.8409 14.875 65.9459 14.545 65.9459 14.085V13.635C65.9459 13.175 65.8409 12.845 65.6309 12.645C65.4309 12.445 65.0659 12.345 64.5359 12.345H63.3209V15.375ZM73.425 21.18C72.545 21.18 71.78 21.035 71.13 20.745C70.48 20.455 69.955 20.06 69.555 19.56L70.86 18.12C71.24 18.54 71.655 18.85 72.105 19.05C72.565 19.25 73.03 19.35 73.5 19.35C74.04 19.35 74.45 19.23 74.73 18.99C75.01 18.75 75.15 18.405 75.15 17.955C75.15 17.585 75.04 17.305 74.82 17.115C74.61 16.925 74.25 16.79 73.74 16.71L72.645 16.53C71.705 16.37 71.025 16.025 70.605 15.495C70.185 14.955 69.975 14.3 69.975 13.53C69.975 12.52 70.305 11.74 70.965 11.19C71.625 10.63 72.55 10.35 73.74 10.35C74.55 10.35 75.255 10.475 75.855 10.725C76.455 10.975 76.94 11.315 77.31 11.745L76.035 13.17C75.755 12.86 75.425 12.62 75.045 12.45C74.665 12.27 74.235 12.18 73.755 12.18C72.745 12.18 72.24 12.595 72.24 13.425C72.24 13.785 72.35 14.055 72.57 14.235C72.8 14.415 73.17 14.55 73.68 14.64L74.775 14.835C75.625 14.985 76.28 15.305 76.74 15.795C77.2 16.285 77.43 16.945 77.43 17.775C77.43 18.265 77.345 18.72 77.175 19.14C77.005 19.55 76.75 19.91 76.41 20.22C76.07 20.52 75.65 20.755 75.15 20.925C74.66 21.095 74.085 21.18 73.425 21.18ZM82.5991 21.18C81.7191 21.18 80.9541 21.035 80.3041 20.745C79.6541 20.455 79.1291 20.06 78.7291 19.56L80.0341 18.12C80.4141 18.54 80.8291 18.85 81.2791 19.05C81.7391 19.25 82.2041 19.35 82.6741 19.35C83.2141 19.35 83.6241 19.23 83.9041 18.99C84.1841 18.75 84.3241 18.405 84.3241 17.955C84.3241 17.585 84.2141 17.305 83.9941 17.115C83.7841 16.925 83.4241 16.79 82.9141 16.71L81.8191 16.53C80.8791 16.37 80.1991 16.025 79.7791 15.495C79.3591 14.955 79.1491 14.3 79.1491 13.53C79.1491 12.52 79.4791 11.74 80.1391 11.19C80.7991 10.63 81.7241 10.35 82.9141 10.35C83.7241 10.35 84.4291 10.475 85.0291 10.725C85.6291 10.975 86.1141 11.315 86.4841 11.745L85.2091 13.17C84.9291 12.86 84.5991 12.62 84.2191 12.45C83.8391 12.27 83.4091 12.18 82.9291 12.18C81.9191 12.18 81.4141 12.595 81.4141 13.425C81.4141 13.785 81.5241 14.055 81.7441 14.235C81.9741 14.415 82.3441 14.55 82.8541 14.64L83.9491 14.835C84.7991 14.985 85.4541 15.305 85.9141 15.795C86.3741 16.285 86.6041 16.945 86.6041 17.775C86.6041 18.265 86.5191 18.72 86.3491 19.14C86.1791 19.55 85.9241 19.91 85.5841 20.22C85.2441 20.52 84.8241 20.755 84.3241 20.925C83.8341 21.095 83.2591 21.18 82.5991 21.18Z" fill="white"/>
<path d="M102 0H5C2.23858 0 0 2.23858 0 5V27C0 29.7614 2.23858 32 5 32H102C104.761 32 107 29.7614 107 27V5C107 2.23858 104.761 0 102 0Z" fill="url(#paint2_linear_18_600)"/>
</g>
<defs>
<linearGradient id="paint0_linear_18_600" x1="21.036" y1="19.7668" x2="28.536" y2="12.2668" gradientUnits="userSpaceOnUse">
<stop offset="0.2"/>
<stop offset="0.7" stop-opacity="0"/>
</linearGradient>
<linearGradient id="paint1_linear_18_600" x1="0" y1="32" x2="32" y2="0" gradientUnits="userSpaceOnUse">
<stop offset="0.1" stop-color="#3DDBD9"/>
<stop offset="0.9" stop-color="#4589FF"/>
</linearGradient>
<linearGradient id="paint2_linear_18_600" x1="0" y1="0" x2="0" y2="32" gradientUnits="userSpaceOnUse">
<stop stop-color="#BBBBBB" stop-opacity="0.1"/>
<stop offset="1" stop-opacity="0.1"/>
</linearGradient>
<clipPath id="clip0_18_600">
<rect width="107" height="32" rx="5" fill="white"/>
</clipPath>
</defs>
</svg>
