<svg width="164" height="32" viewBox="0 0 164 32" fill="none" xmlns="http://www.w3.org/2000/svg">
<g clip-path="url(#clip0_119_126)">
<path d="M159 0H31V32H159C161.761 32 164 29.7614 164 27V5C164 2.23858 161.761 0 159 0Z" fill="#0F1418"/>
<g clip-path="url(#clip1_119_126)">
<rect width="32" height="32" fill="#0F1418"/>
<mask id="mask0_119_126" style="mask-type:luminance" maskUnits="userSpaceOnUse" x="1" y="0" width="32" height="32">
<path d="M17 1.00006C13.07 0.990059 9.29999 2.53006 6.49999 5.28006L7.89999 6.70006C10.32 4.31006 13.589 2.97006 16.989 2.98006C19.769 2.98006 22.339 3.86706 24.459 5.36006C24.199 5.33006 23.939 5.30006 23.669 5.30006C19.429 5.30006 15.992 8.74006 15.992 12.9771H17.992C17.992 9.83706 20.532 7.29706 23.669 7.29706L23.668 7.29606C25.698 7.28606 27.578 8.38606 28.578 10.1561C28.788 10.5761 28.978 11.0161 29.148 11.4661C28.468 11.1261 27.718 10.9561 26.965 10.9561C24.205 10.9561 21.965 13.1961 21.965 15.9561V18.9561H23.965V15.9561C23.965 14.3021 25.305 12.9561 26.965 12.9561C28.615 12.9561 29.965 14.3021 29.965 15.9561C29.965 18.0661 29.465 20.0901 28.495 21.9461L30.265 22.8661C31.365 20.7261 31.945 18.3451 31.945 15.9451C31.945 7.66506 25.215 0.935059 16.945 0.935059L17 1.00006ZM26.09 25.2861C23.66 27.6661 20.39 29.0061 16.99 28.9961C14.2 28.9961 11.63 28.1061 9.50999 26.6061C9.77599 26.6261 10.04 26.6661 10.31 26.6661C14.54 26.6661 17.98 23.2161 17.98 18.9891H15.98C15.97 22.1191 13.429 24.6591 10.299 24.6661C8.09899 24.6561 6.09899 23.3861 5.16899 21.3961H5.15999C5.01999 21.0861 4.88999 20.7861 4.77999 20.4761C5.43999 20.7961 6.17999 20.9761 6.96299 20.9761C9.71299 20.9761 11.963 18.7261 11.963 15.9761V12.9761H9.96299V15.9761C9.96299 17.6301 8.61699 18.9761 6.96299 18.9761C5.30899 18.9761 3.96299 17.6261 3.96299 15.9761C3.96299 13.8561 4.45499 11.8421 5.42299 9.98006L3.64299 9.05006C2.54099 11.1801 1.95999 13.5601 1.95999 15.9601C1.95999 24.2301 8.68899 30.9601 16.96 30.9601C20.9 30.9601 24.63 29.4301 27.45 26.6701L26.05 25.2401L26.09 25.2861Z" fill="white"/>
<path d="M9 9L1 0H17L19.3 3.3L8.99 8.99L9 9Z" fill="url(#paint0_linear_119_126)"/>
<path d="M25 22.9801L33 31.9801H17L14.69 28.6701L24.995 22.9751L25 22.9801Z" fill="url(#paint1_linear_119_126)"/>
<path d="M9 12H13V16H9V12Z" fill="url(#paint2_linear_119_126)"/>
<path d="M21 16H25V20H21V16Z" fill="url(#paint3_linear_119_126)"/>
</mask>
<g mask="url(#mask0_119_126)">
<path d="M1 0H33V32H1V0Z" fill="url(#paint4_linear_119_126)"/>
</g>
<path d="M7 4C6.46957 4 5.96086 4.21071 5.58579 4.58579C5.21071 4.96086 5 5.46957 5 6C5 6.53043 5.21071 7.03914 5.58579 7.41421C5.96086 7.78929 6.46957 8 7 8C7.53043 8 8.03914 7.78929 8.41421 7.41421C8.78929 7.03914 9 6.53043 9 6C9 5.46957 8.78929 4.96086 8.41421 4.58579C8.03914 4.21071 7.53043 4 7 4Z" fill="white"/>
<path d="M27 24C26.4696 24 25.9609 24.2107 25.5858 24.5858C25.2107 24.9609 25 25.4696 25 26C25 26.5304 25.2107 27.0391 25.5858 27.4142C25.9609 27.7893 26.4696 28 27 28C27.5304 28 28.0391 27.7893 28.4142 27.4142C28.7893 27.0391 29 26.5304 29 26C29 25.4696 28.7893 24.9609 28.4142 24.5858C28.0391 24.2107 27.5304 24 27 24Z" fill="white"/>
<path d="M24 21V23H22V21H24Z" fill="white"/>
<path d="M18 15V17H16V15H18Z" fill="white"/>
<path d="M10 11V9H12V11H10Z" fill="white"/>
</g>
<path d="M42.6502 13.26H44.4952L45.0502 19.53H45.2002L46.1152 13.26H48.0652L48.9652 19.53H49.1152L49.6852 13.26H51.4402L50.5252 21H47.8852L47.1202 15.66H46.9702L46.2052 21H43.5652L42.6502 13.26ZM59.0243 21C58.5643 21 58.1943 20.885 57.9143 20.655C57.6343 20.415 57.4693 20.075 57.4193 19.635H57.3443C57.2043 20.145 56.9243 20.53 56.5043 20.79C56.0943 21.05 55.5893 21.18 54.9893 21.18C54.2393 21.18 53.6343 20.98 53.1743 20.58C52.7243 20.17 52.4993 19.6 52.4993 18.87C52.4993 18.06 52.7943 17.46 53.3843 17.07C53.9743 16.68 54.8393 16.485 55.9793 16.485H57.2243V16.095C57.2243 15.635 57.1143 15.29 56.8943 15.06C56.6843 14.82 56.3243 14.7 55.8143 14.7C55.3443 14.7 54.9643 14.79 54.6743 14.97C54.3843 15.15 54.1343 15.385 53.9243 15.675L52.7093 14.595C52.9693 14.155 53.3743 13.795 53.9243 13.515C54.4843 13.225 55.1993 13.08 56.0693 13.08C57.1293 13.08 57.9543 13.325 58.5443 13.815C59.1443 14.295 59.4443 15.025 59.4443 16.005V19.395H60.2993V21H59.0243ZM55.8293 19.725C56.2193 19.725 56.5493 19.63 56.8193 19.44C57.0893 19.25 57.2243 18.975 57.2243 18.615V17.685H56.0393C55.1293 17.685 54.6743 17.99 54.6743 18.6V18.9C54.6743 19.17 54.7793 19.375 54.9893 19.515C55.1993 19.655 55.4793 19.725 55.8293 19.725ZM65.9934 21C65.1934 21 64.5984 20.79 64.2084 20.37C63.8184 19.95 63.6234 19.415 63.6234 18.765V14.985H61.5234V13.26H62.8884C63.2184 13.26 63.4534 13.195 63.5934 13.065C63.7334 12.935 63.8034 12.695 63.8034 12.345V10.53H65.8434V13.26H68.8584V14.985H65.8434V19.275H68.8584V21H65.9934ZM74.4776 21.18C73.6176 21.18 72.8676 21.05 72.2276 20.79C71.5976 20.53 71.1226 20.175 70.8026 19.725L72.0476 18.57C72.3476 18.9 72.6976 19.16 73.0976 19.35C73.5076 19.53 73.9726 19.62 74.4926 19.62C74.9326 19.62 75.2776 19.555 75.5276 19.425C75.7776 19.285 75.9026 19.075 75.9026 18.795C75.9026 18.575 75.8176 18.425 75.6476 18.345C75.4776 18.255 75.2426 18.185 74.9426 18.135L73.6976 17.94C73.3476 17.89 73.0226 17.815 72.7226 17.715C72.4226 17.605 72.1626 17.46 71.9426 17.28C71.7226 17.1 71.5476 16.88 71.4176 16.62C71.2876 16.36 71.2226 16.045 71.2226 15.675C71.2226 14.865 71.5326 14.23 72.1526 13.77C72.7726 13.31 73.6426 13.08 74.7626 13.08C75.5226 13.08 76.1676 13.185 76.6976 13.395C77.2376 13.595 77.6676 13.885 77.9876 14.265L76.8776 15.525C76.6476 15.275 76.3526 15.065 75.9926 14.895C75.6326 14.725 75.1976 14.64 74.6876 14.64C73.8276 14.64 73.3976 14.9 73.3976 15.42C73.3976 15.65 73.4826 15.81 73.6526 15.9C73.8226 15.98 74.0576 16.045 74.3576 16.095L75.5876 16.29C75.9376 16.34 76.2626 16.42 76.5626 16.53C76.8626 16.63 77.1226 16.77 77.3426 16.95C77.5726 17.13 77.7526 17.35 77.8826 17.61C78.0126 17.87 78.0776 18.185 78.0776 18.555C78.0776 19.365 77.7626 20.005 77.1326 20.475C76.5126 20.945 75.6276 21.18 74.4776 21.18ZM83.7417 21.18C83.1417 21.18 82.6017 21.09 82.1217 20.91C81.6417 20.72 81.2317 20.45 80.8917 20.1C80.5617 19.75 80.3067 19.325 80.1267 18.825C79.9467 18.325 79.8567 17.76 79.8567 17.13C79.8567 16.5 79.9467 15.935 80.1267 15.435C80.3067 14.935 80.5617 14.51 80.8917 14.16C81.2317 13.81 81.6417 13.545 82.1217 13.365C82.6017 13.175 83.1417 13.08 83.7417 13.08C84.3417 13.08 84.8817 13.175 85.3617 13.365C85.8417 13.545 86.2467 13.81 86.5767 14.16C86.9167 14.51 87.1767 14.935 87.3567 15.435C87.5367 15.935 87.6267 16.5 87.6267 17.13C87.6267 17.76 87.5367 18.325 87.3567 18.825C87.1767 19.325 86.9167 19.75 86.5767 20.1C86.2467 20.45 85.8417 20.72 85.3617 20.91C84.8817 21.09 84.3417 21.18 83.7417 21.18ZM83.7417 19.53C84.2417 19.53 84.6317 19.375 84.9117 19.065C85.1917 18.755 85.3317 18.315 85.3317 17.745V16.515C85.3317 15.945 85.1917 15.505 84.9117 15.195C84.6317 14.885 84.2417 14.73 83.7417 14.73C83.2417 14.73 82.8517 14.885 82.5717 15.195C82.2917 15.505 82.1517 15.945 82.1517 16.515V17.745C82.1517 18.315 82.2917 18.755 82.5717 19.065C82.8517 19.375 83.2417 19.53 83.7417 19.53ZM89.3909 21V13.26H91.6109V14.67H91.7009C91.7909 14.45 91.9009 14.245 92.0309 14.055C92.1609 13.865 92.3159 13.7 92.4959 13.56C92.6859 13.41 92.9009 13.295 93.1409 13.215C93.3909 13.125 93.6709 13.08 93.9809 13.08C94.3509 13.08 94.6909 13.145 95.0009 13.275C95.3109 13.395 95.5759 13.58 95.7959 13.83C96.0159 14.08 96.1859 14.385 96.3059 14.745C96.4359 15.105 96.5009 15.52 96.5009 15.99V21H94.2809V16.29C94.2809 15.29 93.8459 14.79 92.9759 14.79C92.8059 14.79 92.6359 14.815 92.4659 14.865C92.3059 14.905 92.1609 14.975 92.0309 15.075C91.9009 15.165 91.7959 15.28 91.7159 15.42C91.6459 15.56 91.6109 15.725 91.6109 15.915V21H89.3909ZM111.264 21.18C110.704 21.18 110.299 21.06 110.049 20.82C109.809 20.57 109.689 20.275 109.689 19.935V19.41C109.689 19.07 109.809 18.78 110.049 18.54C110.299 18.29 110.704 18.165 111.264 18.165C111.824 18.165 112.224 18.29 112.464 18.54C112.714 18.78 112.839 19.07 112.839 19.41V19.935C112.839 20.275 112.714 20.57 112.464 20.82C112.224 21.06 111.824 21.18 111.264 21.18ZM121.833 19.59H121.728C121.528 20.06 121.248 20.445 120.888 20.745C120.538 21.035 120.053 21.18 119.433 21.18C119.003 21.18 118.608 21.1 118.248 20.94C117.898 20.78 117.593 20.535 117.333 20.205C117.083 19.875 116.883 19.455 116.733 18.945C116.593 18.435 116.523 17.83 116.523 17.13C116.523 16.43 116.593 15.825 116.733 15.315C116.883 14.805 117.083 14.385 117.333 14.055C117.593 13.725 117.898 13.48 118.248 13.32C118.608 13.16 119.003 13.08 119.433 13.08C119.743 13.08 120.018 13.12 120.258 13.2C120.498 13.28 120.708 13.39 120.888 13.53C121.078 13.67 121.238 13.84 121.368 14.04C121.508 14.23 121.628 14.44 121.728 14.67H121.833V9.9H124.053V21H121.833V19.59ZM120.393 19.455C120.783 19.455 121.118 19.36 121.398 19.17C121.688 18.98 121.833 18.68 121.833 18.27V15.99C121.833 15.58 121.688 15.28 121.398 15.09C121.118 14.9 120.783 14.805 120.393 14.805C119.893 14.805 119.508 14.96 119.238 15.27C118.968 15.57 118.833 15.99 118.833 16.53V17.73C118.833 18.27 118.968 18.695 119.238 19.005C119.508 19.305 119.893 19.455 120.393 19.455ZM132.417 21C131.957 21 131.587 20.885 131.307 20.655C131.027 20.415 130.862 20.075 130.812 19.635H130.737C130.597 20.145 130.317 20.53 129.897 20.79C129.487 21.05 128.982 21.18 128.382 21.18C127.632 21.18 127.027 20.98 126.567 20.58C126.117 20.17 125.892 19.6 125.892 18.87C125.892 18.06 126.187 17.46 126.777 17.07C127.367 16.68 128.232 16.485 129.372 16.485H130.617V16.095C130.617 15.635 130.507 15.29 130.287 15.06C130.077 14.82 129.717 14.7 129.207 14.7C128.737 14.7 128.357 14.79 128.067 14.97C127.777 15.15 127.527 15.385 127.317 15.675L126.102 14.595C126.362 14.155 126.767 13.795 127.317 13.515C127.877 13.225 128.592 13.08 129.462 13.08C130.522 13.08 131.347 13.325 131.937 13.815C132.537 14.295 132.837 15.025 132.837 16.005V19.395H133.692V21H132.417ZM129.222 19.725C129.612 19.725 129.942 19.63 130.212 19.44C130.482 19.25 130.617 18.975 130.617 18.615V17.685H129.432C128.522 17.685 128.067 17.99 128.067 18.6V18.9C128.067 19.17 128.172 19.375 128.382 19.515C128.592 19.655 128.872 19.725 129.222 19.725ZM139.387 21C138.587 21 137.992 20.79 137.602 20.37C137.212 19.95 137.017 19.415 137.017 18.765V14.985H134.917V13.26H136.282C136.612 13.26 136.847 13.195 136.987 13.065C137.127 12.935 137.197 12.695 137.197 12.345V10.53H139.237V13.26H142.252V14.985H139.237V19.275H142.252V21H139.387ZM150.766 21C150.306 21 149.936 20.885 149.656 20.655C149.376 20.415 149.211 20.075 149.161 19.635H149.086C148.946 20.145 148.666 20.53 148.246 20.79C147.836 21.05 147.331 21.18 146.731 21.18C145.981 21.18 145.376 20.98 144.916 20.58C144.466 20.17 144.241 19.6 144.241 18.87C144.241 18.06 144.536 17.46 145.126 17.07C145.716 16.68 146.581 16.485 147.721 16.485H148.966V16.095C148.966 15.635 148.856 15.29 148.636 15.06C148.426 14.82 148.066 14.7 147.556 14.7C147.086 14.7 146.706 14.79 146.416 14.97C146.126 15.15 145.876 15.385 145.666 15.675L144.451 14.595C144.711 14.155 145.116 13.795 145.666 13.515C146.226 13.225 146.941 13.08 147.811 13.08C148.871 13.08 149.696 13.325 150.286 13.815C150.886 14.295 151.186 15.025 151.186 16.005V19.395H152.041V21H150.766ZM147.571 19.725C147.961 19.725 148.291 19.63 148.561 19.44C148.831 19.25 148.966 18.975 148.966 18.615V17.685H147.781C146.871 17.685 146.416 17.99 146.416 18.6V18.9C146.416 19.17 146.521 19.375 146.731 19.515C146.941 19.655 147.221 19.725 147.571 19.725Z" fill="white"/>
<path d="M97.935 21L100.83 17.07L98.13 13.26H100.665L101.49 14.505L102.12 15.51H102.24L102.885 14.505L103.725 13.26H106.05L103.35 16.95L106.245 21H103.695L102.72 19.545L102.045 18.51H101.925L101.265 19.545L100.275 21H97.935Z" fill="#7FA1F3"/>
<path d="M159 0H5C2.23858 0 0 2.23858 0 5V27C0 29.7614 2.23857 32 5 32H159C161.761 32 164 29.7614 164 27V5C164 2.23858 161.761 0 159 0Z" fill="url(#paint5_linear_119_126)"/>
</g>
<defs>
<linearGradient id="paint0_linear_119_126" x1="1187.53" y1="2863.17" x2="1200.83" y2="2845.11" gradientUnits="userSpaceOnUse">
<stop offset="0.3"/>
<stop offset="1" stop-opacity="0"/>
</linearGradient>
<linearGradient id="paint1_linear_119_126" x1="-653.019" y1="987.833" x2="-663.426" y2="995.469" gradientUnits="userSpaceOnUse">
<stop offset="0.3"/>
<stop offset="1" stop-opacity="0"/>
</linearGradient>
<linearGradient id="paint2_linear_119_126" x1="11" y1="16" x2="11" y2="12" gradientUnits="userSpaceOnUse">
<stop stop-opacity="0"/>
<stop offset="0.7"/>
</linearGradient>
<linearGradient id="paint3_linear_119_126" x1="23" y1="-2864.25" x2="23" y2="-2868.25" gradientUnits="userSpaceOnUse">
<stop stop-opacity="0"/>
<stop offset="0.7"/>
</linearGradient>
<linearGradient id="paint4_linear_119_126" x1="1" y1="32" x2="33" y2="0" gradientUnits="userSpaceOnUse">
<stop offset="0.1" stop-color="#A56EFF"/>
<stop offset="0.9" stop-color="#0F62FE"/>
</linearGradient>
<linearGradient id="paint5_linear_119_126" x1="0" y1="0" x2="0" y2="32" gradientUnits="userSpaceOnUse">
<stop stop-color="#BBBBBB" stop-opacity="0.1"/>
<stop offset="1" stop-opacity="0.1"/>
</linearGradient>
<clipPath id="clip0_119_126">
<path d="M0 9C0 4.02944 4.02944 0 9 0H155C159.971 0 164 4.02944 164 9V23C164 27.9706 159.971 32 155 32H9C4.02944 32 0 27.9706 0 23V9Z" fill="white"/>
</clipPath>
<clipPath id="clip1_119_126">
<rect width="32" height="32" fill="white"/>
</clipPath>
</defs>
</svg>
