<svg width="212" height="32" viewBox="0 0 212 32" fill="none" xmlns="http://www.w3.org/2000/svg">
<g clip-path="url(#clip0_119_142)">
<path d="M207 0H31V32H207C209.761 32 212 29.7614 212 27V5C212 2.23858 209.761 0 207 0Z" fill="#0F1418"/>
<g clip-path="url(#clip1_119_142)">
<rect width="32" height="32" fill="#0F1418"/>
<g clip-path="url(#clip2_119_142)">
<mask id="mask0_119_142" style="mask-type:luminance" maskUnits="userSpaceOnUse" x="-1" y="0" width="33" height="32">
<path d="M15.99 1.00009C12.06 0.990088 8.28898 2.53009 5.48898 5.28009L6.88898 6.70009C9.30898 4.31009 12.578 2.97009 15.986 2.98009C17.636 2.98009 18.986 4.32609 18.986 5.98009C18.986 7.63409 17.636 8.98009 15.986 8.98009H14.986V10.9801H15.986C18.736 10.9801 20.986 8.73009 20.986 5.98009C20.986 5.74009 20.966 5.50009 20.926 5.27809C21.926 6.44809 22.476 7.93809 22.476 9.47809C22.476 13.0581 19.556 15.9781 15.976 15.9781H14.976V17.9781H15.976C20.656 17.9781 24.476 14.1581 24.476 9.47809C24.476 8.70809 24.366 7.96809 24.176 7.26809C25.346 8.93809 25.966 10.9281 25.966 12.9751C25.966 18.4851 21.476 22.9751 15.966 22.9751H14.966V24.9751H15.966C22.576 24.9751 27.966 19.5851 27.966 12.9751C27.966 12.0451 27.836 11.1551 27.636 10.2891C28.506 12.0491 28.956 13.9991 28.956 15.9751C28.956 18.0851 28.456 20.1091 27.486 21.9651L29.256 22.8851C30.356 20.7451 30.936 18.3651 30.936 15.9651C30.936 7.68509 24.206 0.965088 15.936 0.965088L15.99 1.00009Z" fill="white"/>
<path d="M15.985 31.0001C7.70499 31.0001 0.984985 24.2701 0.984985 16.0001C0.984985 13.5931 1.56499 11.2001 2.66499 9.08008L4.43499 10.0001C3.46499 11.8501 2.96499 13.9001 2.96499 15.9901C2.96499 23.1501 8.79499 28.9901 15.965 28.9901C19.388 28.9901 22.615 27.6701 25.055 25.2701L26.455 26.6901C23.655 29.4401 19.875 30.9801 15.957 30.9701L15.985 31.0001Z" fill="white"/>
<path d="M7.98499 9L-0.0150146 0H15.985L18.285 3.3L7.97499 8.99L7.98499 9Z" fill="url(#paint0_linear_119_142)"/>
<path d="M23.985 23.0001L31.985 32.0001H15.985L13.675 28.6901L23.975 22.9951L23.985 23.0001Z" fill="url(#paint1_linear_119_142)"/>
<path d="M13.99 19.0049V15.0049H17.99V19.0049H13.99Z" fill="url(#paint2_linear_119_142)"/>
<path d="M13.99 12.0049V8.00488H17.99V12.0049H13.99Z" fill="url(#paint3_linear_119_142)"/>
<path d="M13.99 26.0049V22.0049H17.99V26.0049H13.99Z" fill="url(#paint4_linear_119_142)"/>
</mask>
<g mask="url(#mask0_119_142)">
<path d="M0 0H32V32H0V0Z" fill="url(#paint5_linear_119_142)"/>
</g>
<path d="M5.995 4C5.46456 4 4.95585 4.21071 4.58078 4.58579C4.20571 4.96086 3.995 5.46957 3.995 6C3.995 6.53043 4.20571 7.03914 4.58078 7.41421C4.95585 7.78929 5.46456 8 5.995 8C6.52543 8 7.03414 7.78929 7.40921 7.41421C7.78428 7.03914 7.995 6.53043 7.995 6C7.995 5.46957 7.78428 4.96086 7.40921 4.58579C7.03414 4.21071 6.52543 4 5.995 4Z" fill="white"/>
<path d="M25.99 24C25.4596 24 24.9508 24.2107 24.5758 24.5858C24.2007 24.9609 23.99 25.4696 23.99 26C23.99 26.5304 24.2007 27.0391 24.5758 27.4142C24.9508 27.7893 25.4596 28 25.99 28C26.5204 28 27.0291 27.7893 27.4042 27.4142C27.7793 27.0391 27.99 26.5304 27.99 26C27.99 25.4696 27.7793 24.9609 27.4042 24.5858C27.0291 24.2107 26.5204 24 25.99 24Z" fill="white"/>
<path d="M12.995 22.9951V24.9951H10.995V22.9951H12.995Z" fill="white"/>
<path d="M12.995 8.99512V10.9951H10.995V8.99512H12.995Z" fill="white"/>
<path d="M12.995 15.9951V17.9951H10.995V15.9951H12.995Z" fill="white"/>
</g>
</g>
<path d="M39.1277 13.26H40.9727L41.5277 19.53H41.6777L42.5927 13.26H44.5427L45.4427 19.53H45.5927L46.1627 13.26H47.9177L47.0027 21H44.3627L43.5977 15.66H43.4477L42.6827 21H40.0427L39.1277 13.26ZM55.5019 21C55.0419 21 54.6719 20.885 54.3919 20.655C54.1119 20.415 53.9469 20.075 53.8969 19.635H53.8219C53.6819 20.145 53.4019 20.53 52.9819 20.79C52.5719 21.05 52.0669 21.18 51.4669 21.18C50.7169 21.18 50.1119 20.98 49.6519 20.58C49.2019 20.17 48.9769 19.6 48.9769 18.87C48.9769 18.06 49.2719 17.46 49.8619 17.07C50.4519 16.68 51.3169 16.485 52.4569 16.485H53.7019V16.095C53.7019 15.635 53.5919 15.29 53.3719 15.06C53.1619 14.82 52.8019 14.7 52.2919 14.7C51.8219 14.7 51.4419 14.79 51.1519 14.97C50.8619 15.15 50.6119 15.385 50.4019 15.675L49.1869 14.595C49.4469 14.155 49.8519 13.795 50.4019 13.515C50.9619 13.225 51.6769 13.08 52.5469 13.08C53.6069 13.08 54.4319 13.325 55.0219 13.815C55.6219 14.295 55.9219 15.025 55.9219 16.005V19.395H56.7769V21H55.5019ZM52.3069 19.725C52.6969 19.725 53.0269 19.63 53.2969 19.44C53.5669 19.25 53.7019 18.975 53.7019 18.615V17.685H52.5169C51.6069 17.685 51.1519 17.99 51.1519 18.6V18.9C51.1519 19.17 51.2569 19.375 51.4669 19.515C51.6769 19.655 51.9569 19.725 52.3069 19.725ZM62.471 21C61.671 21 61.076 20.79 60.686 20.37C60.296 19.95 60.101 19.415 60.101 18.765V14.985H58.001V13.26H59.366C59.696 13.26 59.931 13.195 60.071 13.065C60.211 12.935 60.281 12.695 60.281 12.345V10.53H62.321V13.26H65.336V14.985H62.321V19.275H65.336V21H62.471ZM70.9552 21.18C70.0952 21.18 69.3452 21.05 68.7052 20.79C68.0752 20.53 67.6002 20.175 67.2802 19.725L68.5252 18.57C68.8252 18.9 69.1752 19.16 69.5752 19.35C69.9852 19.53 70.4502 19.62 70.9702 19.62C71.4102 19.62 71.7552 19.555 72.0052 19.425C72.2552 19.285 72.3802 19.075 72.3802 18.795C72.3802 18.575 72.2952 18.425 72.1252 18.345C71.9552 18.255 71.7202 18.185 71.4202 18.135L70.1752 17.94C69.8252 17.89 69.5002 17.815 69.2002 17.715C68.9002 17.605 68.6402 17.46 68.4202 17.28C68.2002 17.1 68.0252 16.88 67.8952 16.62C67.7652 16.36 67.7002 16.045 67.7002 15.675C67.7002 14.865 68.0102 14.23 68.6302 13.77C69.2502 13.31 70.1202 13.08 71.2402 13.08C72.0002 13.08 72.6452 13.185 73.1752 13.395C73.7152 13.595 74.1452 13.885 74.4652 14.265L73.3552 15.525C73.1252 15.275 72.8302 15.065 72.4702 14.895C72.1102 14.725 71.6752 14.64 71.1652 14.64C70.3052 14.64 69.8752 14.9 69.8752 15.42C69.8752 15.65 69.9602 15.81 70.1302 15.9C70.3002 15.98 70.5352 16.045 70.8352 16.095L72.0652 16.29C72.4152 16.34 72.7402 16.42 73.0402 16.53C73.3402 16.63 73.6002 16.77 73.8202 16.95C74.0502 17.13 74.2302 17.35 74.3602 17.61C74.4902 17.87 74.5552 18.185 74.5552 18.555C74.5552 19.365 74.2402 20.005 73.6102 20.475C72.9902 20.945 72.1052 21.18 70.9552 21.18ZM80.2193 21.18C79.6193 21.18 79.0793 21.09 78.5993 20.91C78.1193 20.72 77.7093 20.45 77.3693 20.1C77.0393 19.75 76.7843 19.325 76.6043 18.825C76.4243 18.325 76.3343 17.76 76.3343 17.13C76.3343 16.5 76.4243 15.935 76.6043 15.435C76.7843 14.935 77.0393 14.51 77.3693 14.16C77.7093 13.81 78.1193 13.545 78.5993 13.365C79.0793 13.175 79.6193 13.08 80.2193 13.08C80.8193 13.08 81.3593 13.175 81.8393 13.365C82.3193 13.545 82.7243 13.81 83.0543 14.16C83.3943 14.51 83.6543 14.935 83.8343 15.435C84.0143 15.935 84.1043 16.5 84.1043 17.13C84.1043 17.76 84.0143 18.325 83.8343 18.825C83.6543 19.325 83.3943 19.75 83.0543 20.1C82.7243 20.45 82.3193 20.72 81.8393 20.91C81.3593 21.09 80.8193 21.18 80.2193 21.18ZM80.2193 19.53C80.7193 19.53 81.1093 19.375 81.3893 19.065C81.6693 18.755 81.8093 18.315 81.8093 17.745V16.515C81.8093 15.945 81.6693 15.505 81.3893 15.195C81.1093 14.885 80.7193 14.73 80.2193 14.73C79.7193 14.73 79.3293 14.885 79.0493 15.195C78.7693 15.505 78.6293 15.945 78.6293 16.515V17.745C78.6293 18.315 78.7693 18.755 79.0493 19.065C79.3293 19.375 79.7193 19.53 80.2193 19.53ZM85.8684 21V13.26H88.0884V14.67H88.1784C88.2684 14.45 88.3784 14.245 88.5084 14.055C88.6384 13.865 88.7934 13.7 88.9734 13.56C89.1634 13.41 89.3784 13.295 89.6184 13.215C89.8684 13.125 90.1484 13.08 90.4584 13.08C90.8284 13.08 91.1684 13.145 91.4784 13.275C91.7884 13.395 92.0534 13.58 92.2734 13.83C92.4934 14.08 92.6634 14.385 92.7834 14.745C92.9134 15.105 92.9784 15.52 92.9784 15.99V21H90.7584V16.29C90.7584 15.29 90.3234 14.79 89.4534 14.79C89.2834 14.79 89.1134 14.815 88.9434 14.865C88.7834 14.905 88.6384 14.975 88.5084 15.075C88.3784 15.165 88.2734 15.28 88.1934 15.42C88.1234 15.56 88.0884 15.725 88.0884 15.915V21H85.8684ZM107.742 21.18C107.182 21.18 106.777 21.06 106.527 20.82C106.287 20.57 106.167 20.275 106.167 19.935V19.41C106.167 19.07 106.287 18.78 106.527 18.54C106.777 18.29 107.182 18.165 107.742 18.165C108.302 18.165 108.702 18.29 108.942 18.54C109.192 18.78 109.317 19.07 109.317 19.41V19.935C109.317 20.275 109.192 20.57 108.942 20.82C108.702 21.06 108.302 21.18 107.742 21.18ZM121.161 21.78C121.161 22.6 120.816 23.205 120.126 23.595C119.436 23.985 118.351 24.18 116.871 24.18C116.131 24.18 115.521 24.135 115.041 24.045C114.561 23.965 114.176 23.845 113.886 23.685C113.606 23.525 113.406 23.335 113.286 23.115C113.176 22.895 113.121 22.655 113.121 22.395C113.121 21.955 113.251 21.62 113.511 21.39C113.771 21.17 114.136 21 114.606 20.88V20.79C114.276 20.69 114.011 20.55 113.811 20.37C113.621 20.18 113.526 19.915 113.526 19.575C113.526 19.195 113.651 18.915 113.901 18.735C114.161 18.555 114.501 18.415 114.921 18.315V18.225C114.461 18.005 114.101 17.695 113.841 17.295C113.591 16.895 113.466 16.41 113.466 15.84C113.466 15.39 113.546 14.995 113.706 14.655C113.866 14.305 114.091 14.015 114.381 13.785C114.681 13.555 115.036 13.38 115.446 13.26C115.856 13.14 116.316 13.08 116.826 13.08C117.316 13.08 117.771 13.135 118.191 13.245V12.825C118.191 12.525 118.296 12.275 118.506 12.075C118.716 11.875 119.006 11.775 119.376 11.775H120.741V13.395H118.881V13.53C119.301 13.75 119.626 14.055 119.856 14.445C120.096 14.825 120.216 15.29 120.216 15.84C120.216 16.29 120.136 16.685 119.976 17.025C119.816 17.365 119.586 17.655 119.286 17.895C118.986 18.125 118.626 18.3 118.206 18.42C117.796 18.54 117.336 18.6 116.826 18.6C116.596 18.6 116.376 18.59 116.166 18.57C115.956 18.54 115.756 18.5 115.566 18.45C115.456 18.51 115.361 18.585 115.281 18.675C115.211 18.765 115.176 18.88 115.176 19.02C115.176 19.14 115.206 19.235 115.266 19.305C115.326 19.375 115.406 19.43 115.506 19.47C115.616 19.5 115.741 19.52 115.881 19.53C116.021 19.54 116.166 19.545 116.316 19.545H118.086C118.636 19.545 119.106 19.6 119.496 19.71C119.886 19.82 120.206 19.975 120.456 20.175C120.706 20.375 120.886 20.61 120.996 20.88C121.106 21.15 121.161 21.45 121.161 21.78ZM119.061 21.945C119.061 21.745 118.981 21.585 118.821 21.465C118.661 21.355 118.356 21.3 117.906 21.3H115.251C115.051 21.47 114.951 21.68 114.951 21.93C114.951 22.17 115.051 22.365 115.251 22.515C115.461 22.675 115.811 22.755 116.301 22.755H117.606C118.116 22.755 118.486 22.685 118.716 22.545C118.946 22.405 119.061 22.205 119.061 21.945ZM116.826 17.19C117.276 17.19 117.601 17.08 117.801 16.86C118.011 16.64 118.116 16.36 118.116 16.02V15.66C118.116 15.32 118.011 15.04 117.801 14.82C117.601 14.6 117.276 14.49 116.826 14.49C116.386 14.49 116.066 14.6 115.866 14.82C115.666 15.04 115.566 15.32 115.566 15.66V16.02C115.566 16.36 115.666 16.64 115.866 16.86C116.066 17.08 116.386 17.19 116.826 17.19ZM126.09 21.18C125.49 21.18 124.95 21.09 124.47 20.91C123.99 20.72 123.58 20.45 123.24 20.1C122.91 19.75 122.655 19.325 122.475 18.825C122.295 18.325 122.205 17.76 122.205 17.13C122.205 16.5 122.295 15.935 122.475 15.435C122.655 14.935 122.91 14.51 123.24 14.16C123.58 13.81 123.99 13.545 124.47 13.365C124.95 13.175 125.49 13.08 126.09 13.08C126.69 13.08 127.23 13.175 127.71 13.365C128.19 13.545 128.595 13.81 128.925 14.16C129.265 14.51 129.525 14.935 129.705 15.435C129.885 15.935 129.975 16.5 129.975 17.13C129.975 17.76 129.885 18.325 129.705 18.825C129.525 19.325 129.265 19.75 128.925 20.1C128.595 20.45 128.19 20.72 127.71 20.91C127.23 21.09 126.69 21.18 126.09 21.18ZM126.09 19.53C126.59 19.53 126.98 19.375 127.26 19.065C127.54 18.755 127.68 18.315 127.68 17.745V16.515C127.68 15.945 127.54 15.505 127.26 15.195C126.98 14.885 126.59 14.73 126.09 14.73C125.59 14.73 125.2 14.885 124.92 15.195C124.64 15.505 124.5 15.945 124.5 16.515V17.745C124.5 18.315 124.64 18.755 124.92 19.065C125.2 19.375 125.59 19.53 126.09 19.53ZM133.944 21L131.169 13.26H133.509L134.514 16.575L135.249 19.155H135.369L136.104 16.575L137.109 13.26H139.359L136.584 21H133.944ZM144.648 21.18C143.348 21.18 142.363 20.82 141.693 20.1C141.023 19.38 140.688 18.4 140.688 17.16C140.688 16.53 140.773 15.965 140.943 15.465C141.123 14.955 141.373 14.525 141.693 14.175C142.023 13.815 142.418 13.545 142.878 13.365C143.348 13.175 143.873 13.08 144.453 13.08C145.033 13.08 145.553 13.175 146.013 13.365C146.473 13.545 146.863 13.805 147.183 14.145C147.503 14.485 147.748 14.9 147.918 15.39C148.098 15.87 148.188 16.41 148.188 17.01V17.67H142.893V17.805C142.893 18.305 143.048 18.71 143.358 19.02C143.668 19.32 144.123 19.47 144.723 19.47C145.183 19.47 145.578 19.385 145.908 19.215C146.238 19.035 146.523 18.8 146.763 18.51L147.963 19.815C147.663 20.185 147.243 20.505 146.703 20.775C146.163 21.045 145.478 21.18 144.648 21.18ZM144.468 14.67C143.988 14.67 143.603 14.82 143.313 15.12C143.033 15.41 142.893 15.805 142.893 16.305V16.425H146.013V16.305C146.013 15.795 145.873 15.395 145.593 15.105C145.323 14.815 144.948 14.67 144.468 14.67ZM150.222 19.275H152.007V14.985H150.222V13.26H154.227V15.45H154.332C154.402 15.17 154.497 14.9 154.617 14.64C154.747 14.37 154.907 14.135 155.097 13.935C155.297 13.725 155.537 13.56 155.817 13.44C156.097 13.32 156.427 13.26 156.807 13.26H157.542V15.3H155.892C155.342 15.3 154.927 15.465 154.647 15.795C154.367 16.115 154.227 16.51 154.227 16.98V19.275H156.777V21H150.222V19.275ZM159.262 21V13.26H161.482V14.67H161.572C161.662 14.45 161.772 14.245 161.902 14.055C162.032 13.865 162.187 13.7 162.367 13.56C162.557 13.41 162.772 13.295 163.012 13.215C163.262 13.125 163.542 13.08 163.852 13.08C164.222 13.08 164.562 13.145 164.872 13.275C165.182 13.395 165.447 13.58 165.667 13.83C165.887 14.08 166.057 14.385 166.177 14.745C166.307 15.105 166.372 15.52 166.372 15.99V21H164.152V16.29C164.152 15.29 163.717 14.79 162.847 14.79C162.677 14.79 162.507 14.815 162.337 14.865C162.177 14.905 162.032 14.975 161.902 15.075C161.772 15.165 161.667 15.28 161.587 15.42C161.517 15.56 161.482 15.725 161.482 15.915V21H159.262ZM174.766 21C174.306 21 173.936 20.885 173.656 20.655C173.376 20.415 173.211 20.075 173.161 19.635H173.086C172.946 20.145 172.666 20.53 172.246 20.79C171.836 21.05 171.331 21.18 170.731 21.18C169.981 21.18 169.376 20.98 168.916 20.58C168.466 20.17 168.241 19.6 168.241 18.87C168.241 18.06 168.536 17.46 169.126 17.07C169.716 16.68 170.581 16.485 171.721 16.485H172.966V16.095C172.966 15.635 172.856 15.29 172.636 15.06C172.426 14.82 172.066 14.7 171.556 14.7C171.086 14.7 170.706 14.79 170.416 14.97C170.126 15.15 169.876 15.385 169.666 15.675L168.451 14.595C168.711 14.155 169.116 13.795 169.666 13.515C170.226 13.225 170.941 13.08 171.811 13.08C172.871 13.08 173.696 13.325 174.286 13.815C174.886 14.295 175.186 15.025 175.186 16.005V19.395H176.041V21H174.766ZM171.571 19.725C171.961 19.725 172.291 19.63 172.561 19.44C172.831 19.25 172.966 18.975 172.966 18.615V17.685H171.781C170.871 17.685 170.416 17.99 170.416 18.6V18.9C170.416 19.17 170.521 19.375 170.731 19.515C170.941 19.655 171.221 19.725 171.571 19.725ZM177.61 21V13.26H179.83V14.67H179.92C180.01 14.45 180.12 14.245 180.25 14.055C180.38 13.865 180.535 13.7 180.715 13.56C180.905 13.41 181.12 13.295 181.36 13.215C181.61 13.125 181.89 13.08 182.2 13.08C182.57 13.08 182.91 13.145 183.22 13.275C183.53 13.395 183.795 13.58 184.015 13.83C184.235 14.08 184.405 14.385 184.525 14.745C184.655 15.105 184.72 15.52 184.72 15.99V21H182.5V16.29C182.5 15.29 182.065 14.79 181.195 14.79C181.025 14.79 180.855 14.815 180.685 14.865C180.525 14.905 180.38 14.975 180.25 15.075C180.12 15.165 180.015 15.28 179.935 15.42C179.865 15.56 179.83 15.725 179.83 15.915V21H177.61ZM190.624 21.18C190.014 21.18 189.464 21.09 188.974 20.91C188.494 20.72 188.084 20.45 187.744 20.1C187.414 19.75 187.159 19.325 186.979 18.825C186.799 18.325 186.709 17.76 186.709 17.13C186.709 16.5 186.799 15.935 186.979 15.435C187.159 14.935 187.414 14.51 187.744 14.16C188.084 13.81 188.494 13.545 188.974 13.365C189.464 13.175 190.009 13.08 190.609 13.08C191.459 13.08 192.139 13.255 192.649 13.605C193.169 13.945 193.564 14.4 193.834 14.97L192.124 15.9C191.984 15.6 191.799 15.35 191.569 15.15C191.349 14.95 191.029 14.85 190.609 14.85C190.099 14.85 189.704 15 189.424 15.3C189.154 15.59 189.019 15.99 189.019 16.5V17.76C189.019 18.27 189.154 18.675 189.424 18.975C189.704 19.265 190.109 19.41 190.639 19.41C191.069 19.41 191.404 19.31 191.644 19.11C191.894 18.91 192.104 18.65 192.274 18.33L193.954 19.29C193.674 19.86 193.264 20.32 192.724 20.67C192.194 21.01 191.494 21.18 190.624 21.18ZM199.693 21.18C198.393 21.18 197.408 20.82 196.738 20.1C196.068 19.38 195.733 18.4 195.733 17.16C195.733 16.53 195.818 15.965 195.988 15.465C196.168 14.955 196.418 14.525 196.738 14.175C197.068 13.815 197.463 13.545 197.923 13.365C198.393 13.175 198.918 13.08 199.498 13.08C200.078 13.08 200.598 13.175 201.058 13.365C201.518 13.545 201.908 13.805 202.228 14.145C202.548 14.485 202.793 14.9 202.963 15.39C203.143 15.87 203.233 16.41 203.233 17.01V17.67H197.938V17.805C197.938 18.305 198.093 18.71 198.403 19.02C198.713 19.32 199.168 19.47 199.768 19.47C200.228 19.47 200.623 19.385 200.953 19.215C201.283 19.035 201.568 18.8 201.808 18.51L203.008 19.815C202.708 20.185 202.288 20.505 201.748 20.775C201.208 21.045 200.523 21.18 199.693 21.18ZM199.513 14.67C199.033 14.67 198.648 14.82 198.358 15.12C198.078 15.41 197.938 15.805 197.938 16.305V16.425H201.058V16.305C201.058 15.795 200.918 15.395 200.638 15.105C200.368 14.815 199.993 14.67 199.513 14.67Z" fill="white"/>
<path d="M94.4126 21L97.3076 17.07L94.6076 13.26H97.1426L97.9676 14.505L98.5976 15.51H98.7176L99.3626 14.505L100.203 13.26H102.528L99.8276 16.95L102.723 21H100.173L99.1976 19.545L98.5226 18.51H98.4026L97.7426 19.545L96.7526 21H94.4126Z" fill="#7C9AE4"/>
<path d="M207 0H5C2.23858 0 0 2.23858 0 5V27C0 29.7614 2.23858 32 5 32H207C209.761 32 212 29.7614 212 27V5C212 2.23858 209.761 0 207 0Z" fill="url(#paint6_linear_119_142)"/>
</g>
<defs>
<linearGradient id="paint0_linear_119_142" x1="1186.52" y1="2863.17" x2="1199.82" y2="2845.11" gradientUnits="userSpaceOnUse">
<stop offset="0.32"/>
<stop offset="0.9" stop-opacity="0"/>
</linearGradient>
<linearGradient id="paint1_linear_119_142" x1="-947.808" y1="996.353" x2="-958.215" y2="1003.99" gradientUnits="userSpaceOnUse">
<stop offset="0.32"/>
<stop offset="0.9" stop-opacity="0"/>
</linearGradient>
<linearGradient id="paint2_linear_119_142" x1="17.99" y1="16.9949" x2="13.99" y2="16.9949" gradientUnits="userSpaceOnUse">
<stop stop-opacity="0"/>
<stop offset="0.7"/>
</linearGradient>
<linearGradient id="paint3_linear_119_142" x1="17.99" y1="9.99488" x2="13.99" y2="9.99488" gradientUnits="userSpaceOnUse">
<stop stop-opacity="0"/>
<stop offset="0.7"/>
</linearGradient>
<linearGradient id="paint4_linear_119_142" x1="17.99" y1="23.9949" x2="13.99" y2="23.9949" gradientUnits="userSpaceOnUse">
<stop stop-opacity="0"/>
<stop offset="0.7"/>
</linearGradient>
<linearGradient id="paint5_linear_119_142" x1="0" y1="32" x2="32" y2="0" gradientUnits="userSpaceOnUse">
<stop offset="0.1" stop-color="#A56EFF"/>
<stop offset="0.9" stop-color="#0F62FE"/>
</linearGradient>
<linearGradient id="paint6_linear_119_142" x1="0" y1="0" x2="0" y2="32" gradientUnits="userSpaceOnUse">
<stop stop-color="#BBBBBB" stop-opacity="0.1"/>
<stop offset="1" stop-opacity="0.1"/>
</linearGradient>
<clipPath id="clip0_119_142">
<rect width="212" height="32" rx="5" fill="white"/>
</clipPath>
<clipPath id="clip1_119_142">
<rect width="32" height="32" fill="white"/>
</clipPath>
<clipPath id="clip2_119_142">
<rect width="32" height="32" fill="white"/>
</clipPath>
</defs>
</svg>
