<svg width="166" height="32" viewBox="0 0 166 32" fill="none" xmlns="http://www.w3.org/2000/svg">
<g clip-path="url(#clip0_18_286)">
<path d="M161 0H31V32H161C163.761 32 166 29.7614 166 27V5C166 2.23858 163.761 0 161 0Z" fill="#0F1418"/>
<rect width="32" height="32" fill="#0F1418"/>
<mask id="mask0_18_286" style="mask-type:luminance" maskUnits="userSpaceOnUse" x="2" y="2" width="17" height="28">
<path d="M12 28H10V26H12V20.993C12.0001 20.2054 12.1555 19.4256 12.4571 18.6981C12.7588 17.9706 13.2009 17.3097 13.7581 16.7531C14.3153 16.1966 14.9767 15.7553 15.7046 15.4545C16.4324 15.1536 17.2124 14.9992 18 15V17C17.475 16.9991 16.9551 17.1017 16.4698 17.3019C15.9845 17.5022 15.5435 17.7962 15.172 18.167C14.8005 18.5379 14.5057 18.9784 14.3046 19.4633C14.1035 19.9482 14 20.468 14 20.993V26C14 26.5304 13.7893 27.0391 13.4142 27.4142C13.0391 27.7893 12.5304 28 12 28Z" fill="white"/>
<path d="M11 21V14H19V21H11Z" fill="url(#paint0_linear_18_286)"/>
<path d="M18 17C17.2124 17.0008 16.4324 16.8464 15.7046 16.5456C14.9767 16.2447 14.3153 15.8034 13.7581 15.2469C13.2009 14.6903 12.7588 14.0294 12.4571 13.3019C12.1555 12.5744 12.0001 11.7946 12 11.007V6H10V4H12C12.5304 4 13.0391 4.21071 13.4142 4.58579C13.7893 4.96086 14 5.46957 14 6V11.005C13.9997 11.5301 14.1031 12.0501 14.304 12.5353C14.505 13.0204 14.7997 13.4612 15.1713 13.8322C15.5428 14.2033 15.9839 14.4975 16.4693 14.6979C16.9547 14.8983 17.4749 15.0009 18 15V17Z" fill="white"/>
<path d="M8 30H2V24H8V30ZM4 28H6V26H4V28ZM8 19H2V13H8V19ZM4 17H6V15H4V17ZM8 8H2V2H8V8ZM4 6H6V4H4V6Z" fill="#F3F3F3"/>
</mask>
<g mask="url(#mask0_18_286)">
<path d="M0 0H32V32H0V0Z" fill="url(#paint1_linear_18_286)"/>
</g>
<path d="M25 21C24.0111 21 23.0444 20.7068 22.2222 20.1574C21.3999 19.6079 20.759 18.8271 20.3806 17.9134C20.0022 16.9998 19.9031 15.9945 20.0961 15.0246C20.289 14.0546 20.7652 13.1637 21.4645 12.4645C22.1637 11.7652 23.0546 11.289 24.0246 11.0961C24.9945 10.9031 25.9998 11.0022 26.9134 11.3806C27.8271 11.759 28.6079 12.3999 29.1574 13.2222C29.7068 14.0444 30 15.0111 30 16C29.9984 17.3256 29.4711 18.5964 28.5338 19.5338C27.5964 20.4711 26.3256 20.9984 25 21ZM25 13C24.4067 13 23.8266 13.1759 23.3333 13.5056C22.8399 13.8352 22.4554 14.3038 22.2284 14.852C22.0013 15.4001 21.9419 16.0033 22.0576 16.5853C22.1734 17.1672 22.4591 17.7018 22.8787 18.1213C23.2982 18.5409 23.8328 18.8266 24.4147 18.9424C24.9967 19.0581 25.5999 18.9987 26.1481 18.7716C26.6962 18.5446 27.1648 18.1601 27.4944 17.6667C27.8241 17.1734 28 16.5933 28 16C28 15.2044 27.6839 14.4413 27.1213 13.8787C26.5587 13.3161 25.7957 13 25 13Z" fill="#F4F4F4"/>
<path d="M39.7681 21L39.1231 10.53H41.0581L41.3581 16.8L41.4481 18.78H41.5831L42.4831 12.81H44.5081L45.4081 18.78H45.5431L45.6331 16.86L45.9331 10.53H47.7931L47.1481 21H44.2981L43.5331 15.225H43.3831L42.6181 21H39.7681ZM55.4372 21C54.9772 21 54.6072 20.885 54.3272 20.655C54.0472 20.415 53.8822 20.075 53.8322 19.635H53.7572C53.6172 20.145 53.3372 20.53 52.9172 20.79C52.5072 21.05 52.0022 21.18 51.4022 21.18C50.6522 21.18 50.0472 20.98 49.5872 20.58C49.1372 20.17 48.9122 19.6 48.9122 18.87C48.9122 18.06 49.2072 17.46 49.7972 17.07C50.3872 16.68 51.2522 16.485 52.3922 16.485H53.6372V16.095C53.6372 15.635 53.5272 15.29 53.3072 15.06C53.0972 14.82 52.7372 14.7 52.2272 14.7C51.7572 14.7 51.3772 14.79 51.0872 14.97C50.7972 15.15 50.5472 15.385 50.3372 15.675L49.1222 14.595C49.3822 14.155 49.7872 13.795 50.3372 13.515C50.8972 13.225 51.6122 13.08 52.4822 13.08C53.5422 13.08 54.3672 13.325 54.9572 13.815C55.5572 14.295 55.8572 15.025 55.8572 16.005V19.395H56.7122V21H55.4372ZM52.2422 19.725C52.6322 19.725 52.9622 19.63 53.2322 19.44C53.5022 19.25 53.6372 18.975 53.6372 18.615V17.685H52.4522C51.5422 17.685 51.0872 17.99 51.0872 18.6V18.9C51.0872 19.17 51.1922 19.375 51.4022 19.515C51.6122 19.655 51.8922 19.725 52.2422 19.725ZM62.4064 21C61.6064 21 61.0114 20.79 60.6214 20.37C60.2314 19.95 60.0364 19.415 60.0364 18.765V14.985H57.9364V13.26H59.3014C59.6314 13.26 59.8664 13.195 60.0064 13.065C60.1464 12.935 60.2164 12.695 60.2164 12.345V10.53H62.2564V13.26H65.2714V14.985H62.2564V19.275H65.2714V21H62.4064ZM70.8905 21.18C70.0305 21.18 69.2805 21.05 68.6405 20.79C68.0105 20.53 67.5355 20.175 67.2155 19.725L68.4605 18.57C68.7605 18.9 69.1105 19.16 69.5105 19.35C69.9205 19.53 70.3855 19.62 70.9055 19.62C71.3455 19.62 71.6905 19.555 71.9405 19.425C72.1905 19.285 72.3155 19.075 72.3155 18.795C72.3155 18.575 72.2305 18.425 72.0605 18.345C71.8905 18.255 71.6555 18.185 71.3555 18.135L70.1105 17.94C69.7605 17.89 69.4355 17.815 69.1355 17.715C68.8355 17.605 68.5755 17.46 68.3555 17.28C68.1355 17.1 67.9605 16.88 67.8305 16.62C67.7005 16.36 67.6355 16.045 67.6355 15.675C67.6355 14.865 67.9455 14.23 68.5655 13.77C69.1855 13.31 70.0555 13.08 71.1755 13.08C71.9355 13.08 72.5805 13.185 73.1105 13.395C73.6505 13.595 74.0805 13.885 74.4005 14.265L73.2905 15.525C73.0605 15.275 72.7655 15.065 72.4055 14.895C72.0455 14.725 71.6105 14.64 71.1005 14.64C70.2405 14.64 69.8105 14.9 69.8105 15.42C69.8105 15.65 69.8955 15.81 70.0655 15.9C70.2355 15.98 70.4705 16.045 70.7705 16.095L72.0005 16.29C72.3505 16.34 72.6755 16.42 72.9755 16.53C73.2755 16.63 73.5355 16.77 73.7555 16.95C73.9855 17.13 74.1655 17.35 74.2955 17.61C74.4255 17.87 74.4905 18.185 74.4905 18.555C74.4905 19.365 74.1755 20.005 73.5455 20.475C72.9255 20.945 72.0405 21.18 70.8905 21.18ZM80.1546 21.18C79.5546 21.18 79.0146 21.09 78.5346 20.91C78.0546 20.72 77.6446 20.45 77.3046 20.1C76.9746 19.75 76.7196 19.325 76.5396 18.825C76.3596 18.325 76.2696 17.76 76.2696 17.13C76.2696 16.5 76.3596 15.935 76.5396 15.435C76.7196 14.935 76.9746 14.51 77.3046 14.16C77.6446 13.81 78.0546 13.545 78.5346 13.365C79.0146 13.175 79.5546 13.08 80.1546 13.08C80.7546 13.08 81.2946 13.175 81.7746 13.365C82.2546 13.545 82.6596 13.81 82.9896 14.16C83.3296 14.51 83.5896 14.935 83.7696 15.435C83.9496 15.935 84.0396 16.5 84.0396 17.13C84.0396 17.76 83.9496 18.325 83.7696 18.825C83.5896 19.325 83.3296 19.75 82.9896 20.1C82.6596 20.45 82.2546 20.72 81.7746 20.91C81.2946 21.09 80.7546 21.18 80.1546 21.18ZM80.1546 19.53C80.6546 19.53 81.0446 19.375 81.3246 19.065C81.6046 18.755 81.7446 18.315 81.7446 17.745V16.515C81.7446 15.945 81.6046 15.505 81.3246 15.195C81.0446 14.885 80.6546 14.73 80.1546 14.73C79.6546 14.73 79.2646 14.885 78.9846 15.195C78.7046 15.505 78.5646 15.945 78.5646 16.515V17.745C78.5646 18.315 78.7046 18.755 78.9846 19.065C79.2646 19.375 79.6546 19.53 80.1546 19.53ZM85.8038 21V13.26H88.0238V14.67H88.1138C88.2038 14.45 88.3138 14.245 88.4438 14.055C88.5738 13.865 88.7288 13.7 88.9088 13.56C89.0988 13.41 89.3138 13.295 89.5538 13.215C89.8038 13.125 90.0838 13.08 90.3938 13.08C90.7638 13.08 91.1038 13.145 91.4138 13.275C91.7238 13.395 91.9888 13.58 92.2088 13.83C92.4288 14.08 92.5988 14.385 92.7188 14.745C92.8488 15.105 92.9138 15.52 92.9138 15.99V21H90.6938V16.29C90.6938 15.29 90.2588 14.79 89.3888 14.79C89.2188 14.79 89.0488 14.815 88.8788 14.865C88.7188 14.905 88.5738 14.975 88.4438 15.075C88.3138 15.165 88.2088 15.28 88.1288 15.42C88.0588 15.56 88.0238 15.725 88.0238 15.915V21H85.8038ZM107.512 21.18C106.632 21.18 105.867 21.035 105.217 20.745C104.567 20.455 104.042 20.06 103.642 19.56L104.947 18.12C105.327 18.54 105.742 18.85 106.192 19.05C106.652 19.25 107.117 19.35 107.587 19.35C108.127 19.35 108.537 19.23 108.817 18.99C109.097 18.75 109.237 18.405 109.237 17.955C109.237 17.585 109.127 17.305 108.907 17.115C108.697 16.925 108.337 16.79 107.827 16.71L106.732 16.53C105.792 16.37 105.112 16.025 104.692 15.495C104.272 14.955 104.062 14.3 104.062 13.53C104.062 12.52 104.392 11.74 105.052 11.19C105.712 10.63 106.637 10.35 107.827 10.35C108.637 10.35 109.342 10.475 109.942 10.725C110.542 10.975 111.027 11.315 111.397 11.745L110.122 13.17C109.842 12.86 109.512 12.62 109.132 12.45C108.752 12.27 108.322 12.18 107.842 12.18C106.832 12.18 106.327 12.595 106.327 13.425C106.327 13.785 106.437 14.055 106.657 14.235C106.887 14.415 107.257 14.55 107.767 14.64L108.862 14.835C109.712 14.985 110.367 15.305 110.827 15.795C111.287 16.285 111.517 16.945 111.517 17.775C111.517 18.265 111.432 18.72 111.262 19.14C111.092 19.55 110.837 19.91 110.497 20.22C110.157 20.52 109.737 20.755 109.237 20.925C108.747 21.095 108.172 21.18 107.512 21.18ZM117.451 21C116.651 21 116.056 20.79 115.666 20.37C115.276 19.95 115.081 19.415 115.081 18.765V14.985H112.981V13.26H114.346C114.676 13.26 114.911 13.195 115.051 13.065C115.191 12.935 115.261 12.695 115.261 12.345V10.53H117.301V13.26H120.316V14.985H117.301V19.275H120.316V21H117.451ZM127.33 19.59H127.24C127.07 20.03 126.8 20.405 126.43 20.715C126.07 21.025 125.58 21.18 124.96 21.18C124.59 21.18 124.25 21.12 123.94 21C123.63 20.87 123.365 20.68 123.145 20.43C122.925 20.18 122.75 19.875 122.62 19.515C122.5 19.155 122.44 18.74 122.44 18.27V13.26H124.66V17.97C124.66 18.97 125.095 19.47 125.965 19.47C126.135 19.47 126.3 19.45 126.46 19.41C126.63 19.36 126.775 19.29 126.895 19.2C127.025 19.1 127.13 18.98 127.21 18.84C127.29 18.7 127.33 18.535 127.33 18.345V13.26H129.55V21H127.33V19.59ZM136.594 19.59H136.489C136.289 20.06 136.009 20.445 135.649 20.745C135.299 21.035 134.814 21.18 134.194 21.18C133.764 21.18 133.369 21.1 133.009 20.94C132.659 20.78 132.354 20.535 132.094 20.205C131.844 19.875 131.644 19.455 131.494 18.945C131.354 18.435 131.284 17.83 131.284 17.13C131.284 16.43 131.354 15.825 131.494 15.315C131.644 14.805 131.844 14.385 132.094 14.055C132.354 13.725 132.659 13.48 133.009 13.32C133.369 13.16 133.764 13.08 134.194 13.08C134.504 13.08 134.779 13.12 135.019 13.2C135.259 13.28 135.469 13.39 135.649 13.53C135.839 13.67 135.999 13.84 136.129 14.04C136.269 14.23 136.389 14.44 136.489 14.67H136.594V9.9H138.814V21H136.594V19.59ZM135.154 19.455C135.544 19.455 135.879 19.36 136.159 19.17C136.449 18.98 136.594 18.68 136.594 18.27V15.99C136.594 15.58 136.449 15.28 136.159 15.09C135.879 14.9 135.544 14.805 135.154 14.805C134.654 14.805 134.269 14.96 133.999 15.27C133.729 15.57 133.594 15.99 133.594 16.53V17.73C133.594 18.27 133.729 18.695 133.999 19.005C134.269 19.305 134.654 19.455 135.154 19.455ZM144.854 12.27C144.354 12.27 144.004 12.17 143.804 11.97C143.614 11.76 143.519 11.51 143.519 11.22V10.785C143.519 10.485 143.614 10.235 143.804 10.035C144.004 9.835 144.354 9.735 144.854 9.735C145.354 9.735 145.699 9.835 145.889 10.035C146.089 10.235 146.189 10.485 146.189 10.785V11.22C146.189 11.51 146.089 11.76 145.889 11.97C145.699 12.17 145.354 12.27 144.854 12.27ZM141.284 19.275H143.744V14.985H141.284V13.26H145.964V19.275H148.244V21H141.284V19.275ZM153.548 21.18C152.948 21.18 152.408 21.09 151.928 20.91C151.448 20.72 151.038 20.45 150.698 20.1C150.368 19.75 150.113 19.325 149.933 18.825C149.753 18.325 149.663 17.76 149.663 17.13C149.663 16.5 149.753 15.935 149.933 15.435C150.113 14.935 150.368 14.51 150.698 14.16C151.038 13.81 151.448 13.545 151.928 13.365C152.408 13.175 152.948 13.08 153.548 13.08C154.148 13.08 154.688 13.175 155.168 13.365C155.648 13.545 156.053 13.81 156.383 14.16C156.723 14.51 156.983 14.935 157.163 15.435C157.343 15.935 157.433 16.5 157.433 17.13C157.433 17.76 157.343 18.325 157.163 18.825C156.983 19.325 156.723 19.75 156.383 20.1C156.053 20.45 155.648 20.72 155.168 20.91C154.688 21.09 154.148 21.18 153.548 21.18ZM153.548 19.53C154.048 19.53 154.438 19.375 154.718 19.065C154.998 18.755 155.138 18.315 155.138 17.745V16.515C155.138 15.945 154.998 15.505 154.718 15.195C154.438 14.885 154.048 14.73 153.548 14.73C153.048 14.73 152.658 14.885 152.378 15.195C152.098 15.505 151.958 15.945 151.958 16.515V17.745C151.958 18.315 152.098 18.755 152.378 19.065C152.658 19.375 153.048 19.53 153.548 19.53Z" fill="white"/>
<path d="M161 0H5C2.23858 0 0 2.23858 0 5V27C0 29.7614 2.23858 32 5 32H161C163.761 32 166 29.7614 166 27V5C166 2.23858 163.761 0 161 0Z" fill="url(#paint2_linear_18_286)"/>
</g>
<defs>
<linearGradient id="paint0_linear_18_286" x1="15" y1="21" x2="15" y2="14" gradientUnits="userSpaceOnUse">
<stop stop-opacity="0"/>
<stop offset="0.7"/>
</linearGradient>
<linearGradient id="paint1_linear_18_286" x1="0" y1="32" x2="32" y2="0" gradientUnits="userSpaceOnUse">
<stop offset="0.1" stop-color="#BE95FF"/>
<stop offset="0.9" stop-color="#4589FF"/>
</linearGradient>
<linearGradient id="paint2_linear_18_286" x1="0" y1="0" x2="0" y2="32" gradientUnits="userSpaceOnUse">
<stop stop-color="#BBBBBB" stop-opacity="0.1"/>
<stop offset="1" stop-opacity="0.1"/>
</linearGradient>
<clipPath id="clip0_18_286">
<rect width="166" height="32" rx="5" fill="white"/>
</clipPath>
</defs>
</svg>
