<svg width="140" height="32" viewBox="0 0 140 32" fill="none" xmlns="http://www.w3.org/2000/svg">
<g clip-path="url(#clip0_119_110)">
<path d="M135 0H31V32H135C137.761 32 140 29.7614 140 27V5C140 2.23858 137.761 0 135 0Z" fill="#0F1418"/>
<g clip-path="url(#clip1_119_110)">
<rect width="32" height="32" fill="#0F1418"/>
<g clip-path="url(#clip2_119_110)">
<mask id="mask0_119_110" style="mask-type:luminance" maskUnits="userSpaceOnUse" x="1" y="0" width="33" height="32">
<path d="M17 1.00003C13.07 0.990031 9.3 2.53003 6.5 5.28003L7.9 6.70003C10.32 4.31003 13.589 2.97003 16.989 2.98003C21.249 2.98003 24.989 6.95003 24.989 11.48C24.989 16.16 21.169 19.98 16.489 19.98H15.989V21.98H16.489C22.279 21.98 26.989 17.27 26.989 11.48C26.989 9.57003 26.429 7.76003 25.509 6.18703C28.239 8.56703 29.979 12.067 29.979 15.977C29.979 18.087 29.479 20.107 28.509 21.967L30.279 22.887C31.379 20.747 31.959 18.367 31.959 15.967C31.959 7.68703 25.229 0.957031 16.959 0.957031L17 1.00003Z" fill="white"/>
<path d="M26.098 25.28C23.668 27.66 20.398 29 16.998 28.99C12.728 28.99 8.99801 25.01 8.99801 20.49C8.99801 15.8 12.808 11.99 17.498 11.99H17.998V9.99005H17.498C11.708 9.99005 6.99801 14.7 6.99801 20.49C6.99801 22.39 7.54801 24.2 8.46801 25.78C5.73101 23.39 3.99101 19.89 3.99101 15.98C3.99101 13.86 4.48301 11.84 5.45101 9.98005L3.67101 9.05005C2.56101 11.18 1.98001 13.56 1.98001 15.96C1.98001 24.231 8.70901 30.96 16.98 30.96C20.92 30.96 24.65 29.43 27.47 26.67L26.07 25.24L26.098 25.28Z" fill="white"/>
<path d="M9 9L1 0H17L19.3 3.3L8.99 8.99L9 9Z" fill="url(#paint0_linear_119_110)"/>
<path d="M25.05 23.0001L33.05 32.0001H17.05L14.74 28.6901L25.045 22.9951L25.05 23.0001Z" fill="url(#paint1_linear_119_110)"/>
<path d="M15 23V19H19V23H15Z" fill="url(#paint2_linear_119_110)"/>
<path d="M19 9V13H15V9H19Z" fill="url(#paint3_linear_119_110)"/>
</mask>
<g mask="url(#mask0_119_110)">
<path d="M1 0H33V32H1V0Z" fill="url(#paint4_linear_119_110)"/>
</g>
<path d="M7 4C6.46957 4 5.96086 4.21071 5.58579 4.58579C5.21071 4.96086 5 5.46957 5 6C5 6.53043 5.21071 7.03914 5.58579 7.41421C5.96086 7.78929 6.46957 8 7 8C7.53043 8 8.03914 7.78929 8.41421 7.41421C8.78929 7.03914 9 6.53043 9 6C9 5.46957 8.78929 4.96086 8.41421 4.58579C8.03914 4.21071 7.53043 4 7 4Z" fill="white"/>
<path d="M27 24C26.4696 24 25.9609 24.2107 25.5858 24.5858C25.2107 24.9609 25 25.4696 25 26C25 26.5304 25.2107 27.0391 25.5858 27.4142C25.9609 27.7893 26.4696 28 27 28C27.5304 28 28.0391 27.7893 28.4142 27.4142C28.7893 27.0391 29 26.5304 29 26C29 25.4696 28.7893 24.9609 28.4142 24.5858C28.0391 24.2107 27.5304 24 27 24Z" fill="white"/>
<path d="M14 20V22H12V20H14Z" fill="white"/>
<path d="M22 10V12H20V10H22Z" fill="white"/>
</g>
</g>
<path d="M39.8243 13.26H41.6693L42.2243 19.53H42.3743L43.2893 13.26H45.2393L46.1393 19.53H46.2893L46.8593 13.26H48.6143L47.6993 21H45.0593L44.2943 15.66H44.1443L43.3793 21H40.7393L39.8243 13.26ZM56.1984 21C55.7384 21 55.3684 20.885 55.0884 20.655C54.8084 20.415 54.6434 20.075 54.5934 19.635H54.5184C54.3784 20.145 54.0984 20.53 53.6784 20.79C53.2684 21.05 52.7634 21.18 52.1634 21.18C51.4134 21.18 50.8084 20.98 50.3484 20.58C49.8984 20.17 49.6734 19.6 49.6734 18.87C49.6734 18.06 49.9684 17.46 50.5584 17.07C51.1484 16.68 52.0134 16.485 53.1534 16.485H54.3984V16.095C54.3984 15.635 54.2884 15.29 54.0684 15.06C53.8584 14.82 53.4984 14.7 52.9884 14.7C52.5184 14.7 52.1384 14.79 51.8484 14.97C51.5584 15.15 51.3084 15.385 51.0984 15.675L49.8834 14.595C50.1434 14.155 50.5484 13.795 51.0984 13.515C51.6584 13.225 52.3734 13.08 53.2434 13.08C54.3034 13.08 55.1284 13.325 55.7184 13.815C56.3184 14.295 56.6184 15.025 56.6184 16.005V19.395H57.4734V21H56.1984ZM53.0034 19.725C53.3934 19.725 53.7234 19.63 53.9934 19.44C54.2634 19.25 54.3984 18.975 54.3984 18.615V17.685H53.2134C52.3034 17.685 51.8484 17.99 51.8484 18.6V18.9C51.8484 19.17 51.9534 19.375 52.1634 19.515C52.3734 19.655 52.6534 19.725 53.0034 19.725ZM63.1676 21C62.3676 21 61.7726 20.79 61.3826 20.37C60.9926 19.95 60.7976 19.415 60.7976 18.765V14.985H58.6976V13.26H60.0626C60.3926 13.26 60.6276 13.195 60.7676 13.065C60.9076 12.935 60.9776 12.695 60.9776 12.345V10.53H63.0176V13.26H66.0326V14.985H63.0176V19.275H66.0326V21H63.1676ZM71.6517 21.18C70.7917 21.18 70.0417 21.05 69.4017 20.79C68.7717 20.53 68.2967 20.175 67.9767 19.725L69.2217 18.57C69.5217 18.9 69.8717 19.16 70.2717 19.35C70.6817 19.53 71.1467 19.62 71.6667 19.62C72.1067 19.62 72.4517 19.555 72.7017 19.425C72.9517 19.285 73.0767 19.075 73.0767 18.795C73.0767 18.575 72.9917 18.425 72.8217 18.345C72.6517 18.255 72.4167 18.185 72.1167 18.135L70.8717 17.94C70.5217 17.89 70.1967 17.815 69.8967 17.715C69.5967 17.605 69.3367 17.46 69.1167 17.28C68.8967 17.1 68.7217 16.88 68.5917 16.62C68.4617 16.36 68.3967 16.045 68.3967 15.675C68.3967 14.865 68.7067 14.23 69.3267 13.77C69.9467 13.31 70.8167 13.08 71.9367 13.08C72.6967 13.08 73.3417 13.185 73.8717 13.395C74.4117 13.595 74.8417 13.885 75.1617 14.265L74.0517 15.525C73.8217 15.275 73.5267 15.065 73.1667 14.895C72.8067 14.725 72.3717 14.64 71.8617 14.64C71.0017 14.64 70.5717 14.9 70.5717 15.42C70.5717 15.65 70.6567 15.81 70.8267 15.9C70.9967 15.98 71.2317 16.045 71.5317 16.095L72.7617 16.29C73.1117 16.34 73.4367 16.42 73.7367 16.53C74.0367 16.63 74.2967 16.77 74.5167 16.95C74.7467 17.13 74.9267 17.35 75.0567 17.61C75.1867 17.87 75.2517 18.185 75.2517 18.555C75.2517 19.365 74.9367 20.005 74.3067 20.475C73.6867 20.945 72.8017 21.18 71.6517 21.18ZM80.9159 21.18C80.3159 21.18 79.7759 21.09 79.2959 20.91C78.8159 20.72 78.4059 20.45 78.0659 20.1C77.7359 19.75 77.4809 19.325 77.3009 18.825C77.1209 18.325 77.0309 17.76 77.0309 17.13C77.0309 16.5 77.1209 15.935 77.3009 15.435C77.4809 14.935 77.7359 14.51 78.0659 14.16C78.4059 13.81 78.8159 13.545 79.2959 13.365C79.7759 13.175 80.3159 13.08 80.9159 13.08C81.5159 13.08 82.0559 13.175 82.5359 13.365C83.0159 13.545 83.4209 13.81 83.7509 14.16C84.0909 14.51 84.3509 14.935 84.5309 15.435C84.7109 15.935 84.8009 16.5 84.8009 17.13C84.8009 17.76 84.7109 18.325 84.5309 18.825C84.3509 19.325 84.0909 19.75 83.7509 20.1C83.4209 20.45 83.0159 20.72 82.5359 20.91C82.0559 21.09 81.5159 21.18 80.9159 21.18ZM80.9159 19.53C81.4159 19.53 81.8059 19.375 82.0859 19.065C82.3659 18.755 82.5059 18.315 82.5059 17.745V16.515C82.5059 15.945 82.3659 15.505 82.0859 15.195C81.8059 14.885 81.4159 14.73 80.9159 14.73C80.4159 14.73 80.0259 14.885 79.7459 15.195C79.4659 15.505 79.3259 15.945 79.3259 16.515V17.745C79.3259 18.315 79.4659 18.755 79.7459 19.065C80.0259 19.375 80.4159 19.53 80.9159 19.53ZM86.565 21V13.26H88.785V14.67H88.875C88.965 14.45 89.075 14.245 89.205 14.055C89.335 13.865 89.49 13.7 89.67 13.56C89.86 13.41 90.075 13.295 90.315 13.215C90.565 13.125 90.845 13.08 91.155 13.08C91.525 13.08 91.865 13.145 92.175 13.275C92.485 13.395 92.75 13.58 92.97 13.83C93.19 14.08 93.36 14.385 93.48 14.745C93.61 15.105 93.675 15.52 93.675 15.99V21H91.455V16.29C91.455 15.29 91.02 14.79 90.15 14.79C89.98 14.79 89.81 14.815 89.64 14.865C89.48 14.905 89.335 14.975 89.205 15.075C89.075 15.165 88.97 15.28 88.89 15.42C88.82 15.56 88.785 15.725 88.785 15.915V21H86.565ZM108.438 21.18C107.878 21.18 107.473 21.06 107.223 20.82C106.983 20.57 106.863 20.275 106.863 19.935V19.41C106.863 19.07 106.983 18.78 107.223 18.54C107.473 18.29 107.878 18.165 108.438 18.165C108.998 18.165 109.398 18.29 109.638 18.54C109.888 18.78 110.013 19.07 110.013 19.41V19.935C110.013 20.275 109.888 20.57 109.638 20.82C109.398 21.06 108.998 21.18 108.438 21.18ZM120.417 21C119.957 21 119.587 20.885 119.307 20.655C119.027 20.415 118.862 20.075 118.812 19.635H118.737C118.597 20.145 118.317 20.53 117.897 20.79C117.487 21.05 116.982 21.18 116.382 21.18C115.632 21.18 115.027 20.98 114.567 20.58C114.117 20.17 113.892 19.6 113.892 18.87C113.892 18.06 114.187 17.46 114.777 17.07C115.367 16.68 116.232 16.485 117.372 16.485H118.617V16.095C118.617 15.635 118.507 15.29 118.287 15.06C118.077 14.82 117.717 14.7 117.207 14.7C116.737 14.7 116.357 14.79 116.067 14.97C115.777 15.15 115.527 15.385 115.317 15.675L114.102 14.595C114.362 14.155 114.767 13.795 115.317 13.515C115.877 13.225 116.592 13.08 117.462 13.08C118.522 13.08 119.347 13.325 119.937 13.815C120.537 14.295 120.837 15.025 120.837 16.005V19.395H121.692V21H120.417ZM117.222 19.725C117.612 19.725 117.942 19.63 118.212 19.44C118.482 19.25 118.617 18.975 118.617 18.615V17.685H117.432C116.522 17.685 116.067 17.99 116.067 18.6V18.9C116.067 19.17 116.172 19.375 116.382 19.515C116.592 19.655 116.872 19.725 117.222 19.725ZM127.267 12.27C126.767 12.27 126.417 12.17 126.217 11.97C126.027 11.76 125.932 11.51 125.932 11.22V10.785C125.932 10.485 126.027 10.235 126.217 10.035C126.417 9.835 126.767 9.735 127.267 9.735C127.767 9.735 128.112 9.835 128.302 10.035C128.502 10.235 128.602 10.485 128.602 10.785V11.22C128.602 11.51 128.502 11.76 128.302 11.97C128.112 12.17 127.767 12.27 127.267 12.27ZM123.697 19.275H126.157V14.985H123.697V13.26H128.377V19.275H130.657V21H123.697V19.275Z" fill="white"/>
<path d="M95.1091 21L98.0041 17.07L95.3041 13.26H97.8391L98.6641 14.505L99.2941 15.51H99.4141L100.059 14.505L100.899 13.26H103.224L100.524 16.95L103.419 21H100.869L99.8941 19.545L99.2191 18.51H99.0991L98.4391 19.545L97.4491 21H95.1091Z" fill="#7FA1F3"/>
<path d="M135 0H5C2.23858 0 0 2.23858 0 5V27C0 29.7614 2.23857 32 5 32H135C137.761 32 140 29.7614 140 27V5C140 2.23858 137.761 0 135 0Z" fill="url(#paint5_linear_119_110)"/>
</g>
<defs>
<linearGradient id="paint0_linear_119_110" x1="1187.53" y1="2863.17" x2="1200.83" y2="2845.11" gradientUnits="userSpaceOnUse">
<stop offset="0.32"/>
<stop offset="0.9" stop-opacity="0"/>
</linearGradient>
<linearGradient id="paint1_linear_119_110" x1="278.789" y1="1578.59" x2="265.489" y2="1596.64" gradientUnits="userSpaceOnUse">
<stop offset="0.32"/>
<stop offset="0.9" stop-opacity="0"/>
</linearGradient>
<linearGradient id="paint2_linear_119_110" x1="19" y1="21" x2="15" y2="21" gradientUnits="userSpaceOnUse">
<stop stop-opacity="0"/>
<stop offset="0.7"/>
</linearGradient>
<linearGradient id="paint3_linear_119_110" x1="15" y1="11" x2="19" y2="11" gradientUnits="userSpaceOnUse">
<stop stop-opacity="0"/>
<stop offset="0.7"/>
</linearGradient>
<linearGradient id="paint4_linear_119_110" x1="1" y1="32" x2="33" y2="0" gradientUnits="userSpaceOnUse">
<stop offset="0.1" stop-color="#A56EFF"/>
<stop offset="0.9" stop-color="#0F62FE"/>
</linearGradient>
<linearGradient id="paint5_linear_119_110" x1="0" y1="0" x2="0" y2="32" gradientUnits="userSpaceOnUse">
<stop stop-color="#BBBBBB" stop-opacity="0.1"/>
<stop offset="1" stop-opacity="0.1"/>
</linearGradient>
<clipPath id="clip0_119_110">
<path d="M0 9C0 4.02944 4.02944 0 9 0H131C135.971 0 140 4.02944 140 9V23C140 27.9706 135.971 32 131 32H9C4.02943 32 0 27.9706 0 23V9Z" fill="white"/>
</clipPath>
<clipPath id="clip1_119_110">
<rect width="32" height="32" fill="white"/>
</clipPath>
<clipPath id="clip2_119_110">
<rect width="32" height="32" fill="white" transform="translate(1)"/>
</clipPath>
</defs>
</svg>
